<svg width="473" height="412" viewBox="0 0 473 412" fill="none" xmlns="http://www.w3.org/2000/svg">
<path d="M348.897 300.141C347.282 299.829 345.695 299.301 344.163 298.77C326.679 292.721 309.406 286.292 292.374 279.494C285.183 276.623 277.182 273.153 273.214 267.515C268.71 261.118 270.811 253.865 282.441 255.932C287.363 256.807 291.517 259.351 295.512 261.776C313.249 272.541 331.841 282.484 351.13 291.535C358.563 285.65 365.995 279.764 373.428 273.879C378.2 270.1 383.01 266.296 388.682 263.295C388.773 263.247 388.869 263.199 388.964 263.153C389.261 261.37 389.535 259.88 389.542 259.606C389.677 254.723 388.866 249.777 387.186 244.992C386.785 243.85 386.335 242.626 386.853 241.546C390.184 243.997 392.279 247.275 393.409 250.632C394.539 253.989 394.765 257.447 394.819 260.871C394.85 262.826 394.816 264.827 393.912 266.624C393.453 267.537 392.724 268.392 391.785 269.051C388.938 274.039 383.203 278.029 377.974 281.896C371.695 286.541 365.81 291.489 360.363 296.703C358.509 298.477 356.503 300.386 353.564 300.943C351.802 301.278 350.153 300.897 348.897 300.141Z" fill="#281D16"/>
<path d="M102.419 194.264C103.809 195.143 105.327 195.845 106.807 196.509C123.688 204.078 140.676 211.226 157.742 217.941C164.947 220.776 173.154 223.728 179.906 222.339C187.57 220.763 191.008 214.04 181.119 207.58C176.934 204.846 172.164 203.853 167.594 202.883C147.297 198.576 126.942 193.083 106.688 186.465C105.305 177.086 103.921 167.708 102.538 158.329C101.649 152.307 100.751 146.241 98.6751 140.169C98.6421 140.072 98.606 139.972 98.568 139.872C99.572 138.369 100.393 137.097 100.576 136.892C103.823 133.242 107.802 130.194 112.304 127.86C113.378 127.303 114.544 126.719 114.907 125.577C110.802 125.081 107.03 126.035 103.907 127.707C100.784 129.378 98.251 131.743 95.866 134.2C94.504 135.603 93.1581 137.084 92.5861 139.013C92.2961 139.992 92.2411 141.115 92.4741 142.238C91.1301 147.822 92.5781 154.657 93.7371 161.056C95.1301 168.741 96.0281 176.377 96.4251 183.908C96.5611 186.469 96.715 189.235 98.475 191.654C99.524 193.103 100.986 193.954 102.419 194.264Z" fill="#281D16"/>
<path d="M320.984 350.893C320.237 349.421 319.217 348.051 318.208 346.735C306.687 331.725 294.726 317.054 282.343 302.748C277.114 296.709 270.942 290.085 262.859 288.169C253.687 285.996 244.838 290.589 249.993 301.257C252.175 305.773 256.332 308.952 260.301 312.017C277.922 325.625 294.673 340.361 310.432 356.089C304.486 365.427 298.539 374.765 292.593 384.103C288.775 390.1 284.934 396.141 282.306 402.746C282.264 402.852 282.224 402.961 282.185 403.073C279.962 403.987 278.112 404.776 277.761 404.879C271.529 406.719 265.012 407.654 258.516 407.681C256.965 407.687 255.299 407.676 254.026 408.56C257.886 410.965 262.541 411.871 267.089 411.803C271.637 411.736 276.119 410.748 280.522 409.604C283.036 408.951 285.593 408.218 287.703 406.704C288.774 405.935 289.715 404.922 290.357 403.772C296.14 399.239 300.021 392.226 303.854 385.752C308.458 377.978 313.536 370.483 319.048 363.324C320.923 360.888 322.94 358.255 323.021 355.182C323.066 353.34 322.224 351.858 320.984 350.893Z" fill="#281D16"/>
<path d="M88.485 252.055C90.057 251.553 91.749 251.317 93.395 251.113C112.171 248.779 131.017 246.998 149.899 245.773C157.87 245.256 166.92 245.002 173.959 249.414C181.946 254.42 184.888 263.946 173.671 267.765C168.925 269.381 163.742 268.654 158.773 267.979C136.71 264.983 114.459 263.399 92.1939 263.219C89.7179 274.009 87.2429 284.8 84.7669 295.59C83.1769 302.519 81.572 309.495 78.713 316.004C78.667 316.108 78.617 316.213 78.566 316.319C79.475 318.543 80.212 320.416 80.384 320.737C83.45 326.467 87.359 331.764 91.901 336.409C92.985 337.518 94.164 338.696 94.427 340.224C90.003 339.163 86.092 336.485 82.947 333.199C79.802 329.913 77.358 326.027 75.083 322.089C73.783 319.841 72.51 317.504 72.107 314.939C71.902 313.637 71.964 312.256 72.332 310.991C71.5 303.69 73.7699 296.003 75.6889 288.729C77.9929 279.992 79.766 271.115 80.994 262.163C81.412 259.118 81.872 255.833 84.004 253.619C85.28 252.29 86.927 251.85 88.485 252.055Z" fill="#281D16"/>
<path d="M299.07 44.7649C298.647 46.6279 298.647 48.5859 299.068 50.4489C299.252 51.2629 299.56 52.1199 300.258 52.5759C300.794 52.9259 301.469 52.9749 302.109 52.9599C303.713 52.9229 305.351 52.5209 306.625 51.5449C307.897 50.5689 308.742 48.9569 308.533 47.3659C310.309 50.1239 312.897 53.2849 311.733 58.8859C311.248 61.2209 308.596 61.7689 306.642 63.1369C305.176 64.1629 303.275 64.3549 301.492 64.1999C297.112 63.8169 291.044 60.0739 290.167 55.3009C289.271 50.4169 294.695 45.4939 299.07 44.7649Z" fill="#3A2B20"/>
<path d="M307.097 234.038C306.856 221.657 304.807 209.562 301.034 198.201C297.495 187.545 297.745 175.577 288.514 168.707C283.119 164.692 276.509 162.861 269.927 161.549C267.351 161.036 264.721 160.603 262.066 160.296L262.226 159.914C260.143 158.239 257.988 156.67 255.814 155.196C250.259 151.429 244.315 148.007 237.668 146.984C226.296 145.234 217.948 153.814 207.875 158.774C197.136 164.063 187.085 171.095 178.098 179.615C160.168 196.615 146.523 219.29 140.586 243.824C134.725 268.051 135.984 293.174 140.996 316.619C146.008 340.065 154.652 362.078 163.563 383.79C164.32 385.633 165.154 387.555 166.369 389.015L166.21 389.397C168.102 389.237 170.057 388.482 171.9 387.727C193.619 378.83 215.363 369.532 235.579 356.641C255.795 343.75 274.569 327.009 287.707 305.827C301.01 284.378 307.577 258.741 307.097 234.038Z" fill="#3A2B20"/>
<path d="M145.613 335.027C150.535 351.727 156.923 367.82 163.46 383.749C164.217 385.592 165.052 387.514 166.267 388.974L166.107 389.356C168 389.196 169.955 388.441 171.798 387.686C187.111 381.413 202.436 374.934 217.231 367.143C192.178 360.552 169.006 347.408 145.613 335.027Z" fill="#E8BB28"/>
<path d="M136.67 282.801C170.069 311.096 217.179 334.471 262.923 335.266C275.854 322.83 277.612 321.894 287.604 305.785C291.332 299.776 294.529 293.437 297.192 286.883C289.052 289.308 280.517 290.409 272.029 290.104C256.992 289.563 242.485 284.717 228.224 279.917C198.571 269.936 170.692 250.111 144.001 231.917C142.634 235.812 141.453 239.771 140.483 243.781C136.728 259.306 135.464 267.218 136.67 282.801Z" fill="#E8BB28"/>
<path d="M206.519 207.988C229.637 219.031 253.386 228.752 277.611 237.087C287.099 240.352 296.822 243.424 306.797 244.112C306.99 240.731 307.061 237.355 306.995 233.995C306.754 221.614 304.705 209.519 300.932 198.158C297.394 187.503 297.643 175.534 288.412 168.664C283.017 164.648 276.407 162.818 269.825 161.506C267.249 160.993 264.619 160.56 261.964 160.253L262.124 159.871C260.041 158.196 257.887 156.627 255.713 155.153C250.158 151.387 244.213 147.965 237.567 146.941C226.194 145.191 217.846 153.771 207.774 158.732C197.034 164.021 186.983 171.052 177.997 179.573C175.853 181.605 173.773 183.721 171.759 185.908C181.47 195.324 194.142 202.076 206.519 207.988Z" fill="#E8BB28"/>
<path d="M277.409 36.8059C277.069 32.4669 275.918 28.2369 274.772 24.0369C274.576 23.3179 274.369 22.5759 273.899 21.9969C272.466 20.2319 269.672 20.9159 267.56 21.7539C266.866 22.0289 266.121 22.3479 265.75 22.9969C265.275 23.8269 265.588 24.8659 265.916 25.7639C268.596 33.0749 271.8 40.3749 272.25 48.1479C272.354 49.9609 272.312 51.8119 272.844 53.5479C273.665 56.2299 278.205 59.6029 279.6 55.5869C280.482 53.0489 277.6 39.2429 277.409 36.8059Z" fill="#281D16"/>
<path d="M243.936 1.91395C242.605 1.18895 241.158 0.447941 239.654 0.636941C240.166 1.19094 240.787 1.62794 241.401 2.06394C250.871 8.78394 259.823 16.2309 268.156 24.3179C269.098 25.2329 270.547 26.2029 271.584 25.3959C276.97 21.1979 247.2 3.69295 243.936 1.91395Z" fill="#281D16"/>
<path d="M334.986 63.923C338.107 60.888 341.764 58.471 345.397 56.074C346.019 55.663 346.665 55.243 347.4 55.118C349.64 54.739 351.289 57.097 352.321 59.121C352.66 59.786 353.009 60.5179 352.859 61.2489C352.668 62.1849 351.747 62.76 350.907 63.217C344.068 66.939 336.843 70.3059 331.372 75.8469C330.097 77.1389 328.906 78.5569 327.36 79.5109C324.973 80.9829 319.336 80.5189 320.94 76.5819C321.954 74.0939 333.234 65.627 334.986 63.923Z" fill="#281D16"/>
<path d="M383.165 59.818C384.643 60.152 386.22 60.551 387.224 61.686C386.474 61.765 385.719 61.683 384.97 61.604C373.421 60.399 361.78 60.082 350.183 60.654C348.87 60.719 347.142 60.491 346.896 59.2C345.622 52.491 379.538 58.999 383.165 59.818Z" fill="#281D16"/>
<path d="M162.076 107.328C163.002 108.695 164.185 109.926 165.352 111.104C178.665 124.549 192.373 137.602 206.456 150.24C212.401 155.576 219.356 161.372 227.616 162.258C236.989 163.263 245.19 157.595 238.737 147.658C236.006 143.452 231.483 140.819 227.161 138.277C207.97 126.988 189.503 114.473 171.893 100.847C176.62 90.8359 181.346 80.8259 186.074 70.8149C189.109 64.3869 192.162 57.9119 193.939 51.0289C193.967 50.9189 193.994 50.8049 194.019 50.6899C196.108 49.5049 197.846 48.4889 198.18 48.3429C204.132 45.7359 210.479 43.9889 216.921 43.1469C218.458 42.9459 220.113 42.7489 221.266 41.7109C217.134 39.8089 212.403 39.4949 207.9 40.1329C203.397 40.7699 199.073 42.3129 194.849 44.0009C192.438 44.9639 189.992 46.0129 188.089 47.7799C187.123 48.6769 186.318 49.8009 185.824 51.0219C180.655 56.2449 177.686 63.6899 174.695 70.5939C171.104 78.8859 167.007 86.958 162.437 94.752C160.882 97.404 159.212 100.27 159.518 103.328C159.702 105.162 160.725 106.526 162.076 107.328Z" fill="#281D16"/>
<path d="M356.265 200.077C354.617 200.178 352.919 199.99 351.274 199.785C332.5 197.437 313.794 194.535 295.189 191.086C287.335 189.63 278.5 187.653 272.759 181.649C266.245 174.835 265.735 164.879 277.544 163.931C282.543 163.53 287.388 165.508 292.039 167.382C312.69 175.703 333.873 182.703 355.411 188.345C360.461 178.493 365.51 168.641 370.559 158.789C373.801 152.463 377.071 146.094 381.44 140.487C381.51 140.397 381.585 140.307 381.661 140.217C381.326 137.838 381.071 135.841 380.983 135.487C379.419 129.18 376.93 123.086 373.668 117.467C372.89 116.126 372.036 114.695 372.155 113.149C376.183 115.263 379.317 118.82 381.559 122.778C383.801 126.735 385.215 131.102 386.455 135.479C387.162 137.978 387.823 140.555 387.584 143.141C387.462 144.454 387.063 145.777 386.396 146.913C385.41 154.194 381.321 161.088 377.674 167.669C373.295 175.573 369.397 183.743 366.009 192.119C364.856 194.969 363.604 198.039 360.993 199.663C359.429 200.636 357.725 200.658 356.265 200.077Z" fill="#281D16"/>
<path d="M319.891 151.064C321.277 151.961 322.635 152.895 323.963 153.863C322.215 132.466 303.9 110.961 281.597 104.105L281.678 103.911C261.138 92.841 232.966 94.897 216.501 108.673C218.122 108.94 219.741 109.252 221.353 109.609C212.545 114.839 206.193 122.931 203.576 132.255C204.615 131.615 205.923 131.289 207.274 131.334C201.15 139.241 197.99 149.065 198.3 159.23C199.561 158.543 200.822 157.856 202.084 157.169C200.73 164.102 200.96 171.445 202.757 178.668C204.598 177.455 206.439 176.241 208.278 175.027C209.185 184.652 212.163 194.363 217.006 203.495C218.05 201.894 219.772 200.691 221.814 200.136C222.346 202.826 223.675 205.482 225.628 207.765C226.331 206.788 227.034 205.812 227.737 204.836C230.079 207.777 233.454 210.452 235.907 213.306L235.827 213.5C239.581 213.243 243.855 213.77 247.594 213.372C247.393 214.558 247.191 215.745 246.99 216.931C249.987 216.72 252.811 215.801 255.1 214.292C256.138 216.136 256.491 218.207 256.083 220.074C265.986 217.112 274.992 212.414 282.483 206.303C282.911 208.466 283.338 210.628 283.766 212.791C290.17 209 295.561 204.009 299.548 198.177C299.944 199.558 300.341 200.939 300.737 202.32C308.193 195.404 312.97 186.256 314.302 176.345C315.282 177.276 315.969 178.436 316.242 179.625C321.046 171.212 322.35 161.008 319.891 151.064Z" fill="#3A2B20"/>
<path d="M333.575 80.0599C328.442 71.1709 317.948 64.6329 309.491 58.9999C307.99 57.9999 306.302 57.108 304.489 56.321C302.657 55.583 300.836 55.007 299.07 54.639C289.121 52.572 277.098 49.687 267.165 52.273C253.265 55.891 244.983 69.5509 243.95 83.2289C243.487 89.3469 244.335 95.936 248.23 101.127C252.537 106.865 259.743 109.92 266.555 112.68C270.646 114.338 274.737 115.996 278.826 117.654C282.879 119.404 286.931 121.153 290.984 122.902C297.732 125.815 304.966 128.802 312.076 127.841C318.508 126.971 323.795 122.948 327.827 118.324C336.843 107.986 340.757 92.4989 333.575 80.0599Z" fill="#6D4F39"/>
<path d="M278.147 48.344C272.685 47.38 267.055 48.096 261.657 49.369C256.386 50.614 251.129 52.449 246.887 55.819C242.646 59.188 239.532 64.305 239.625 69.721C239.736 76.182 244.443 81.943 250.267 84.748C256.088 87.553 262.828 87.822 269.252 87.126C274.409 86.566 279.578 85.39 284.11 82.869C288.643 80.348 292.509 76.365 294.136 71.439C297.795 60.36 288.626 50.193 278.147 48.344Z" fill="#3A2B20"/>
<path d="M295.06 71.8139C298.091 62.6329 292.31 54.0819 284.278 50.3689C286.749 54.2989 287.687 59.0729 286.049 64.0319C284.423 68.9569 280.557 72.9399 276.025 75.4609C271.492 77.9819 266.323 79.1579 261.167 79.7179C254.977 80.3889 248.498 80.1559 242.826 77.6309C244.772 80.8369 247.791 83.4839 251.191 85.1219C257.013 87.9269 263.753 88.1959 270.177 87.4989C275.333 86.9399 280.502 85.7639 285.035 83.2419C289.567 80.7219 293.434 76.7389 295.06 71.8139Z" fill="#231A14"/>
<path d="M326.202 68.45C330.722 71.663 334.165 76.1749 337.048 80.9119C339.862 85.5399 342.246 90.573 342.824 95.958C343.401 101.344 341.944 107.154 338.022 110.889C333.341 115.346 325.934 116.037 319.85 113.86C313.764 111.683 308.842 107.073 304.828 102.008C301.606 97.943 298.815 93.4359 297.429 88.4379C296.041 83.4399 296.163 77.891 298.53 73.275C303.851 62.894 317.528 62.286 326.202 68.45Z" fill="#3A2B20"/>
<path d="M297.614 72.8829C302.024 64.2779 312.172 62.393 320.456 65.506C315.923 66.506 311.864 69.1889 309.482 73.8369C307.116 78.4529 306.995 84.0019 308.381 88.9999C309.768 93.9979 312.559 98.5049 315.78 102.57C319.648 107.449 324.361 111.9 330.142 114.166C326.493 115.03 322.488 114.739 318.934 113.468C312.849 111.291 307.927 106.681 303.912 101.616C300.69 97.5509 297.899 93.0439 296.513 88.0459C295.127 83.0479 295.249 77.4989 297.614 72.8829Z" fill="#231A14"/>
<path opacity="0.23" d="M253.078 57.1679C250.595 58.6719 248.142 60.4429 246.712 62.9709C245.282 65.4979 245.137 68.9519 247.066 71.1229C247.791 71.9389 248.798 72.5369 249.886 72.6229C251.564 72.7549 253.128 71.6669 254.142 70.3249C255.156 68.9829 255.76 67.3829 256.565 65.9049C259.023 61.3899 263.492 58.0209 268.509 56.8999C269.722 56.6289 271.029 56.4529 271.98 55.6529C273.35 54.4999 272.914 52.2109 271.425 51.3539C269.882 50.4659 267.245 51.3949 265.661 51.7829C261.209 52.8709 256.989 54.7989 253.078 57.1679Z" fill="white"/>
<path opacity="0.23" d="M315.814 71.5129C315.608 71.9729 315.482 72.4799 315.538 72.9819C315.694 74.4009 317.143 75.2419 318.365 75.9819C321.567 77.9209 324.263 80.6879 326.119 83.9389C326.536 84.6689 326.924 85.4399 327.55 86.0029C328.175 86.5659 329.116 86.8749 329.872 86.5049C330.284 86.3029 330.589 85.9269 330.809 85.5229C331.745 83.8019 331.287 81.6789 330.688 79.8139C329.55 76.2699 327.88 72.7269 324.954 70.4289C322.282 68.3309 317.477 67.7929 315.814 71.5129Z" fill="white"/>
<path opacity="0.51" d="M200.162 110.93C156.276 103.802 110.869 100.484 67.696 111.112C57.171 113.703 47.417 118.413 37.921 123.64C-5.13202 147.341 -2.03008 182.378 2.50192 199.732C6.53692 215.183 20.659 226.459 35.943 231.083C51.227 235.707 67.613 234.704 83.464 232.768C105.652 230.057 128.53 225.202 146.161 211.461C155.968 203.818 163.651 193.793 173.018 185.619C184.6 175.511 198.739 168.356 213.742 165.008C224.275 162.658 235.491 162.053 244.886 156.741C257.828 149.422 262.725 132.549 248.374 124.869C233.501 116.91 216.655 113.608 200.162 110.93Z" fill="#C5DFE2"/>
<path d="M103.35 221.455C103.27 212.461 101.89 203.556 99.136 195.04C99.166 195.044 99.1971 195.047 99.2271 195.051C110.378 196.436 116.679 202.68 121.281 208.628C124.332 212.563 126.219 215.573 130.698 220.884C131.849 220.346 132.988 219.788 134.113 219.202C129.937 214.347 128.155 211.559 125.091 207.522C118.096 198.306 110.244 192.013 97.799 191.218C94.776 183.215 91.019 177.471 89.135 169.936C89.844 169.171 90.521 168.375 91.155 167.538C93.885 163.928 95.943 159.911 98.087 155.941C100.404 151.65 102.661 147.704 106.291 144.509C106.35 144.458 106.614 144.233 106.662 144.19C106.841 144.045 107.023 143.905 107.207 143.767C121.222 141.986 135.027 138.567 148.885 135.82C149.361 136.205 150.025 136.375 150.597 136.178C151.093 136.008 151.469 135.683 151.69 135.275C152.041 135.208 152.391 135.14 152.742 135.075C171.31 131.591 190.142 130.504 208.94 132.696C225.018 134.571 240.875 138.611 255.865 144.738C256.34 143.567 256.693 142.376 256.916 141.182C244.055 135.963 230.599 132.216 216.881 130.06C198.334 127.143 179.461 127.1 160.904 129.94C157.679 130.434 154.468 131 151.263 131.61C148.353 121.041 144.044 112.914 138.345 104.469C136.818 104.422 135.289 104.382 133.763 104.355C140.293 113.893 144.516 121.212 147.609 132.323C132.059 135.43 116.638 139.322 100.819 140.734C93.989 141.344 87.243 141.322 80.498 140.774C83.702 132.848 83.524 123.987 81.818 115.659C81.32 113.226 80.675 110.84 79.942 108.485C78.722 108.712 77.505 108.952 76.29 109.199C76.836 110.932 77.331 112.682 77.756 114.453C77.864 114.905 77.965 115.358 78.064 115.811C71.049 115.505 65.198 114.886 58.814 113.861C56.635 114.655 54.483 115.522 52.356 116.453C53.127 116.619 53.899 116.774 54.673 116.916C62.027 118.262 70.408 119.212 78.774 119.546C78.777 119.574 78.78 119.597 78.782 119.612C79.828 126.504 79.609 133.899 76.709 140.241C76.684 140.295 76.6581 140.348 76.6331 140.402C74.4731 140.163 72.311 139.875 70.144 139.535C59.892 137.926 49.7551 136.286 39.3361 136.809C31.4581 137.205 23.712 138.487 16.088 140.335C14.61 141.936 13.261 143.554 12.026 145.184C18.741 143.34 25.553 141.902 32.489 141.099C42.735 139.913 52.778 140.528 62.938 142.129C67.297 142.815 71.6311 143.488 75.9771 144.005C76.1291 144.219 76.327 144.401 76.575 144.523C77.267 144.863 78.096 144.777 78.665 144.301C83.47 144.795 88.294 145.065 93.184 144.913C95.875 144.83 98.554 144.658 101.225 144.417C95.162 151.426 92.65 160.478 86.726 167.081C86.642 167.094 86.559 167.112 86.479 167.139C85.724 167.399 85.287 167.978 85.194 168.677C80.575 173.18 74.803 176.31 69.328 180.403C69.118 180.56 68.908 180.719 68.699 180.879C63.729 178.06 58.228 176.188 52.614 175.174C39.367 172.784 26.373 174.804 13.339 178.614C8.89299 179.914 4.50599 181.403 0.140991 182.952C0.178991 184.266 0.253962 185.552 0.360962 186.805C4.00196 185.506 7.65802 184.246 11.348 183.095C23.829 179.2 36.5191 176.615 49.4351 178.412C55.9021 179.317 60.9889 181.01 65.5909 183.418C64.8849 184.042 64.198 184.688 63.54 185.36C61.764 187.173 60.212 189.193 58.8 191.298C56.093 195.336 53.992 199.736 51.77 204.048C49.535 208.384 47.021 212.661 44.14 216.372C41.167 220.2 37.82 223.726 34.257 227.007C33.33 227.86 32.409 228.679 31.486 229.477C32.801 229.999 34.132 230.47 35.474 230.891C42.323 224.795 48.397 217.849 52.896 209.82C55.31 205.511 57.357 201.007 59.812 196.72C64.034 189.348 67.482 186.109 74.292 181.408C76.324 180.006 78.3909 178.653 80.4139 177.238C82.3689 175.871 84.2939 174.436 86.0959 172.868C88.3749 180.398 91.888 185.492 94.95 194.157C95.921 196.902 96.745 199.699 97.423 202.531C97.59 203.23 97.747 203.932 97.897 204.635C89.931 206.401 84.025 210.343 78.436 216.294C72.475 222.641 67.9009 229.888 61.1479 234.38C63.2089 234.375 65.274 234.318 67.339 234.219C69.448 232.325 71.364 230.224 73.208 228.073C75.45 225.457 77.5989 222.76 79.8979 220.193C85.0999 214.384 90.321 210.193 98.578 208.273C99.19 211.882 99.515 215.906 99.606 219.536C99.698 223.139 99.6109 226.742 99.5389 230.345C100.786 230.113 102.031 229.868 103.272 229.612C103.321 226.896 103.373 224.176 103.35 221.455Z" fill="#AAC0C1"/>
<path opacity="0.8" d="M97.333 110.418C77.786 114.005 58.259 119.912 42.017 131.365C25.775 142.818 13.109 160.479 11.22 180.263C10.16 191.374 12.95 203.478 21.261 210.929C25.762 214.965 31.555 217.355 37.48 218.558C42.868 219.652 48.984 219.648 53.254 216.185C57.871 212.44 58.9329 205.726 58.0849 199.843C57.2359 193.959 54.8529 188.39 53.8719 182.527C51.0299 165.544 60.692 148.255 74.515 137.986C88.337 127.716 105.659 123.371 122.708 120.959C126.387 120.438 130.391 119.844 132.942 117.142C123.731 109.585 108.689 108.333 97.333 110.418Z" fill="white"/>
<path opacity="0.8" d="M140.99 119.162C142.583 120.755 145.146 120.628 147.396 120.516C151.353 120.319 155.33 120.507 159.25 121.078C164.46 121.836 170.223 123.16 174.65 120.311C175.649 119.668 176.568 118.754 176.802 117.588C177.1 116.096 176.167 114.574 174.907 113.719C173.648 112.864 172.116 112.535 170.626 112.224C163.614 110.76 156.65 109.547 149.463 110.256C145.936 110.604 135.45 113.619 140.99 119.162Z" fill="white"/>
<path opacity="0.51" d="M344.416 166.609C383.51 187.787 421.478 212.911 449.155 247.709C455.902 256.191 460.743 265.88 465.065 275.822C484.658 320.893 460.792 346.73 446.597 357.696C433.961 367.459 415.891 367.755 400.968 362.073C386.044 356.392 373.687 345.584 362.323 334.365C346.419 318.659 331.276 300.834 325.719 279.182C322.628 267.14 322.674 254.509 320.255 242.314C317.264 227.236 310.446 212.931 300.616 201.113C293.715 192.816 285.208 185.482 281.019 175.537C275.247 161.833 281.684 145.486 297.735 148.178C314.372 150.968 329.725 158.649 344.416 166.609Z" fill="#C5DFE2"/>
<path d="M353.5 313.258C359.059 306.188 365.593 299.983 372.978 294.926C372.952 294.91 372.925 294.894 372.9 294.88C363.225 289.161 354.422 290.252 347.146 292.148C342.326 293.399 338.993 294.627 332.202 296.094C331.621 294.966 331.06 293.827 330.527 292.676C336.799 291.385 339.914 290.267 344.805 288.946C355.975 285.926 366.035 285.744 376.373 292.72C383.655 288.234 390.14 285.983 396.236 281.171C396.142 280.132 396.093 279.088 396.102 278.038C396.147 273.511 396.974 269.074 397.703 264.622C398.491 259.809 399.118 255.307 398.196 250.559C398.18 250.483 398.109 250.142 398.097 250.08C398.044 249.855 397.985 249.633 397.925 249.41C387.92 239.435 379.081 228.293 369.792 217.651C369.182 217.665 368.552 217.393 368.218 216.887C367.93 216.449 367.83 215.963 367.905 215.505C367.67 215.237 367.433 214.969 367.195 214.703C354.627 200.598 340.385 188.228 324.168 178.475C310.297 170.133 295.276 163.639 279.667 159.328C280.006 158.112 280.454 156.953 281.008 155.872C294.378 159.601 307.319 164.859 319.494 171.535C335.958 180.562 350.922 192.062 363.874 205.65C366.126 208.011 368.32 210.422 370.485 212.864C379.247 206.277 387.624 202.477 397.296 199.277C398.534 200.172 399.769 201.075 400.993 201.987C389.994 205.547 382.179 208.758 372.941 215.662C383.351 227.623 393.177 240.129 404.836 250.915C409.87 255.572 415.223 259.677 420.898 263.366C423.206 255.134 428.761 248.229 435.201 242.681C437.082 241.059 439.05 239.565 441.07 238.148C441.897 239.074 442.714 240.007 443.524 240.946C442.033 241.984 440.572 243.068 439.153 244.209C438.791 244.499 438.435 244.798 438.08 245.096C443.819 249.141 448.829 252.226 454.508 255.318C455.747 257.278 456.922 259.279 458.035 261.316C457.325 260.976 456.618 260.628 455.918 260.266C449.275 256.837 442.061 252.468 435.235 247.62C435.214 247.64 435.199 247.657 435.188 247.666C430.149 252.482 425.803 258.469 424.221 265.262C424.207 265.321 424.197 265.378 424.183 265.436C426.039 266.567 427.926 267.661 429.85 268.716C438.948 273.707 447.974 278.603 455.9 285.387C461.894 290.515 467.242 296.263 472.146 302.386C472.337 304.555 472.417 306.661 472.398 308.705C468.21 303.14 463.696 297.84 458.699 292.967C451.313 285.766 442.988 280.114 433.967 275.174C430.097 273.053 426.254 270.937 422.499 268.691C422.248 268.768 421.979 268.791 421.71 268.736C420.955 268.581 420.352 268.008 420.191 267.283C416.087 264.737 412.102 262.002 408.325 258.895C406.246 257.185 404.23 255.411 402.262 253.587C402.778 262.841 399.235 271.54 399.888 280.388C399.947 280.45 400.001 280.514 400.048 280.584C400.486 281.251 400.479 281.977 400.125 282.587C401.028 288.975 403.684 294.979 405.518 301.565C405.589 301.818 405.658 302.072 405.724 302.327C411.381 303.132 416.879 305.012 421.943 307.641C433.889 313.845 442.939 323.386 450.927 334.366C453.652 338.113 456.215 341.972 458.722 345.866C457.889 346.884 457.044 347.855 456.195 348.781C454.107 345.529 451.984 342.298 449.765 339.13C442.265 328.419 433.802 318.617 422.48 312.147C416.809 308.912 411.748 307.143 406.633 306.236C406.81 307.163 406.959 308.093 407.07 309.027C407.367 311.547 407.361 314.095 407.192 316.625C406.867 321.475 405.841 326.241 404.965 331.013C404.084 335.811 403.459 340.733 403.472 345.431C403.487 350.277 403.981 355.114 404.794 359.888C405.007 361.13 405.234 362.341 405.481 363.537C404.12 363.146 402.779 362.705 401.46 362.219C399.763 353.208 399.2 343.998 400.546 334.893C401.268 330.008 402.401 325.191 403.077 320.299C404.241 311.883 403.491 307.212 400.973 299.329C400.221 296.977 399.412 294.643 398.676 292.287C397.964 290.01 397.317 287.698 396.848 285.355C390.444 289.922 384.549 291.807 376.83 296.795C374.384 298.374 372.022 300.083 369.755 301.912C369.195 302.363 368.643 302.822 368.095 303.287C373.321 309.554 375.586 316.283 376.372 324.409C377.212 333.076 376.402 341.607 379.003 349.29C377.375 348.026 375.775 346.718 374.201 345.378C373.688 342.591 373.455 339.755 373.312 336.927C373.135 333.485 373.083 330.038 372.833 326.601C372.265 318.824 370.693 312.316 365.331 305.75C362.641 308.232 359.925 311.218 357.634 314.036C355.36 316.831 353.227 319.737 351.082 322.633C350.236 321.688 349.4 320.733 348.575 319.771C350.196 317.582 351.818 315.398 353.5 313.258Z" fill="#AAC0C1"/>
<path opacity="0.65" d="M401.993 229.314C412.968 238.994 421.467 252.07 423.361 266.58C425.257 281.09 419.694 296.92 407.663 305.248C400.255 310.376 389.975 313.613 387.629 322.313C385.418 330.51 392.249 338.72 400.056 342.059C407.831 345.384 416.933 345.47 424.769 342.293C433.092 338.919 439.732 332.092 443.985 324.183C448.238 316.273 450.257 307.325 451.09 298.383C452.249 285.942 451.085 272.958 445.356 261.854C441.212 253.826 434.903 247.159 428.677 240.609C422.029 233.614 414.234 221.583 405.454 217.349C402.191 215.775 396.781 215.077 395.616 219.593C394.624 223.436 399.589 227.192 401.993 229.314Z" fill="white"/>
<path opacity="0.65" d="M384.864 208.692C386.627 210.194 388.789 212.009 390.966 211.215C392.991 210.476 393.608 207.714 392.777 205.724C391.945 203.735 390.132 202.358 388.398 201.077C384.675 198.329 364.439 181.886 359.924 188.718C356.069 194.553 381.374 205.721 384.864 208.692Z" fill="white"/>
<path opacity="0.28" d="M170.848 203.572C164.285 210.468 160.518 219.541 157.697 228.634C153.017 243.721 150.584 260.046 154.727 275.289C156.077 280.254 159.488 285.933 164.607 285.416C167.523 285.122 169.869 282.731 171.051 280.051C172.234 277.37 172.492 274.391 172.907 271.491C174.926 257.389 181.071 243.903 190.389 233.127C194.002 228.95 198.089 225.156 201.216 220.604C204.342 216.052 206.477 210.476 205.518 205.037C202.267 186.595 179.286 194.705 170.848 203.572Z" fill="white"/>
<path opacity="0.28" d="M152.683 299.226C152.523 303.626 153.452 307.997 154.668 312.228C155.587 315.424 156.704 318.632 158.703 321.289C160.702 323.946 163.724 326.009 167.047 326.139C168.191 326.184 169.369 325.991 170.351 325.402C172.81 323.927 173.281 320.617 173.408 317.753C173.594 313.526 173.596 309.29 173.412 305.063C173.097 297.801 170.526 293.421 163.346 291.29C157.12 289.44 152.944 292.047 152.683 299.226Z" fill="white"/>
</svg>
