<svg width="613" height="433" viewBox="0 0 613 433" fill="none" xmlns="http://www.w3.org/2000/svg">
<path d="M185.573 183.445C183.551 183.543 181.443 183.663 179.772 184.573C177.778 185.659 176.752 187.678 175.971 189.644C173.032 197.043 172.198 205.073 171.562 213.036C170.085 231.543 169.562 250.174 169.994 268.853C170.073 272.254 170.232 275.819 172.162 278.896C173.495 281.021 175.567 282.733 177.635 284.364C183.965 289.358 190.63 294.017 197.573 298.305C193.794 294.491 190.015 290.677 186.237 286.862C184.508 285.117 182.75 283.332 181.7 281.236C180.522 278.882 180.325 276.312 180.174 273.808C178.717 249.651 179.918 225.554 183.753 201.962C201.664 201.246 219.575 200.529 237.486 199.812C241.182 199.665 245.191 199.406 247.762 197.22C252.172 193.47 249.816 186.706 245.414 183.188C240.659 179.387 237.132 180.549 231.551 181.083C216.398 182.533 200.857 182.706 185.573 183.445Z" fill="#281D16"/>
<path d="M212.965 243.325C211.004 242.825 208.953 242.321 207.088 242.7C204.864 243.153 203.29 244.782 201.965 246.431C196.982 252.641 193.827 260.072 190.881 267.496C184.033 284.753 178.061 302.408 172.989 320.391C172.065 323.665 171.171 327.12 172.112 330.628C172.762 333.051 174.24 335.296 175.738 337.463C180.322 344.095 185.324 350.507 190.703 356.645C188.211 351.889 185.719 347.133 183.227 342.377C182.087 340.202 180.93 337.978 180.543 335.667C180.108 333.071 180.674 330.556 181.265 328.118C186.968 304.599 195.193 281.917 205.788 260.492C223.12 265.068 240.451 269.643 257.783 274.219C261.36 275.163 265.267 276.094 268.367 274.759C273.684 272.469 273.419 265.312 270.244 260.656C266.815 255.626 263.102 255.702 257.61 254.573C242.699 251.506 227.792 247.107 212.965 243.325Z" fill="#281D16"/>
<path d="M224.483 321.726C222.648 322.581 220.741 323.488 219.537 324.962C218.101 326.721 217.914 328.978 217.933 331.093C218.006 339.054 220.267 346.804 222.686 354.417C228.308 372.111 234.86 389.56 242.315 406.692C243.672 409.811 245.167 413.052 248.116 415.172C250.153 416.636 252.719 417.439 255.249 418.168C262.996 420.401 270.927 422.199 278.976 423.546C274.036 421.442 269.097 419.337 264.157 417.232C261.897 416.269 259.595 415.28 257.832 413.736C255.852 412.001 254.699 409.696 253.614 407.435C243.141 385.617 235.152 362.851 229.793 339.558C246.107 332.13 262.421 324.701 278.735 317.273C282.102 315.74 285.715 313.987 287.27 310.992C289.937 305.854 285.202 300.481 279.796 298.886C273.958 297.163 271.131 299.571 266.165 302.173C252.681 309.239 238.356 315.268 224.483 321.726Z" fill="#281D16"/>
<path d="M495.147 292.469C496.929 293.38 498.781 294.345 499.903 295.749C501.242 297.424 501.314 299.431 501.187 301.295C500.71 308.311 498.068 314.953 495.275 321.46C488.785 336.585 481.38 351.412 473.094 365.883C471.585 368.518 469.935 371.248 466.893 372.864C464.792 373.981 462.2 374.468 459.645 374.893C451.825 376.196 443.844 377.1 435.768 377.595C440.788 376.164 445.809 374.732 450.831 373.301C453.128 372.646 455.469 371.972 457.301 370.762C459.359 369.402 460.622 367.468 461.818 365.567C473.343 347.223 482.447 327.828 488.961 307.742C473.108 299.786 457.257 291.829 441.404 283.873C438.133 282.231 434.627 280.373 433.231 277.598C430.838 272.836 435.823 268.505 441.281 267.562C447.177 266.544 449.867 268.912 454.675 271.634C467.73 279.027 481.675 285.579 495.147 292.469Z" fill="#281D16"/>
<path d="M452.47 207.691C454.452 207.412 456.522 207.138 458.247 207.642C460.305 208.243 461.518 209.844 462.485 211.442C466.128 217.458 467.782 224.412 469.237 231.342C472.618 247.45 475.081 263.839 476.617 280.444C476.896 283.467 477.115 286.651 475.555 289.721C474.477 291.842 472.635 293.731 470.789 295.547C465.139 301.108 459.126 306.434 452.803 311.481C456.088 307.424 459.374 303.367 462.66 299.31C464.163 297.454 465.691 295.557 466.495 293.513C467.397 291.217 467.32 288.908 467.205 286.666C466.094 265.03 462.396 243.926 456.184 223.746C438.639 226.346 421.093 228.946 403.548 231.546C399.927 232.083 395.99 232.578 393.253 231.107C388.559 228.586 390.148 222.176 394.072 218.268C398.311 214.047 401.874 214.438 407.374 213.903C422.308 212.449 437.484 209.796 452.47 207.691Z" fill="#281D16"/>
<path d="M221.118 80.655C217.582 74.892 213.001 69.8549 208.449 64.8549C207.669 63.9989 206.857 63.1189 205.799 62.6499C202.571 61.2219 199.188 64.141 196.86 66.793C196.095 67.665 195.289 68.633 195.235 69.792C195.165 71.275 196.332 72.492 197.421 73.502C206.292 81.722 215.883 89.5559 221.998 99.9899C223.424 102.424 224.673 105.015 226.636 107.041C229.667 110.171 238.331 111.629 237.423 105.088C236.846 100.952 223.104 83.891 221.118 80.655Z" fill="#281D16"/>
<path d="M150.16 56.04C147.806 55.977 145.28 55.975 143.335 57.3C144.433 57.705 145.601 57.87 146.759 58.04C164.606 60.645 182.253 64.621 199.493 69.92C201.444 70.519 204.133 70.839 204.997 68.989C209.481 59.374 155.933 56.194 150.16 56.04Z" fill="#281D16"/>
<path d="M268.197 65.3399C268.411 58.5819 269.891 51.9359 271.365 45.3379C271.617 44.2079 271.886 43.0409 272.573 42.1089C274.668 39.2679 279.053 40.1259 282.391 41.2749C283.488 41.6529 284.667 42.0929 285.288 43.0729C286.084 44.3259 285.674 45.9629 285.23 47.3789C281.601 58.9159 277.157 70.4739 277.02 82.5679C276.988 85.3889 277.188 88.2569 276.488 90.9899C275.407 95.2109 268.606 100.773 266.152 94.6419C264.601 90.7649 268.077 69.1349 268.197 65.3399Z" fill="#281D16"/>
<path d="M317.615 8.78205C319.627 7.56105 321.82 6.30606 324.167 6.49206C323.414 7.38806 322.481 8.11205 321.56 8.83205C307.353 19.9441 293.998 32.1451 281.654 45.2951C280.258 46.7821 278.081 48.393 276.414 47.215C267.751 41.09 312.679 11.778 317.615 8.78205Z" fill="#281D16"/>
<path d="M215.787 165.845C212.201 156.175 210.123 145.826 210.844 135.537C211.565 125.248 215.22 115.015 222.048 107.284C227.183 101.469 233.934 97.232 241.121 94.311C260.938 86.257 284.594 88.396 302.647 99.871C306.429 102.276 310.001 105.089 312.807 108.584C318.134 115.219 320.351 123.906 320.688 132.408C321.204 145.395 317.183 159.113 307.459 167.737C302.681 171.973 296.809 174.777 290.847 177.067C276.339 182.641 260.605 185.416 245.062 184.327C238.903 183.895 229.967 183.575 224.599 180.153C220.105 177.291 217.544 170.583 215.787 165.845Z" fill="#6D4F39"/>
<path d="M224.554 218.28C223.701 221.669 222.849 225.057 221.996 228.445C214.452 208.4 219.872 186.041 225.806 165.461C223.378 166.113 221.33 168.038 220.53 170.422C227.035 153.365 241.642 140.186 258.303 132.725C274.965 125.264 293.562 123.058 311.815 123.346C311.32 124.89 308.982 125.409 307.879 124.22C322.518 125.983 336.656 131.728 348.376 140.674C343.636 140.788 338.896 140.902 334.155 141.016C351.699 141.721 365.825 155.01 378.184 167.482C374.205 166.837 370.271 165.909 366.424 164.706C373.335 168.485 375.545 177.188 376.996 184.931C378.163 191.156 379.278 197.593 377.886 203.771C375.684 213.543 367.684 220.846 359.677 226.867C337.419 243.602 311.724 256.85 286.402 268.311C267.773 276.743 251.313 279.176 238.962 260.802C230.499 248.208 225.39 233.444 224.554 218.28Z" fill="#3A2B20"/>
<path d="M257.153 226.31C246.89 245.868 244.584 269.458 250.864 290.634C257.057 311.513 271.056 329.395 287.546 343.621C304.036 357.848 323.046 368.79 341.928 379.643C372.857 397.419 403.784 415.196 434.713 432.973C444.107 400.523 450.423 367.183 453.55 333.546C456.053 306.612 456.454 279.007 449.015 253.001C441.575 226.995 425.405 202.544 401.424 190.03C355.947 166.298 282.032 178.897 257.153 226.31Z" fill="#3A2B20"/>
<path d="M404.201 191.427C403.368 190.952 402.526 190.487 401.673 190.042C356.197 166.31 282.281 178.91 257.402 226.322C247.139 245.88 244.833 269.47 251.114 290.646C251.474 291.862 251.864 293.066 252.277 294.262C252.464 285.224 253.691 276.207 255.986 267.461C261.472 246.558 273.315 226.907 290.979 214.457C306.406 203.583 325.214 198.731 343.753 195.195C363.669 191.397 384.101 188.884 404.201 191.427Z" fill="#E8BB28"/>
<path d="M347.413 382.665C345.624 360.758 346.35 338.244 358.483 320.418C373.981 297.651 404.549 289.302 431.913 292.418C440.01 293.34 448.251 295.241 455.407 298.987C455.221 283.422 453.538 267.953 449.263 253.013C447.076 245.371 444.131 237.867 440.46 230.757C416.087 222.654 389.615 221.005 365.042 228.124C331.771 237.763 303.048 264.643 295.028 298.341C290.651 316.732 292.937 336.369 300.503 353.67C313.717 363.287 327.982 371.497 342.176 379.655C343.923 380.659 345.668 381.662 347.413 382.665Z" fill="#E8BB28"/>
<path d="M448.021 376.626C444.321 375.801 440.536 375.424 436.696 375.61C417.585 376.538 401.427 392.35 396.526 410.892C409.339 418.256 422.151 425.62 434.963 432.984C440.327 414.452 444.684 395.628 448.021 376.626Z" fill="#E8BB28"/>
<path opacity="0.35" d="M389.864 221.091C390.567 227.309 394.707 232.496 398.302 237.617C410.081 254.395 417.462 274.234 419.516 294.632C420.254 301.973 421.046 310.648 427.43 314.348C428.849 315.17 430.545 315.663 432.141 315.281C435.808 314.404 436.952 309.825 437.298 306.07C439.044 287.132 438.155 267.953 434.665 249.258C432.863 239.61 430.279 229.879 424.796 221.738C418.035 211.698 387.071 196.377 389.864 221.091Z" fill="white"/>
<path opacity="0.35" d="M425.177 335.428C425.577 341.367 427.077 347.229 429.578 352.63C430.917 355.523 433.133 358.65 436.32 358.641C438.518 358.635 440.458 357.02 441.492 355.08C442.526 353.14 442.83 350.906 443.116 348.726C443.488 345.899 443.859 343.071 444.231 340.244C446.703 321.431 423.95 317.265 425.177 335.428Z" fill="white"/>
<path d="M212.965 145.453C216.992 139.774 219.646 133.261 222.865 127.088C228.515 116.252 235.985 106.368 244.866 97.975C245.645 97.239 246.49 96.3999 246.537 95.3299C246.618 93.5229 244.493 92.5089 242.716 92.1679C231.167 89.9549 219.378 95.6359 210.622 103.487C204.21 109.236 198.679 116.785 198.231 125.386C197.969 130.395 199.63 135.428 202.612 139.438C204.339 141.758 210.394 149.078 212.965 145.453Z" fill="#3A2B20"/>
<path d="M316.592 115.966C310.522 113.155 305.18 108.992 299.538 105.383C289.634 99.047 278.688 94.374 267.299 91.617C266.3 91.376 265.197 91.0789 264.64 90.2099C263.699 88.7419 264.962 86.8809 266.263 85.7489C274.721 78.3879 287.198 77.494 298.219 79.858C306.291 81.589 314.507 85.242 319.038 92.198C321.677 96.25 322.741 101.239 322.222 106.006C321.922 108.766 320.468 117.761 316.592 115.966Z" fill="#3A2B20"/>
<path opacity="0.51" d="M152.542 115.677C126.903 113.682 100.735 113.777 75.9489 120.63C51.1629 127.483 27.697 141.699 13.677 163.256C-2.77105 188.546 -4.1851 222.867 10.1269 249.424C24.4399 275.981 53.884 293.672 84.052 293.839C92.872 293.888 101.78 292.521 109.885 289.041C121.976 283.848 131.578 274.338 141.281 265.448C181.735 228.378 229.011 198.777 280.027 178.574C286.483 176.017 293.362 173.342 297.495 167.762C314.338 145.02 254.417 134.522 241.813 131.111C212.621 123.207 182.694 118.022 152.542 115.677Z" fill="#C5DFE2"/>
<path d="M300.267 158.117C299.948 156.512 299.222 154.988 298.162 153.542C289.479 150.526 280.52 148.401 271.392 147.128C259.603 145.484 247.659 145.034 235.773 144.698C213.748 144.074 191.57 144.591 169.782 148.124C149.59 151.398 130.307 157.598 112.222 167.032C111.515 161.476 109.035 156.321 105.545 151.941C105.578 151.864 105.613 151.791 105.638 151.703C106.591 148.313 108.002 145.071 109.043 141.707C110.057 138.431 110.862 135.096 111.486 131.725C112.515 126.166 113.017 120.521 112.97 114.872C111.773 114.936 110.577 115.004 109.383 115.088C109.432 123.375 108.274 131.666 105.915 139.621C104.992 142.733 103.747 145.739 102.752 148.825C97.973 143.997 92.094 140.365 86.172 137.113C78.341 132.813 70.31 128.87 62.129 125.27C60.595 125.885 59.074 126.531 57.566 127.206C58.254 127.499 58.945 127.783 59.63 128.081C66.739 131.174 73.726 134.54 80.576 138.172C83.092 139.506 85.629 140.865 88.109 142.321C86.585 143.008 84.855 143.28 83.213 143.549C79.971 144.08 76.724 144.577 73.472 145.043C66.91 145.983 60.33 146.794 53.736 147.473C44.079 148.468 34.392 149.171 24.693 149.595C23.501 150.805 22.342 152.046 21.22 153.322C24.854 153.187 28.486 153.016 32.116 152.802C45.686 152.002 59.227 150.665 72.689 148.779C76.407 148.258 80.12 147.696 83.825 147.091C86.535 146.649 89.341 146.093 91.579 144.469C94.166 146.155 96.647 147.988 98.906 150.086C104.162 154.967 108.425 161.529 108.8 168.866C108.649 168.949 108.495 169.028 108.344 169.111C98.679 174.453 89.304 180.312 79.501 185.405C69.637 190.53 59.385 194.596 48.51 196.988C32.854 200.432 16.793 200.806 0.817993 199.892C0.687993 201.082 0.584052 202.274 0.503052 203.469C13.5861 204.215 26.6959 204.106 39.6949 202.239C50.6669 200.663 61.362 197.697 71.517 193.243C72.159 192.961 72.7921 192.662 73.4301 192.37C70.0541 204.447 64.492 215.779 57.588 226.233C57.534 226.224 57.485 226.208 57.429 226.202C46.016 225.161 34.5201 225.316 23.1331 226.598C16.2831 227.369 9.48303 228.569 2.78003 230.176C3.06603 231.342 3.368 232.503 3.703 233.655C4.816 233.389 5.93095 233.129 7.04895 232.885C17.5 230.614 28.162 229.345 38.855 229.135C44.329 229.028 49.804 229.211 55.26 229.643C54.889 230.173 54.519 230.705 54.141 231.23C50.021 236.957 45.524 242.382 40.772 247.58C40.751 247.584 40.732 247.582 40.712 247.587C39.999 247.746 39.3841 248.424 39.3051 249.166C33.8231 255.044 28.015 260.625 22.064 266.025C22.882 266.907 23.719 267.771 24.574 268.619C29.614 264.043 34.541 259.345 39.267 254.436C39.559 254.134 39.846 253.827 40.135 253.522C41.131 261.664 37.864 270.038 35.358 277.643C35.353 277.659 35.347 277.674 35.342 277.69C36.359 278.415 37.3881 279.124 38.4351 279.806C38.4401 279.792 38.445 279.778 38.449 279.764C40.026 275.004 41.692 270.232 42.792 265.334C43.906 260.377 44.406 255.205 43.208 250.237C52.955 239.595 61.6929 227.968 68.2889 215.106C72.3289 207.23 75.564 198.957 77.673 190.355C85.438 186.523 92.915 182.12 100.402 177.776C109.87 172.282 119.423 166.943 129.577 162.807C139.683 158.689 150.209 155.646 160.888 153.425C168.451 151.852 176.083 150.702 183.751 149.875C176.196 155.478 169.892 162.675 164.984 170.714C159.21 180.172 155.432 190.608 153.129 201.4C152.895 201.476 152.67 201.592 152.465 201.75C143.262 208.854 134.059 215.957 124.857 223.06C115.96 229.927 106.962 236.684 98.208 243.731C90.04 250.307 82.457 257.431 75.865 265.605C69.749 273.19 64.476 281.418 59.693 289.898C60.863 290.27 62.0421 290.614 63.2271 290.935C67.2871 283.811 71.692 276.896 76.686 270.368C82.914 262.226 90.124 255.055 98.015 248.527C99.034 247.684 100.072 246.865 101.101 246.034C103.894 261.14 103.98 276.712 101.418 291.848C102.697 291.529 103.965 291.173 105.218 290.768C106.772 280.946 107.247 270.952 106.591 261.029C106.201 255.13 105.437 249.263 104.279 243.466C110.88 238.236 117.623 233.176 124.285 228.034C133.574 220.865 142.862 213.695 152.151 206.525C149.817 220.251 149.735 234.246 150.431 248.117C150.577 251.031 150.746 253.952 150.894 256.877C152.036 255.89 153.182 254.908 154.333 253.933C153.623 240.423 153.176 226.916 154.773 213.442C156.264 200.86 159.51 188.35 165.473 177.114C170.745 167.18 178.019 158.143 187.314 151.705C188.504 150.881 189.729 150.109 190.975 149.373C191.08 149.311 191.169 149.241 191.254 149.168C202.984 148.219 214.779 147.963 226.537 148.108C250.04 148.398 274.125 149.016 296.551 156.764C297.798 157.193 299.034 157.649 300.267 158.117Z" fill="#AAC0C1"/>
<path opacity="0.51" d="M421.591 40.645C442.565 25.764 465.066 12.403 489.852 5.55201C514.639 -1.29899 542.075 -1.15498 565.177 10.139C592.281 23.389 611.122 52.11 612.484 82.247C613.845 112.385 597.67 142.687 571.872 158.327C564.329 162.899 555.984 166.302 547.242 167.479C534.201 169.235 521.077 166.007 508.186 163.363C454.435 152.337 398.667 151.223 344.519 160.094C337.666 161.217 330.39 162.455 323.978 159.79C297.845 148.929 343.866 109.143 352.926 99.742C373.912 77.966 396.927 58.145 421.591 40.645Z" fill="#C5DFE2"/>
<path d="M316.645 152.938C316.094 151.397 315.935 149.717 316.101 147.932C322.001 140.885 328.597 134.46 335.775 128.679C345.046 121.213 355.062 114.692 365.088 108.298C383.666 96.449 402.959 85.501 423.469 77.341C442.475 69.778 462.203 65.1929 482.567 63.9969C480.32 58.8669 479.798 53.17 480.544 47.619C480.477 47.569 480.408 47.525 480.342 47.462C477.783 45.043 474.907 42.9859 472.286 40.6349C469.733 38.3449 467.329 35.898 465.062 33.326C461.324 29.084 457.994 24.499 455.131 19.628C456.191 19.068 457.252 18.512 458.32 17.97C462.534 25.105 467.787 31.624 473.897 37.237C476.288 39.433 478.9 41.3729 481.338 43.5099C482.958 36.9129 486.137 30.778 489.547 24.945C494.057 17.233 498.923 9.72496 504.093 2.43396C505.725 2.17396 507.362 1.94695 509.002 1.75195C508.563 2.35595 508.115 2.95496 507.681 3.56296C503.17 9.86896 498.905 16.3449 494.893 22.9799C493.419 25.4179 491.941 27.887 490.56 30.41C492.221 30.217 493.845 29.561 495.392 28.948C498.447 27.738 501.488 26.497 504.517 25.226C510.63 22.663 516.692 19.977 522.699 17.174C531.496 13.068 540.169 8.69496 548.708 4.07596C550.352 4.50196 551.984 4.97195 553.602 5.48895C550.416 7.23995 547.211 8.95895 543.987 10.64C531.932 16.924 519.628 22.732 507.109 28.029C503.651 29.492 500.177 30.916 496.687 32.3C494.135 33.312 491.442 34.277 488.687 34.033C487.333 36.808 486.147 39.655 485.286 42.616C483.284 49.504 482.997 57.324 486.443 63.811C486.616 63.805 486.788 63.7929 486.961 63.7879C497.997 63.4069 509.051 63.618 520.078 62.952C531.174 62.282 542.057 60.5049 552.618 56.9709C567.82 51.8839 581.791 43.955 595.029 34.965C595.752 35.919 596.453 36.8889 597.136 37.8719C586.294 45.2309 574.99 51.873 562.877 56.948C552.654 61.232 541.954 64.181 530.953 65.575C530.258 65.663 529.56 65.732 528.864 65.809C537.965 74.436 548.556 81.303 559.85 86.726C559.891 86.69 559.924 86.652 559.971 86.618C569.228 79.862 579.171 74.091 589.6 69.341C595.872 66.484 602.324 64.021 608.9 61.957C609.254 63.103 609.59 64.255 609.895 65.416C608.803 65.76 607.713 66.108 606.629 66.475C596.494 69.895 586.695 74.282 577.412 79.595C572.661 82.314 568.058 85.283 563.598 88.457C564.189 88.721 564.78 88.9869 565.373 89.2439C571.85 92.0419 578.494 94.387 585.241 96.405C585.261 96.398 585.276 96.387 585.297 96.38C585.99 96.15 586.865 96.4169 587.316 97.0119C595.039 99.2389 602.887 101.044 610.768 102.621C610.52 103.798 610.245 104.969 609.947 106.135C603.272 104.798 596.632 103.298 590.055 101.513C589.65 101.403 589.246 101.287 588.84 101.175C592.168 108.672 599.274 114.179 605.329 119.416C605.342 119.427 605.354 119.438 605.367 119.448C604.867 120.593 604.349 121.729 603.801 122.852C603.789 122.842 603.778 122.833 603.768 122.823C599.969 119.55 596.089 116.31 592.628 112.673C589.126 108.992 586.041 104.812 584.518 99.9339C570.689 95.8099 557.219 90.3219 544.953 82.6759C537.441 77.9929 530.416 72.556 524.188 66.259C515.557 66.96 506.879 67.023 498.225 67.141C487.279 67.29 476.34 67.618 465.503 69.284C454.717 70.942 444.122 73.738 433.82 77.317C426.522 79.853 419.383 82.786 412.379 86.015C421.739 86.942 430.846 89.879 439.186 94.255C448.999 99.404 457.6 106.418 465.12 114.494C465.359 114.439 465.612 114.423 465.868 114.453C477.413 115.821 488.958 117.188 500.503 118.555C511.663 119.877 522.854 121.052 533.985 122.602C544.37 124.048 554.537 126.265 564.39 129.894C573.535 133.261 582.285 137.612 590.744 142.43C589.931 143.35 589.096 144.251 588.245 145.135C581.102 141.108 573.77 137.438 566.133 134.402C556.607 130.616 546.737 128.166 536.614 126.619C535.306 126.419 533.995 126.25 532.685 126.065C538.048 140.461 545.973 153.865 555.945 165.536C554.685 165.919 553.414 166.266 552.131 166.561C545.752 158.932 540.211 150.601 535.677 141.75C532.982 136.488 530.623 131.062 528.639 125.493C520.289 124.396 511.905 123.519 503.547 122.529C491.895 121.149 480.242 119.769 468.589 118.388C477.642 128.966 484.902 140.931 491.429 153.191C492.8 155.767 494.157 158.36 495.532 160.944C494.046 160.684 492.558 160.43 491.069 160.184C484.739 148.228 478.184 136.41 469.893 125.669C462.151 115.64 452.94 106.573 442.052 99.996C432.426 94.181 421.542 90.163 410.261 89.414C408.817 89.318 407.369 89.285 405.922 89.293C405.8 89.294 405.688 89.2789 405.577 89.2609C395.025 94.4709 384.773 100.311 374.76 106.475C354.743 118.796 334.397 131.698 319.135 149.865C318.288 150.878 317.461 151.904 316.645 152.938Z" fill="#AAC0C1"/>
<path opacity="0.45" d="M62.903 137.977C52.449 145.996 43.184 155.564 35.506 166.271C23.124 183.536 14.789 204.768 17.454 225.846C20.119 246.924 35.8711 267.052 56.8781 270.231C68.1771 271.941 81.136 267.808 86.46 257.696C92.55 246.127 86.7641 231.827 79.0091 221.301C71.2551 210.775 61.2761 201.231 57.8441 188.616C52.6441 169.503 65.325 148.595 83.267 140.203C85.562 139.129 88.017 138.161 89.709 136.275C95.061 130.315 87.275 127.315 82.235 127.901C75.316 128.706 68.243 133.881 62.903 137.977Z" fill="white"/>
<path opacity="0.45" d="M420.892 66.6089C441.121 57.0009 463.343 51.6159 485.725 50.8989C492.564 50.6799 499.519 50.9079 506.052 52.9409C526.824 59.4069 538.425 84.0959 534.239 105.444C532.853 112.51 530.067 119.284 529.222 126.435C528.378 133.585 529.937 141.642 535.608 146.079C541.212 150.463 549.512 150.052 555.758 146.643C562.003 143.234 566.519 137.356 570.193 131.263C582.888 110.205 587.46 83.7759 579.852 60.3939C572.246 37.0119 551.64 17.6559 527.309 14.1089C513.737 12.1299 499.917 14.8869 486.736 18.6749C464.394 25.0959 442.92 34.5299 423.078 46.6429C416.966 50.3739 404.292 57.5289 403.903 65.8189C403.402 76.4969 415.585 69.1309 420.892 66.6089Z" fill="white"/>
<path opacity="0.45" d="M340.979 125.753C339.502 128.284 338.081 131.223 338.908 134.034C340.351 138.936 347.355 139.539 351.943 137.289C357.648 134.491 361.621 129.182 365.576 124.208C372.962 114.919 381.031 106.174 389.697 98.066C394.005 94.037 398.601 89.966 400.83 84.505C401.11 83.817 401.351 83.034 401.069 82.345C400.733 81.519 399.786 81.144 398.919 80.931C377.113 75.585 350.248 109.867 340.979 125.753Z" fill="white"/>
</svg>
