<svg width="400" height="477" viewBox="0 0 400 477" fill="none" xmlns="http://www.w3.org/2000/svg">
<path d="M191.144 23.263C191.548 25.573 192.475 27.79 193.834 29.701C194.428 30.535 195.184 31.361 196.191 31.545C196.963 31.687 197.751 31.423 198.468 31.103C200.266 30.301 201.931 29.07 202.91 27.362C203.889 25.654 204.082 23.427 203.092 21.726C206.41 24.008 210.839 26.361 212.174 33.255C212.731 36.129 209.988 38.005 208.424 40.4799C207.25 42.3369 205.188 43.4559 203.095 44.1239C197.953 45.7659 189.308 44.4019 186.054 39.4129C182.725 34.3059 186.535 26.161 191.144 23.263Z" fill="#3A2B20"/>
<path d="M328.97 310.765C327.106 309.969 325.346 308.83 323.654 307.699C304.341 294.797 285.408 281.327 266.888 267.31C259.069 261.392 250.459 254.364 247.462 244.619C244.061 233.559 248.975 222.352 262.457 227.806C268.163 230.115 272.393 234.949 276.467 239.564C294.555 260.053 313.952 279.384 334.487 297.42C345.446 289.384 356.405 281.349 367.365 273.314C374.402 268.154 381.492 262.963 389.371 259.212C389.497 259.152 389.628 259.094 389.761 259.037C390.701 256.242 391.519 253.911 391.617 253.474C393.368 245.692 393.989 237.635 393.499 229.675C393.382 227.776 393.233 225.735 394.214 224.104C397.471 228.639 398.955 234.266 399.239 239.842C399.523 245.418 398.674 250.988 397.627 256.472C397.029 259.603 396.337 262.796 394.652 265.502C393.797 266.876 392.631 268.109 391.275 268.989C386.189 276.438 377.91 281.755 370.29 286.972C361.137 293.238 352.366 300.06 344.041 307.389C341.209 309.882 338.145 312.564 334.389 312.91C332.135 313.118 330.253 312.205 328.97 310.765Z" fill="#281D16"/>
<path d="M70.9909 323.261C72.8539 322.465 74.6139 321.326 76.3069 320.195C95.6199 307.294 114.553 293.823 133.073 279.806C140.892 273.888 149.502 266.861 152.499 257.115C155.9 246.055 150.986 234.847 137.504 240.301C131.797 242.61 127.568 247.445 123.494 252.06C105.406 272.549 86.0089 291.879 65.4739 309.915C54.5149 301.88 43.5549 293.845 32.5959 285.809C25.5589 280.649 18.4679 275.458 10.5899 271.707C10.4639 271.647 10.3329 271.589 10.1999 271.532C9.25892 268.737 8.44193 266.406 8.34293 265.969C6.59193 258.187 5.97091 250.13 6.46091 242.171C6.57791 240.271 6.72688 238.231 5.74588 236.6C2.48888 241.135 1.00492 246.763 0.720919 252.338C0.436919 257.914 1.28592 263.484 2.33292 268.969C2.93092 272.1 3.62189 275.292 5.30789 277.999C6.16289 279.372 7.32888 280.605 8.68588 281.486C13.7719 288.934 22.0499 294.252 29.6709 299.469C38.8239 305.734 47.5939 312.557 55.9199 319.886C58.7519 322.38 61.8159 325.061 65.5729 325.408C67.8259 325.615 69.7079 324.702 70.9909 323.261Z" fill="#281D16"/>
<path d="M289.909 233.793C283.77 219.887 275.72 207.162 266.064 196.084C257.008 185.694 251.62 172.023 237.913 168.617C229.901 166.626 221.548 167.685 213.473 169.319C210.313 169.958 207.13 170.713 203.978 171.624V171.116C200.826 170.205 197.643 169.45 194.482 168.811C186.407 167.178 178.054 166.119 170.043 168.11C156.335 171.516 150.948 185.188 141.892 195.577C132.236 206.655 124.186 219.379 118.047 233.286C105.797 261.032 101.089 293.175 105.991 323.769C110.831 353.98 124.161 381.833 140.945 406.008C157.729 430.184 177.948 451.015 198.326 471.38C200.056 473.109 201.912 474.89 203.979 475.967V476.475C206.046 475.397 207.902 473.616 209.632 471.887C230.01 451.522 250.229 430.691 267.013 406.515C283.797 382.339 297.126 354.486 301.967 324.276C306.867 293.682 302.159 261.539 289.909 233.793Z" fill="#3A2B20"/>
<path d="M154.894 424.663C168.379 441.242 183.238 456.439 198.188 471.38C199.918 473.109 201.774 474.89 203.841 475.967V476.475C205.908 475.397 207.764 473.616 209.494 471.887C223.863 457.527 238.147 442.929 251.209 427.097C219.718 431.504 187.25 427.6 154.894 424.663Z" fill="#E8BB28"/>
<path d="M120.022 369.76C171.251 385.977 235.67 390.127 287.849 369.353C296.599 349.146 298.148 347.251 301.829 324.276C303.203 315.705 303.821 307.012 303.731 298.329C295.663 304.932 286.52 310.222 276.763 313.898C259.479 320.41 240.755 321.795 222.332 323.117C184.023 325.864 143.061 316.624 104.216 308.667C104.512 313.725 105.052 318.768 105.854 323.768C108.956 343.127 111.274 352.685 120.022 369.76Z" fill="#E8BB28"/>
<path d="M163.673 251.947C195.083 253.499 226.582 253.254 257.965 251.216C270.256 250.418 282.721 249.29 294.341 245.343C292.96 241.422 291.439 237.566 289.773 233.793C283.633 219.887 275.583 207.162 265.927 196.084C256.871 185.694 251.483 172.023 237.776 168.617C229.764 166.626 221.411 167.685 213.336 169.319C210.176 169.958 206.993 170.713 203.841 171.624V171.116C200.689 170.205 197.505 169.45 194.346 168.811C186.271 167.178 177.917 166.119 169.906 168.11C156.199 171.516 150.811 185.188 141.755 195.577C132.099 206.655 124.049 219.379 117.91 233.286C116.446 236.602 115.093 239.984 113.847 243.416C129.308 249.475 146.856 251.117 163.673 251.947Z" fill="#E8BB28"/>
<path d="M162.844 24.514C160.403 19.761 157.096 15.517 153.809 11.304C153.246 10.582 152.66 9.83999 151.853 9.40799C149.395 8.08899 146.554 10.186 144.561 12.137C143.905 12.778 143.212 13.492 143.101 14.402C142.957 15.567 143.803 16.596 144.601 17.456C151.098 24.465 158.185 31.214 162.378 39.803C163.356 41.806 164.184 43.922 165.61 45.637C167.811 48.285 174.55 49.953 174.227 44.745C174.02 41.452 164.214 27.183 162.844 24.514Z" fill="#281D16"/>
<path d="M108.407 0.861983C106.557 0.670983 104.566 0.517991 102.953 1.44499C103.794 1.82999 104.705 2.03099 105.607 2.23299C119.514 5.35699 133.18 9.54799 146.447 14.757C147.948 15.346 150.048 15.759 150.84 14.354C154.951 7.04799 112.946 1.32998 108.407 0.861983Z" fill="#281D16"/>
<path d="M240.893 27.941C242.989 23.026 245.985 18.557 248.963 14.12C249.473 13.36 250.005 12.578 250.779 12.089C253.136 10.598 256.119 12.487 258.248 14.291C258.947 14.884 259.689 15.546 259.866 16.446C260.093 17.597 259.322 18.684 258.588 19.599C252.608 27.054 246.02 34.29 242.451 43.157C241.618 45.225 240.943 47.395 239.644 49.207C237.638 52.005 231.034 54.15 230.986 48.932C230.953 45.633 239.716 30.702 240.893 27.941Z" fill="#281D16"/>
<path d="M293.503 0.465954C295.336 0.143954 297.31 -0.151044 298.985 0.657956C298.173 1.10196 297.279 1.36695 296.394 1.63395C282.745 5.74095 269.412 10.8969 256.551 17.0399C255.096 17.7349 253.031 18.297 252.141 16.951C247.52 9.95595 289.009 1.25595 293.503 0.465954Z" fill="#281D16"/>
<path d="M65.6539 159.017C67.3499 160.126 69.2729 160.96 71.1529 161.741C92.5989 170.658 114.307 178.945 136.241 186.584C145.501 189.809 156.124 193.077 165.896 190.167C176.986 186.864 183.588 176.56 171.573 168.365C166.488 164.896 160.119 164.058 154.019 163.226C126.939 159.536 100.096 154.113 73.7009 147.026C74.3099 133.45 74.9199 119.875 75.5299 106.299C75.9209 97.5819 76.3099 88.8019 75.0619 80.1659C75.0419 80.0279 75.0179 79.8859 74.9909 79.7439C76.7959 77.4109 78.2829 75.4379 78.5909 75.1139C84.0959 69.3419 90.4569 64.3569 97.3519 60.3509C98.9979 59.3949 100.778 58.3869 101.591 56.6669C96.0109 56.4709 90.5049 58.3569 85.7079 61.2119C80.9109 64.0679 76.7459 67.8629 72.7619 71.7749C70.4879 74.0089 68.2148 76.3549 66.8968 79.2579C66.2278 80.7309 65.8489 82.3849 65.8679 84.0019C62.4899 92.3649 62.6549 102.203 62.5399 111.437C62.4009 122.528 61.5869 133.61 60.1049 144.602C59.6009 148.341 59.0679 152.377 60.8629 155.696C61.9399 157.689 63.7439 158.749 65.6539 159.017Z" fill="#281D16"/>
<path d="M329.497 172.04C327.679 172.935 325.667 173.527 323.706 174.074C301.333 180.31 278.776 185.888 256.075 190.796C246.491 192.868 235.549 194.817 226.204 190.737C215.6 186.106 210.303 175.074 223.227 168.405C228.698 165.583 235.122 165.527 241.276 165.446C268.605 165.084 295.908 162.975 322.971 159.159C324.021 145.61 325.071 132.061 326.121 118.512C326.795 109.812 327.479 101.051 329.771 92.632C329.808 92.497 329.849 92.36 329.893 92.222C328.386 89.687 327.151 87.547 326.884 87.188C322.124 80.787 316.419 75.065 310.063 70.248C308.546 69.098 306.901 67.881 306.304 66.074C311.866 66.56 317.101 69.103 321.515 72.522C325.929 75.941 329.599 80.216 333.076 84.585C335.061 87.08 337.031 89.685 337.985 92.727C338.469 94.271 338.644 95.959 338.427 97.561C340.76 106.274 339.397 116.018 338.385 125.197C337.171 136.222 336.627 147.321 336.759 158.412C336.804 162.185 336.841 166.256 334.654 169.331C333.345 171.174 331.425 172.006 329.497 172.04Z" fill="#281D16"/>
<path d="M265.084 133.771C267.079 134.131 269.06 134.544 271.022 135.011C258.904 111.611 227.976 95.934 199.471 98.738V98.48C170.967 95.677 140.038 111.353 127.92 134.754C129.883 134.287 131.863 133.874 133.858 133.514C126.362 143.61 123.003 155.783 124.456 167.583C125.33 166.366 126.657 165.377 128.208 164.788C125.02 176.643 126.096 189.265 131.263 200.629C132.366 199.253 133.469 197.877 134.573 196.501C136.325 204.994 140.064 213.2 145.521 220.527C147.03 218.281 148.539 216.034 150.048 213.788C155.635 224.257 163.608 233.844 173.419 241.89C173.842 239.583 175.223 237.405 177.272 235.808C179.15 238.601 181.913 240.98 185.206 242.64C185.54 241.201 185.874 239.762 186.207 238.324C190.252 240.545 195.342 241.974 199.472 244.044V244.302C203.602 242.232 208.692 240.803 212.737 238.582C213.071 240.02 213.404 241.459 213.738 242.898C217.031 241.239 219.794 238.86 221.672 236.066C223.721 237.663 225.101 239.841 225.525 242.148C235.336 234.102 243.308 224.515 248.896 214.046C250.405 216.293 251.914 218.539 253.423 220.785C258.88 213.457 262.619 205.251 264.371 196.759C265.475 198.135 266.578 199.511 267.681 200.886C272.848 189.523 273.924 176.9 270.736 165.046C272.287 165.635 273.615 166.624 274.488 167.841C275.939 156.04 272.58 143.867 265.084 133.771Z" fill="#3A2B20"/>
<path d="M246.939 46.883C236.916 39.249 221.935 36.818 209.689 34.445C207.515 34.024 205.18 33.814 202.755 33.782C200.33 33.814 197.995 34.024 195.821 34.445C183.575 36.817 168.594 39.248 158.571 46.883C144.545 57.566 141.639 76.959 146.949 92.937C149.324 100.084 153.405 107.145 160.277 111.177C167.872 115.634 177.48 115.678 186.502 115.577C191.919 115.516 197.337 115.456 202.755 115.394C208.172 115.455 213.591 115.516 219.008 115.577C228.03 115.678 237.637 115.634 245.233 111.177C252.105 107.145 256.185 100.084 258.56 92.937C263.871 76.959 260.965 57.566 246.939 46.883Z" fill="#6D4F39"/>
<path d="M169.146 37.23C162.505 38.726 156.468 42.204 150.959 46.204C145.579 50.111 140.495 54.681 137.289 60.505C134.083 66.33 132.98 73.6 135.652 79.688C138.84 86.952 146.9 91.245 154.822 91.663C162.744 92.081 170.503 89.193 177.448 85.36C183.023 82.284 188.319 78.503 192.257 73.5C196.195 68.497 198.687 62.156 198.195 55.808C197.089 41.528 181.888 34.358 169.146 37.23Z" fill="#3A2B20"/>
<path d="M199.417 55.7929C198.5 43.9599 187.903 37.0169 177.047 36.6169C181.706 39.8969 185.03 44.8579 185.526 51.2499C186.018 57.5979 183.527 63.9399 179.589 68.9419C175.65 73.9449 170.354 77.7259 164.779 80.8019C158.088 84.4949 150.642 87.3009 143.022 87.1289C146.745 89.8369 151.417 91.4049 156.044 91.6489C163.966 92.0659 171.725 89.1789 178.67 85.3459C184.245 82.2699 189.541 78.4879 193.479 73.4859C197.418 68.4829 199.909 62.1419 199.417 55.7929Z" fill="#231A14"/>
<path d="M233.089 37.23C239.73 38.726 245.767 42.204 251.276 46.204C256.656 50.111 261.74 54.681 264.946 60.505C268.152 66.33 269.255 73.6 266.583 79.688C263.395 86.952 255.335 91.245 247.413 91.663C239.491 92.081 231.732 89.193 224.787 85.36C219.212 82.284 213.916 78.503 209.978 73.5C206.04 68.497 203.549 62.156 204.04 55.808C205.146 41.528 220.347 34.358 233.089 37.23Z" fill="#3A2B20"/>
<path d="M202.817 55.7929C203.734 43.9599 214.332 37.0169 225.187 36.6169C220.527 39.8969 217.204 44.8579 216.708 51.2499C216.216 57.5979 218.706 63.9399 222.646 68.9419C226.584 73.9449 231.88 77.7259 237.455 80.8019C244.146 84.4949 251.593 87.3009 259.212 87.1289C255.489 89.8369 250.817 91.4049 246.19 91.6489C238.268 92.0659 230.51 89.1789 223.565 85.3459C217.99 82.2699 212.694 78.4879 208.755 73.4859C204.816 68.4829 202.326 62.1419 202.817 55.7929Z" fill="#231A14"/>
<path opacity="0.23" d="M144.939 59.0989C142.839 61.9789 140.902 65.1459 140.48 68.6859C140.058 72.2249 141.53 76.2059 144.742 77.7499C145.95 78.3299 147.374 78.5299 148.647 78.1119C150.609 77.4669 151.865 75.4949 152.377 73.4939C152.889 71.4929 152.815 69.3949 153.026 67.3409C153.67 61.0639 157.135 55.1309 162.285 51.4849C163.53 50.6029 164.927 49.7849 165.624 48.4279C166.629 46.4729 165.051 44.0869 162.96 43.8219C160.792 43.5469 158.246 45.8489 156.635 47.0389C152.11 50.3809 148.245 54.5639 144.939 59.0989Z" fill="white"/>
<path opacity="0.23" d="M222.778 45.6199C222.763 46.2389 222.861 46.8729 223.16 47.4139C224.01 48.9479 226.05 49.2129 227.784 49.4719C232.328 50.1499 236.692 52.0059 240.334 54.8079C241.152 55.4369 241.957 56.1269 242.931 56.4669C243.905 56.8079 245.119 56.7119 245.799 55.9349C246.171 55.5109 246.338 54.9409 246.395 54.3789C246.64 51.9869 245.115 49.7999 243.553 47.9709C240.586 44.4969 237.017 41.2759 232.614 40.0599C228.595 38.9519 222.897 40.6189 222.778 45.6199Z" fill="white"/>
<path opacity="0.51" d="M288.253 171.805C325.613 211.59 360.14 255.536 378.936 306.774C383.519 319.266 385.416 332.427 386.608 345.679C392.015 405.763 354.221 426.64 333.445 433.931C314.949 440.422 293.783 433.782 278.591 421.395C263.399 409.008 253.18 391.641 244.278 374.177C231.817 349.731 221.066 323.112 222.958 295.739C224.011 280.514 228.945 265.815 230.841 250.672C233.185 231.948 230.771 212.648 223.886 195.078C219.053 182.743 211.974 170.911 210.938 157.704C209.511 139.508 223.327 122.949 240.989 132.289C259.295 141.97 274.212 156.853 288.253 171.805Z" fill="#C5DFE2"/>
<path d="M242.155 346.174C251.365 340.085 261.377 335.381 271.935 332.344C271.909 332.316 271.885 332.286 271.861 332.258C268.481 328.386 264.825 325.611 260.68 323.486C257.956 322.088 255.53 321.189 252.511 320.471C246.01 318.927 239.907 319.013 232.777 318.649C229.838 318.499 226.902 318.259 223.976 317.944C223.734 316.404 223.521 314.861 223.345 313.314C225.917 313.617 228 313.825 231.2 314.017C237.92 314.422 245.25 314.33 252.038 315.702C255.237 316.349 258.366 317.367 261.33 318.736C267.367 321.524 272.723 325.874 276.743 331.086C286.973 328.672 295.398 328.554 304.35 325.307C304.642 324.06 304.988 322.825 305.406 321.606C307.208 316.35 309.885 311.499 312.456 306.594C315.329 301.109 318.26 295.155 318.593 288.959C310.793 273.471 304.802 257.071 298.093 241.081C297.376 240.861 296.747 240.301 296.554 239.583C296.387 238.962 296.459 238.357 296.723 237.852C296.551 237.449 296.379 237.046 296.205 236.644C287.015 215.352 275.203 195.437 260.077 177.805C247.14 162.724 232.149 149.354 215.629 138.298C216.496 137.012 217.466 135.835 218.528 134.788C232.664 144.301 245.708 155.429 257.314 167.912C273.005 184.791 285.997 203.975 295.835 224.812C297.544 228.433 299.171 232.091 300.749 235.772C313.206 231.583 324.229 230.343 336.532 230.303C336.767 230.303 337.002 230.304 337.238 230.304C338.335 231.826 339.423 233.354 340.498 234.89C326.319 234.787 315.981 235.5 302.53 239.981C310.034 257.941 316.651 276.309 326.065 293.381C330.129 300.752 334.78 307.604 339.964 314.094C345.835 305.396 354.976 299.499 364.624 295.522C367.443 294.36 370.313 293.379 373.214 292.511C373.819 293.907 374.41 295.311 374.992 296.719C372.853 297.353 370.732 298.048 368.638 298.831C368.104 299.031 367.574 299.239 367.044 299.449C369.408 302.647 371.856 305.784 374.397 308.843C377.03 312.015 379.408 314.686 382.234 317.707C382.921 320.47 383.514 323.255 384.025 326.059C383.327 325.389 382.639 324.709 381.963 324.018C378.469 320.443 375.129 316.719 371.899 312.905C368.712 309.144 365.669 305.264 362.753 301.29C362.723 301.305 362.696 301.318 362.681 301.326C354.922 305.038 347.645 310.198 343.103 317.588C343.065 317.65 343.03 317.713 342.992 317.776C344.717 319.812 346.493 321.815 348.325 323.787C356.996 333.119 365.619 342.313 372.233 353.278C377.234 361.57 381.242 370.334 384.591 379.364C383.975 381.966 383.253 384.449 382.442 386.824C379.713 378.723 376.504 370.802 372.563 363.191C366.741 351.948 359.227 342.147 350.627 332.903C346.938 328.937 343.279 324.985 339.773 320.918C339.45 320.909 339.128 320.833 338.835 320.665C338.014 320.193 337.533 319.291 337.627 318.386C333.829 313.833 330.245 309.107 327.044 304.025C325.283 301.229 323.621 298.384 322.033 295.5C319.058 306.475 311.567 315.246 308.908 325.805C308.952 325.9 308.991 325.996 309.018 326.097C309.272 327.044 308.982 327.888 308.334 328.461C306.868 336.547 307.752 344.962 307.229 353.623C328.345 364.13 340.315 385.851 347.509 408.423C349.236 413.842 350.731 419.328 352.148 424.835C350.784 425.698 349.423 426.503 348.076 427.254C346.899 422.656 345.674 418.07 344.315 413.524C337.734 391.512 327.091 369.503 306.776 358.529C306.625 359.675 306.438 360.817 306.206 361.948C305.579 364.999 304.587 367.965 303.413 370.846C301.16 376.373 298.122 381.528 295.257 386.749C292.376 391.999 289.746 397.492 287.946 402.97C286.088 408.621 284.795 414.448 283.9 420.326C283.668 421.853 283.465 423.353 283.287 424.841C281.853 423.86 280.46 422.827 279.111 421.751C280.619 410.598 283.523 399.649 288.61 389.562C297.437 372.058 302.637 368.068 302.854 348.292C302.887 345.261 302.847 342.23 302.899 339.199C302.949 336.271 303.089 333.327 303.45 330.418C290.545 334.395 281.387 332.767 263.018 340.197C264.814 344.761 265.83 349.659 265.988 354.559C266.135 359.081 265.5 363.603 264.499 368.005C262.147 378.339 257.883 388.092 257.948 398.01C256.539 395.908 255.181 393.767 253.865 391.596C254.346 388.15 255.171 384.758 256.095 381.406C257.22 377.328 258.491 373.291 259.527 369.189C260.992 363.385 261.784 358.622 261.329 352.845C261.041 349.191 260.316 345.847 258.848 341.996C254.774 343.847 250.539 346.213 246.677 348.675C242.946 351.053 239.339 353.614 235.72 356.159C235.1 354.73 234.495 353.296 233.905 351.855C236.636 349.935 239.369 348.017 242.155 346.174Z" fill="#AAC0C1"/>
<path opacity="0.51" d="M119.314 181.592C87.7549 226.119 59.5749 274.381 47.9739 327.711C45.1449 340.713 45.0689 354.01 45.7019 367.3C48.5769 427.558 88.8739 443.062 110.453 447.438C129.663 451.334 149.721 441.857 163.073 427.506C176.425 413.155 184.168 394.551 190.594 376.032C199.589 350.11 206.592 322.268 200.969 295.413C197.841 280.476 190.939 266.591 186.987 251.85C182.1 233.623 181.848 214.174 186.261 195.828C189.359 182.948 194.75 170.257 193.968 157.033C192.889 138.813 176.935 124.303 160.718 135.974C143.912 148.072 131.175 164.858 119.314 181.592Z" fill="#C5DFE2"/>
<path d="M188.863 348.004C178.906 343.234 168.344 339.946 157.469 338.383C157.491 338.351 157.511 338.319 157.531 338.288C160.349 333.99 163.59 330.74 167.405 328.068C169.912 326.31 172.192 325.086 175.085 323.962C181.314 321.542 187.37 320.791 194.384 319.454C197.275 318.903 200.15 318.264 203.005 317.55C203.033 315.991 203.033 314.433 202.996 312.877C200.489 313.53 198.454 314.021 195.311 314.649C188.71 315.97 181.436 316.884 174.9 319.172C171.819 320.251 168.86 321.688 166.111 323.45C160.513 327.038 155.803 332.081 152.535 337.794C142.071 336.804 133.709 337.841 124.396 335.851C123.935 334.656 123.424 333.479 122.843 332.33C120.339 327.37 117.022 322.932 113.804 318.425C110.207 313.385 106.488 307.889 105.309 301.797C110.914 285.386 114.602 268.32 119.058 251.563C119.738 251.247 120.285 250.605 120.376 249.868C120.456 249.23 120.302 248.64 119.972 248.176C120.087 247.754 120.202 247.33 120.319 246.908C126.507 224.558 135.479 203.213 148.047 183.675C158.797 166.964 171.815 151.667 186.664 138.452C185.629 137.297 184.507 136.264 183.312 135.372C170.612 146.732 159.215 159.541 149.429 173.497C136.198 192.367 125.956 213.149 119.065 235.138C117.868 238.958 116.757 242.805 115.699 246.667C102.785 244.224 91.697 244.506 79.504 246.151C79.271 246.182 79.0379 246.216 78.8049 246.248C77.9269 247.907 77.0589 249.569 76.2039 251.238C90.2349 249.193 100.573 248.484 114.512 251.08C109.539 269.899 105.5 288.999 98.5139 307.201C95.4979 315.059 91.8289 322.483 87.5829 329.622C80.5759 321.81 70.713 317.221 60.611 314.603C57.66 313.838 54.682 313.26 51.689 312.797C51.281 314.263 50.888 315.735 50.504 317.209C52.71 317.543 54.906 317.942 57.088 318.43C57.644 318.555 58.1979 318.689 58.7509 318.824C56.8469 322.316 54.852 325.758 52.754 329.137C50.58 332.639 48.59 335.611 46.205 338.991C45.904 341.822 45.697 344.662 45.575 347.509C46.175 346.75 46.763 345.982 47.338 345.205C50.31 341.185 53.1079 337.038 55.7849 332.818C58.4269 328.656 60.9099 324.396 63.2529 320.06C63.2849 320.071 63.313 320.081 63.33 320.085C71.524 322.699 79.4389 326.814 84.9509 333.512C84.9969 333.568 85.0409 333.626 85.0859 333.683C83.6559 335.936 82.1709 338.163 80.6259 340.368C73.3149 350.801 66.0319 361.088 60.9829 372.856C57.1649 381.755 54.3949 390.985 52.3149 400.388C53.2809 402.882 54.3369 405.242 55.4659 407.484C57.0589 399.086 59.154 390.799 62.015 382.72C66.242 370.785 72.3429 360.048 79.5959 349.712C82.7069 345.278 85.7899 340.862 88.7059 336.353C89.0249 336.3 89.3329 336.181 89.5999 335.974C90.3489 335.394 90.7019 334.434 90.4849 333.551C93.6239 328.521 96.527 323.348 99.002 317.876C100.363 314.865 101.62 311.819 102.797 308.745C107.247 319.21 115.869 326.871 119.949 336.967C119.918 337.067 119.892 337.168 119.88 337.271C119.758 338.244 120.161 339.039 120.881 339.518C123.442 347.327 123.717 355.784 125.423 364.291C105.945 377.592 97.0629 400.748 93.0289 424.092C92.0599 429.696 91.3309 435.336 90.6819 440.985C92.1519 441.653 93.6099 442.264 95.0479 442.824C95.5839 438.108 96.1689 433.398 96.8929 428.708C100.396 406.002 107.924 382.743 126.545 369.089C126.851 370.204 127.193 371.309 127.578 372.398C128.617 375.335 130.006 378.137 131.564 380.83C134.553 385.996 138.269 390.686 141.821 395.466C145.394 400.272 148.752 405.353 151.285 410.533C153.899 415.877 155.978 421.471 157.67 427.171C158.109 428.652 158.516 430.11 158.896 431.559C160.182 430.391 161.42 429.177 162.609 427.926C159.587 417.085 155.211 406.637 148.791 397.342C137.649 381.212 131.952 377.972 129.028 358.412C128.58 355.414 128.204 352.406 127.737 349.412C127.287 346.518 126.744 343.622 125.988 340.789C139.316 342.961 148.165 340.093 167.379 344.938C166.225 349.705 165.89 354.696 166.404 359.571C166.878 364.071 168.126 368.464 169.721 372.687C173.467 382.601 179.026 391.678 180.321 401.512C181.428 399.237 182.481 396.93 183.488 394.599C182.54 391.252 181.258 388.005 179.883 384.811C178.211 380.926 176.398 377.101 174.81 373.179C172.563 367.631 171.126 363.02 170.787 357.236C170.572 353.577 170.831 350.165 171.759 346.15C176.048 347.425 180.567 349.189 184.73 351.099C188.751 352.944 192.675 354.986 196.608 357.012C197.026 355.512 197.429 354.008 197.816 352.5C194.845 350.974 191.875 349.447 188.863 348.004Z" fill="#AAC0C1"/>
</svg>
