<svg width="442" height="477" viewBox="0 0 442 477" fill="none" xmlns="http://www.w3.org/2000/svg">
<path d="M184.422 113.48C188.487 92.1011 194.345 70.7431 205.443 52.0241C212.998 39.2811 222.913 27.9431 234.534 18.7551C251.444 5.38706 273.668 -3.49994 294.581 1.72206C302.234 3.63306 309.419 7.38706 315.359 12.5761C321.688 18.1061 326.524 25.1451 330.662 32.4601C335.028 40.1751 338.715 48.3401 340.759 56.9661C343.354 67.9131 343.238 79.3991 341.291 90.4791C338.444 106.667 331.68 122.141 321.814 135.287C317.728 140.732 313.087 145.812 307.639 149.894C300.775 155.037 292.818 158.469 285.181 162.373C261.346 174.556 240.085 191.745 223.181 212.498C217.381 219.619 212.002 227.24 204.79 232.926C200.435 236.36 186.676 244.44 180.883 239.963C176.323 236.44 177.776 216.836 177.516 211.223C176.552 190.504 177.126 169.715 179.232 149.082C180.451 137.148 182.181 125.265 184.422 113.48Z" fill="#C5DFE2"/>
<path d="M337.482 86.6851C332.725 85.1431 328.172 83.0751 323.742 80.7701C323.503 79.9771 322.654 79.6481 321.921 79.8081C321.167 79.4021 320.415 78.9911 319.667 78.5751C318.045 77.6731 316.438 76.7401 314.833 75.8051C321.344 71.4761 327.855 67.1481 334.366 62.8201C336.601 61.3341 338.825 59.8201 341.087 58.3711C340.989 57.9161 340.893 57.4611 340.786 57.0081C340.647 56.4231 340.5 55.8401 340.346 55.2591C338.308 56.5491 336.312 57.9061 334.305 59.2391C330.875 61.5201 327.444 63.8011 324.013 66.0811C320.122 68.6681 316.231 71.2541 312.341 73.8401C312.208 73.9291 312.091 74.0361 311.987 74.1501C309.235 72.5591 306.465 71.0031 303.606 69.6121C298.759 67.2561 293.609 65.3621 288.248 64.8181C289.513 63.9091 290.779 63.0031 292.049 62.1031C305.222 52.7641 318.664 43.7611 331.506 33.9661C331.236 33.4761 330.964 32.9871 330.688 32.5011C330.463 32.1031 330.234 31.7051 330.004 31.3091C318.971 39.7501 307.48 47.6021 296.102 55.5721C280.299 66.6401 264.623 78.0241 250.795 91.5401C249.774 92.5381 248.766 93.5521 247.764 94.5741C249.349 88.9151 249.959 83.1101 250.018 77.2551C250.304 76.8071 250.371 76.2351 250.021 75.7161C249.976 67.9811 249.033 60.1761 248.161 52.5281C248.193 52.5141 248.224 52.5071 248.256 52.4901C254.915 49.0341 261.576 45.5841 268.231 42.1211C274.599 38.8081 280.922 35.3151 286.211 30.3931C291.29 25.6661 295.397 19.9941 299.229 14.2421C301.141 11.3721 303.023 8.48311 304.894 5.58511C303.978 5.12611 303.049 4.69411 302.107 4.29211C300.82 6.27811 299.535 8.26612 298.24 10.2461C294.566 15.8651 290.771 21.4611 286.074 26.2901C283.674 28.7571 281.051 30.9861 278.199 32.9141C275.21 34.9351 272.052 36.6901 268.864 38.3741C261.868 42.0691 254.824 45.6771 247.8 49.3191C247.79 49.2291 247.779 49.1381 247.77 49.0481C246.825 40.3801 246.178 31.5961 247.277 22.9091C247.902 17.9731 249.11 13.1341 250.688 8.41512C249.399 9.07112 248.124 9.75811 246.866 10.4761C246.048 13.2541 245.358 16.0731 244.845 18.9451C243.303 27.5891 243.522 36.3331 244.342 45.0411C245.156 53.6871 246.477 62.2901 246.878 70.9721C246.901 71.4821 246.92 71.9931 246.938 72.5051C243.62 69.0941 240.301 65.6821 236.983 62.2711C232.832 58.0031 228.403 53.8331 224.984 48.9311C221.95 44.5791 219.778 39.7121 217.925 34.7561C217.167 35.6351 216.423 36.5251 215.691 37.4251C216.694 39.9721 217.794 42.4771 219.044 44.8991C222.205 51.0151 226.697 56.0391 231.463 60.9411C236.637 66.2621 241.813 71.5811 246.988 76.9011C246.915 84.1741 245.983 91.4281 243.354 98.2651C243.236 98.5721 243.263 98.9001 243.379 99.1971C233.902 109.543 225.603 121.027 219.693 133.767C215.756 142.252 213.08 151.128 211.282 160.298C209.439 169.699 208.174 179.208 206.521 188.644C203.428 206.298 199.408 224.116 191.297 240.22C192.683 239.764 194.08 239.198 195.436 238.571C201.566 225.408 205.289 211.204 208.051 196.959C209.814 187.868 211.186 178.712 212.688 169.576C214.249 160.071 216.167 150.627 219.63 141.61C220.968 138.128 222.505 134.737 224.196 131.427C224.228 131.448 224.254 131.473 224.288 131.493C228.771 134.086 233.27 136.694 237.394 139.843C241.537 143.006 244.986 146.805 247.881 151.13C250.925 155.679 253.559 160.495 256.891 164.85C259.467 168.216 262.509 171.157 265.753 173.864C266.612 173.289 267.47 172.713 268.338 172.153C265.338 169.675 262.521 167.003 260.055 163.992C256.632 159.813 254.046 155.038 251.099 150.531C248.95 147.244 246.577 144.194 243.827 141.461C250.465 139.339 257.464 139.304 264.368 139.471C266.52 139.523 268.681 139.557 270.833 139.69C273.425 146.586 275.99 153.494 278.625 160.374C279.209 161.899 279.819 163.421 280.488 164.915C281.372 164.432 282.266 163.966 283.157 163.496C282.645 162.354 282.168 161.196 281.712 160.034C280.382 156.642 279.131 153.217 277.848 149.807C276.617 146.536 275.386 143.265 274.155 139.994C274.406 140.025 274.659 140.054 274.91 140.09C278.268 140.572 281.473 141.738 284.574 143.077C287.659 144.41 290.674 145.904 293.818 147.097C296.585 148.146 299.423 148.993 302.283 149.748C303.677 150.116 305.078 150.46 306.481 150.795C306.877 150.514 307.272 150.229 307.661 149.938C308.315 149.448 308.956 148.941 309.588 148.423C308.097 148.075 306.613 147.725 305.144 147.359C302.194 146.623 299.259 145.814 296.385 144.815C293.333 143.754 290.414 142.397 287.47 141.075C284.253 139.63 280.984 138.236 277.519 137.503C274.031 136.765 270.468 136.609 266.915 136.51C258.86 136.285 250.568 136.05 242.817 138.613C242.338 138.771 241.945 139.104 241.759 139.534C241.362 139.187 240.964 138.841 240.551 138.507C235.988 134.811 230.93 131.84 225.859 128.906C225.768 128.854 225.678 128.816 225.589 128.784C231.721 117.524 239.722 107.283 248.593 98.0561C259.316 86.9031 271.351 77.1861 283.802 68.0471C284.198 68.3001 284.71 68.3651 285.25 68.0731C285.442 67.9691 285.59 67.8401 285.707 67.7001C297.352 67.9591 307.477 75.2011 317.286 80.7141C318.434 81.3591 319.596 81.9931 320.766 82.6171C320.625 91.7881 321.746 100.984 324.09 109.851C325.391 114.771 327.067 119.598 329.081 124.279C329.718 123.161 330.334 122.031 330.93 120.891C327.844 113.234 325.723 105.185 324.615 97.0051C324.038 92.7541 323.766 88.4671 323.769 84.1791C329.364 86.9951 335.201 89.4121 341.245 90.8831C341.267 90.7631 341.292 90.6441 341.314 90.5231C341.468 89.6471 341.606 88.7681 341.736 87.8881C340.3 87.5381 338.877 87.1371 337.482 86.6851Z" fill="#B1C8C9"/>
<path d="M220.838 321.752C220.271 326.278 217.612 330.227 215.083 334.023C203.594 351.261 193.226 369.245 184.063 387.824C183.042 389.895 181.727 392.219 179.456 392.639C176.943 393.103 174.607 390.77 174.11 388.263C173.613 385.757 174.439 383.198 175.265 380.78C180.83 364.494 186.874 348.372 193.388 332.442C196.138 325.716 199.533 318.213 205.942 314.213C213.218 309.672 222.179 311.059 220.838 321.752Z" fill="#281D16"/>
<path d="M181.254 383.814C190.239 391.056 199.223 398.298 208.208 405.541C213.242 409.599 218.309 413.689 222.494 418.618C223.381 419.663 224.242 421.221 223.382 422.289C222.794 423.018 221.709 423.058 220.776 422.966C212.259 422.123 205.469 415.82 198.983 410.236C192.755 404.873 186.2 399.89 179.367 395.323C177.042 393.769 174.539 392.085 173.577 389.46C171.909 384.914 177.515 380.799 181.254 383.814Z" fill="#281D16"/>
<path d="M244.433 415.954C245.771 415.509 247.204 415.014 248.559 415.406C245.931 418.601 242.183 420.735 238.244 421.999C234.305 423.264 230.154 423.716 226.028 424.009C223.672 424.177 221.254 424.289 218.995 423.597C216.736 422.905 214.635 421.25 214.045 418.963C213.802 418.023 226.116 419.169 227.032 419.134C232.937 418.908 238.826 417.819 244.433 415.954Z" fill="#281D16"/>
<path d="M140.08 349.395C138.813 352.844 137.608 356.408 135.306 359.272C133.004 362.136 129.307 364.2 125.706 363.469C121.72 362.66 119.018 358.617 118.556 354.576C118.094 350.535 119.413 346.513 120.933 342.741C123.225 337.054 126.013 331.583 128.853 326.15C133.316 317.611 137.918 309.144 142.656 300.754C145.158 296.325 147.841 291.759 152.068 288.929C157.122 285.545 164.762 285.609 167.736 291.562C170.476 297.048 166.651 300.774 163.617 305.016C153.842 318.69 145.875 333.612 140.08 349.395Z" fill="#281D16"/>
<path d="M146.111 394.528C146.724 395.975 147.291 397.797 146.298 399.087C144.865 400.949 142.045 399.621 140.565 397.95C137.509 394.499 135.633 390.106 133.857 385.768C130.027 376.414 126.431 366.947 123.077 357.379C122.394 355.432 121.711 353.399 121.93 351.296C122.149 349.193 123.546 347.005 125.563 346.618C135.199 344.769 134.1 359.583 135.429 365.2C137.848 375.424 142.07 384.986 146.111 394.528Z" fill="#281D16"/>
<path d="M85.284 225.217C80.688 219.808 75.126 215.319 69.6 210.864C68.653 210.101 67.67 209.319 66.495 209.003C62.917 208.041 59.877 211.613 57.888 214.739C57.234 215.766 56.554 216.9 56.684 218.111C56.851 219.66 58.257 220.736 59.549 221.608C70.074 228.708 81.284 235.293 89.305 245.133C91.177 247.429 92.889 249.915 95.25 251.702C98.898 254.461 108.121 254.58 106.126 247.94C104.866 243.744 87.865 228.254 85.284 225.217Z" fill="#281D16"/>
<path d="M7.71295 211.096C5.26195 211.409 2.63996 211.813 0.834961 213.5C2.03896 213.743 3.27795 213.728 4.50595 213.716C23.44 213.548 42.3859 214.834 61.1239 217.558C63.2439 217.866 66.084 217.765 66.683 215.707C69.789 205.013 13.726 210.327 7.71295 211.096Z" fill="#281D16"/>
<path d="M330.592 249.329C361.723 259.919 389.135 281.696 405.44 310.252C411.525 320.909 416.058 332.376 420.154 343.943C425.624 359.39 430.381 375.241 431.782 391.567C406.693 393.761 381.437 394.06 356.303 392.462C324.612 390.446 291.84 384.915 265.903 366.592C257.826 360.886 250.577 354.037 244.241 346.445C239.452 340.707 235.177 334.541 231.483 328.043C224.895 316.455 220.121 303.571 219.656 290.248C219.203 277.253 223.999 255.919 236.67 248.99C252.591 240.282 277.368 240.656 294.879 242.035C307.021 242.991 319.057 245.405 330.592 249.329Z" fill="#3A2B20"/>
<path d="M219.656 290.233C220.121 303.555 224.895 316.439 231.483 328.027C234.68 333.652 238.315 339.027 242.34 344.092C253.169 333.314 261.482 320.137 266.961 305.897C274.324 286.757 277.826 262.444 273.165 241.315C260.169 241.619 246.672 243.504 236.669 248.975C223.999 255.905 219.203 277.238 219.656 290.233Z" fill="#E8BB28"/>
<path d="M337.616 385.111C351.791 371.187 359.72 352.217 366.277 333.461C372.683 315.138 378.15 295.677 377.699 276.517C363.98 264.511 347.86 255.189 330.591 249.315C328.06 248.454 325.503 247.67 322.927 246.954C322.707 248.638 322.579 250.334 322.48 251.96C320.056 291.956 309.531 333.087 283.11 363.211C280.4 366.301 277.355 369.333 273.999 371.767C291.677 382.035 311.895 387.314 332.49 390.136C334.15 388.401 335.945 386.752 337.616 385.111Z" fill="#E8BB28"/>
<path d="M391.607 393.439C405.016 393.346 418.422 392.72 431.781 391.552C430.524 376.91 426.568 362.652 421.82 348.723C415.189 365.49 404.337 380.395 391.607 393.439Z" fill="#E8BB28"/>
<path d="M179.45 214.532C178.216 215.782 177.327 217.369 176.908 219.075C186.97 214.966 198.058 213.401 208.864 214.565C207.924 215.196 209.431 216.396 210.56 216.485C219.985 217.232 229.317 219.143 238.277 222.162C237.638 222.807 236.999 223.451 236.359 224.095C245.104 225.384 253.509 228.918 260.546 234.267C258.994 235.049 257.715 236.361 256.971 237.931C260.003 239.062 261.933 242.573 261.265 245.739C259.361 244.497 256.957 246.994 256.961 249.268C256.965 251.541 258.212 253.654 258.352 255.923C258.492 258.192 256.5 260.907 254.405 260.025C257.129 265.914 258.363 272.484 257.962 278.96C253.712 278.824 249.439 279.435 245.398 280.758C249.216 284.702 251.49 290.105 251.642 295.593C248.257 293.729 244.223 293.074 240.422 293.773C242.898 297.856 243.574 302.988 242.24 307.573C240.799 307.107 239.358 306.641 237.917 306.176C238.606 308.571 238.915 311.074 238.829 313.565C236.506 312.139 233.504 311.882 230.973 312.891C232.508 319.9 233.017 327.132 232.478 334.287C225.781 334.156 219.113 332.679 212.987 329.97C213.281 333.655 214.18 337.292 215.635 340.691C206.534 338.667 198.347 332.827 193.47 324.882C195.299 327.285 191.783 330.772 188.853 330.042C185.923 329.312 184.174 326.374 182.876 323.647C182.958 327.197 183.04 330.748 183.122 334.298C178.84 328.958 175.676 322.725 173.894 316.117C173.119 319.409 172.344 322.701 171.569 325.993C171.282 327.211 170.622 328.722 169.374 328.631C168.597 328.574 168.043 327.877 167.592 327.241C158.695 314.693 149.698 301.958 144.363 287.531C139.244 273.689 137.071 254.192 143.175 240.118C145.504 234.75 150.131 231.001 154.695 227.557C158.415 224.75 162.33 222.219 166.452 220.041C169.775 218.286 176.994 217.02 179.45 214.532Z" fill="#3A2B20"/>
<path d="M120.403 226.639C109.693 228.934 99.7839 234.229 91.1149 240.924C71.4969 256.073 57.8879 278.798 53.7919 303.243C53.5099 304.931 53.4159 306.997 54.8089 307.992C55.5329 308.509 56.4759 308.575 57.3649 308.616C71.0979 309.255 84.8989 308.459 98.5789 309.823C105.941 310.557 113.275 311.916 120.671 311.757C139.347 311.356 157.768 300.109 165.297 283.013C171.406 269.141 169.468 252.162 160.601 239.915C150.816 226.4 136.8 223.125 120.403 226.639Z" fill="#6D4F39"/>
<path d="M165.297 283.011C171.406 269.139 169.468 252.16 160.601 239.913C155.705 233.151 149.748 228.953 142.965 226.886C147.916 231.378 152.092 236.501 154.11 242.804C156.548 250.419 155.404 258.839 152.379 266.24C147.819 277.397 138.969 286.736 128.074 291.888C122.618 294.468 116.725 296.015 110.786 297.084C98.918 299.221 86.7169 299.491 74.7659 297.884C69.1549 297.129 63.348 295.976 57.927 297.61C56.607 298.008 55.5109 298.505 54.5889 299.085C54.2949 300.465 54.027 301.85 53.794 303.242C53.512 304.93 53.418 306.996 54.811 307.991C55.535 308.508 56.478 308.574 57.367 308.615C71.1 309.254 84.901 308.458 98.581 309.822C105.943 310.556 113.277 311.915 120.673 311.756C139.347 311.354 157.768 300.107 165.297 283.011Z" fill="#5B4231"/>
<path d="M106.582 241.217C97.616 246.062 90.407 254.589 88.413 264.583C87.745 267.934 87.668 271.473 88.759 274.711C90.381 279.528 94.496 283.247 99.191 285.196C103.885 287.145 109.112 287.485 114.179 287.07C122.403 286.398 130.601 283.704 137.005 278.501C143.408 273.298 147.84 265.433 147.972 257.183C148.098 249.275 143.283 239.602 135.714 236.234C127.773 232.701 113.685 237.379 106.582 241.217Z" fill="#3A2B20"/>
<path d="M147.972 257.181C148.098 249.273 143.283 239.6 135.714 236.232C133.904 235.427 131.773 235.052 129.48 234.993C133.393 239.48 135.668 245.79 135.581 251.256C135.45 259.506 131.017 267.371 124.614 272.574C118.21 277.777 110.012 280.471 101.788 281.143C98.7649 281.39 95.6849 281.365 92.6949 280.894C94.5379 282.73 96.7879 284.195 99.1919 285.193C103.886 287.142 109.113 287.482 114.18 287.068C122.404 286.396 130.602 283.702 137.006 278.499C143.408 273.296 147.84 265.431 147.972 257.181Z" fill="#231A14"/>
<path opacity="0.38" d="M106.816 246.867C104.776 248.208 102.744 249.683 101.406 251.725C100.554 253.025 100.018 254.506 99.6009 256.004C99.0789 257.878 98.7369 259.885 99.2679 261.757C99.7989 263.629 101.418 265.308 103.362 265.355C105.098 265.397 106.643 264.165 107.578 262.702C108.513 261.239 108.987 259.537 109.661 257.936C111.51 253.547 114.972 249.859 119.235 247.736C124.106 245.31 122.301 242.412 117.492 242.289C113.445 242.185 110.096 244.711 106.816 246.867Z" fill="white"/>
<path d="M241.994 269.008C240.201 267.665 238.087 266.754 235.879 266.374C238.716 268.949 240.983 272.148 242.47 275.679C241.132 274.931 239.794 274.183 238.456 273.436C240.313 278.029 241.494 282.896 241.949 287.83C236.875 283.035 230.946 279.147 224.525 276.404C227.294 276.211 230.1 276.567 232.733 277.446C228.968 274.701 225.203 271.956 221.438 269.211C225.579 268.703 229.87 269.496 233.556 271.45C233.761 267.712 230.18 265.058 227.3 262.667C221.685 258.005 216.67 251.392 209.393 250.826C221.878 251.796 234.801 258.664 241.994 269.008Z" fill="#5B4231"/>
<path d="M301.633 344.211C300.972 346.585 301.928 349.05 302.828 351.362C309.78 369.212 314.117 387.855 315.696 406.68C316.122 411.763 316.355 416.897 317.765 421.838C318.47 424.308 319.528 426.799 321.583 428.584C326.292 432.671 333.991 431.569 340.402 430.184C342.411 429.75 344.607 429.205 345.76 427.687C346.974 426.088 346.616 423.97 346.209 422.078C342.629 405.43 339.05 388.782 335.471 372.135C333.505 362.989 331.503 353.743 327.149 345.267C324.659 340.42 320.893 337.534 314.745 337.656C309.875 337.753 302.961 339.447 301.633 344.211Z" fill="#281D16"/>
<path d="M323.935 420.119C308.821 434.182 293.708 448.244 278.593 462.307C276.752 464.02 274.738 466.286 275.404 468.711C275.992 470.855 278.563 471.937 280.764 471.624C282.965 471.311 284.866 469.976 286.672 468.68C301.828 457.804 316.985 446.927 332.141 436.052C334.825 434.126 337.556 432.154 339.504 429.486C343.111 424.545 342.578 417.569 336.301 415.153C331.202 413.188 327.61 416.699 323.935 420.119Z" fill="#281D16"/>
<path d="M304.367 470.935C304.019 472.267 304.001 473.684 304.313 475.024C304.977 475.945 306.542 475.643 307.23 474.739C307.918 473.835 307.978 472.617 308.01 471.482C309.588 471.346 311.63 471.496 312.117 473.003C312.345 473.708 312.115 474.468 312.087 475.208C312.059 475.948 312.389 476.84 313.122 476.948C314.227 476.914 314.684 475.569 315.175 474.577C315.666 473.586 317.274 472.839 317.701 473.86C317.594 474.857 317.487 475.853 317.38 476.849C319.748 476.67 321.477 473.813 320.537 471.633C319.728 469.755 317.599 468.88 315.654 468.248C308.672 465.98 283.822 458.302 278.058 464.984C269.373 475.055 300.828 471.688 304.367 470.935Z" fill="#281D16"/>
<path d="M208.739 333.322C209.28 337.851 211.913 341.816 214.42 345.627C225.805 362.934 236.066 380.98 245.115 399.614C246.124 401.691 247.425 404.023 249.693 404.456C252.203 404.935 254.553 402.616 255.066 400.113C255.578 397.61 254.767 395.046 253.956 392.623C248.489 376.304 242.542 360.146 236.124 344.177C233.414 337.435 230.064 329.911 223.68 325.873C216.432 321.288 207.463 322.621 208.739 333.322Z" fill="#281D16"/>
<path d="M247.949 395.62C238.921 402.808 229.893 409.997 220.865 417.184C215.807 421.212 210.715 425.271 206.501 430.175C205.607 431.215 204.738 432.767 205.591 433.841C206.174 434.574 207.26 434.62 208.193 434.533C216.715 433.741 223.543 427.479 230.062 421.934C236.322 416.609 242.907 411.665 249.767 407.139C252.101 405.6 254.614 403.931 255.593 401.312C257.288 396.777 251.707 392.628 247.949 395.62Z" fill="#281D16"/>
<path d="M184.579 427.38C183.243 426.926 181.813 426.423 180.456 426.807C183.064 430.018 186.8 432.174 190.731 433.462C194.663 434.75 198.811 435.227 202.936 435.545C205.291 435.727 207.709 435.854 209.971 435.175C212.234 434.497 214.345 432.854 214.949 430.571C215.197 429.633 202.877 430.705 201.961 430.664C196.056 430.403 190.175 429.279 184.579 427.38Z" fill="#281D16"/>
<path d="M163.291 361.511C162.062 364.974 160.712 368.486 160.653 372.16C160.594 375.834 162.12 379.784 165.357 381.522C168.94 383.446 173.602 382.062 176.539 379.249C179.476 376.435 181.031 372.499 182.272 368.625C184.142 362.787 185.493 356.796 186.779 350.802C188.801 341.381 190.67 331.927 192.385 322.446C193.29 317.441 194.143 312.214 192.7 307.336C190.974 301.504 185.055 296.672 178.964 299.352C173.351 301.822 173.913 307.132 173.536 312.334C172.321 329.097 168.916 345.667 163.291 361.511Z" fill="#281D16"/>
<path d="M138.217 408.841C137.097 409.944 135.876 411.41 136.3 412.981C136.911 415.249 140.026 415.102 142.032 414.125C146.176 412.106 149.59 408.765 152.891 405.437C160.009 398.26 166.953 390.89 173.713 383.334C175.089 381.796 176.497 380.18 177.1 378.153C177.702 376.127 177.249 373.57 175.533 372.441C167.338 367.046 162.684 381.154 159.308 385.834C153.162 394.353 145.602 401.571 138.217 408.841Z" fill="#281D16"/>
<path opacity="0.36" d="M275.048 273.845C287.729 276.103 300.856 274.762 313.512 277.156C328.528 279.997 342.017 287.904 355.296 295.467C357.069 296.477 359.054 297.519 361.049 297.091C363.267 296.614 364.765 294.351 364.98 292.092C365.195 289.834 364.377 287.604 363.365 285.574C357.485 273.78 345.298 266.578 333.288 261.152C322.84 256.432 311.895 252.51 300.499 251.249C289.717 250.056 275.833 251.245 266.07 256.562C254.566 262.826 266.934 272.4 275.048 273.845Z" fill="white"/>
<path opacity="0.36" d="M369.861 302.066C370.761 304.873 372.936 307.059 375.068 309.095C377.887 311.788 380.849 314.48 384.47 315.926C385.579 316.369 386.861 316.682 387.941 316.172C388.905 315.716 389.477 314.712 389.886 313.727C390.489 312.278 390.878 310.713 390.784 309.147C390.644 306.819 389.458 304.682 388.092 302.792C385.233 298.835 380.981 295.135 376.057 294.168C371.268 293.228 368.339 297.321 369.861 302.066Z" fill="white"/>
<path d="M273.912 117.996C287.664 101.13 302.984 85.1371 321.656 73.9591C334.366 66.3501 348.484 61.0981 363.077 58.5511C384.312 54.8451 408.087 57.6101 423.992 72.1591C429.812 77.4831 434.344 84.2041 437.096 91.5961C440.029 99.4721 440.93 107.965 441.088 116.367C441.255 125.23 440.609 134.166 438.301 142.724C435.371 153.586 429.802 163.632 422.814 172.449C412.604 185.33 399.289 195.717 384.354 202.581C378.168 205.424 371.669 207.682 364.934 208.678C356.45 209.933 347.818 209.164 339.244 208.961C312.484 208.328 285.604 213.322 260.857 223.526C252.366 227.027 244.008 231.168 234.959 232.735C229.494 233.681 213.548 234.236 210.585 227.542C208.252 222.272 218.863 205.725 221.306 200.665C230.322 181.986 240.724 163.977 252.399 146.834C259.152 136.92 266.33 127.293 273.912 117.996Z" fill="#DCFAFF"/>
<path d="M421.27 167.299C417.821 163.678 414.801 159.692 412.003 155.556C412.171 154.745 411.58 154.052 410.86 153.843C410.39 153.127 409.925 152.407 409.465 151.685C408.468 150.119 407.499 148.534 406.532 146.948C414.319 146.242 422.105 145.534 429.892 144.827C432.565 144.585 435.241 144.311 437.92 144.115C438.05 143.669 438.183 143.223 438.304 142.773C438.461 142.192 438.608 141.61 438.75 141.026C436.344 141.19 433.942 141.433 431.543 141.651C427.44 142.024 423.338 142.396 419.235 142.769C414.582 143.191 409.929 143.614 405.276 144.036C405.117 144.05 404.964 144.089 404.818 144.14C403.156 141.431 401.461 138.744 399.608 136.16C396.467 131.78 392.84 127.663 388.385 124.633C389.929 124.436 391.474 124.241 393.02 124.054C409.05 122.113 425.158 120.594 441.114 118.094C441.11 117.534 441.103 116.975 441.093 116.416C441.084 115.958 441.072 115.501 441.059 115.042C427.337 117.213 413.494 118.648 399.694 120.239C380.528 122.449 361.322 124.997 342.728 130.3C341.354 130.692 339.985 131.104 338.618 131.525C342.706 127.303 346.006 122.488 348.845 117.368C349.31 117.11 349.641 116.638 349.58 116.016C353.223 109.192 356.109 101.88 358.983 94.7391C359.017 94.7411 359.048 94.7501 359.085 94.7511C366.586 94.8811 374.086 95.0191 381.587 95.1421C388.764 95.2601 395.988 95.1981 402.983 93.3881C409.7 91.6491 416.012 88.6161 422.121 85.3821C425.168 83.7691 428.199 82.1231 431.223 80.4661C430.637 79.6261 430.025 78.8041 429.388 78.0021C427.31 79.1361 425.235 80.273 423.153 81.398C417.247 84.59 411.246 87.706 404.817 89.715C401.533 90.742 398.164 91.4531 394.738 91.7921C391.147 92.1461 387.535 92.1861 383.929 92.1491C376.017 92.0681 368.105 91.8881 360.194 91.7461C360.228 91.6621 360.262 91.5781 360.297 91.4941C363.592 83.4211 367.205 75.3881 372.307 68.2721C375.206 64.2291 378.573 60.5481 382.207 57.1491C380.761 57.1121 379.312 57.1091 377.865 57.1411C375.823 59.1951 373.874 61.3461 372.056 63.6271C366.585 70.4941 362.615 78.2881 359.19 86.3371C355.79 94.3281 352.856 102.522 349.075 110.348C348.853 110.808 348.626 111.267 348.398 111.724C347.104 107.144 345.81 102.564 344.516 97.9851C342.897 92.2561 340.988 86.4801 340.316 80.5421C339.719 75.2711 340.127 69.9571 340.857 64.7161C339.773 65.1281 338.694 65.5571 337.622 66.0001C337.291 68.7181 337.066 71.4441 337.013 74.1681C336.881 81.0511 338.44 87.609 340.297 94.187C342.314 101.33 344.333 108.472 346.352 115.614C342.825 121.975 338.552 127.911 332.986 132.672C332.736 132.886 332.603 133.186 332.564 133.504C319.305 138.09 306.539 144.238 295.277 152.628C287.776 158.216 281.196 164.748 275.249 171.956C269.152 179.346 263.514 187.106 257.568 194.617C246.444 208.67 234.426 222.425 219.627 232.726C221.062 232.985 222.561 233.152 224.051 233.246C235.708 224.589 245.744 213.871 254.955 202.658C260.833 195.502 266.399 188.103 272.069 180.784C277.967 173.169 284.15 165.776 291.488 159.496C294.323 157.07 297.288 154.82 300.351 152.715C300.369 152.749 300.379 152.783 300.401 152.817C303.109 157.232 305.824 161.667 307.951 166.399C310.089 171.152 311.314 176.136 311.8 181.318C312.312 186.768 312.335 192.256 313.193 197.673C313.855 201.859 315.131 205.894 316.694 209.819C317.723 209.722 318.752 209.625 319.782 209.545C318.323 205.938 317.118 202.247 316.383 198.424C315.362 193.12 315.361 187.69 314.915 182.323C314.59 178.409 313.955 174.597 312.838 170.884C319.686 172.178 325.858 175.479 331.849 178.913C333.717 179.983 335.601 181.042 337.431 182.183C336.428 189.482 335.394 196.778 334.436 204.082C334.224 205.701 334.035 207.33 333.913 208.962C334.921 208.958 335.928 208.974 336.935 208.985C337.029 207.737 337.161 206.491 337.313 205.253C337.758 201.637 338.289 198.03 338.784 194.42C339.259 190.958 339.733 187.495 340.207 184.032C340.414 184.179 340.622 184.324 340.825 184.476C343.549 186.499 345.811 189.049 347.902 191.704C349.981 194.345 351.92 197.094 354.118 199.64C356.052 201.88 358.144 203.976 360.3 206.001C361.351 206.988 362.419 207.958 363.493 208.92C363.975 208.861 364.457 208.798 364.939 208.727C365.748 208.607 366.553 208.468 367.354 208.313C366.208 207.297 365.07 206.283 363.953 205.261C361.709 203.209 359.513 201.1 357.462 198.854C355.283 196.468 353.361 193.885 351.402 191.321C349.26 188.518 347.049 185.736 344.352 183.442C341.636 181.132 338.577 179.299 335.499 177.52C328.522 173.488 321.342 169.333 313.306 167.897C312.81 167.808 312.306 167.914 311.937 168.203C311.753 167.709 311.568 167.216 311.364 166.725C309.111 161.303 306.077 156.281 303.014 151.288C302.959 151.199 302.898 151.123 302.835 151.052C313.588 144.07 325.5 138.873 337.694 134.981C352.433 130.277 367.643 127.461 382.944 125.352C383.171 125.764 383.59 126.064 384.205 126.064C384.424 126.064 384.615 126.021 384.785 125.953C394.903 131.725 400.358 142.913 406.36 152.432C407.062 153.546 407.782 154.656 408.514 155.763C404.024 163.761 400.632 172.382 398.472 181.295C397.273 186.241 396.45 191.284 395.992 196.359C397.085 195.68 398.164 194.979 399.231 194.26C400.163 186.057 402.129 177.969 405.048 170.248C406.565 166.235 408.366 162.336 410.41 158.566C413.99 163.706 417.972 168.61 422.587 172.781C422.663 172.686 422.743 172.593 422.819 172.497C423.371 171.8 423.911 171.093 424.445 170.381C423.342 169.391 422.282 168.361 421.27 167.299Z" fill="#C5DFE2"/>
<path d="M222.417 226.681C220.531 227.433 218.508 227.839 216.478 227.874C226.431 228.192 234.419 235.82 241.358 242.96C238.341 241.733 235.323 240.506 232.306 239.279C236.002 241.302 239.159 244.298 241.374 247.881C235.485 245.209 229.597 242.537 223.707 239.864C225.49 240.337 227.272 240.81 229.055 241.283C222.728 237.149 215.453 234.478 207.954 233.537C210.67 232.906 213.493 232.741 216.264 233.05C205.37 227.775 192.741 226.163 180.871 228.532C184.226 227.059 187.793 226.072 191.428 225.611C187.843 224.775 184.102 224.607 180.455 225.118C187.141 222.871 194.307 222.116 201.284 221.509C204.873 221.197 208.766 221.915 212.238 222.777C213.862 223.181 221.353 227.105 222.417 226.681Z" fill="#5B4231"/>
<path opacity="0.53" d="M286.433 133.146C292.847 128.041 297.998 121.543 303.996 115.955C318.951 102.021 339.219 94.0901 359.653 93.5801C364.818 93.4511 370.037 93.7841 375.013 95.1741C381.111 96.8791 386.741 100.14 392.965 101.306C399.188 102.473 406.695 100.788 409.54 95.1301C411.638 90.9581 410.556 85.7741 408.102 81.8001C404.756 76.3831 399.116 72.6461 393.065 70.6651C387.014 68.6841 380.545 68.3251 374.181 68.5351C368.092 68.7361 361.994 69.4481 356.129 71.0991C348.878 73.1401 342.104 76.5761 335.501 80.2011C321.382 87.9541 307.797 96.6791 294.873 106.293C288.252 111.218 281.437 116.783 277.521 124.214C276.228 126.668 273.915 130.663 275.263 133.461C277.601 138.314 283.5 135.48 286.433 133.146Z" fill="white"/>
<path opacity="0.53" d="M250.719 172.848C249.866 174.578 249.029 176.403 249.052 178.332C249.074 180.262 250.217 182.316 252.095 182.754C253.334 183.043 254.632 182.593 255.739 181.966C258.774 180.248 260.865 177.289 262.855 174.425C265.91 170.027 268.964 165.629 272.019 161.231C274.484 157.682 277.815 152.578 275.305 148.163C273.424 144.853 269.886 144.528 266.883 146.594C259.849 151.435 254.418 165.344 250.719 172.848Z" fill="white"/>
<path opacity="0.24" d="M240.581 25.2401C228.401 36.0251 219.289 49.8271 211.311 64.0051C204.341 76.3901 198.022 89.5281 196.464 103.653C196.271 105.408 196.169 107.27 196.95 108.854C198.744 112.494 204.318 112.54 207.5 110.021C210.682 107.502 212.126 103.448 213.641 99.6831C220.463 82.7191 231.689 67.5481 245.916 56.0631C250.324 52.5051 255.138 49.2371 260.619 47.8081C264.239 46.8641 268.015 46.7571 271.724 46.2661C277.057 45.5601 282.288 44.0441 287.144 41.7271C292.962 38.9511 298.482 34.6921 300.739 28.6541C302.629 23.5981 301.902 17.6421 298.853 13.1881C292.287 3.59909 280.672 6.14508 271.032 8.57508C259.697 11.4341 249.292 17.5261 240.581 25.2401Z" fill="white"/>
<path opacity="0.24" d="M190.444 125.966C188.624 129.896 188.97 134.46 189.643 138.738C189.983 140.903 190.433 143.14 191.737 144.902C193.041 146.664 195.438 147.804 197.479 147.006C199.527 146.204 200.469 143.89 201.191 141.813C202.345 138.497 203.499 135.181 204.653 131.865C205.373 129.795 206.104 127.618 205.751 125.454C204.362 116.939 193.048 120.343 190.444 125.966Z" fill="white"/>
<path d="M115.791 201.356C114.682 194.345 112.269 187.616 109.869 180.937C109.458 179.793 109.025 178.613 108.187 177.732C105.632 175.047 101.178 176.516 97.852 178.15C96.759 178.687 95.588 179.301 95.069 180.402C94.405 181.812 95.046 183.462 95.695 184.879C100.987 196.419 107.131 207.876 108.859 220.454C109.262 223.388 109.429 226.403 110.517 229.158C112.196 233.412 120.009 238.314 121.761 231.607C122.868 227.367 116.414 205.293 115.791 201.356Z" fill="#281D16"/>
<path d="M56.9039 148.924C54.6479 147.916 52.1989 146.897 49.7789 147.398C50.6809 148.233 51.7469 148.863 52.8019 149.494C69.0559 159.205 84.5649 170.164 99.1459 182.243C100.796 183.61 103.274 185.001 104.856 183.556C113.076 176.039 62.4389 151.397 56.9039 148.924Z" fill="#281D16"/>
</svg>
