<svg width="71" height="74" viewBox="0 0 71 74" fill="none" xmlns="http://www.w3.org/2000/svg">
<path d="M14.564 59.196L0 50.789V33.986L14.564 25.58L20.742 29.148L20.367 29.798L14.564 26.446L0.75 34.419V50.357L14.564 58.33L28.37 50.357V43.853H29.12V50.789L14.564 59.196Z" fill="#FF9600"/>
<path d="M14.564 56.166L2.62997 49.28V35.496L14.564 28.61L18.382 30.818L18.007 31.467L14.564 29.476L3.37997 35.93V48.846L14.564 55.3L25.739 48.847V43.853H26.489V49.279L14.564 56.166Z" fill="#FF9600"/>
<path d="M37.8136 28.0838L30.9707 32.0294L31.3453 32.6791L38.1882 28.7335L37.8136 28.0838Z" fill="#787864"/>
<path d="M22.997 29.717L15.189 25.209V8.396L29.745 0L44.3 8.396V23.573H43.55V8.83L29.745 0.865997L15.939 8.83V24.777L23.372 29.068L22.997 29.717Z" fill="#FF9600"/>
<path d="M29.742 30.584L17.81 23.693V9.91701L29.742 3.02802L41.674 9.91701V23.693L29.742 30.584ZM18.56 23.26L29.742 29.717L40.924 23.26V10.349L29.742 3.89401L18.56 10.349V23.26Z" fill="#FF9600"/>
<path d="M50.0641 28.5735L49.6885 29.2227L56.0482 32.9025L56.4238 32.2534L50.0641 28.5735Z" fill="#FF9600"/>
<path d="M49.912 56.318L49.537 55.668L58.729 50.356V43.853H59.479V50.79L49.912 56.318Z" fill="#FF9600"/>
<path d="M37.307 54.797L30.37 50.786V43.543H31.12V50.359L37.683 54.149L37.307 54.797Z" fill="#FF9600"/>
<path d="M38.0479 29.5472L32.5384 32.7288L32.9134 33.3783L38.4229 30.1967L38.0479 29.5472Z" fill="#FF9600"/>
<path d="M48.7649 30.8082L48.39 31.4578L53.1197 34.1877L53.4946 33.5381L48.7649 30.8082Z" fill="#FF9600"/>
<path d="M51.162 52.568L50.787 51.918L56.109 48.842V43.393H56.859V49.284L51.162 52.568Z" fill="#FF9600"/>
<path d="M36.468 51.2881L32.989 49.2791V42.7531H33.739V48.8471L36.841 50.6381L36.468 51.2881Z" fill="#FF9600"/>
<path d="M36.931 34.0891L36.559 33.4371L36.809 33.2941V33.1381L37.194 33.1281V33.5031L37.559 33.5131V33.7311L36.931 34.0891Z" fill="#FF9600"/>
<path d="M42.444 30.848L42.443 30.5L42.153 30.224L42.444 30.098V30.473L42.697 30.74L42.444 30.5V30.848Z" fill="#FF9600"/>
<path d="M50.869 52.753C50.433 54.547 49.683 56.244 48.834 57.73H39.016C38.164 56.244 37.415 54.546 36.98 52.753H50.869Z" fill="#FF9600"/>
<path d="M49.052 58.105H38.799L38.691 57.916C37.721 56.225 37.023 54.518 36.616 52.841L36.504 52.378H51.347L51.235 52.841C50.83 54.51 50.132 56.217 49.161 57.916L49.052 58.105ZM39.234 57.355H48.615C49.407 55.938 50.001 54.519 50.385 53.128H37.464C37.848 54.525 38.442 55.944 39.234 57.355Z" fill="#787864"/>
<path d="M40.938 29.153C39.716 29.153 38.722 28.159 38.722 26.938C38.722 25.716 39.716 24.723 40.938 24.723C42.16 24.723 43.154 25.717 43.154 26.938C43.154 28.159 42.16 29.153 40.938 29.153ZM40.938 25.473C40.129 25.473 39.472 26.13 39.472 26.938C39.472 27.746 40.129 28.403 40.938 28.403C41.747 28.403 42.404 27.746 42.404 26.938C42.404 26.13 41.747 25.473 40.938 25.473Z" fill="#787864"/>
<path d="M37.086 34.887L36.35 34.741C36.416 34.41 36.514 34.089 36.643 33.789C36.741 33.562 36.845 33.352 36.958 33.143C37.089 32.924 37.221 32.727 37.36 32.546C37.845 31.92 38.498 31.391 39.298 30.973C39.482 30.886 39.658 30.806 39.844 30.733L39.985 30.68C40.076 30.645 40.167 30.611 40.26 30.584C40.378 30.541 40.525 30.493 40.67 30.452C40.808 30.407 40.959 30.364 41.119 30.331C41.39 30.263 41.694 30.207 41.998 30.159L42.326 30.112C42.501 30.087 42.674 30.07 42.854 30.062C43.001 30.046 43.174 30.031 43.34 30.031C43.758 30.014 44.128 30.015 44.518 30.032C44.664 30.028 44.85 30.048 45.023 30.064C45.172 30.071 45.339 30.088 45.503 30.113L45.863 30.157C46.66 30.285 47.378 30.479 48.011 30.736C48.193 30.806 48.37 30.887 48.539 30.967C49.346 31.38 49.999 31.906 50.488 32.538C50.793 32.927 51.037 33.355 51.213 33.809C51.341 34.11 51.437 34.416 51.5 34.732L50.764 34.879C50.711 34.613 50.631 34.355 50.519 34.09C50.365 33.694 50.158 33.33 49.898 32.998C49.474 32.453 48.907 31.996 48.208 31.639C48.064 31.571 47.904 31.497 47.735 31.432C47.148 31.195 46.485 31.015 45.757 30.898L45.401 30.854C45.251 30.832 45.109 30.817 44.967 30.81C44.8 30.794 44.651 30.78 44.501 30.78C44.104 30.765 43.759 30.765 43.376 30.779C43.198 30.78 43.05 30.795 42.908 30.809C42.73 30.818 42.581 30.832 42.43 30.854L42.108 30.899C41.834 30.943 41.551 30.994 41.285 31.061C41.138 31.092 41.013 31.127 40.888 31.169C40.742 31.21 40.612 31.253 40.488 31.297C40.394 31.325 40.324 31.353 40.253 31.38L40.104 31.436C39.947 31.498 39.786 31.571 39.631 31.644C38.941 32.005 38.371 32.465 37.952 33.004C37.831 33.161 37.717 33.334 37.608 33.513C37.513 33.689 37.418 33.879 37.331 34.084C37.223 34.337 37.141 34.607 37.086 34.887Z" fill="#787864"/>
<path d="M43.926 46.028C43.822 46.028 43.718 46.021 43.613 46.013C43.585 46.013 43.526 46.013 43.456 45.997C43.393 45.996 43.339 45.987 43.285 45.977C43.22 45.969 43.159 45.962 43.092 45.94C43.079 45.944 43.044 45.937 43 45.925C42.963 45.921 42.926 45.915 42.89 45.905L42.812 45.884C42.772 45.878 42.723 45.864 42.673 45.838C42.663 45.845 42.628 45.834 42.597 45.823C42.549 45.808 42.514 45.797 42.488 45.787L42.427 45.768L42.414 45.781L42.139 45.662C42.118 45.66 42.041 45.629 41.957 45.587C41.86 45.55 41.732 45.49 41.604 45.422C41.567 45.408 41.5 45.371 41.432 45.332C41.199 45.208 40.971 45.062 40.737 44.9C40.66 44.849 40.569 44.784 40.486 44.71C40.45 44.691 40.372 44.631 40.296 44.571L40.158 44.459C40.095 44.413 40.042 44.367 39.986 44.312L39.9 44.242C39.731 44.089 39.599 43.965 39.476 43.833C39.264 43.629 39.055 43.389 38.854 43.147C38.749 43.036 38.646 42.908 38.544 42.762L38.198 42.288C37.826 41.758 37.492 41.183 37.204 40.575L37.882 40.254C38.169 40.859 38.504 41.43 38.878 41.95L39.102 42.257C39.239 42.445 39.32 42.548 39.416 42.65C39.614 42.887 39.806 43.108 40.011 43.307C40.131 43.434 40.245 43.541 40.367 43.649L40.204 44.008L40.446 43.722C40.546 43.81 40.575 43.837 40.612 43.863L40.759 43.982C40.82 44.029 40.88 44.077 40.942 44.118C41.041 44.2 41.102 44.243 41.158 44.28C41.375 44.429 41.579 44.561 41.797 44.677C41.847 44.705 41.887 44.729 41.928 44.746C42.051 44.81 42.147 44.856 42.241 44.894L42.293 44.843L42.773 45.095H42.774C42.783 45.095 42.81 45.103 42.837 45.113L43.625 45.267C43.887 45.277 44.013 45.278 44.182 45.266L44.227 45.255L44.32 45.256L44.442 45.238L44.604 45.595L44.535 45.226C44.615 45.209 44.648 45.204 44.687 45.193L44.857 45.151L44.862 45.152L44.923 45.137C45.03 45.108 45.129 45.083 45.227 45.044C45.337 45.008 45.417 44.978 45.492 44.941C45.59 44.907 45.623 44.891 45.661 44.872L45.817 44.797C45.918 44.753 45.947 44.737 45.999 44.704C46.1 44.652 46.175 44.611 46.243 44.57C46.354 44.506 46.449 44.453 46.542 44.386C46.756 44.241 46.962 44.085 47.163 43.923C47.217 43.883 47.249 43.857 47.281 43.825L47.508 43.635C47.647 43.507 47.742 43.416 47.834 43.319C48.051 43.108 48.241 42.888 48.424 42.668C48.536 42.548 48.617 42.445 48.7 42.329L48.976 41.953C49.36 41.406 49.694 40.836 49.966 40.261L50.297 40.418L50.68 40.414L50.644 40.582C50.37 41.161 50.037 41.734 49.658 42.286V42.294L49.306 42.769C49.208 42.907 49.106 43.035 48.986 43.163C48.801 43.387 48.591 43.627 48.367 43.845C48.255 43.964 48.124 44.087 47.984 44.21L47.798 44.368C47.747 44.418 47.688 44.468 47.617 44.518C47.417 44.681 47.193 44.849 46.971 45C46.863 45.077 46.748 45.143 46.634 45.208C46.544 45.262 46.45 45.314 46.364 45.356C46.327 45.381 46.248 45.428 46.152 45.463L45.983 45.546C45.912 45.582 45.836 45.612 45.763 45.633C45.716 45.664 45.597 45.71 45.476 45.746C45.403 45.777 45.311 45.805 45.215 45.831L45.176 45.871L45.039 45.877C44.976 45.901 44.913 45.916 44.849 45.922C44.796 45.935 44.749 45.943 44.704 45.95C44.695 45.958 44.634 45.965 44.593 45.97C44.545 45.978 44.498 45.985 44.455 45.99L44.32 46.002C44.335 46.01 44.27 46.01 44.227 46.01C44.133 46.021 44.029 46.028 43.926 46.028Z" fill="#787864"/>
<path d="M46.908 29.153C45.686 29.153 44.692 28.159 44.692 26.938C44.692 25.716 45.686 24.723 46.908 24.723C48.13 24.723 49.124 25.717 49.124 26.938C49.124 28.159 48.13 29.153 46.908 29.153ZM46.908 25.473C46.099 25.473 45.442 26.13 45.442 26.938C45.442 27.746 46.099 28.403 46.908 28.403C47.717 28.403 48.374 27.746 48.374 26.938C48.374 26.13 47.717 25.473 46.908 25.473Z" fill="#787864"/>
<path d="M22.072 38.8759C21.649 40.0839 21.887 41.514 23.241 42.722C25.657 44.876 31.187 43.714 33.772 42.591C34.764 42.16 36.165 41.314 37.542 40.414C39.634 39.053 41.695 37.5599 42.28 37.1369L42.288 37.13C42.388 37.053 42.44 37.015 42.44 37.015L22.072 38.8759Z" fill="white"/>
<path d="M27.35 44.308C25.669 44.308 24.071 43.964 22.992 43.002C21.655 41.809 21.191 40.26 21.719 38.752L22.426 39C22.178 39.709 21.986 41.099 23.491 42.442C25.653 44.371 30.814 43.467 33.623 42.247C34.471 41.879 35.721 41.157 37.337 40.1C38.714 39.204 40.3 38.107 42.052 36.839L42.221 36.71L42.66 37.318L42.518 37.426C40.73 38.722 39.133 39.826 37.747 40.729C36.097 41.808 34.809 42.551 33.923 42.935C32.483 43.56 29.827 44.308 27.35 44.308Z" fill="#787864"/>
<path d="M42.442 36.363C37.277 36.363 25.611 28.509 21.168 29.317C18.466 29.809 16.23 32.593 18.07 35.915C19.981 39.365 26.803 40.252 30.233 39.999C33.89 39.73 42.442 37.081 42.442 37.081V36.363Z" fill="white"/>
<path d="M29.062 40.414C25.746 40.414 19.63 39.505 17.742 36.096C16.906 34.587 16.798 33.011 17.438 31.66C18.092 30.279 19.496 29.239 21.1 28.947C21.335 28.904 21.594 28.883 21.87 28.883C24.379 28.883 28.21 30.619 32.266 32.456C36.098 34.192 40.061 35.987 42.442 35.987H42.817V37.356L42.553 37.438C42.201 37.546 33.918 40.102 30.26 40.372C29.895 40.399 29.493 40.414 29.062 40.414ZM21.87 29.633C21.639 29.633 21.426 29.651 21.235 29.685C19.864 29.934 18.669 30.814 18.116 31.981C17.738 32.778 17.48 34.076 18.398 35.732C19.894 38.433 24.975 39.663 29.062 39.663C29.473 39.663 29.857 39.65 30.205 39.624C33.421 39.388 40.601 37.248 42.066 36.803V36.725C39.512 36.562 35.673 34.824 31.956 33.139C28.152 31.416 24.217 29.633 21.87 29.633Z" fill="#787864"/>
<path d="M35.8 18.022C34.999 18.022 34.348 17.371 34.348 16.57C34.348 15.769 34.999 15.117 35.8 15.117C36.601 15.117 37.252 15.769 37.252 16.57C37.252 17.371 36.6 18.022 35.8 18.022ZM35.8 15.868C35.413 15.868 35.098 16.183 35.098 16.571C35.098 16.958 35.414 17.273 35.8 17.273C36.186 17.273 36.502 16.958 36.502 16.571C36.502 16.183 36.186 15.868 35.8 15.868Z" fill="#787864"/>
<path d="M52.047 18.022C51.246 18.022 50.595 17.371 50.595 16.57C50.595 15.769 51.246 15.117 52.047 15.117C52.848 15.117 53.499 15.769 53.499 16.57C53.499 17.371 52.847 18.022 52.047 18.022ZM52.047 15.868C51.66 15.868 51.345 16.183 51.345 16.571C51.345 16.958 51.66 17.273 52.047 17.273C52.434 17.273 52.749 16.958 52.749 16.571C52.749 16.183 52.433 15.868 52.047 15.868Z" fill="#787864"/>
<path d="M65.771 38.876C66.195 40.084 65.956 41.514 64.602 42.722C62.186 44.876 56.664 43.714 54.072 42.591C53.079 42.16 51.687 41.314 50.302 40.422V40.415C48.218 39.061 46.164 37.569 45.572 37.138C45.465 37.061 45.403 37.016 45.403 37.016L65.771 38.876Z" fill="white"/>
<path d="M60.497 44.306C58.02 44.306 55.362 43.559 53.923 42.936C53.062 42.562 51.847 41.864 50.1 40.738L49.928 40.618C48.568 39.729 47.03 38.661 45.352 37.441L45.179 37.316L45.628 36.715L45.79 36.833C47.53 38.099 49.116 39.197 50.507 40.101L50.678 40.218C52.298 41.257 53.427 41.904 54.222 42.248C57.031 43.465 62.194 44.369 64.353 42.443C65.859 41.099 65.666 39.71 65.418 39.001L66.125 38.753C66.654 40.26 66.19 41.809 64.853 43.003C63.775 43.962 62.178 44.306 60.497 44.306Z" fill="#787864"/>
<path d="M45.405 36.363C50.57 36.363 62.235 28.509 66.678 29.317C69.381 29.809 71.616 32.593 69.776 35.915C67.866 39.365 61.043 40.252 57.613 39.999C53.957 39.73 45.405 37.081 45.405 37.081V36.363Z" fill="white"/>
<path d="M58.784 40.414C58.353 40.414 57.951 40.4 57.586 40.373C53.929 40.104 45.646 37.548 45.294 37.439L45.03 37.357V35.988H45.405C47.786 35.988 51.748 34.193 55.58 32.457C59.637 30.619 63.468 28.884 65.976 28.884C66.251 28.884 66.51 28.905 66.746 28.948C68.35 29.24 69.754 30.279 70.408 31.66C71.049 33.011 70.94 34.586 70.104 36.096C68.217 39.505 62.1 40.414 58.784 40.414ZM45.78 36.803C47.247 37.248 54.426 39.388 57.64 39.624C57.989 39.65 58.372 39.663 58.784 39.663C62.872 39.663 67.953 38.433 69.448 35.732C70.366 34.075 70.108 32.777 69.73 31.981C69.177 30.814 67.982 29.935 66.611 29.686C66.421 29.651 66.207 29.634 65.976 29.634C63.629 29.634 59.695 31.417 55.889 33.14C52.171 34.824 48.333 36.563 45.78 36.726V36.803Z" fill="#787864"/>
<path d="M46.222 24.207C46.789 21.116 49.846 18.503 51.351 17.386C51.211 17.266 51.103 17.115 51.039 16.939C49.496 18.072 46.38 20.713 45.718 23.967C45.888 24.039 46.057 24.119 46.222 24.207Z" fill="#787864"/>
<path d="M41.624 24.207C41.79 24.119 41.959 24.04 42.13 23.967C41.466 20.714 38.352 18.072 36.808 16.939C36.745 17.114 36.636 17.266 36.497 17.385C38.001 18.503 41.058 21.114 41.624 24.207Z" fill="#787864"/>
<path d="M57.343 20.071C57.312 20.112 55.422 22.501 55.39 22.541C55.386 22.605 55.093 27.716 55.035 28.723C54.375 29.275 50.849 32.224 50.19 32.78C50.459 33.123 50.685 33.509 50.861 33.943C50.917 33.911 50.973 33.885 51.025 33.834C51.24 33.62 55.594 29.285 55.808 29.072C55.801 28.833 55.634 23.065 55.622 22.62L57.343 20.071Z" fill="#787864"/>
<path d="M36.865 33.872C36.906 33.905 36.946 33.916 36.987 33.938C37.164 33.504 37.39 33.12 37.659 32.777L32.812 28.722C32.754 27.716 32.461 22.604 32.457 22.54C32.428 22.5 30.535 20.11 30.504 20.07L32.226 22.618C32.213 23.062 32.046 28.831 32.04 29.07C32.065 29.097 36.837 33.848 36.865 33.872Z" fill="#787864"/>
<path d="M48.399 31.748L48.2 31.647C47.065 31.073 45.587 30.77 43.924 30.77C42.261 30.77 40.782 31.073 39.648 31.647L39.449 31.748L39.265 31.62C38.021 30.758 37.58 29.575 37.58 28.823C37.58 26.806 40.778 23.197 43.925 23.197C47.072 23.197 50.269 26.807 50.269 28.823C50.269 29.574 49.828 30.758 48.584 31.62L48.399 31.748ZM43.924 23.947C41.138 23.947 38.329 27.291 38.329 28.823C38.329 29.257 38.585 30.15 39.518 30.876C40.725 30.315 42.242 30.019 43.923 30.019C45.605 30.019 47.121 30.315 48.328 30.876C49.261 30.15 49.517 29.257 49.517 28.823C49.517 27.291 46.71 23.947 43.924 23.947Z" fill="#787864"/>
<path d="M37.117 45.348C37.255 44.867 37.407 44.402 37.588 43.974C37.645 43.838 37.716 43.722 37.777 43.591C36.829 44.071 35.214 45.011 32.316 46.598C32.237 46.861 29.775 55.064 29.522 55.904L24.938 57.729C25.053 57.691 29.659 56.187 29.773 56.149C29.814 56.039 32.594 48.533 33.07 47.248C33.613 46.992 35.579 46.07 37.117 45.348Z" fill="#787864"/>
<path d="M36.565 49.398C36.565 49.249 36.565 49.1 36.575 48.951C36.588 48.471 36.622 48.009 36.673 47.563C36.667 47.569 36.659 47.569 36.653 47.575C36.351 47.863 34.176 49.934 33.877 50.219C33.876 50.569 33.824 61.751 33.82 62.65L30.862 65.493C30.93 65.436 34.026 62.836 34.094 62.779C34.1 62.683 34.838 52.46 34.963 50.731C35.272 50.474 35.967 49.897 36.565 49.398Z" fill="#787864"/>
<path d="M62.909 57.728L58.326 55.904C58.073 55.064 55.609 46.856 55.531 46.598C55.511 46.587 51.662 44.474 50.081 43.608C50.139 43.734 50.207 43.844 50.261 43.974C50.446 44.412 50.601 44.887 50.74 45.38C51.688 45.82 52.995 46.414 54.778 47.249C55.253 48.535 58.034 56.041 58.075 56.149C58.182 56.184 62.797 57.691 62.909 57.728Z" fill="#787864"/>
<path d="M56.984 65.493L54.027 62.65C54.022 61.755 53.971 50.571 53.969 50.219C53.954 50.205 51.342 47.717 51.175 47.559C51.226 48.005 51.259 48.468 51.273 48.95C51.282 49.099 51.282 49.249 51.282 49.399L52.884 50.731C53.009 52.459 53.745 62.683 53.753 62.779C53.82 62.836 56.917 65.436 56.984 65.493Z" fill="#787864"/>
<path d="M43.922 63.803C43.077 63.803 40.497 61.086 38.689 57.915C37.72 56.225 37.022 54.518 36.615 52.841C36.333 51.704 36.189 50.568 36.189 49.467C36.189 49.287 36.189 49.106 36.201 48.927C36.252 47.065 36.602 45.345 37.242 43.828C37.502 43.206 37.825 42.612 38.26 41.963L38.564 41.509L38.878 41.956C40.322 44.006 42.255 45.28 43.924 45.28C45.591 45.28 47.525 44.006 48.97 41.955L49.285 41.509L49.589 41.962C50.023 42.609 50.346 43.202 50.607 43.83C51.247 45.344 51.597 47.063 51.649 48.941C51.66 49.108 51.66 49.288 51.66 49.468C51.66 50.569 51.516 51.704 51.234 52.844C50.829 54.511 50.131 56.218 49.16 57.917C47.352 61.087 44.768 63.803 43.922 63.803ZM38.594 42.833C38.328 43.27 38.115 43.687 37.934 44.119C37.331 45.552 36.999 47.18 36.951 48.962C36.94 49.139 36.94 49.304 36.94 49.469C36.94 50.509 37.076 51.584 37.344 52.664C37.735 54.274 38.407 55.915 39.341 57.545C41.22 60.84 43.43 62.878 43.922 63.049C44.416 62.878 46.631 60.839 48.508 57.545C49.444 55.907 50.116 54.265 50.505 52.665C50.773 51.583 50.909 50.508 50.909 49.468C50.909 49.303 50.909 49.138 50.899 48.974C50.849 47.177 50.518 45.548 49.915 44.119C49.734 43.684 49.519 43.266 49.254 42.831C47.693 44.843 45.731 46.029 43.924 46.029C42.116 46.029 40.153 44.844 38.594 42.833Z" fill="#787864"/>
<path d="M47.682 43.974C46.516 45.008 45.197 45.655 43.924 45.655C42.65 45.655 41.331 45.009 40.166 43.974H37.588C37.007 45.353 36.629 47.006 36.575 48.951H51.273C51.219 47.006 50.842 45.352 50.26 43.974H47.682Z" fill="#FF9600"/>
<path d="M51.659 49.326H36.189L36.2 48.941C36.252 47.066 36.602 45.346 37.242 43.829L37.339 43.599H40.309L40.415 43.694C41.567 44.716 42.813 45.28 43.924 45.28C45.033 45.28 46.279 44.716 47.433 43.694L47.54 43.6H50.511L50.608 43.829C51.248 45.344 51.598 47.064 51.65 48.942L51.659 49.326ZM36.965 48.576H50.884C50.805 47.036 50.511 45.617 50.009 44.349H47.823C45.266 46.551 42.577 46.547 40.026 44.349H37.84C37.338 45.618 37.044 47.038 36.965 48.576Z" fill="#787864"/>
</svg>
