<svg width="169" height="224" viewBox="0 0 169 224" fill="none" xmlns="http://www.w3.org/2000/svg">
<path opacity="0.25" d="M149.913 109.088C149.232 108.106 148.53 107.15 147.815 106.211C147.582 105.905 147.34 105.611 147.104 105.309C146.613 104.683 146.12 104.063 145.615 103.457C145.332 103.116 145.044 102.783 144.757 102.449C144.28 101.896 143.8 101.349 143.314 100.813C143.014 100.483 142.713 100.156 142.411 99.831C141.91 99.297 141.404 98.774 140.894 98.258C140.604 97.963 140.315 97.666 140.022 97.378C139.442 96.807 138.855 96.251 138.264 95.701C138.038 95.491 137.815 95.273 137.587 95.065C136.758 94.309 135.921 93.573 135.077 92.86C135.011 92.803 134.943 92.752 134.877 92.696C134.1 92.044 133.317 91.409 132.529 90.792C132.282 90.599 132.034 90.414 131.786 90.224C131.17 89.751 130.553 89.285 129.932 88.834C129.654 88.632 129.375 88.435 129.097 88.236C128.491 87.805 127.885 87.384 127.278 86.974C127.01 86.793 126.744 86.613 126.476 86.436C125.821 86.004 125.166 85.585 124.512 85.176C124.302 85.044 124.092 84.909 123.882 84.781C123.041 84.265 122.202 83.766 121.365 83.288C121.346 83.277 121.327 83.265 121.307 83.255C119.501 82.225 117.711 81.287 115.948 80.432C115.853 80.386 115.76 80.343 115.665 80.298C114.895 79.928 114.13 79.573 113.371 79.236C113.242 79.178 113.114 79.122 112.985 79.066C112.242 78.74 111.508 78.429 110.781 78.134C110.677 78.092 110.573 78.049 110.47 78.008C109.666 77.686 108.872 77.381 108.092 77.098C108.084 77.095 108.076 77.092 108.069 77.089C108.065 77.086 108.061 77.083 108.057 77.08C107.642 76.722 107.217 76.374 106.782 76.038C106.745 76.01 106.707 75.982 106.67 75.954C106.266 75.644 105.856 75.341 105.435 75.051C105.287 74.949 105.132 74.853 104.983 74.752C104.655 74.535 104.329 74.314 103.992 74.109C103.479 73.795 102.957 73.492 102.422 73.207C102.746 72.962 103.063 72.708 103.372 72.448C103.474 72.362 103.573 72.272 103.674 72.185C103.677 72.183 103.679 72.181 103.681 72.179C103.683 72.177 103.686 72.175 103.688 72.173C103.888 71.999 104.086 71.825 104.28 71.646C104.394 71.541 104.505 71.432 104.616 71.325C104.622 71.32 104.628 71.314 104.633 71.309C104.639 71.303 104.644 71.298 104.65 71.292C104.817 71.13 104.983 70.967 105.145 70.801C105.265 70.678 105.382 70.553 105.499 70.428C105.657 70.259 105.812 70.087 105.965 69.913L105.966 69.912L105.967 69.911C106.081 69.781 106.194 69.65 106.305 69.518C106.451 69.345 106.592 69.168 106.732 68.992C106.735 68.987 106.739 68.983 106.743 68.978C106.747 68.973 106.75 68.969 106.754 68.964C106.856 68.835 106.958 68.706 107.057 68.575C107.203 68.381 107.344 68.182 107.484 67.982C107.574 67.855 107.667 67.729 107.753 67.6C107.928 67.341 108.093 67.077 108.256 66.813C108.313 66.72 108.371 66.63 108.427 66.537C108.615 66.221 108.796 65.899 108.968 65.573C109.036 65.444 109.099 65.312 109.164 65.181C109.166 65.177 109.169 65.172 109.171 65.167C109.174 65.162 109.176 65.157 109.178 65.152C109.286 64.936 109.394 64.721 109.495 64.503C109.495 64.502 109.496 64.501 109.496 64.5C109.496 64.499 109.497 64.498 109.497 64.497C109.565 64.349 109.629 64.198 109.694 64.049C109.696 64.044 109.698 64.039 109.7 64.034C109.702 64.029 109.704 64.025 109.706 64.02C109.795 63.813 109.883 63.606 109.966 63.396C110.031 63.233 110.091 63.069 110.152 62.905C110.23 62.691 110.306 62.475 110.378 62.258C110.432 62.097 110.483 61.936 110.533 61.774C110.534 61.769 110.536 61.765 110.537 61.761C110.538 61.757 110.539 61.752 110.541 61.748C110.606 61.53 110.668 61.31 110.727 61.091C110.728 61.089 110.728 61.086 110.729 61.084C110.73 61.082 110.73 61.08 110.731 61.078C110.774 60.916 110.818 60.756 110.857 60.593C110.916 60.355 110.965 60.114 111.015 59.871C111.017 59.864 111.019 59.857 111.02 59.85C111.022 59.842 111.023 59.835 111.025 59.827C111.052 59.689 111.085 59.554 111.11 59.415C111.11 59.413 111.111 59.41 111.111 59.408C111.111 59.405 111.112 59.403 111.112 59.401C111.172 59.074 111.221 58.744 111.265 58.412C111.275 58.343 111.288 58.274 111.296 58.205C111.297 58.204 111.297 58.202 111.297 58.201C111.297 58.196 111.298 58.191 111.299 58.186C111.299 58.186 111.298 58.186 111.298 58.187C111.402 57.335 111.457 56.469 111.457 55.592C111.457 54.99 111.424 54.397 111.375 53.807C111.366 53.708 111.36 53.61 111.351 53.512C111.295 52.944 111.216 52.381 111.116 51.825C111.099 51.733 111.081 51.642 111.063 51.551C110.951 50.973 110.821 50.401 110.663 49.839C110.663 49.838 110.663 49.838 110.663 49.837C110.496 49.246 110.301 48.665 110.085 48.094C110.073 48.064 110.063 48.033 110.052 48.003C109.837 47.439 109.596 46.886 109.334 46.344C109.318 46.311 109.302 46.278 109.286 46.244C108.464 44.56 107.429 42.987 106.209 41.553C106.223 41.541 106.236 41.53 106.25 41.519C106.559 41.265 106.872 41.005 107.19 40.74C107.219 40.716 107.249 40.691 107.278 40.667C108.299 39.812 109.366 38.898 110.463 37.943C110.491 37.918 110.521 37.893 110.549 37.868C111.658 36.9 112.796 35.89 113.946 34.854C113.951 34.849 113.956 34.844 113.961 34.84C116.676 32.395 119.458 29.81 122.089 27.301C122.105 27.286 122.119 27.272 122.134 27.258C123.246 26.198 124.33 25.152 125.371 24.137C125.396 24.112 125.422 24.087 125.448 24.062C125.772 23.745 126.092 23.431 126.409 23.121C126.428 23.103 126.446 23.084 126.465 23.066C127.126 22.416 127.765 21.782 128.377 21.169C128.417 21.13 128.455 21.091 128.494 21.052C128.761 20.784 129.023 20.521 129.279 20.262C129.316 20.224 129.354 20.187 129.391 20.149C129.967 19.566 130.515 19.006 131.03 18.474C131.062 18.441 131.093 18.409 131.124 18.376C131.341 18.151 131.552 17.933 131.756 17.719C131.804 17.669 131.852 17.619 131.899 17.57C132.113 17.345 132.32 17.126 132.519 16.914C132.535 16.898 132.551 16.881 132.566 16.864C132.783 16.634 132.989 16.412 133.186 16.197C133.22 16.161 133.251 16.127 133.284 16.091C133.441 15.92 133.592 15.755 133.735 15.596C133.781 15.545 133.825 15.495 133.87 15.446C134.002 15.299 134.127 15.157 134.246 15.021C134.282 14.98 134.32 14.938 134.354 14.898C134.5 14.729 134.638 14.568 134.764 14.418C134.781 14.398 134.794 14.381 134.811 14.36C134.916 14.235 135.012 14.116 135.101 14.005C135.133 13.965 135.163 13.927 135.192 13.889C135.262 13.799 135.326 13.715 135.383 13.636C135.406 13.604 135.431 13.571 135.452 13.54C135.525 13.438 135.589 13.343 135.637 13.262C138.256 8.89701 109.438 3.48102 106.819 5.92702C104.199 8.37202 127.777 13.436 128.65 13.436C128.674 13.436 128.665 13.47 128.638 13.519C128.631 13.533 128.62 13.55 128.61 13.567C128.578 13.619 128.531 13.684 128.467 13.766C128.451 13.786 128.442 13.801 128.424 13.823C128.338 13.931 128.23 14.062 128.1 14.214C128.073 14.246 128.04 14.283 128.01 14.317C127.893 14.452 127.763 14.6 127.617 14.763C127.579 14.805 127.544 14.846 127.505 14.889C127.318 15.097 127.116 15.321 126.89 15.567C126.89 15.568 126.889 15.569 126.888 15.57C126.663 15.814 126.416 16.082 126.157 16.361C126.105 16.417 126.053 16.472 126.001 16.529C125.753 16.795 125.493 17.073 125.218 17.365C125.194 17.39 125.172 17.414 125.148 17.439C124.843 17.763 124.521 18.104 124.186 18.457C124.132 18.514 124.077 18.572 124.023 18.629C123.727 18.941 123.421 19.262 123.105 19.593C123.05 19.651 122.997 19.707 122.941 19.765C122.574 20.149 122.196 20.544 121.806 20.951C121.774 20.984 121.741 21.018 121.708 21.052C121.36 21.415 121.002 21.788 120.638 22.166C120.542 22.265 120.447 22.364 120.35 22.465C119.976 22.853 119.596 23.246 119.208 23.648C119.18 23.677 119.152 23.706 119.124 23.735C118.721 24.152 118.309 24.577 117.895 25.005C117.756 25.149 117.616 25.293 117.476 25.438C117.185 25.738 116.891 26.041 116.596 26.344C116.441 26.503 116.287 26.661 116.132 26.821C115.741 27.222 115.349 27.626 114.954 28.031C114.782 28.208 114.609 28.384 114.437 28.561C114.186 28.819 113.935 29.076 113.684 29.333C113.47 29.552 113.256 29.772 113.042 29.99C112.837 30.2 112.633 30.409 112.429 30.618C111.991 31.066 111.556 31.513 111.121 31.957C110.99 32.09 110.86 32.224 110.73 32.355C110.437 32.655 110.145 32.953 109.854 33.25C109.779 33.327 109.705 33.403 109.629 33.479C107.613 35.538 105.676 37.51 103.961 39.253C103.687 39.007 103.405 38.768 103.118 38.533C102.832 38.301 102.541 38.074 102.243 37.853C102.239 37.85 102.234 37.847 102.23 37.843C101.937 37.626 101.639 37.416 101.335 37.212C101.324 37.204 101.314 37.197 101.303 37.19C101.006 36.991 100.704 36.797 100.397 36.611C100.376 36.598 100.356 36.587 100.335 36.574C100.036 36.393 99.733 36.217 99.425 36.048C99.396 36.032 99.366 36.018 99.338 36.002C99.037 35.839 98.734 35.68 98.426 35.528C98.382 35.506 98.337 35.486 98.293 35.464C97.997 35.322 97.699 35.182 97.397 35.05C97.337 35.024 97.277 35 97.216 34.974C96.926 34.85 96.634 34.729 96.338 34.616C96.263 34.587 96.186 34.56 96.109 34.532C95.826 34.427 95.542 34.323 95.253 34.226C95.158 34.195 95.062 34.166 94.967 34.136C94.694 34.049 94.42 33.962 94.143 33.883C94.026 33.85 93.907 33.822 93.789 33.79C93.53 33.721 93.271 33.65 93.008 33.589C92.864 33.556 92.72 33.528 92.576 33.496C92.334 33.444 92.093 33.39 91.847 33.345C91.677 33.313 91.503 33.287 91.331 33.259C91.108 33.222 90.888 33.182 90.663 33.151C90.465 33.124 90.263 33.104 90.062 33.081C89.861 33.058 89.661 33.03 89.458 33.011C89.215 32.989 88.97 32.976 88.725 32.96C88.561 32.949 88.399 32.934 88.234 32.926C87.823 32.906 87.409 32.897 86.992 32.897C86.587 32.897 86.184 32.908 85.784 32.925C79.448 33.211 73.748 35.735 69.575 39.66C60.287 30.221 43.859 13.435 44.487 13.435C45.36 13.435 68.938 8.37201 66.318 5.92601C63.699 3.48001 34.88 8.896 37.5 13.261C39.234 16.152 56.659 33.201 67.43 41.964C64.879 45.111 63.195 48.894 62.691 53.009C62.691 53.013 62.69 53.016 62.69 53.02C62.641 53.422 62.602 53.828 62.577 54.236C62.575 54.259 62.572 54.282 62.571 54.305C62.545 54.732 62.529 55.161 62.529 55.594C62.529 61.865 65.274 67.538 69.706 71.647C69.707 71.648 69.707 71.648 69.708 71.649C70.297 72.195 70.914 72.716 71.561 73.205C70.001 74.038 68.537 75.002 67.163 76.064C53.496 80.34 34.859 90.96 22.3 109.083C2.42299 137.766 -2.26899 168.934 11.82 178.698C20.078 184.421 32.956 181.511 46.203 172.354C47.721 175.922 49.815 180.027 52.273 184.331H52.272C52.282 184.348 52.293 184.365 52.302 184.382C53.048 185.687 53.826 187.009 54.632 188.34C54.664 188.393 54.695 188.444 54.728 188.497C55.529 189.816 56.356 191.144 57.205 192.471C57.238 192.523 57.27 192.575 57.304 192.626C58.166 193.972 59.05 195.316 59.949 196.65C59.963 196.671 59.976 196.691 59.991 196.712C69.591 210.944 80.903 223.898 86.572 223.898C86.718 223.898 86.868 223.886 87.024 223.863C87.077 223.856 87.132 223.841 87.186 223.83C87.292 223.811 87.397 223.792 87.508 223.762C87.576 223.744 87.65 223.717 87.72 223.696C87.821 223.665 87.919 223.635 88.023 223.596C88.102 223.567 88.185 223.53 88.266 223.495C88.367 223.454 88.465 223.414 88.568 223.366C88.656 223.326 88.747 223.278 88.837 223.232C88.938 223.181 89.038 223.132 89.142 223.076C89.237 223.024 89.335 222.966 89.432 222.91C89.535 222.85 89.637 222.792 89.742 222.727C89.844 222.663 89.95 222.595 90.055 222.527C90.158 222.46 90.262 222.393 90.368 222.321C90.478 222.247 90.591 222.167 90.702 222.088C90.806 222.014 90.911 221.94 91.017 221.861C91.134 221.774 91.253 221.683 91.373 221.593C91.477 221.512 91.582 221.432 91.688 221.348C91.812 221.25 91.937 221.149 92.063 221.046C92.169 220.96 92.275 220.873 92.382 220.783C92.514 220.674 92.646 220.56 92.78 220.445C92.884 220.355 92.989 220.265 93.093 220.173C93.233 220.051 93.372 219.926 93.514 219.798C93.618 219.704 93.722 219.609 93.827 219.513C93.973 219.378 94.122 219.241 94.27 219.101C94.371 219.006 94.471 218.911 94.572 218.814C94.727 218.666 94.884 218.515 95.041 218.361C95.139 218.265 95.237 218.168 95.336 218.07C95.501 217.907 95.666 217.743 95.832 217.574C95.922 217.483 96.013 217.389 96.103 217.298C96.281 217.115 96.46 216.932 96.64 216.743C96.719 216.66 96.799 216.575 96.879 216.491C97.071 216.289 97.264 216.086 97.458 215.877C97.524 215.806 97.593 215.731 97.66 215.658C97.871 215.431 98.082 215.201 98.296 214.966C98.336 214.921 98.377 214.875 98.418 214.83C98.657 214.565 98.897 214.298 99.14 214.024C99.149 214.013 99.159 214.003 99.167 213.993C101.922 210.88 104.846 207.224 107.75 203.308C107.753 203.304 107.756 203.3 107.759 203.297C108.04 202.917 108.322 202.535 108.602 202.151C108.616 202.132 108.629 202.114 108.643 202.095C108.911 201.729 109.178 201.36 109.446 200.99C109.474 200.95 109.504 200.91 109.533 200.87C109.789 200.515 110.044 200.158 110.299 199.8C110.322 199.767 110.347 199.734 110.37 199.7C110.379 199.687 110.389 199.674 110.397 199.661C110.905 198.946 111.41 198.228 111.912 197.504C111.917 197.496 111.922 197.488 111.928 197.481C111.935 197.471 111.942 197.462 111.949 197.451C111.958 197.438 111.968 197.426 111.976 197.413C111.988 197.395 112 197.378 112.012 197.36C112.028 197.338 112.042 197.316 112.057 197.294C112.552 196.579 113.043 195.861 113.53 195.141C113.531 195.139 113.533 195.137 113.534 195.135C113.534 195.135 113.535 195.134 113.535 195.133C114.55 193.63 115.544 192.119 116.51 190.612L116.511 190.611C116.512 190.61 116.513 190.609 116.513 190.607C116.54 190.565 116.569 190.522 116.595 190.48C116.602 190.469 116.609 190.459 116.616 190.449C116.624 190.436 116.632 190.424 116.64 190.411C117.085 189.714 117.525 189.018 117.957 188.325C117.962 188.316 117.968 188.308 117.973 188.3C117.978 188.293 117.982 188.286 117.986 188.278C118.021 188.221 118.056 188.166 118.091 188.109C118.54 187.387 118.982 186.669 119.414 185.955C119.417 185.948 119.421 185.942 119.425 185.937C119.434 185.922 119.442 185.909 119.45 185.895C119.465 185.871 119.478 185.847 119.493 185.824C119.817 185.286 120.136 184.751 120.451 184.219C120.479 184.171 120.509 184.122 120.537 184.073C121.208 182.936 121.852 181.814 122.468 180.714C122.483 180.686 122.498 180.658 122.514 180.631C123.446 178.961 124.308 177.342 125.088 175.794C125.097 175.776 125.106 175.758 125.114 175.74C125.636 174.701 126.122 173.694 126.564 172.727C126.568 172.73 126.571 172.732 126.575 172.734C130.641 175.494 134.666 177.661 138.528 179.165C138.559 179.177 138.59 179.187 138.621 179.2C139.328 179.472 140.029 179.722 140.724 179.951C140.828 179.985 140.929 180.017 141.032 180.05C141.662 180.252 142.285 180.434 142.903 180.598C143.027 180.631 143.152 180.664 143.275 180.696C143.89 180.852 144.499 180.988 145.101 181.105C145.205 181.126 145.311 181.149 145.415 181.169C147.515 181.556 149.532 181.707 151.446 181.605C151.614 181.596 151.778 181.577 151.945 181.564C152.392 181.529 152.835 181.486 153.269 181.422C153.477 181.393 153.681 181.355 153.886 181.318C154.273 181.25 154.654 181.171 155.03 181.078C155.245 181.025 155.458 180.971 155.669 180.91C156.031 180.807 156.387 180.688 156.737 180.562C156.94 180.489 157.144 180.419 157.342 180.339C157.709 180.19 158.067 180.021 158.42 179.846C158.586 179.764 158.757 179.692 158.92 179.604C159.428 179.33 159.924 179.033 160.402 178.702C174.482 168.939 169.789 137.771 149.913 109.088Z" fill="#724D35"/>
<path d="M109.47 109.812C112.922 105.173 114.949 99.551 114.949 93.488C114.949 82.816 108.681 73.509 99.38 68.544C104.89 64.382 108.411 58.041 108.411 50.935C108.411 38.4 97.459 28.237 83.947 28.237C70.436 28.237 59.483 38.4 59.483 50.935C59.483 58.041 63.004 64.382 68.514 68.545C59.213 73.51 52.946 82.816 52.946 93.488C52.946 99.334 54.83 104.767 58.058 109.306C47.425 120.389 40.523 138.229 40.523 158.356C40.523 170.851 72.567 219.237 83.523 219.237C93.006 219.237 126.523 170.232 126.523 158.356C126.524 138.533 119.83 120.928 109.47 109.812Z" fill="#35241B"/>
<path d="M109.47 109.812C112.922 105.173 114.949 99.551 114.949 93.488C114.949 82.816 108.681 73.509 99.38 68.544C104.89 64.382 108.411 58.041 108.411 50.935C108.411 38.4 97.459 28.237 83.947 28.237C70.436 28.237 59.483 38.4 59.483 50.935C59.483 58.041 63.004 64.382 68.514 68.545C59.213 73.51 52.946 82.816 52.946 93.488C52.946 99.334 54.83 104.767 58.058 109.306C47.425 120.389 40.523 138.229 40.523 158.356C40.523 170.851 72.567 219.237 83.523 219.237C93.006 219.237 126.523 170.232 126.523 158.356C126.524 138.533 119.83 120.928 109.47 109.812Z" fill="#35241B"/>
<path d="M94.341 41.261C94.341 41.261 126.477 8.77501 125.604 8.77501C124.731 8.77501 101.153 3.712 103.773 1.266C106.392 -1.18 135.211 4.23603 132.591 8.60103C129.971 12.967 91.547 49.645 94.341 41.261Z" fill="#FFD200"/>
<path d="M72.706 41.261C72.706 41.261 40.57 8.77501 41.443 8.77501C42.316 8.77501 65.894 3.712 63.274 1.266C60.655 -1.18 31.836 4.23603 34.456 8.60103C37.076 12.967 75.5 49.645 72.706 41.261Z" fill="#FFD200"/>
<path d="M44.013 134.345C53.625 130.083 82.459 120.094 122.114 131.512C119.136 122.954 114.793 115.523 109.471 109.812C112.923 105.173 114.95 99.551 114.95 93.488C114.95 82.816 108.682 73.509 99.381 68.544C99.909 68.146 100.412 67.72 100.903 67.282C95.859 64.365 89.906 62.674 83.524 62.674C77.359 62.674 71.593 64.25 66.661 66.987C67.252 67.534 67.869 68.056 68.515 68.545C59.214 73.51 52.947 82.816 52.947 93.488C52.947 99.334 54.831 104.767 58.059 109.306C51.933 115.692 47.056 124.329 44.013 134.345Z" fill="#FFD200"/>
<path d="M107.321 195.039C111.594 189.026 115.696 182.632 119.004 176.785C99.853 173.099 74.136 171.346 49.226 179.671C52.301 185.057 55.944 190.749 59.738 196.09C70.752 193.263 86.955 191.308 107.321 195.039Z" fill="#FFD200"/>
<path d="M124.612 165.533C125.828 162.545 126.524 160.064 126.524 158.356C126.524 153.928 126.173 149.623 125.539 145.464C104.095 139.445 71.45 134.594 41.219 147.416C40.764 150.966 40.525 154.621 40.525 158.355C40.525 160.486 41.458 163.662 43.058 167.463C51.668 163.331 81.702 151.714 124.612 165.533Z" fill="#FFD200"/>
<g opacity="0.25">
<path d="M99.38 68.543C104.209 64.895 107.511 59.571 108.253 53.527C80.68 71.315 65.629 57.033 59.646 48.347C59.542 49.197 59.484 50.058 59.484 50.933C59.484 58.039 63.005 64.38 68.515 68.543C87.995 62.413 99.38 68.543 99.38 68.543Z" fill="#724D35"/>
<path d="M118.892 123.77C114.652 152.549 101.585 195.506 80.123 192.327C62.599 189.731 53.642 146.55 49.819 120.595C44.008 130.973 40.523 144.082 40.523 158.357C40.523 170.852 72.567 219.238 83.523 219.238C93.006 219.238 126.523 170.233 126.523 158.357C126.524 145.501 123.696 133.593 118.892 123.77Z" fill="#724D35"/>
<path d="M53.287 89.267C53.068 90.646 52.947 92.053 52.947 93.488C52.947 99.334 54.831 104.767 58.059 109.306C57.896 109.475 57.744 109.66 57.583 109.833C79.587 106.537 109.47 109.812 109.47 109.812C112.809 105.327 114.796 99.915 114.925 94.082C79.701 112.174 59.884 96.415 53.287 89.267Z" fill="#724D35"/>
</g>
<path opacity="0.5" d="M80.756 70.165C88.395 75.256 90.154 111.098 70.275 139.781C50.398 168.463 22.862 183.8 8.77303 174.037C-5.31597 164.272 -0.622957 133.104 19.254 104.422C39.131 75.739 74.251 65.831 80.756 70.165Z" fill="#79C6C6"/>
<path opacity="0.5" d="M85.37 70.165C77.731 75.256 75.972 111.098 95.851 139.781C115.728 168.463 143.264 183.8 157.353 174.037C171.442 164.272 166.75 133.104 146.873 104.422C126.995 75.739 91.875 65.831 85.37 70.165Z" fill="#79C6C6"/>
<path opacity="0.25" d="M105.029 72.425C103.311 70.946 101.425 69.634 99.381 68.543C99.705 68.298 100.022 68.044 100.331 67.784C100.436 67.696 100.537 67.604 100.64 67.515C100.842 67.339 101.043 67.163 101.239 66.982C101.359 66.872 101.474 66.757 101.591 66.645C101.764 66.478 101.936 66.309 102.103 66.137C102.223 66.014 102.34 65.889 102.457 65.764C102.615 65.594 102.77 65.422 102.924 65.248C103.038 65.118 103.152 64.987 103.263 64.854C103.412 64.676 103.557 64.496 103.701 64.314C103.807 64.18 103.912 64.047 104.015 63.912C104.161 63.718 104.302 63.518 104.442 63.319C104.532 63.192 104.625 63.066 104.712 62.937C104.887 62.678 105.052 62.415 105.215 62.15C105.272 62.057 105.33 61.967 105.386 61.874C105.575 61.558 105.755 61.236 105.927 60.91C105.998 60.776 106.062 60.64 106.13 60.505C106.241 60.284 106.352 60.063 106.455 59.838C106.525 59.685 106.592 59.528 106.659 59.372C106.75 59.161 106.84 58.949 106.925 58.734C106.989 58.571 107.05 58.407 107.11 58.243C107.188 58.029 107.264 57.813 107.336 57.597C107.391 57.432 107.444 57.266 107.495 57.1C107.562 56.875 107.626 56.65 107.686 56.423C107.73 56.26 107.774 56.097 107.814 55.932C107.874 55.687 107.926 55.438 107.977 55.19C108.007 55.043 108.041 54.896 108.068 54.749C108.128 54.419 108.178 54.087 108.222 53.753C108.232 53.683 108.245 53.612 108.254 53.542C108.254 53.537 108.255 53.532 108.256 53.527L108.255 53.528C108.359 52.676 108.414 51.81 108.414 50.933C108.414 45.631 106.449 40.757 103.165 36.894C113.967 28.019 130.886 11.446 132.594 8.60002C135.213 4.23502 106.395 -1.18097 103.776 1.26503C101.156 3.71003 124.734 8.774 125.607 8.774C126.226 8.774 110.27 25.086 100.919 34.591C96.521 30.657 90.542 28.235 83.95 28.235C83.545 28.235 83.142 28.246 82.742 28.263V219.153C83.013 219.202 83.277 219.236 83.526 219.236C88.06 219.236 98.09 208.03 107.323 195.038C107.332 195.025 107.341 195.012 107.35 194.999C107.863 194.276 108.373 193.55 108.88 192.818C108.907 192.777 108.936 192.737 108.964 192.697C109.475 191.958 109.982 191.216 110.485 190.471L110.486 190.469C111.501 188.966 112.495 187.454 113.462 185.947C113.496 185.893 113.531 185.839 113.566 185.785C114.025 185.066 114.478 184.349 114.923 183.636C114.963 183.573 115.002 183.509 115.041 183.446C115.494 182.718 115.939 181.994 116.375 181.273C116.384 181.258 116.392 181.245 116.4 181.231C119.26 176.499 121.73 171.962 123.514 168.063C136.569 176.924 149.208 179.682 157.353 174.038C171.442 164.273 166.75 133.105 146.873 104.423C135.216 87.602 118.324 77.247 105.029 72.425Z" fill="#724D35"/>
</svg>
