<svg width="193" height="166" viewBox="0 0 193 166" fill="none" xmlns="http://www.w3.org/2000/svg">
<path opacity="0.25" d="M190.555 19.8C190.68 19.66 190.802 19.52 190.918 19.373C190.984 19.289 191.046 19.203 191.109 19.117C191.213 18.976 191.315 18.836 191.411 18.688C191.477 18.588 191.536 18.484 191.599 18.381C191.683 18.24 191.767 18.1 191.843 17.954C191.906 17.837 191.96 17.714 192.018 17.594C192.082 17.455 192.15 17.319 192.208 17.177C192.265 17.04 192.311 16.899 192.36 16.759C192.408 16.625 192.459 16.494 192.501 16.358C192.549 16.2 192.585 16.038 192.625 15.876C192.655 15.752 192.69 15.63 192.716 15.504C192.754 15.315 192.779 15.121 192.804 14.928C192.819 14.824 192.839 14.722 192.85 14.615C192.879 14.314 192.896 14.01 192.896 13.701C192.896 13.403 192.88 13.108 192.851 12.817C192.833 12.628 192.8 12.443 192.771 12.257C192.768 12.24 192.767 12.224 192.764 12.207C192.762 12.194 192.76 12.181 192.758 12.168C192.747 12.106 192.741 12.044 192.729 11.982C192.681 11.729 192.62 11.481 192.55 11.235C192.548 11.228 192.547 11.22 192.545 11.214C192.543 11.21 192.542 11.205 192.541 11.2C192.54 11.197 192.539 11.193 192.538 11.189C192.538 11.189 192.538 11.189 192.538 11.188C192.476 10.974 192.405 10.764 192.33 10.557C192.315 10.516 192.301 10.475 192.285 10.435C192.209 10.237 192.127 10.042 192.038 9.85101C192.019 9.81101 192 9.77102 191.98 9.73102C191.886 9.53702 191.789 9.34402 191.681 9.15802C191.676 9.14802 191.669 9.13803 191.663 9.12903C191.328 8.54903 190.93 8.012 190.479 7.521C190.433 7.471 190.389 7.41897 190.342 7.37097C190.223 7.24697 190.1 7.13 189.975 7.013C189.903 6.945 189.829 6.87801 189.754 6.81201C189.635 6.70801 189.515 6.60801 189.391 6.51001C189.299 6.43801 189.204 6.36799 189.111 6.29999C188.993 6.21399 188.876 6.12797 188.754 6.04797C188.629 5.96597 188.499 5.891 188.37 5.815C188.245 5.742 188.121 5.668 187.992 5.599C187.789 5.493 187.583 5.39199 187.371 5.29999C187.275 5.25899 187.177 5.22397 187.08 5.18597C186.918 5.12297 186.756 5.06098 186.59 5.00598C186.485 4.97198 186.38 4.94201 186.274 4.91101C186.108 4.86301 185.939 4.81901 185.769 4.78101C185.664 4.75701 185.558 4.73399 185.452 4.71399C185.265 4.67899 185.077 4.65099 184.887 4.62799C184.794 4.61599 184.703 4.60202 184.61 4.59302C184.325 4.56602 184.038 4.54901 183.746 4.54901H99.654H14.425C9.95599 4.54901 6.24099 7.75398 5.43799 11.988C5.42599 12.049 5.42 12.11 5.41 12.171C5.374 12.386 5.33701 12.6 5.31601 12.819C5.28701 13.109 5.272 13.403 5.272 13.701C5.272 18.756 9.36999 22.853 14.425 22.853H15.302C12.558 31.4 11.048 40.499 11.048 49.956C11.048 51.394 11.09 52.821 11.159 54.242C11.167 54.415 11.171 54.591 11.181 54.762C11.249 56 11.348 57.232 11.467 58.457C11.505 58.852 11.54 59.245 11.583 59.638C11.697 60.675 11.834 61.704 11.983 62.732C12.067 63.311 12.153 63.891 12.248 64.468C12.396 65.358 12.559 66.242 12.731 67.124C12.86 67.78 12.996 68.436 13.139 69.085C13.151 69.14 13.161 69.192 13.172 69.246C13.623 71.59 14.235 73.949 15.026 76.321C15.04 76.365 15.055 76.41 15.069 76.456C15.093 76.524 15.112 76.595 15.136 76.665C15.197 76.845 15.258 77.017 15.32 77.195C15.561 77.943 15.831 78.68 16.09 79.422C16.274 79.941 16.439 80.469 16.63 80.984C16.634 80.996 16.639 81.009 16.644 81.022C28.971 116.367 40.661 139.655 57.485 152.661V156.799V165.489H99.653H142.141V156.799V152.752C159.027 139.764 170.744 116.449 183.098 81.023C183.101 81.014 183.103 81.004 183.108 80.995C183.325 80.414 183.512 79.818 183.718 79.23C183.953 78.553 184.202 77.881 184.422 77.197C184.484 77.018 184.544 76.846 184.607 76.667C184.63 76.597 184.649 76.526 184.672 76.458C184.687 76.412 184.701 76.367 184.716 76.323C185.508 73.951 186.119 71.591 186.57 69.248C186.581 69.201 186.588 69.155 186.599 69.108C186.745 68.447 186.882 67.782 187.012 67.115C187.187 66.236 187.348 65.352 187.495 64.464C187.59 63.893 187.676 63.319 187.758 62.744C187.909 61.71 188.048 60.672 188.162 59.626C188.203 59.245 188.237 58.864 188.273 58.484C188.393 57.246 188.495 56 188.562 54.747C188.572 54.593 188.575 54.434 188.582 54.278C188.653 52.847 188.695 51.407 188.695 49.957C188.695 48.749 188.669 47.547 188.62 46.351C188.596 45.766 188.551 45.188 188.516 44.607C188.48 44.008 188.453 43.407 188.404 42.812C188.341 42.027 188.255 41.249 188.172 40.471C188.131 40.096 188.1 39.718 188.055 39.344C187.945 38.431 187.813 37.526 187.675 36.621C187.64 36.394 187.612 36.166 187.575 35.94C187.415 34.936 187.232 33.94 187.039 32.949C187.016 32.832 186.996 32.714 186.973 32.596C186.761 31.533 186.528 30.478 186.278 29.429C186.268 29.388 186.259 29.346 186.25 29.305C185.725 27.11 185.115 24.948 184.431 22.819C184.433 22.819 184.435 22.818 184.437 22.818C184.72 22.797 184.998 22.762 185.273 22.715C185.289 22.712 185.305 22.711 185.321 22.708C185.588 22.661 185.849 22.603 186.108 22.533C186.131 22.527 186.155 22.521 186.178 22.515C186.428 22.446 186.673 22.366 186.914 22.277C186.944 22.265 186.976 22.255 187.006 22.243C187.238 22.155 187.464 22.056 187.687 21.95C187.725 21.932 187.763 21.914 187.801 21.895C188.013 21.79 188.219 21.677 188.421 21.557C188.467 21.529 188.514 21.5 188.56 21.472C188.749 21.354 188.935 21.231 189.115 21.099C189.17 21.06 189.222 21.02 189.275 20.98C189.444 20.852 189.608 20.719 189.767 20.58C189.826 20.528 189.883 20.474 189.941 20.422C190.088 20.286 190.231 20.149 190.369 20.004C190.432 19.938 190.494 19.869 190.555 19.8Z" fill="#724D35"/>
<path d="M182.021 63.205C182.196 62.326 182.357 61.442 182.504 60.554C182.599 59.983 182.685 59.41 182.767 58.834C182.918 57.8 183.057 56.762 183.171 55.716C183.212 55.335 183.246 54.954 183.282 54.574C183.402 53.336 183.504 52.09 183.571 50.837C183.581 50.683 183.584 50.524 183.591 50.368C183.662 48.937 183.704 47.497 183.704 46.047C183.704 36.097 182.05 26.536 179.026 17.606C178.594 16.332 178.135 15.069 177.648 13.819H12.112C11.625 15.069 11.165 16.332 10.734 17.606C7.71101 26.537 6.05701 36.097 6.05701 46.047C6.05701 47.485 6.099 48.912 6.168 50.333C6.176 50.506 6.18 50.682 6.189 50.854C6.257 52.092 6.35701 53.324 6.47501 54.549C6.51301 54.943 6.548 55.337 6.591 55.73C6.705 56.767 6.842 57.796 6.991 58.824C7.076 59.403 7.16101 59.983 7.25601 60.56C7.40301 61.45 7.56701 62.334 7.73901 63.216C7.86801 63.872 8.004 64.528 8.147 65.177C8.159 65.232 8.16799 65.284 8.17999 65.338C8.63099 67.682 9.243 70.041 10.034 72.413C10.048 72.457 10.063 72.502 10.077 72.548C10.101 72.616 10.12 72.687 10.144 72.757C10.205 72.937 10.266 73.109 10.328 73.287C10.569 74.035 10.839 74.772 11.098 75.514C11.282 76.033 11.447 76.561 11.638 77.076C11.642 77.088 11.647 77.101 11.652 77.114C23.979 112.459 35.669 135.747 52.493 148.753V161.581H137.149V148.844C154.035 135.856 165.751 112.541 178.106 77.115C178.109 77.106 178.111 77.095 178.116 77.087C178.333 76.506 178.52 75.91 178.726 75.322C178.961 74.645 179.21 73.973 179.43 73.289C179.492 73.11 179.552 72.939 179.615 72.759C179.637 72.689 179.657 72.618 179.68 72.55C179.695 72.504 179.709 72.459 179.724 72.415C180.516 70.043 181.127 67.684 181.578 65.34C181.589 65.293 181.596 65.247 181.607 65.2C181.753 64.537 181.891 63.872 182.021 63.205Z" fill="#A2DDC4"/>
<path d="M187.904 9.79102C187.904 14.846 183.807 18.943 178.754 18.943H9.43399C4.37899 18.943 0.281006 14.845 0.281006 9.79102C0.281006 4.73702 4.37899 0.639008 9.43399 0.639008H178.754C183.807 0.638008 187.904 4.73702 187.904 9.79102Z" fill="#A2DDC4"/>
<path opacity="0.25" d="M178.753 12.366H9.43301C5.53901 12.366 2.22099 9.92899 0.899994 6.50299C0.505994 7.52399 0.279999 8.63002 0.279999 9.79102C0.279999 14.846 4.37801 18.943 9.43301 18.943H178.753C183.807 18.943 187.903 14.845 187.903 9.79102C187.903 8.63002 187.678 7.52299 187.284 6.50299C185.963 9.92899 182.646 12.366 178.753 12.366Z" fill="#724D35"/>
<path d="M173.695 22.287H173.461H16.582H16.348C16.348 22.287 2.15899 81.49 57.668 143.714H58.46H131.582H132.374C187.882 81.49 173.695 22.287 173.695 22.287Z" fill="#C9F2DF"/>
<path opacity="0.25" d="M137.15 152.889H52.494V161.579H137.15V152.889Z" fill="#724D35"/>
<path d="M146.5 73.163C117.872 90.133 121.622 65.413 94.879 65.376C94.87 65.376 94.86 65.376 94.851 65.376C94.84 65.376 94.831 65.375 94.821 65.375C68.078 65.412 71.828 90.133 43.2 73.163C32.375 66.747 23.939 66.031 17.629 67.62C22.148 89.125 33.051 116.12 57.667 143.714H58.459H131.581H132.373C156.953 116.158 167.862 89.201 172.392 67.71C166.048 66.014 157.513 66.634 146.5 73.163Z" fill="#FFD200"/>
<path opacity="0.25" d="M132.374 136.635H131.582H58.46H57.668C35.561 111.853 24.517 87.558 19.222 67.284C18.678 67.382 18.144 67.489 17.629 67.619C22.148 89.124 33.051 116.119 57.667 143.713H58.459H131.581H132.373C156.953 116.157 167.862 89.2 172.392 67.709C171.878 67.571 171.344 67.456 170.802 67.351C165.499 87.611 154.457 111.881 132.374 136.635Z" fill="#724D35"/>
<path d="M91.837 78.605C91.837 80.72 90.122 82.435 88.008 82.435C85.893 82.435 84.178 80.72 84.178 78.605C84.178 76.49 85.893 74.775 88.008 74.775C90.122 74.775 91.837 76.49 91.837 78.605Z" fill="#F9BB62"/>
<path d="M52.868 96.511C52.868 100.948 49.271 104.544 44.834 104.544C40.397 104.544 36.801 100.947 36.801 96.511C36.801 92.073 40.397 88.477 44.834 88.477C49.271 88.477 52.868 92.074 52.868 96.511Z" fill="#F9BB62"/>
<path d="M62.773 111.234C62.773 112.572 61.689 113.654 60.353 113.654C59.017 113.654 57.933 112.572 57.933 111.234C57.933 109.897 59.016 108.814 60.353 108.814C61.69 108.814 62.773 109.897 62.773 111.234Z" fill="#F9BB62"/>
<path d="M69.903 92.93C69.903 94.359 68.745 95.516 67.316 95.516C65.887 95.516 64.729 94.359 64.729 92.93C64.729 91.499 65.887 90.342 67.316 90.342C68.745 90.342 69.903 91.5 69.903 92.93Z" fill="#F9BB62"/>
<path d="M84.228 120.982C84.228 123.949 81.823 126.354 78.856 126.354C75.889 126.354 73.485 123.949 73.485 120.982C73.485 118.015 75.889 115.611 78.856 115.611C81.822 115.611 84.228 118.015 84.228 120.982Z" fill="#F9BB62"/>
<path d="M114.667 100.888C114.667 101.438 114.222 101.883 113.673 101.883C113.124 101.883 112.679 101.438 112.679 100.888C112.679 100.338 113.124 99.893 113.673 99.893C114.222 99.893 114.667 100.338 114.667 100.888Z" fill="#F9BB62"/>
<path d="M124.814 111.234C124.814 114.421 122.231 117.003 119.046 117.003C115.859 117.003 113.276 114.42 113.276 111.234C113.276 108.049 115.859 105.466 119.046 105.466C122.231 105.465 124.814 108.048 124.814 111.234Z" fill="#F9BB62"/>
<path d="M142 88.477C142 90.387 140.451 91.935 138.542 91.935C136.633 91.935 135.084 90.387 135.084 88.477C135.084 86.568 136.633 85.02 138.542 85.02C140.452 85.02 142 86.568 142 88.477Z" fill="#F9BB62"/>
<path d="M143.043 104.544C143.043 106.48 141.473 108.05 139.536 108.05C137.601 108.05 136.03 106.481 136.03 104.544C136.03 102.607 137.6 101.037 139.536 101.037C141.473 101.038 143.043 102.608 143.043 104.544Z" fill="#F9BB62"/>
<path d="M111.93 80.993C111.93 83.217 110.127 85.02 107.903 85.02C105.678 85.02 103.876 83.216 103.876 80.993C103.876 78.768 105.679 76.965 107.903 76.965C110.127 76.964 111.93 78.768 111.93 80.993Z" fill="#F9BB62"/>
<path d="M107.108 126.354C107.108 127.672 106.039 128.741 104.72 128.741C103.402 128.741 102.333 127.673 102.333 126.354C102.333 125.036 103.401 123.966 104.72 123.966C106.039 123.966 107.108 125.036 107.108 126.354Z" fill="#F9BB62"/>
<path opacity="0.8" d="M171.645 2.5H153.329H149.953H133.79H131.637H115.474H112.098H95.936H93.782H77.619H74.243H58.08H55.927H39.763H36.387H18.07C16.632 2.5 15.466 3.66503 15.466 5.10303C15.466 6.54103 16.632 7.70599 18.07 7.70599H36.386H39.762H55.926H58.079H74.242H77.618H93.781H95.935H112.097H115.473H131.636H133.789H149.952H153.328H171.644C173.084 7.70599 174.248 6.54103 174.248 5.10303C174.248 3.66503 173.085 2.5 171.645 2.5Z" fill="white"/>
<path opacity="0.25" d="M187.772 8.297C187.759 8.223 187.751 8.14702 187.737 8.07202C187.688 7.81102 187.625 7.55598 187.553 7.30298C187.55 7.29498 187.548 7.28602 187.546 7.27802C186.453 3.44702 182.935 0.636993 178.753 0.636993H94.661V161.58H137.149V152.89V148.843C154.035 135.855 165.751 112.54 178.106 77.114C178.109 77.105 178.111 77.094 178.116 77.086C178.333 76.505 178.52 75.909 178.726 75.321C178.961 74.644 179.21 73.972 179.43 73.288C179.492 73.109 179.552 72.938 179.615 72.758C179.637 72.688 179.657 72.617 179.68 72.549C179.695 72.503 179.709 72.458 179.724 72.414C180.516 70.042 181.127 67.683 181.578 65.339C181.589 65.292 181.596 65.246 181.607 65.199C181.753 64.538 181.89 63.873 182.02 63.206C182.195 62.327 182.356 61.443 182.503 60.555C182.598 59.984 182.684 59.411 182.766 58.835C182.917 57.801 183.056 56.763 183.17 55.717C183.211 55.336 183.245 54.955 183.281 54.575C183.401 53.337 183.503 52.091 183.57 50.838C183.58 50.684 183.583 50.525 183.59 50.369C183.661 48.938 183.703 47.498 183.703 46.048C183.703 36.577 182.189 27.467 179.437 18.91C184.169 18.558 187.902 14.615 187.902 9.79199C187.902 9.49399 187.886 9.19902 187.857 8.90802C187.839 8.70102 187.805 8.5 187.772 8.297Z" fill="#724D35"/>
</svg>
