<svg width="69" height="53" viewBox="0 0 69 53" fill="none" xmlns="http://www.w3.org/2000/svg">
<path d="M63.544 52.75H4.71301V7.90601H63.544V52.75ZM5.46402 52H62.795V8.65601H5.46402V52Z" fill="#787864"/>
<path d="M67.883 3.41602H0.375V8.28102H67.883V3.41602Z" fill="white"/>
<path d="M68.258 8.65602H0V3.04102H68.258V8.65602ZM0.75 7.90602H67.508V3.79102H0.75V7.90602Z" fill="#787864"/>
<path d="M47.808 3.791H20.451V0H47.808V3.791ZM21.2 3.041H47.057V0.75H21.2V3.041Z" fill="#787864"/>
<path d="M14.132 10.996V15.165L10.52 17.245L6.91602 15.165V10.996L8.44902 10.111H12.6L14.132 10.996Z" fill="#FF9600"/>
<path d="M12.399 10.861L13.382 11.429V14.732L10.52 16.38L7.66501 14.733V11.43L8.64902 10.862H12.399V10.861ZM12.6 10.111H8.44902L6.91602 10.996V15.165L10.52 17.245L14.132 15.165V10.996L12.6 10.111Z" fill="#787864"/>
<path d="M21.996 10.996V15.165L18.392 17.245L14.78 15.165V10.996L16.312 10.111H20.464L21.996 10.996Z" fill="#FF9600"/>
<path d="M20.262 10.861L21.246 11.429V14.732L18.391 16.379L15.529 14.731V11.428L16.512 10.86L20.262 10.861ZM20.464 10.111H16.313L14.781 10.996V15.165L18.393 17.245L21.997 15.165V10.996L20.464 10.111Z" fill="#787864"/>
<path d="M29.869 10.996V15.165L26.256 17.245L22.652 15.165V10.996L24.186 10.111H28.336L29.869 10.996Z" fill="#FF9600"/>
<path d="M28.135 10.861L29.118 11.429V14.732L26.256 16.38L23.402 14.733V11.43L24.386 10.862H28.135V10.861ZM28.336 10.111H24.185L22.652 10.996V15.165L26.256 17.245L29.869 15.165V10.996L28.336 10.111Z" fill="#787864"/>
<path d="M37.733 10.996V15.165L34.129 17.245L30.516 15.165V10.996L32.049 10.111H36.2L37.733 10.996Z" fill="#FF9600"/>
<path d="M35.999 10.861L36.982 11.429V14.732L34.128 16.379L31.266 14.731V11.429L32.25 10.861H35.999ZM36.2 10.111H32.049L30.516 10.996V15.165L34.129 17.245L37.733 15.165V10.996L36.2 10.111Z" fill="#787864"/>
<path d="M45.606 10.996V15.165L42.002 17.245L38.389 15.165V10.996L39.923 10.111H44.073L45.606 10.996Z" fill="#FF9600"/>
<path d="M43.872 10.861L44.855 11.429V14.732L42.001 16.379L39.139 14.731V11.429L40.123 10.861H43.872ZM44.073 10.111H39.922L38.389 10.996V15.165L42.002 17.245L45.606 15.165V10.996L44.073 10.111Z" fill="#787864"/>
<path d="M53.478 10.996V15.165L49.866 17.245L46.262 15.165V10.996L47.795 10.111H51.946L53.478 10.996Z" fill="#FF9600"/>
<path d="M51.745 10.861L52.728 11.429V14.732L49.866 16.38L47.012 14.733V11.43L47.996 10.862H51.745V10.861ZM51.946 10.111H47.796L46.262 10.996V15.165L49.866 17.245L53.478 15.165V10.996L51.946 10.111Z" fill="#787864"/>
<path d="M61.342 10.996V15.165L57.738 17.245L54.126 15.165V10.996L55.659 10.111H59.81L61.342 10.996Z" fill="#FF9600"/>
<path d="M59.608 10.861L60.5919 11.429V14.732L57.7379 16.379L54.8759 14.731V11.429L55.86 10.861H59.608ZM59.81 10.111H55.66L54.127 10.996V15.165L57.739 17.245L61.343 15.165V10.996L59.81 10.111Z" fill="#787864"/>
<path d="M18.005 22.1189L14.399 24.2029L10.79 22.1189V17.9519L14.399 15.8699L18.005 17.9519V22.1189Z" fill="#FF9600"/>
<path d="M14.399 16.7359L17.256 18.3859V21.6869L14.399 23.3369L11.541 21.6859V18.3859L14.399 16.7359ZM14.399 15.8699L10.791 17.9519V22.1189L14.399 24.2029L18.006 22.1189V17.9519L14.399 15.8699Z" fill="#787864"/>
<path d="M25.875 22.1189L22.269 24.2029L18.66 22.1189V17.9519L22.269 15.8699L25.875 17.9519V22.1189Z" fill="#FF9600"/>
<path d="M22.269 16.7359L25.125 18.3859V21.6869L22.269 23.3369L19.4109 21.6859V18.3859L22.269 16.7359ZM22.269 15.8699L18.6609 17.9519V22.1189L22.269 24.2029L25.875 22.1189V17.9519L22.269 15.8699Z" fill="#787864"/>
<path d="M33.744 22.1189L30.137 24.2029L26.529 22.1189V17.9519L30.137 15.8699L33.744 17.9519V22.1189Z" fill="#FF9600"/>
<path d="M30.137 16.7359L32.994 18.3859V21.6859L30.137 23.3369L27.279 21.6859V18.3859L30.137 16.7359ZM30.137 15.8699L26.529 17.9519V22.1189L30.137 24.2029L33.744 22.1189V17.9519L30.137 15.8699Z" fill="#787864"/>
<path d="M41.6129 22.118L38.006 24.203L34.3979 22.118V17.952L38.006 15.869L41.6129 17.952V22.118Z" fill="#FF9600"/>
<path d="M38.006 16.735L40.8629 18.3849V21.685L38.006 23.336L35.1479 21.685V18.3849L38.006 16.735ZM38.006 15.869L34.3979 17.952V22.118L38.006 24.203L41.6129 22.118V17.952L38.006 15.869Z" fill="#787864"/>
<path d="M49.483 22.1189L45.876 24.2029L42.268 22.1189V17.9519L45.876 15.8699L49.483 17.9519V22.1189Z" fill="#FF9600"/>
<path d="M45.876 16.7359L48.733 18.3859V21.6859L45.876 23.3369L43.018 21.6859V18.3859L45.876 16.7359ZM45.876 15.8699L42.268 17.9519V22.1189L45.876 24.2029L49.483 22.1189V17.9519L45.876 15.8699Z" fill="#787864"/>
<path d="M57.353 22.1189L53.746 24.2029L50.137 22.1189V17.9519L53.746 15.8699L57.353 17.9519V22.1189Z" fill="#FF9600"/>
<path d="M53.7459 16.7359L56.6029 18.3859V21.6869L53.7459 23.3369L50.8879 21.6859V18.3859L53.7459 16.7359ZM53.7459 15.8699L50.1379 17.9519V22.1189L53.7459 24.2029L57.3529 22.1189V17.9519L53.7459 15.8699Z" fill="#787864"/>
<path d="M58.012 17.8929V22.0619L61.343 23.9969V15.9689L58.012 17.8929Z" fill="#FF9600"/>
<path d="M60.592 17.268V22.694L58.761 21.63V18.325L60.592 17.268ZM61.342 15.968L58.011 17.892V22.061L61.342 23.996V15.968Z" fill="#787864"/>
<path d="M6.90698 16.059V24.014L10.201 22.116V17.947L6.90698 16.059Z" fill="#FF9600"/>
<path d="M7.65698 17.354L9.45099 18.3829V21.684L7.65698 22.718V17.354ZM6.90698 16.059V24.014L10.201 22.116V17.947L6.90698 16.059Z" fill="#787864"/>
<path d="M14.128 28.909L10.521 30.993L6.91302 28.909V24.742L10.521 22.66L14.128 24.742V28.909Z" fill="#FF9600"/>
<path d="M10.521 23.526L13.378 25.175V28.476L10.521 30.127L7.66302 28.476V25.175L10.521 23.526ZM10.521 22.66L6.91302 24.742V28.909L10.521 30.993L14.128 28.909V24.742L10.521 22.66Z" fill="#787864"/>
<path d="M21.998 28.909L18.391 30.993L14.783 28.909V24.742L18.391 22.66L21.998 24.742V28.909Z" fill="#FF9600"/>
<path d="M18.391 23.526L21.248 25.175V28.476L18.391 30.126L15.533 28.475V25.174L18.391 23.526ZM18.391 22.66L14.783 24.742V28.909L18.391 30.993L21.998 28.909V24.742L18.391 22.66Z" fill="#787864"/>
<path d="M29.867 28.909L26.26 30.993L22.651 28.909V24.742L26.26 22.66L29.867 24.742V28.909Z" fill="#FF9600"/>
<path d="M26.26 23.526L29.117 25.175V28.476L26.26 30.126L23.402 28.475V25.174L26.26 23.526ZM26.26 22.66L22.652 24.742V28.909L26.26 30.993L29.867 28.909V24.742L26.26 22.66Z" fill="#787864"/>
<path d="M37.736 28.908L34.129 30.993L30.521 28.908V24.742L34.129 22.66L37.736 24.742V28.908Z" fill="#FF9600"/>
<path d="M34.129 23.526L36.986 25.175V28.475L34.129 30.126L31.271 28.475V25.175L34.129 23.526ZM34.129 22.66L30.521 24.743V28.909L34.129 30.994L37.736 28.909V24.743L34.129 22.66Z" fill="#787864"/>
<path d="M45.606 28.909L41.999 30.993L38.391 28.909V24.742L41.999 22.66L45.606 24.742V28.909Z" fill="#FF9600"/>
<path d="M41.999 23.526L44.856 25.175V28.476L41.999 30.127L39.141 28.476V25.175L41.999 23.526ZM41.999 22.66L38.391 24.742V28.909L41.999 30.993L45.606 28.909V24.742L41.999 22.66Z" fill="#787864"/>
<path d="M53.476 28.909L49.868 30.993L46.26 28.909V24.742L49.868 22.66L53.476 24.742V28.909Z" fill="#FF9600"/>
<path d="M49.868 23.526L52.725 25.175V28.476L49.868 30.127L47.01 28.476V25.175L49.868 23.526ZM49.868 22.66L46.26 24.742V28.909L49.868 30.993L53.475 28.909V24.742L49.868 22.66Z" fill="#787864"/>
<path d="M61.345 28.909L57.737 30.993L54.129 28.909V24.742L57.737 22.66L61.345 24.742V28.909Z" fill="#FF9600"/>
<path d="M57.737 23.526L60.594 25.175V28.476L57.737 30.127L54.879 28.476V25.175L57.737 23.526ZM57.737 22.66L54.129 24.742V28.909L57.737 30.993L61.344 28.909V24.742L57.737 22.66Z" fill="#787864"/>
<path d="M18.0051 35.8651L14.399 37.9491L10.79 35.8651V31.6991L14.399 29.6171L18.0051 31.6991V35.8651Z" fill="#FF9600"/>
<path d="M14.399 30.4821L17.256 32.1311V35.4321L14.399 37.0821L11.541 35.4311V32.1311L14.399 30.4821ZM14.399 29.6171L10.791 31.6991V35.8661L14.399 37.9501L18.006 35.8661V31.6991L14.399 29.6171Z" fill="#787864"/>
<path d="M25.875 35.8651L22.269 37.9491L18.66 35.8651V31.6991L22.269 29.6171L25.875 31.6991V35.8651Z" fill="#FF9600"/>
<path d="M22.269 30.4821L25.125 32.1311V35.4321L22.269 37.0821L19.411 35.4311V32.1311L22.269 30.4821ZM22.269 29.6171L18.661 31.6991V35.8661L22.269 37.9501L25.875 35.8661V31.6991L22.269 29.6171Z" fill="#787864"/>
<path d="M33.744 35.8651L30.137 37.9491L26.529 35.8651V31.6991L30.137 29.6171L33.744 31.6991V35.8651Z" fill="#FF9600"/>
<path d="M30.137 30.4821L32.994 32.1311V35.4311L30.137 37.0821L27.279 35.4311V32.1311L30.137 30.4821ZM30.137 29.6171L26.529 31.6991V35.8661L30.137 37.9501L33.744 35.8661V31.6991L30.137 29.6171Z" fill="#787864"/>
<path d="M41.613 35.864L38.006 37.949L34.398 35.864V31.699L38.006 29.616L41.613 31.699V35.864Z" fill="#FF9600"/>
<path d="M38.006 30.482L40.863 32.132V35.432L38.006 37.083L35.148 35.432V32.132L38.006 30.482ZM38.006 29.616L34.398 31.699V35.865L38.006 37.95L41.613 35.865V31.699L38.006 29.616Z" fill="#787864"/>
<path d="M49.483 35.8651L45.876 37.9491L42.268 35.8651V31.6991L45.876 29.6171L49.483 31.6991V35.8651Z" fill="#FF9600"/>
<path d="M45.876 30.4821L48.733 32.1311V35.4311L45.876 37.0821L43.018 35.4311V32.1311L45.876 30.4821ZM45.876 29.6171L42.268 31.6991V35.8661L45.876 37.9501L49.483 35.8661V31.6991L45.876 29.6171Z" fill="#787864"/>
<path d="M57.353 35.8651L53.746 37.9491L50.137 35.8651V31.6991L53.746 29.6171L57.353 31.6991V35.8651Z" fill="#FF9600"/>
<path d="M53.7461 30.4821L56.6031 32.1311V35.4321L53.7461 37.0821L50.8881 35.4311V32.1311L53.7461 30.4821ZM53.7461 29.6171L50.1381 31.6991V35.8661L53.7461 37.9501L57.3531 35.8661V31.6991L53.7461 29.6171Z" fill="#787864"/>
<path d="M58.008 31.638V35.807L61.346 37.741V29.713L58.008 31.638Z" fill="#FF9600"/>
<path d="M60.597 31.011V36.439L58.759 35.374V32.07L60.597 31.011ZM61.347 29.713L58.009 31.638V35.807L61.347 37.741V29.713Z" fill="#787864"/>
<path d="M6.91101 29.806V37.761L10.196 35.863V31.694L6.91101 29.806Z" fill="#FF9600"/>
<path d="M7.66101 31.102L9.44601 32.128V35.43L7.66101 36.461V31.102ZM6.91101 29.806V37.761L10.196 35.863V31.694L6.91101 29.806Z" fill="#787864"/>
<path d="M14.128 42.701L10.521 44.784L6.91296 42.701V38.534L10.521 36.452L14.128 38.534V42.701Z" fill="#FF9600"/>
<path d="M10.521 37.318L13.378 38.967V42.268L10.521 43.918L7.66296 42.268V38.967L10.521 37.318ZM10.521 36.452L6.91296 38.534V42.701L10.521 44.784L14.128 42.701V38.534L10.521 36.452Z" fill="#787864"/>
<path d="M21.998 42.701L18.3909 44.784L14.783 42.701V38.534L18.3909 36.452L21.998 38.534V42.701Z" fill="#FF9600"/>
<path d="M18.3909 37.318L21.248 38.967V42.268L18.3909 43.918L15.533 42.268V38.967L18.3909 37.318ZM18.3909 36.452L14.783 38.534V42.701L18.3909 44.784L21.998 42.701V38.534L18.3909 36.452Z" fill="#787864"/>
<path d="M29.867 42.701L26.26 44.784L22.651 42.701V38.534L26.26 36.452L29.867 38.534V42.701Z" fill="#FF9600"/>
<path d="M26.26 37.318L29.117 38.967V42.268L26.26 43.918L23.402 42.268V38.967L26.26 37.318ZM26.26 36.452L22.652 38.534V42.701L26.26 44.784L29.867 42.701V38.534L26.26 36.452Z" fill="#787864"/>
<path d="M37.736 42.7L34.129 44.784L30.521 42.7V38.534L34.129 36.451L37.736 38.534V42.7Z" fill="#FF9600"/>
<path d="M34.129 37.317L36.986 38.967V42.267L34.129 43.918L31.271 42.267V38.967L34.129 37.317ZM34.129 36.451L30.521 38.534V42.7L34.129 44.784L37.736 42.7V38.534L34.129 36.451Z" fill="#787864"/>
<path d="M45.606 42.701L41.999 44.784L38.391 42.701V38.534L41.999 36.452L45.606 38.534V42.701Z" fill="#FF9600"/>
<path d="M41.999 37.318L44.856 38.967V42.268L41.999 43.918L39.141 42.268V38.967L41.999 37.318ZM41.999 36.452L38.391 38.534V42.701L41.999 44.784L45.606 42.701V38.534L41.999 36.452Z" fill="#787864"/>
<path d="M53.476 42.701L49.868 44.784L46.2599 42.701V38.534L49.868 36.452L53.476 38.534V42.701Z" fill="#FF9600"/>
<path d="M49.868 37.318L52.7249 38.967V42.268L49.868 43.918L47.0099 42.268V38.967L49.868 37.318ZM49.868 36.452L46.2599 38.534V42.701L49.868 44.784L53.4749 42.701V38.534L49.868 36.452Z" fill="#787864"/>
<path d="M61.345 42.701L57.737 44.784L54.129 42.701V38.534L57.737 36.452L61.345 38.534V42.701Z" fill="#FF9600"/>
<path d="M57.737 37.318L60.594 38.967V42.268L57.737 43.918L54.879 42.268V38.967L57.737 37.318ZM57.737 36.452L54.129 38.534V42.701L57.737 44.784L61.344 42.701V38.534L57.737 36.452Z" fill="#787864"/>
<path d="M18.009 45.489V49.658L16.477 50.543H12.326L10.793 49.658V45.489L14.397 43.409L18.009 45.489Z" fill="#FF9600"/>
<path d="M14.397 44.274L17.259 45.922V49.224L16.275 49.792H12.526L11.542 49.224V45.921L14.397 44.274ZM14.397 43.409L10.793 45.49V49.659L12.326 50.544H16.476L18.009 49.659V45.49L14.397 43.409Z" fill="#787864"/>
<path d="M25.873 45.489V49.658L24.341 50.543H20.189L18.657 49.658V45.489L22.27 43.409L25.873 45.489Z" fill="#FF9600"/>
<path d="M22.269 44.274L25.123 45.922V49.225L24.14 49.793H20.391L19.408 49.225V45.923L22.269 44.274ZM22.27 43.409L18.657 45.49V49.659L20.189 50.544H24.341L25.873 49.659V45.49L22.27 43.409Z" fill="#787864"/>
<path d="M33.746 45.489V49.658L32.214 50.543H28.063L26.53 49.658V45.489L30.133 43.409L33.746 45.489Z" fill="#FF9600"/>
<path d="M30.134 44.274L32.996 45.922V49.224L32.013 49.792H28.264L27.28 49.224V45.921L30.134 44.274ZM30.133 43.409L26.529 45.49V49.659L28.062 50.544H32.212L33.744 49.659V45.49L30.133 43.409Z" fill="#787864"/>
<path d="M41.61 45.489V49.658L40.077 50.543H35.926L34.394 49.658V45.489L38.006 43.409L41.61 45.489Z" fill="#FF9600"/>
<path d="M38.005 44.274L40.86 45.922V49.225L39.876 49.793H36.127L35.144 49.225V45.923L38.005 44.274ZM38.006 43.409L34.394 45.49V49.659L35.926 50.544H40.077L41.61 49.659V45.49L38.006 43.409Z" fill="#787864"/>
<path d="M49.483 45.489V49.658L47.95 50.543H43.799L42.266 49.658V45.489L45.879 43.409L49.483 45.489Z" fill="#FF9600"/>
<path d="M45.878 44.274L48.732 45.922V49.225L47.749 49.793H44L43.016 49.225V45.923L45.878 44.274ZM45.879 43.409L42.266 45.49V49.659L43.799 50.544H47.95L49.482 49.659V45.49L45.879 43.409Z" fill="#787864"/>
<path d="M57.356 45.489V49.658L55.823 50.543H51.673L50.139 49.658V45.489L53.743 43.409L57.356 45.489Z" fill="#FF9600"/>
<path d="M53.743 44.274L56.605 45.922V49.224L55.622 49.792H51.873L50.889 49.224V45.921L53.743 44.274ZM53.743 43.409L50.139 45.49V49.659L51.672 50.544H55.823L57.355 49.659V45.49L53.743 43.409Z" fill="#787864"/>
<path d="M58.012 45.425V49.594L59.645 50.543H61.342V43.5L58.012 45.425Z" fill="#FF9600"/>
<path d="M60.592 44.8V49.793H59.847L58.762 49.163V45.858L60.592 44.8ZM61.342 43.5L58.011 45.425V49.594L59.644 50.543H61.341L61.342 43.5Z" fill="#787864"/>
<path d="M8.66698 50.543L10.201 49.658V45.489L6.90698 43.6V50.542L8.66698 50.543Z" fill="#FF9600"/>
<path d="M7.65698 44.895L9.45099 45.924V49.225L8.46698 49.793H7.65698V44.895ZM6.90698 43.601V50.543H8.66698L10.201 49.658V45.489L6.90698 43.601Z" fill="#787864"/>
<path d="M60.592 10.861V49.793H7.65601V10.861H60.592ZM61.342 10.111H6.90601V50.543H61.342V10.111Z" fill="#787864"/>
</svg>
