<svg width="56" height="66" viewBox="0 0 56 66" fill="none" xmlns="http://www.w3.org/2000/svg">
<path d="M13.223 25.957C9.85601 25.321 4.20801 23.879 4.20801 21.363C4.20801 18.242 12.604 16.778 16.215 16.293C23.3 15.352 32.502 15.354 39.556 16.293C43.17 16.778 51.573 18.244 51.573 21.363C51.573 23.861 46.03 25.29 42.725 25.919L42.584 25.183C48.658 24.026 50.822 22.451 50.822 21.363C50.822 19.969 47.307 18.091 39.456 17.036C32.464 16.104 23.331 16.103 16.314 17.036C8.47001 18.09 4.95801 19.969 4.95801 21.363C4.95801 22.46 7.16601 24.05 13.363 25.219L13.223 25.957Z" fill="#787864"/>
<path d="M24.063 56.012L16.2 48.28L19.519 42.3H20.654L28.384 49.555L24.063 56.012ZM17.133 48.145L23.944 54.842L27.408 49.666L20.358 43.05H19.961L17.133 48.145Z" fill="#787864"/>
<path d="M31.71 55.993L27.389 49.535L35.119 42.283H36.255L39.573 48.262L31.71 55.993ZM28.366 49.647L31.83 54.823L38.64 48.127L35.813 43.033H35.415L28.366 49.647Z" fill="#787864"/>
<path d="M27.89 15.948C34.465 15.948 40.4 16.581 44.637 17.599H44.64C43.168 15.365 39.029 4.38401 38.32 3.72701C37.612 3.071 30.53 0.375 27.89 0.375C25.25 0.375 18.168 3.071 17.459 3.72701C16.75 4.38301 12.611 15.364 11.139 17.599H11.143C15.38 16.581 21.315 15.948 27.89 15.948Z" fill="white"/>
<path d="M45.336 17.974H44.637C40.144 16.906 34.228 16.323 27.89 16.323C21.552 16.323 15.636 16.906 11.23 17.964H10.534L10.826 17.393C11.581 16.247 13.101 12.634 14.442 9.44501C16.124 5.44701 16.844 3.786 17.204 3.452C18.052 2.666 25.245 0 27.889 0C30.533 0 37.726 2.667 38.574 3.453C38.934 3.786 39.655 5.45 41.34 9.452C42.68 12.638 44.198 16.248 44.953 17.393L45.336 17.974ZM27.89 0.75C25.335 0.75 18.341 3.422 17.714 4.002C17.414 4.313 16.203 7.194 15.134 9.735C13.944 12.564 12.72 15.473 11.888 17.05C16.186 16.098 21.853 15.572 27.89 15.572C33.893 15.572 39.53 16.092 43.888 17.042C43.056 15.465 41.836 12.563 40.649 9.742C39.579 7.197 38.365 4.313 38.063 4C37.439 3.422 30.445 0.75 27.89 0.75Z" fill="#787864"/>
<path d="M27.799 50.21L27.072 50.167L27.893 48.94L28.738 50.201L27.799 50.21Z" fill="#787864"/>
<path d="M27.625 49.87L20.358 43.05H20.131L20.124 42.675V39.212L20.777 39.934C22.742 42.107 25.202 43.256 27.89 43.256C30.712 43.256 33.271 41.992 35.292 39.6L35.954 38.817V43.033H35.417L28.135 49.864L27.905 49.619L27.625 49.87ZM20.874 42.505L27.877 49.078L35.12 42.283H35.204V40.81C33.148 42.904 30.638 44.005 27.891 44.005C25.278 44.005 22.869 43.006 20.875 41.107L20.874 42.505Z" fill="#787864"/>
<path d="M50.823 57.058C50.549 55.997 49.886 55.078 48.966 54.482L39.26 48.194L31.923 55.408L28.031 49.592V49.608L27.875 49.588L27.898 49.61L24.005 55.427L16.728 48.271L7.11201 54.501C6.19201 55.097 5.53001 56.016 5.25601 57.077L3.11301 65.375H28.049V65.356H52.967L50.823 57.058Z" fill="#FF9600"/>
<path d="M28.048 65.75H2.62701L4.89102 56.983C5.18902 55.828 5.90501 54.835 6.90701 54.186L16.775 47.793L23.943 54.842L27.407 49.666L26.798 49.095L27.654 49.187V48.373L28.341 49.383L31.982 54.823L39.211 47.716L49.17 54.167C50.171 54.815 50.887 55.809 51.186 56.964L53.449 65.731L28.048 65.75ZM3.59501 65L52.481 64.981L50.459 57.152C50.207 56.179 49.604 55.343 48.762 54.797L39.307 48.672L31.861 55.993L27.968 50.176L24.062 56.012L16.677 48.749L7.31401 54.815C6.47001 55.361 5.86801 56.197 5.61701 57.17L3.59501 65Z" fill="#787864"/>
<path d="M5.369 58.132L5.008 58.042C1.967 57.281 0.440999 56.642 0.376999 56.616L0 56.457L0.191 56.095C0.245 55.993 5.622 45.74 5.622 38.124C5.622 33.927 4.501 23.242 4.373 22.038C4.312 21.411 4.269 21.048 4.269 21.045L4.282 20.886C5.176 17.856 15.324 15.571 27.887 15.571C40.455 15.571 50.607 17.856 51.501 20.886L51.516 20.992C51.513 21.048 51.47 21.411 51.409 22.035C51.201 24.006 50.16 34.032 50.16 38.124C50.16 45.74 55.529 55.993 55.583 56.095L55.774 56.457L55.397 56.616C55.337 56.641 53.905 57.24 51.057 57.969L50.695 58.062L50.46 57.153C50.208 56.18 49.605 55.344 48.763 54.798L39.308 48.673L31.862 55.994L27.969 50.177L24.063 56.013L16.678 48.75L7.315 54.816C6.471 55.362 5.869 56.198 5.618 57.171L5.369 58.132ZM1.048 56.071C1.635 56.289 2.902 56.726 4.83 57.222L4.891 56.983C5.189 55.828 5.905 54.835 6.907 54.186L16.775 47.793L23.943 54.842L27.407 49.666L26.798 49.095L27.654 49.187V48.373L28.341 49.383L31.982 54.823L39.211 47.716L49.17 54.167C50.171 54.815 50.887 55.809 51.186 56.964L51.233 57.147C52.998 56.683 54.169 56.277 54.727 56.07C53.736 54.117 49.41 45.183 49.41 38.123C49.41 33.993 50.453 23.932 50.662 21.958C50.707 21.493 50.744 21.17 50.759 21.032C49.933 18.753 41.032 16.32 27.886 16.32C14.743 16.32 5.844 18.754 5.022 21.033C5.036 21.147 5.072 21.477 5.119 21.961C5.328 23.93 6.372 33.976 6.372 38.124C6.372 45.184 2.039 54.118 1.048 56.071Z" fill="#787864"/>
<path d="M39.724 25.108L39.698 24.479C39.587 21.804 39.233 19.184 38.644 16.692L38.519 16.166L39.055 16.234C39.972 16.35 40.844 16.481 41.682 16.625L41.954 16.671L41.99 16.945C42.82 23.184 40.368 24.723 40.263 24.786L39.724 25.108ZM39.495 17.048C39.962 19.152 40.266 21.341 40.402 23.571C40.964 22.756 41.716 20.941 41.282 17.318C40.704 17.222 40.11 17.132 39.495 17.048Z" fill="#787864"/>
<path d="M40.197 32.91C39.541 32.909 39.07 32.428 39.019 32.373L38.911 32.258L38.937 31.682C39.433 29.435 39.68 27.035 39.68 24.465L39.676 24.128L39.907 24.122C40.08 23.989 40.978 23.204 41.295 21.025L41.378 20.451L41.867 20.762C43.305 21.678 43.47 24.105 42.455 29.418C42.01 31.735 41.25 32.91 40.197 32.91ZM39.672 31.952C39.786 32.04 39.982 32.16 40.196 32.16C40.811 32.16 41.366 31.11 41.719 29.278C42.496 25.208 42.563 22.894 41.905 21.849C41.511 23.59 40.759 24.386 40.428 24.664C40.415 27.214 40.163 29.602 39.676 31.762L39.672 31.952Z" fill="#787864"/>
<path d="M27.887 44.005C20.383 44.005 15.342 36.152 15.342 24.463C15.455 21.727 15.816 19.06 16.416 16.521L16.476 16.268L16.734 16.235C20.224 15.793 23.977 15.569 27.888 15.569C31.809 15.569 35.568 15.794 39.058 16.237L39.316 16.27L39.376 16.523C39.945 18.932 40.298 21.482 40.427 24.101L40.433 24.463C40.432 36.152 35.39 44.005 27.887 44.005ZM17.086 16.948C16.533 19.365 16.198 21.897 16.091 24.48C16.091 35.704 20.832 43.256 27.887 43.256C34.942 43.256 39.682 35.704 39.682 24.464L39.677 24.122C39.555 21.657 39.228 19.24 38.704 16.95C35.359 16.538 31.626 16.321 27.887 16.321C24.104 16.32 20.471 16.531 17.086 16.948Z" fill="#787864"/>
<path d="M16.065 25.108L15.524 24.786C15.419 24.723 12.967 23.183 13.798 16.943L13.834 16.669L14.106 16.623C14.944 16.48 15.815 16.35 16.733 16.233L17.269 16.165L17.144 16.691C16.555 19.185 16.2 21.805 16.089 24.479L16.065 25.108ZM14.507 17.316C14.073 20.94 14.826 22.756 15.387 23.571C15.524 21.341 15.828 19.152 16.295 17.047C15.679 17.13 15.085 17.221 14.507 17.316Z" fill="#787864"/>
<path d="M15.746 32.909C14.693 32.909 13.935 31.735 13.492 29.419C12.513 24.294 12.629 21.902 13.904 20.886L14.408 20.484L14.508 21.121C14.872 23.452 15.904 24.139 15.915 24.145L15.72 24.459L16.093 24.455C16.093 27.236 16.377 29.806 16.937 32.101L16.992 32.325L16.817 32.475C16.625 32.637 16.235 32.909 15.746 32.909ZM13.932 22.056C13.404 23.192 13.504 25.492 14.227 29.279C14.578 31.11 15.131 32.159 15.745 32.159C15.895 32.159 16.037 32.099 16.147 32.034C15.624 29.795 15.353 27.313 15.341 24.649C15.016 24.37 14.329 23.624 13.932 22.056Z" fill="#787864"/>
</svg>
