<svg width="158" height="168" viewBox="0 0 158 168" fill="none" xmlns="http://www.w3.org/2000/svg">
<path d="M109.972 136.456H22.646V140.027H109.972V136.456Z" fill="#784600"/>
<path d="M121.619 39.246H11V54.5H121.619V39.246Z" fill="#784600"/>
<path d="M28.063 140.027H22.646V168.003H28.063V140.027Z" fill="#784600"/>
<path d="M109.972 140.027H104.555V168.003H109.972V140.027Z" fill="#784600"/>
<path d="M109.972 56.4431H22.646V59.489H109.972V56.4431Z" fill="#784600"/>
<path d="M22.646 61.426V80.537H109.972V61.426H22.646ZM66.305 77.631C62.646 77.631 59.676 74.663 59.676 71C59.676 67.341 62.646 64.371 66.305 64.371C69.97 64.371 72.939 67.341 72.939 71C72.94 74.663 69.97 77.631 66.305 77.631Z" fill="#784600"/>
<path d="M109.972 82.481H22.646V96.2921H109.972V82.481Z" fill="#784600"/>
<path d="M109.972 98.367V98.233H22.646V98.367V117.345H109.972V98.367Z" fill="#784600"/>
<path d="M22.646 119.286V136.456H109.972V119.286H22.646ZM100.837 131.673H31.779V126.012H100.837V131.673Z" fill="#784600"/>
<path d="M37.675 147.872H49.812C51.932 147.872 53.606 148.303 54.832 149.164C56.055 150.029 56.668 151.296 56.668 152.968C56.668 153.796 56.513 154.504 56.202 155.09C55.893 155.676 55.513 156.161 55.064 156.539C54.615 156.919 54.146 157.213 53.654 157.419C53.162 157.627 52.736 157.764 52.373 157.833V158.093C52.753 158.127 53.219 158.209 53.77 158.337C54.321 158.467 54.848 158.7 55.348 159.036C55.848 159.374 56.276 159.839 56.629 160.435C56.982 161.029 57.16 161.809 57.16 162.775C57.16 163.743 56.961 164.558 56.564 165.222C56.167 165.886 55.632 166.424 54.961 166.839C54.287 167.253 53.507 167.551 52.619 167.732C51.729 167.913 50.794 168.003 49.811 168.003H37.674V163.76H39.228V152.115H37.674V147.872H37.675ZM47.871 156.358C48.371 156.358 48.747 156.23 48.997 155.97C49.247 155.71 49.371 155.289 49.371 154.703V153.771C49.371 153.183 49.247 152.761 48.997 152.502C48.747 152.244 48.371 152.115 47.871 152.115H46.474V156.358H47.871ZM48.053 163.76C48.553 163.76 48.927 163.63 49.179 163.37C49.427 163.112 49.553 162.689 49.553 162.103V160.963C49.553 160.377 49.427 159.955 49.179 159.696C48.927 159.438 48.553 159.308 48.053 159.308H46.475V163.759L48.053 163.76Z" fill="#FFBE00"/>
<path d="M70.176 152.115H67.046V156.203H69.323V159.154H67.046V163.76H70.176V159.672H75.973V168.003H58.247V163.76H59.801V152.115H58.247V147.872H75.973V155.686H70.176V152.115Z" fill="#FFBE00"/>
<path d="M89.194 152.115H86.064V156.203H88.341V159.154H86.064V163.76H89.194V159.672H94.991V168.003H77.265V163.76H78.819V152.115H77.265V147.872H94.991V155.686H89.194V152.115Z" fill="#FFBE00"/>
<path d="M12.9333 31H1.11667V11.4667H12.6833L12.35 15.4L6.63333 15.2333V19H11.1333V22.9L6.63333 22.5667V27L12.9333 26.8333V31ZM17.6967 31H12.2301L17.6801 21.3L12.4801 11.4667H19.0467L20.5134 15.15L21.2467 17.2667L22.0467 15.1833L23.6301 11.4667H29.0801L23.8967 20.2833L29.3134 31H22.8467L21.0467 26.5L20.4134 24.4667L19.5967 26.5L17.6967 31ZM35.1001 31H29.5835V11.4667H31.7835C32.3724 11.4667 33.2612 11.4444 34.4501 11.4C35.639 11.3444 36.6168 11.3167 37.3835 11.3167C39.539 11.3167 41.1724 11.8889 42.2835 13.0333C43.3946 14.1778 43.9501 15.8944 43.9501 18.1833C43.9501 19.5611 43.7668 20.8167 43.4001 21.95C43.0446 23.0722 42.5612 23.9944 41.9501 24.7167C41.339 25.4389 40.6446 25.9944 39.8668 26.3833C39.089 26.7722 38.2668 26.9667 37.4001 26.9667C37.289 26.9667 37.1724 26.9667 37.0501 26.9667C36.939 26.9667 36.8335 26.9667 36.7335 26.9667C36.6446 26.9556 36.5335 26.95 36.4001 26.95C36.2779 26.9389 36.1779 26.9333 36.1001 26.9333C36.0335 26.9222 35.9335 26.9167 35.8001 26.9167C35.6779 26.9056 35.5946 26.9 35.5501 26.9C35.5057 26.9 35.4224 26.8944 35.3001 26.8833C35.1779 26.8722 35.1112 26.8667 35.1001 26.8667V31ZM38.4835 17.45C38.4835 16.6278 38.2612 15.9611 37.8168 15.45C37.3724 14.9389 36.7335 14.6833 35.9001 14.6833H35.1001V23.35H35.7168C36.5946 23.35 37.2724 23.0556 37.7501 22.4667C38.239 21.8778 38.4835 21.0278 38.4835 19.9167V17.45ZM45.2085 31V11.4667H50.7251V26.5333H55.6918V31H45.2085ZM62.8702 23.45C62.8702 25.2944 63.0091 26.5778 63.2868 27.3C63.5757 28.0222 64.0757 28.3833 64.7868 28.3833C65.3091 28.3833 65.7035 28.2556 65.9702 28C66.2368 27.7333 66.4368 27.1944 66.5702 26.3833C66.7146 25.5611 66.7868 24.3333 66.7868 22.7V18.6833C66.7868 17.0944 66.6313 15.9111 66.3202 15.1333C66.0091 14.3556 65.498 13.9667 64.7868 13.9667C64.0757 13.9667 63.5757 14.35 63.2868 15.1167C63.0091 15.8722 62.8702 17.2556 62.8702 19.2667V23.45ZM64.4368 31.35C63.5146 31.35 62.6813 31.2667 61.9368 31.1C61.2035 30.9333 60.5702 30.7 60.0368 30.4C59.5035 30.1 59.0368 29.7167 58.6368 29.25C58.248 28.7833 57.9313 28.2833 57.6868 27.75C57.4535 27.2167 57.2646 26.5944 57.1202 25.8833C56.9757 25.1611 56.8757 24.4444 56.8202 23.7333C56.7646 23.0111 56.7368 22.2 56.7368 21.3C56.7368 19.9667 56.8035 18.8056 56.9368 17.8167C57.0813 16.8278 57.3424 15.9 57.7202 15.0333C58.098 14.1556 58.598 13.4444 59.2202 12.9C59.8535 12.3556 60.6646 11.9278 61.6535 11.6167C62.6535 11.3056 63.8313 11.15 65.1868 11.15C66.1202 11.15 66.9591 11.2389 67.7035 11.4167C68.448 11.5833 69.0868 11.8167 69.6202 12.1167C70.1535 12.4167 70.6146 12.8056 71.0035 13.2833C71.4035 13.7611 71.7202 14.2722 71.9535 14.8167C72.198 15.35 72.3924 15.9778 72.5368 16.7C72.6813 17.4222 72.7813 18.1389 72.8368 18.85C72.8924 19.5611 72.9202 20.3667 72.9202 21.2667C72.9202 22.6 72.848 23.7611 72.7035 24.75C72.5591 25.7389 72.298 26.6667 71.9202 27.5333C71.5424 28.3889 71.0368 29.0889 70.4035 29.6333C69.7702 30.1667 68.9535 30.5889 67.9535 30.9C66.9646 31.2 65.7924 31.35 64.4368 31.35ZM80.1352 24.5V31H74.6018V11.4667H76.8018C77.3352 11.4667 78.1296 11.4444 79.1852 11.4C80.2407 11.3444 81.1129 11.3167 81.8018 11.3167C84.2018 11.3167 85.9907 11.8444 87.1685 12.9C88.3574 13.9556 88.9518 15.5722 88.9518 17.75C88.9518 19.0389 88.6685 20.1833 88.1018 21.1833C87.5463 22.1833 86.8074 22.9778 85.8852 23.5667C86.3852 23.6889 86.8129 23.9722 87.1685 24.4167C87.5352 24.8611 87.8185 25.3889 88.0185 26C88.2185 26.6 88.3907 27.2111 88.5352 27.8333C88.6907 28.4444 88.8629 29.05 89.0518 29.65C89.2518 30.25 89.4685 30.7 89.7018 31H83.5518C83.4296 30.8444 83.3352 30.4111 83.2685 29.7C83.2018 28.9778 83.1074 28.1167 82.9852 27.1167C82.874 26.1056 82.7129 25.2611 82.5018 24.5833C82.4796 24.5833 82.4518 24.5833 82.4185 24.5833C82.2074 24.5833 81.9796 24.5833 81.7352 24.5833C81.5018 24.5722 81.2963 24.5611 81.1185 24.55C80.9407 24.5389 80.7518 24.5278 80.5518 24.5167C80.3629 24.5056 80.224 24.5 80.1352 24.5ZM80.1352 21.4H80.6685C80.9463 21.4 81.1796 21.3889 81.3685 21.3667C81.5574 21.3444 81.7629 21.3056 81.9852 21.25C82.2185 21.1833 82.4074 21.0833 82.5518 20.95C82.7074 20.8167 82.8518 20.6444 82.9852 20.4333C83.1185 20.2222 83.2185 19.95 83.2852 19.6167C83.3518 19.2833 83.3852 18.8944 83.3852 18.45V17.1333C83.3852 16.1667 83.1296 15.4944 82.6185 15.1167C82.1185 14.7278 81.3963 14.5333 80.4518 14.5333H80.1352V21.4ZM90.8151 31V11.4667H96.4984V31H90.8151ZM104.073 31H98.7729V13.0333L97.9563 11.4667H104.09L107.156 17.8L110.09 24.1167L109.273 16.7V11.4667H114.59V31H109.506L105.54 23.2833L103.09 18.45L104.073 24.85V31ZM128.739 29.2333C127.328 30.6444 125.65 31.35 123.706 31.35C122.328 31.35 121.134 31.1111 120.123 30.6333C119.123 30.1556 118.328 29.4667 117.739 28.5667C117.15 27.6667 116.717 26.6389 116.439 25.4833C116.173 24.3278 116.039 23.0111 116.039 21.5333C116.039 20.4333 116.095 19.4444 116.206 18.5667C116.328 17.6889 116.523 16.85 116.789 16.05C117.056 15.25 117.423 14.5611 117.889 13.9833C118.356 13.3944 118.928 12.8833 119.606 12.45C120.284 12.0167 121.106 11.6944 122.073 11.4833C123.039 11.2611 124.139 11.15 125.373 11.15C125.928 11.15 126.456 11.1833 126.956 11.25C127.467 11.3167 127.9 11.4 128.256 11.5C128.612 11.5889 128.945 11.7056 129.256 11.85C129.578 11.9833 129.828 12.1056 130.006 12.2167C130.195 12.3167 130.367 12.4278 130.523 12.55C130.678 12.6722 130.773 12.7556 130.806 12.8C130.85 12.8444 130.884 12.8778 130.906 12.9L130.656 16.7333H127.623L126.673 14.5167C126.428 14.3833 126.034 14.3167 125.489 14.3167C125.045 14.3167 124.678 14.3556 124.389 14.4333C124.1 14.5111 123.812 14.6778 123.523 14.9333C123.245 15.1778 123.023 15.5389 122.856 16.0167C122.7 16.4833 122.573 17.1222 122.473 17.9333C122.373 18.7333 122.323 19.7111 122.323 20.8667C122.323 23.2778 122.45 25.0667 122.706 26.2333C122.973 27.4 123.5 27.9833 124.289 27.9833C124.678 27.9833 125.006 27.95 125.273 27.8833C125.539 27.8056 125.789 27.6722 126.023 27.4833C126.256 27.2833 126.428 26.9944 126.539 26.6167C126.65 26.2278 126.706 25.7333 126.706 25.1333V23.4333L124.506 22.9333V19.5333H131.923L131.906 31H128.939L128.739 29.2333Z" fill="#FFBE00"/>
</svg>
