<svg width="152" height="211" viewBox="0 0 152 211" fill="none" xmlns="http://www.w3.org/2000/svg">
<path opacity="0.25" d="M151.66 88.444C151.661 88.408 151.661 88.373 151.661 88.338C151.661 88.337 151.661 88.336 151.661 88.335C151.661 88.335 151.661 88.334 151.661 88.333C151.665 87.941 151.651 87.554 151.61 87.172C151.61 87.167 151.61 87.163 151.609 87.157C151.566 86.753 151.496 86.353 151.397 85.96C151.352 85.779 151.3 85.6 151.244 85.421C151.202 85.293 151.156 85.163 151.108 85.036C151.066 84.924 151.021 84.812 150.974 84.701C150.901 84.527 150.822 84.355 150.736 84.184C150.671 84.052 150.603 83.923 150.53 83.791C150.47 83.686 150.409 83.579 150.343 83.474C150.224 83.279 150.098 83.087 149.961 82.896C149.898 82.808 149.832 82.724 149.766 82.638C149.647 82.482 149.522 82.327 149.39 82.173C149.329 82.104 149.273 82.031 149.209 81.961C149.025 81.755 148.826 81.551 148.618 81.35C148.548 81.28 148.476 81.213 148.403 81.143C148.178 80.934 147.945 80.726 147.694 80.519C147.647 80.48 147.594 80.44 147.546 80.401C147.31 80.211 147.061 80.023 146.8 79.834C146.737 79.788 146.675 79.743 146.61 79.697C146.311 79.487 145.997 79.278 145.668 79.071C145.597 79.026 145.524 78.981 145.451 78.936C145.101 78.721 144.74 78.508 144.356 78.297C143.959 78.078 143.545 77.864 143.119 77.655C142.961 77.577 142.795 77.502 142.633 77.424C142.365 77.296 142.096 77.169 141.819 77.047C141.607 76.951 141.389 76.859 141.173 76.768C140.941 76.67 140.708 76.573 140.47 76.477C140.214 76.373 139.956 76.272 139.693 76.172C139.499 76.097 139.302 76.026 139.104 75.953C138.796 75.84 138.488 75.727 138.171 75.618C138.069 75.583 137.964 75.55 137.861 75.515C136.547 75.073 135.172 74.666 133.747 74.3C133.768 74.293 133.786 74.287 133.806 74.281C134.498 74.056 135.172 73.821 135.834 73.578C136.008 73.515 136.183 73.451 136.356 73.386C136.626 73.284 136.894 73.179 137.16 73.073C137.386 72.982 137.608 72.89 137.83 72.799C138.047 72.707 138.268 72.619 138.481 72.526C138.892 72.348 139.292 72.166 139.685 71.98C139.839 71.907 139.988 71.832 140.14 71.758C140.434 71.614 140.725 71.469 141.008 71.321C141.14 71.252 141.271 71.184 141.401 71.114C141.801 70.899 142.193 70.681 142.566 70.459C142.971 70.219 143.354 69.976 143.719 69.732C143.72 69.731 143.721 69.731 143.721 69.73C143.722 69.729 143.723 69.729 143.724 69.729C143.848 69.647 143.96 69.563 144.079 69.478C144.309 69.32 144.538 69.16 144.752 68.999C144.753 68.998 144.755 68.996 144.755 68.996C144.758 68.995 144.759 68.994 144.761 68.993C144.897 68.89 145.02 68.787 145.148 68.684C145.329 68.539 145.51 68.396 145.679 68.25C145.806 68.142 145.925 68.03 146.044 67.921C146.049 67.917 146.054 67.912 146.058 67.908C146.062 67.904 146.067 67.9 146.072 67.895C146.214 67.765 146.356 67.633 146.489 67.502C146.489 67.502 146.49 67.502 146.49 67.501C146.491 67.5 146.491 67.5 146.492 67.499C146.615 67.376 146.729 67.253 146.844 67.13C146.965 67.002 147.083 66.872 147.194 66.741C147.306 66.612 147.412 66.48 147.515 66.349C147.515 66.348 147.515 66.347 147.516 66.347C147.517 66.346 147.517 66.346 147.517 66.346C147.614 66.223 147.707 66.1 147.796 65.977C147.896 65.837 147.992 65.699 148.083 65.558C148.083 65.557 148.083 65.557 148.084 65.556C148.085 65.555 148.085 65.555 148.085 65.555C148.16 65.439 148.23 65.324 148.298 65.207C148.387 65.057 148.472 64.908 148.551 64.756C148.606 64.652 148.655 64.546 148.705 64.439C148.705 64.438 148.706 64.437 148.706 64.436C148.706 64.435 148.707 64.434 148.708 64.433C148.783 64.272 148.858 64.111 148.922 63.948C148.958 63.857 148.989 63.764 149.022 63.672C149.086 63.492 149.151 63.311 149.204 63.128C149.222 63.065 149.235 63.002 149.251 62.937C149.548 61.801 149.607 60.63 149.468 59.42C149.466 59.404 149.464 59.389 149.462 59.372C149.415 58.978 149.349 58.58 149.262 58.176C149.262 58.174 149.262 58.172 149.261 58.171C149.261 58.169 149.261 58.167 149.26 58.165C149.26 58.164 149.26 58.164 149.26 58.163C148.3 53.737 145.033 48.788 141.486 43.105C141.449 43.045 141.413 42.986 141.376 42.927C141.173 42.6 140.969 42.273 140.764 41.942C140.624 41.715 140.484 41.488 140.345 41.259C140.227 41.067 140.109 40.875 139.991 40.681C139.728 40.25 139.467 39.815 139.205 39.375C131.18 25.876 127.002 13.55 113.503 21.576C113.095 21.818 112.683 22.077 112.269 22.351C112.065 22.485 111.858 22.632 111.653 22.774C111.446 22.919 111.24 23.056 111.031 23.206C110.753 23.406 110.474 23.621 110.194 23.833C110.06 23.936 109.926 24.031 109.793 24.138C109.463 24.393 109.132 24.662 108.802 24.934C108.72 25.002 108.639 25.066 108.557 25.133C108.189 25.441 107.819 25.761 107.45 26.086C107.409 26.122 107.369 26.157 107.328 26.194C106.931 26.547 106.535 26.91 106.14 27.282C106.128 27.293 106.115 27.305 106.102 27.317C105.277 28.094 104.457 28.914 103.646 29.769C103.66 29.722 103.671 29.675 103.685 29.629C103.848 29.074 104.003 28.521 104.148 27.973C104.149 27.968 104.15 27.964 104.151 27.96C104.622 26.176 105.003 24.423 105.282 22.733C105.283 22.729 105.283 22.726 105.284 22.722C105.376 22.163 105.458 21.61 105.529 21.066C105.539 20.984 105.546 20.904 105.555 20.824C105.613 20.359 105.666 19.899 105.707 19.448C105.725 19.243 105.734 19.046 105.749 18.844C105.772 18.525 105.8 18.199 105.816 17.886C105.84 17.374 105.852 16.873 105.852 16.384C105.852 15.974 105.841 15.578 105.821 15.193C105.805 14.835 105.779 14.489 105.747 14.149C105.747 14.146 105.747 14.143 105.746 14.141C105.71 13.748 105.665 13.371 105.609 13.006C105.608 12.999 105.606 12.992 105.606 12.986C104.373 4.892 98.445 3.36901 90.217 3.22501C90.208 3.22501 90.2 3.22501 90.192 3.22401C89.833 3.21701 89.47 3.21502 89.103 3.21302C89.077 3.21302 89.051 3.21302 89.025 3.21302C88.666 3.21102 88.302 3.212 87.935 3.215C87.904 3.215 87.873 3.21601 87.843 3.21601C87.473 3.21801 87.1 3.222 86.724 3.228C86.707 3.229 86.69 3.22901 86.673 3.22901C85.311 3.25001 83.902 3.286 82.454 3.318C81.485 3.34 80.498 3.35999 79.498 3.37299C78.811 3.38199 78.118 3.39002 77.418 3.39002C62.513 3.39002 50.295 0.962013 49.089 14.143C49.089 14.142 49.089 14.142 49.089 14.142C49.088 14.144 49.088 14.147 49.088 14.15C49.057 14.49 49.03 14.836 49.014 15.194C48.994 15.58 48.983 15.975 48.983 16.385C48.983 22.357 50.827 30.129 53.972 37.47C48.284 30.935 41.332 25.449 35.426 22.807C21.093 16.389 18.363 29.115 11.947 43.45C8.76298 50.561 5.27198 56.734 4.31198 61.932C4.31198 61.933 4.31198 61.933 4.31198 61.934C4.25298 62.253 4.20398 62.57 4.16498 62.883C4.16398 62.892 4.16199 62.903 4.16099 62.911C4.12299 63.221 4.09499 63.525 4.07799 63.827C4.07699 63.84 4.07598 63.854 4.07498 63.866C4.05898 64.163 4.05398 64.455 4.05998 64.746C4.06098 64.763 4.05998 64.781 4.05998 64.799C4.06598 65.082 4.08498 65.362 4.11398 65.637C4.11598 65.66 4.11599 65.684 4.11899 65.705C4.14799 65.976 4.19098 66.239 4.24198 66.503C4.24698 66.532 4.24998 66.562 4.25598 66.59C4.30898 66.847 4.37598 67.1 4.44998 67.349C4.45998 67.383 4.46598 67.416 4.47698 67.45C4.55198 67.693 4.64398 67.933 4.74198 68.171C4.75698 68.209 4.76899 68.247 4.78499 68.285C4.88399 68.517 4.99998 68.744 5.12098 68.97C5.14298 69.012 5.16098 69.055 5.18398 69.096C5.30598 69.314 5.44498 69.528 5.58898 69.74C5.61998 69.788 5.64698 69.838 5.67998 69.884C5.82598 70.091 5.98898 70.292 6.15598 70.494C6.19798 70.545 6.23298 70.596 6.27598 70.646C6.44398 70.84 6.62998 71.032 6.81998 71.22C6.87398 71.275 6.92098 71.331 6.97598 71.385C7.16898 71.571 7.38298 71.753 7.59898 71.934C7.66198 71.989 7.71999 72.045 7.78499 72.099C7.99899 72.272 8.23299 72.441 8.46799 72.61C8.54999 72.669 8.62298 72.73 8.70798 72.79C8.94998 72.957 9.21298 73.119 9.47698 73.283C9.56898 73.339 9.65198 73.398 9.74698 73.455C10.037 73.628 10.35 73.796 10.666 73.963C10.749 74.007 10.822 74.052 10.906 74.095C11.314 74.306 11.741 74.511 12.192 74.712C14.359 75.683 16.91 76.501 19.694 77.146C16.688 78.42 13.989 79.862 11.806 81.399C-0.213017 89.861 7.37998 98.158 15.816 109.714C15.851 109.762 15.886 109.811 15.92 109.86C16.139 110.16 16.358 110.462 16.577 110.765C16.643 110.856 16.709 110.948 16.775 111.039C17.034 111.399 17.293 111.762 17.55 112.129C26.59 124.97 31.706 136.938 44.547 127.896C44.92 127.634 45.295 127.355 45.67 127.063C45.792 126.969 45.914 126.869 46.036 126.772C46.294 126.566 46.552 126.358 46.811 126.141C46.952 126.022 47.093 125.901 47.235 125.778C47.479 125.568 47.723 125.352 47.967 125.13C48.112 125 48.256 124.869 48.401 124.734C48.652 124.5 48.902 124.26 49.153 124.018C49.286 123.888 49.419 123.762 49.551 123.63C49.858 123.326 50.163 123.012 50.469 122.693C49.576 126.423 49.064 130.022 48.996 133.203C48.995 133.23 48.993 133.259 48.993 133.285C48.982 133.86 48.982 134.426 49 134.972C49.456 148.563 58.991 148.036 71.729 147.306V211H79.103H86.362V174.674L86.363 174.675C86.614 174.852 86.873 175.032 87.141 175.211C87.17 175.231 87.201 175.249 87.23 175.27C87.467 175.428 87.711 175.586 87.962 175.745C88.001 175.771 88.04 175.796 88.08 175.821C88.364 176 88.655 176.176 88.954 176.354C88.956 176.355 88.957 176.357 88.959 176.358C89.244 176.524 89.538 176.692 89.837 176.856C89.897 176.89 89.958 176.922 90.019 176.957C90.319 177.12 90.623 177.283 90.937 177.442C90.945 177.446 90.954 177.449 90.962 177.454C91.288 177.621 91.623 177.784 91.964 177.943C92.03 177.974 92.096 178.003 92.162 178.034C92.451 178.168 92.744 178.3 93.043 178.428C93.108 178.457 93.173 178.485 93.239 178.513C93.594 178.663 93.957 178.811 94.327 178.953C94.372 178.97 94.419 178.986 94.465 179.004C94.789 179.128 95.12 179.248 95.455 179.363C95.545 179.394 95.635 179.426 95.725 179.457C96.105 179.586 96.49 179.711 96.883 179.829C96.886 179.83 96.89 179.831 96.894 179.831C97.292 179.95 97.699 180.063 98.112 180.17C98.211 180.196 98.312 180.222 98.412 180.246C98.754 180.332 99.1 180.414 99.451 180.491C99.536 180.51 99.619 180.53 99.704 180.548C100.129 180.639 100.561 180.723 101 180.797C101.085 180.813 101.172 180.824 101.257 180.839C101.622 180.899 101.99 180.954 102.365 181.004C102.482 181.02 102.599 181.035 102.717 181.05C103.175 181.107 103.638 181.158 104.11 181.196C104.117 181.197 104.123 181.197 104.13 181.198C104.59 181.236 105.058 181.262 105.531 181.283C105.66 181.289 105.79 181.294 105.92 181.298C106.323 181.313 106.73 181.319 107.143 181.319C107.236 181.319 107.328 181.322 107.422 181.321C107.916 181.318 108.417 181.303 108.923 181.279C109.043 181.273 109.164 181.264 109.284 181.258C109.694 181.234 110.109 181.203 110.527 181.166C110.664 181.154 110.8 181.142 110.938 181.129C111.464 181.077 111.994 181.016 112.532 180.941C112.591 180.932 112.651 180.921 112.709 180.913C113.192 180.842 113.682 180.762 114.175 180.672C114.328 180.644 114.483 180.614 114.636 180.585C115.112 180.492 115.592 180.393 116.077 180.281C116.165 180.26 116.25 180.245 116.338 180.223C116.902 180.09 117.471 179.943 118.046 179.784C118.194 179.743 118.343 179.699 118.492 179.656C118.954 179.522 119.42 179.381 119.89 179.231C120.038 179.182 120.186 179.136 120.336 179.087C120.928 178.892 121.524 178.683 122.128 178.458C122.23 178.42 122.334 178.377 122.436 178.338C122.951 178.142 123.469 177.935 123.992 177.717C124.164 177.645 124.337 177.572 124.51 177.498C125.078 177.254 125.651 177.001 126.228 176.73C126.288 176.702 126.346 176.676 126.406 176.649C127.037 176.35 127.676 176.031 128.319 175.701C128.491 175.612 128.664 175.52 128.837 175.428C129.355 175.155 129.877 174.871 130.403 174.575C130.557 174.489 130.711 174.405 130.865 174.316C131.52 173.941 132.181 173.549 132.848 173.139C132.986 173.054 133.126 172.963 133.265 172.875C133.814 172.531 134.367 172.176 134.924 171.809C135.113 171.684 135.302 171.558 135.492 171.43C136.18 170.966 136.871 170.492 137.571 169.99C137.571 169.99 137.564 169.983 137.551 169.97C137.544 169.964 137.531 169.951 137.518 169.94C137.51 169.932 137.504 169.927 137.494 169.917C137.48 169.904 137.463 169.89 137.447 169.874C137.429 169.856 137.413 169.842 137.391 169.822C137.372 169.804 137.349 169.783 137.328 169.764C137.306 169.743 137.285 169.724 137.259 169.7C137.228 169.673 137.192 169.64 137.155 169.608C137.133 169.589 137.112 169.571 137.089 169.548C137.048 169.512 137.004 169.473 136.958 169.433C136.932 169.41 136.907 169.388 136.879 169.364C136.829 169.32 136.775 169.275 136.72 169.228C136.693 169.204 136.667 169.181 136.639 169.157C136.577 169.104 136.514 169.05 136.446 168.993C136.419 168.97 136.392 168.947 136.364 168.924C136.292 168.864 136.218 168.802 136.139 168.737C136.112 168.714 136.083 168.69 136.055 168.667C135.972 168.599 135.887 168.528 135.798 168.456C135.772 168.436 135.745 168.413 135.718 168.393C135.622 168.315 135.524 168.236 135.421 168.153C135.401 168.138 135.381 168.122 135.362 168.107C135.248 168.016 135.133 167.925 135.011 167.831C135.006 167.826 134.999 167.821 134.994 167.816C133.76 166.855 132.116 165.663 130.137 164.43C130.131 164.427 130.126 164.423 130.12 164.419C129.905 164.285 129.685 164.152 129.462 164.019C129.454 164.013 129.446 164.009 129.439 164.004C129.217 163.87 128.992 163.735 128.763 163.603C128.753 163.597 128.742 163.59 128.733 163.585C128.502 163.45 128.265 163.316 128.026 163.182C128.024 163.18 128.021 163.178 128.018 163.177C121.146 159.31 111.228 155.695 100.487 158.13C100.471 158.134 100.456 158.136 100.441 158.14C100.075 158.224 99.709 158.315 99.342 158.412C99.318 158.418 99.294 158.425 99.27 158.431C98.907 158.529 98.544 158.633 98.18 158.745C98.153 158.754 98.126 158.762 98.099 158.769C97.734 158.882 97.369 159.003 97.002 159.13C96.981 159.138 96.959 159.146 96.938 159.153C96.565 159.285 96.191 159.423 95.817 159.571C95.807 159.574 95.797 159.579 95.788 159.582C92.668 160.811 89.508 162.601 86.359 165.091V146.871C86.76 146.866 87.156 146.859 87.549 146.851C87.639 146.849 87.728 146.846 87.819 146.844C88.13 146.837 88.439 146.829 88.745 146.82C88.867 146.816 88.988 146.812 89.109 146.809C89.388 146.799 89.665 146.789 89.94 146.778C90.061 146.772 90.181 146.768 90.302 146.762C90.608 146.748 90.91 146.731 91.21 146.713C91.286 146.709 91.363 146.706 91.439 146.7C91.812 146.677 92.178 146.651 92.54 146.619C92.62 146.613 92.698 146.605 92.777 146.598C93.055 146.574 93.329 146.548 93.6 146.518C93.718 146.506 93.832 146.493 93.949 146.478C94.182 146.452 94.413 146.421 94.641 146.39C94.761 146.373 94.88 146.357 94.998 146.339C95.232 146.305 95.463 146.267 95.691 146.226C95.789 146.209 95.89 146.194 95.986 146.175C96.305 146.115 96.619 146.052 96.925 145.981C96.968 145.972 97.009 145.96 97.051 145.951C97.313 145.888 97.571 145.823 97.823 145.752C97.922 145.725 98.019 145.694 98.116 145.665C98.31 145.606 98.503 145.546 98.691 145.482C98.795 145.447 98.897 145.411 98.998 145.375C99.184 145.306 99.366 145.235 99.544 145.161C99.634 145.125 99.725 145.088 99.813 145.05C100.045 144.948 100.272 144.84 100.494 144.725C100.521 144.711 100.55 144.699 100.577 144.686C100.822 144.555 101.057 144.417 101.286 144.273C101.359 144.227 101.429 144.176 101.5 144.13C101.656 144.025 101.809 143.917 101.957 143.806C102.037 143.745 102.114 143.683 102.191 143.62C102.329 143.509 102.463 143.392 102.594 143.272C102.665 143.206 102.737 143.143 102.805 143.076C102.953 142.932 103.094 142.78 103.231 142.625C103.274 142.577 103.319 142.531 103.361 142.482C103.535 142.275 103.7 142.058 103.858 141.833C103.901 141.769 103.941 141.7 103.983 141.637C104.095 141.467 104.204 141.292 104.306 141.11C104.356 141.02 104.404 140.926 104.453 140.835C104.541 140.665 104.625 140.488 104.705 140.309C104.749 140.21 104.794 140.112 104.835 140.009C104.917 139.808 104.994 139.598 105.066 139.386C105.095 139.298 105.127 139.217 105.155 139.128C105.25 138.824 105.338 138.508 105.414 138.181C105.428 138.118 105.439 138.051 105.453 137.988C105.512 137.717 105.565 137.437 105.611 137.149C105.63 137.027 105.645 136.9 105.663 136.776C105.696 136.531 105.725 136.281 105.749 136.023C105.762 135.885 105.773 135.745 105.784 135.603C105.803 135.331 105.816 135.052 105.826 134.766C105.831 134.635 105.836 134.507 105.839 134.374C105.845 133.951 105.844 133.52 105.83 133.07C105.812 132.544 105.777 132.003 105.731 131.452C105.731 131.451 105.731 131.451 105.731 131.451C105.731 131.449 105.731 131.446 105.73 131.444C105.677 130.829 105.603 130.195 105.516 129.55C105.497 129.412 105.476 129.274 105.455 129.136C105.374 128.58 105.281 128.017 105.175 127.444C105.154 127.332 105.135 127.219 105.113 127.104C104.842 125.695 104.497 124.243 104.086 122.762C104.072 122.714 104.058 122.666 104.044 122.618C103.843 121.901 103.625 121.179 103.394 120.455C103.381 120.414 103.368 120.374 103.355 120.334C102.606 118.005 101.702 115.644 100.662 113.318C100.677 113.337 100.694 113.356 100.708 113.377C100.711 113.38 100.715 113.384 100.718 113.39C100.972 113.718 101.229 114.042 101.489 114.365C101.609 114.515 101.731 114.665 101.853 114.813C101.857 114.819 101.862 114.825 101.867 114.83C101.871 114.837 101.877 114.843 101.881 114.848C102.129 115.15 102.377 115.45 102.629 115.748C102.63 115.748 102.63 115.748 102.63 115.749C102.631 115.75 102.631 115.751 102.631 115.751C102.764 115.909 102.899 116.064 103.033 116.219C103.041 116.231 103.051 116.24 103.059 116.25C103.068 116.261 103.078 116.271 103.086 116.281C103.326 116.558 103.566 116.836 103.809 117.108C103.967 117.284 104.126 117.458 104.285 117.631L104.286 117.632C104.286 117.632 104.286 117.633 104.287 117.633C104.532 117.902 104.776 118.172 105.023 118.435C105.176 118.598 105.332 118.755 105.486 118.916C105.506 118.937 105.527 118.96 105.549 118.983C105.553 118.986 105.557 118.99 105.562 118.994C105.947 119.395 106.334 119.789 106.724 120.175C106.725 120.177 106.726 120.178 106.727 120.179C106.742 120.194 106.755 120.207 106.771 120.22C106.999 120.448 107.227 120.675 107.457 120.896C107.46 120.898 107.461 120.901 107.464 120.903C107.466 120.905 107.469 120.907 107.471 120.91C107.653 121.084 107.835 121.25 108.017 121.421C108.025 121.428 108.031 121.434 108.038 121.44C108.046 121.447 108.052 121.453 108.06 121.46C108.288 121.674 108.516 121.887 108.744 122.095C108.747 122.098 108.749 122.101 108.752 122.104C108.755 122.105 108.758 122.108 108.76 122.111C108.942 122.276 109.124 122.433 109.306 122.595C109.312 122.599 109.317 122.604 109.324 122.61C109.329 122.615 109.334 122.62 109.34 122.624C109.576 122.832 109.813 123.041 110.049 123.242C110.238 123.404 110.425 123.558 110.614 123.715C110.857 123.917 111.099 124.115 111.341 124.309C111.344 124.311 111.345 124.314 111.348 124.315C111.35 124.317 111.353 124.319 111.355 124.322C111.537 124.467 111.719 124.609 111.901 124.751C111.903 124.752 111.904 124.754 111.905 124.755C111.907 124.756 111.908 124.758 111.91 124.759C112.152 124.947 112.393 125.13 112.634 125.31C112.639 125.315 112.644 125.319 112.648 125.322C112.653 125.325 112.658 125.329 112.663 125.333C112.838 125.463 113.013 125.594 113.188 125.72C113.445 125.908 113.702 126.085 113.958 126.262C114.124 126.376 114.289 126.493 114.453 126.603C114.454 126.604 114.456 126.606 114.458 126.607C114.459 126.608 114.462 126.609 114.463 126.609C114.733 126.79 115.001 126.96 115.269 127.129C115.279 127.136 115.289 127.144 115.299 127.148C115.308 127.153 115.317 127.16 115.326 127.165C115.455 127.247 115.585 127.334 115.714 127.411C116.129 127.664 116.541 127.906 116.949 128.131C130.708 135.699 134.47 123.237 142.038 109.478C142.333 108.942 142.63 108.414 142.927 107.888C142.933 107.877 142.939 107.867 142.945 107.856C143.035 107.697 143.126 107.538 143.216 107.38C143.422 107.019 143.626 106.659 143.831 106.304C143.939 106.117 144.047 105.928 144.154 105.744C144.231 105.611 144.307 105.48 144.383 105.349C144.494 105.156 144.599 104.975 144.711 104.782C145.77 102.959 146.791 101.209 147.712 99.529C147.713 99.528 147.713 99.527 147.713 99.526C147.718 99.518 147.723 99.508 147.728 99.499C148.003 98.997 148.269 98.502 148.523 98.013C148.527 98.005 148.531 97.997 148.535 97.992C149.044 97.013 149.507 96.058 149.914 95.128C149.928 95.096 149.943 95.061 149.958 95.026C150.361 94.097 150.706 93.191 150.977 92.307C150.979 92.301 150.981 92.293 150.983 92.286C150.983 92.286 150.983 92.286 150.983 92.285C151.113 91.858 151.225 91.437 151.319 91.021C151.319 91.021 151.32 91.02 151.32 91.019C151.32 91.018 151.32 91.017 151.32 91.017C151.326 90.989 151.334 90.959 151.34 90.931C151.534 90.078 151.642 89.25 151.66 88.444ZM91.411 98.525C91.4 98.51 91.389 98.498 91.377 98.485C89.791 96.703 88.115 95.137 86.367 93.857C86.365 93.855 86.363 93.854 86.361 93.852V92.2C87.829 91.617 89.209 90.862 90.479 89.96C90.48 89.96 90.48 89.96 90.481 89.959C90.527 91.589 90.768 93.275 91.182 94.997C91.19 95.029 91.196 95.06 91.204 95.092C91.301 95.487 91.406 95.882 91.519 96.28C91.541 96.359 91.564 96.437 91.588 96.516C91.962 97.786 92.416 99.069 92.951 100.355C92.948 100.351 92.944 100.348 92.94 100.344C92.44 99.715 91.93 99.11 91.411 98.525ZM88.646 56.665C88.646 56.665 88.645 56.666 88.645 56.667C88.645 56.667 88.645 56.666 88.644 56.666C88.356 56.506 88.063 56.352 87.767 56.206C87.762 56.204 87.758 56.201 87.753 56.199C88.149 55.886 88.54 55.56 88.928 55.217C88.822 55.703 88.725 56.186 88.646 56.665ZM98.677 75.952C98.706 75.676 98.726 75.397 98.743 75.118C98.743 75.117 98.743 75.116 98.743 75.116C99.044 75.235 99.35 75.351 99.66 75.463C99.589 75.497 99.52 75.534 99.449 75.568C99.19 75.695 98.927 75.817 98.677 75.952ZM59.458 72.184C59.456 72.21 59.455 72.235 59.453 72.261C59.445 72.36 59.437 72.457 59.43 72.555C59.401 72.997 59.38 73.442 59.38 73.893C59.38 74.351 59.402 74.805 59.433 75.255C58.612 74.775 57.739 74.347 56.813 73.978C57.762 73.432 58.646 72.833 59.458 72.184ZM66.267 93.662C66.288 93.537 66.312 93.414 66.332 93.291C66.393 92.921 66.445 92.555 66.492 92.189C66.51 92.05 66.526 91.915 66.541 91.779C66.583 91.413 66.619 91.051 66.646 90.692C66.655 90.573 66.659 90.457 66.667 90.341C66.69 89.968 66.71 89.595 66.716 89.228C67.838 90.134 69.061 90.919 70.366 91.565C68.915 92.24 67.512 93.141 66.167 94.23C66.203 94.039 66.233 93.85 66.267 93.662ZM68.527 57.259C67.257 58.068 66.084 59.014 65.033 60.084C64.948 57.766 64.426 55.346 63.54 52.893C65.117 54.604 66.784 56.082 68.527 57.259Z" fill="#724D35"/>
<path d="M82.96 71.342H68.328V208.45H82.96V71.342Z" fill="#A6C943"/>
<path d="M86.923 65.892C78.898 52.395 96.604 27.056 110.102 19.031C123.601 11.007 127.78 23.332 135.805 36.83C143.83 50.329 152.664 59.887 139.165 67.912C125.667 75.938 94.949 79.39 86.923 65.892Z" fill="white"/>
<path d="M72.545 87.625C88.239 87.099 101.908 114.825 102.435 130.52C102.962 146.215 90.147 143.936 74.453 144.462C58.758 144.989 46.125 148.123 45.599 132.428C45.071 116.731 56.85 88.153 72.545 87.625Z" fill="white"/>
<path d="M60.451 64.14C54.034 78.472 23.122 78.583 8.789 72.167C-5.544 65.749 2.12899 55.236 8.54499 40.903C14.962 26.57 17.691 13.843 32.024 20.26C46.359 26.677 66.867 49.808 60.451 64.14Z" fill="white"/>
<path opacity="0.25" d="M60.451 59.243C54.034 73.574 23.122 73.685 8.789 67.268C3.955 65.104 1.63 62.471 0.911001 59.385C-0.0639988 64.66 1.57 68.934 8.789 72.167C23.122 78.583 54.033 78.472 60.451 64.14C61.613 61.544 61.882 58.658 61.474 55.636C61.289 56.884 60.965 58.094 60.451 59.243Z" fill="#724D35"/>
<path opacity="0.25" d="M139.165 63.173C125.667 71.198 94.949 74.65 86.923 61.152C85.906 59.443 85.306 57.541 85.055 55.511C84.636 59.34 85.148 62.906 86.923 65.891C94.948 79.389 125.667 75.937 139.165 67.91C145.378 64.217 146.853 60.196 145.861 55.618C145.168 58.311 143.14 60.809 139.165 63.173Z" fill="#724D35"/>
<path opacity="0.25" d="M102.336 128.901C101.085 141.15 89.012 139.235 74.453 139.722C59.19 140.234 46.827 143.207 45.674 128.937C45.592 130.153 45.562 131.325 45.599 132.427C46.125 148.122 58.758 144.988 74.453 144.461C90.147 143.935 102.962 146.214 102.435 130.519C102.417 129.995 102.382 129.453 102.336 128.901Z" fill="#724D35"/>
<path d="M74.017 57.713C58.313 57.713 45.583 29.544 45.583 13.841C45.583 -1.86399 58.313 0.842998 74.017 0.842998C89.721 0.842998 102.451 -1.86399 102.451 13.841C102.45 29.544 89.72 57.713 74.017 57.713Z" fill="#EFE8E4"/>
<path opacity="0.25" d="M74.017 52.974C59.112 52.974 46.893 27.605 45.688 11.597C45.624 12.303 45.583 13.041 45.583 13.841C45.583 29.544 58.313 57.713 74.017 57.713C89.721 57.713 102.451 29.544 102.451 13.841C102.451 13.041 102.41 12.303 102.346 11.597C101.14 27.605 88.921 52.974 74.017 52.974Z" fill="#724D35"/>
<path d="M88.811 79.518C96.379 65.759 127.196 68.179 140.956 75.747C154.716 83.315 146.208 93.166 138.641 106.925C131.073 120.685 127.311 133.145 113.552 125.576C99.79 118.009 81.243 93.278 88.811 79.518Z" fill="#EFE8E4"/>
<path d="M60.648 76.843C69.688 89.683 53.985 116.311 41.145 125.35C28.305 134.392 23.189 122.423 14.148 109.584C5.108 96.743 -4.437 87.894 8.403 78.852C21.245 69.812 51.607 64.003 60.648 76.843Z" fill="#EFE8E4"/>
<path opacity="0.25" d="M138.641 102.185C131.073 115.945 127.311 128.406 113.552 120.837C102.662 114.848 88.787 98.114 87.218 84.57C85.393 98.657 101.347 118.865 113.552 125.576C127.311 133.144 131.073 120.684 138.641 106.925C143.886 97.39 149.575 89.733 147.998 83.41C146.897 88.738 142.639 94.917 138.641 102.185Z" fill="#724D35"/>
<path opacity="0.25" d="M41.145 120.612C28.305 129.654 23.189 117.684 14.148 104.844C9.04399 97.594 3.78099 91.617 2.47499 86.158C0.652987 92.922 7.52999 100.182 14.148 109.584C23.189 122.423 28.304 134.392 41.145 125.35C51.915 117.768 64.689 97.819 63.199 84.004C61.913 97.304 50.733 113.861 41.145 120.612Z" fill="#724D35"/>
<path d="M55.98 71.342C55.98 60.46 64.801 51.639 75.682 51.639C86.563 51.639 95.385 60.46 95.385 71.342C95.385 82.224 86.563 91.045 75.682 91.045C64.801 91.045 55.98 82.224 55.98 71.342Z" fill="#FFD200"/>
<path opacity="0.25" d="M75.682 85.191C65.795 85.191 57.611 77.908 56.197 68.415C56.055 69.372 55.98 70.348 55.98 71.343C55.98 82.225 64.801 91.046 75.682 91.046C86.563 91.046 95.385 82.225 95.385 71.343C95.385 70.348 95.309 69.372 95.167 68.415C93.752 77.908 85.569 85.191 75.682 85.191Z" fill="#724D35"/>
<path d="M73.245 57.022C73.933 58.513 72.289 60.74 69.574 61.99C66.859 63.24 64.1 63.042 63.412 61.55C62.725 60.056 64.369 57.832 67.084 56.582C69.798 55.331 72.557 55.529 73.245 57.022Z" fill="white"/>
<path d="M77.648 167.439C77.648 167.439 98.685 192.938 134.171 167.439C134.171 167.439 104.422 138.965 77.648 167.439Z" fill="#A6C943"/>
<path opacity="0.25" d="M75.703 209.531H82.961V173.205C91.302 179.118 109.142 186.505 134.172 168.52C134.172 168.52 108.208 143.674 82.961 163.623V145.404C94.509 145.235 102.863 144.332 102.436 131.599C102.418 131.074 102.383 130.533 102.337 129.982C102.337 129.982 102.337 129.981 102.337 129.98C101.881 124.606 100.059 118.097 97.267 111.848C97.283 111.866 97.299 111.886 97.314 111.907C97.572 112.239 97.832 112.568 98.096 112.895C98.222 113.051 98.347 113.206 98.473 113.361C98.727 113.671 98.98 113.976 99.237 114.28C99.379 114.449 99.524 114.613 99.667 114.781C99.916 115.068 100.165 115.357 100.417 115.64C100.575 115.817 100.734 115.989 100.894 116.163C101.139 116.432 101.383 116.703 101.631 116.967C101.806 117.152 101.982 117.33 102.157 117.513C102.548 117.919 102.94 118.319 103.335 118.71C103.581 118.951 103.825 119.196 104.071 119.433C104.262 119.617 104.453 119.791 104.644 119.97C104.883 120.194 105.12 120.416 105.358 120.633C105.549 120.804 105.739 120.971 105.93 121.14C106.171 121.352 106.413 121.566 106.655 121.772C106.844 121.933 107.031 122.088 107.221 122.245C107.466 122.449 107.71 122.649 107.954 122.845C108.14 122.994 108.326 123.14 108.511 123.284C108.76 123.477 109.008 123.665 109.255 123.85C109.435 123.985 109.614 124.118 109.795 124.246C110.052 124.434 110.309 124.612 110.565 124.788C110.732 124.903 110.898 125.021 111.064 125.132C111.346 125.322 111.626 125.498 111.905 125.674C112.044 125.762 112.183 125.854 112.321 125.938C112.736 126.191 113.148 126.432 113.556 126.657C127.315 134.225 131.077 121.765 138.645 108.005C138.94 107.469 139.236 106.94 139.534 106.415C139.63 106.245 139.726 106.075 139.822 105.907C140.028 105.546 140.233 105.187 140.437 104.831C140.545 104.645 140.654 104.455 140.76 104.27C140.837 104.137 140.912 104.006 140.99 103.875C142.165 101.846 143.304 99.908 144.32 98.055C144.325 98.045 144.331 98.035 144.336 98.026C144.611 97.524 144.877 97.029 145.13 96.539C145.134 96.532 145.138 96.524 145.142 96.518C145.651 95.538 146.114 94.584 146.521 93.655C146.535 93.621 146.551 93.588 146.564 93.553C146.968 92.624 147.313 91.718 147.584 90.834C147.586 90.827 147.588 90.818 147.59 90.813C147.721 90.385 147.832 89.964 147.928 89.546C147.934 89.519 147.941 89.487 147.948 89.459C148.137 88.609 148.245 87.781 148.263 86.975C148.264 86.939 148.264 86.904 148.264 86.867C148.269 86.475 148.254 86.087 148.214 85.703C148.214 85.699 148.214 85.694 148.213 85.689C148.169 85.284 148.1 84.885 148.001 84.491C147.303 81.691 145.184 79.153 140.959 76.829C138.057 75.232 134.391 73.869 130.35 72.834C133.696 71.753 136.718 70.45 139.168 68.993C139.574 68.752 139.958 68.509 140.323 68.265C140.449 68.181 140.561 68.097 140.681 68.012C140.912 67.852 141.144 67.691 141.359 67.53C141.495 67.426 141.621 67.322 141.751 67.217C141.932 67.074 142.113 66.93 142.282 66.784C142.414 66.671 142.536 66.557 142.661 66.441C142.809 66.305 142.956 66.17 143.093 66.034C143.217 65.911 143.332 65.787 143.447 65.664C143.568 65.535 143.686 65.405 143.798 65.275C143.91 65.145 144.017 65.012 144.12 64.882C144.217 64.758 144.31 64.635 144.4 64.511C144.5 64.371 144.596 64.232 144.688 64.091C144.763 63.975 144.834 63.859 144.903 63.741C144.991 63.592 145.077 63.442 145.155 63.291C145.211 63.185 145.26 63.078 145.311 62.971C145.387 62.809 145.462 62.646 145.527 62.483C145.564 62.392 145.594 62.297 145.627 62.206C145.692 62.026 145.756 61.846 145.809 61.662C145.827 61.6 145.84 61.537 145.856 61.472C146.255 59.951 146.224 58.365 145.866 56.705C145.866 56.704 145.865 56.702 145.865 56.7C144.7 51.332 140.14 45.195 135.809 37.91C127.784 24.412 123.606 12.087 110.106 20.112C106.923 22.005 103.506 24.869 100.247 28.306C101.668 23.49 102.454 18.821 102.454 14.921C102.454 14.508 102.443 14.113 102.423 13.73C102.407 13.371 102.38 13.025 102.349 12.685C102.349 12.681 102.349 12.679 102.349 12.677C102.349 12.677 102.349 12.677 102.349 12.678C101.189 -0.00199604 89.837 1.76099 75.706 1.91299V209.531H75.703ZM95.344 73.645C95.644 73.765 95.95 73.88 96.26 73.993C95.929 74.152 95.595 74.309 95.278 74.482C95.306 74.205 95.326 73.924 95.344 73.645ZM85.528 53.748C85.422 54.233 85.324 54.718 85.246 55.197C84.953 55.034 84.656 54.877 84.353 54.728C84.749 54.417 85.141 54.089 85.528 53.748ZM82.96 90.731C84.429 90.146 85.81 89.39 87.081 88.489C87.172 91.788 88.07 95.324 89.551 98.887C87.512 96.322 85.3 94.097 82.961 92.382L82.96 90.731Z" fill="#724D35"/>
</svg>
