<svg width="52" height="50" viewBox="0 0 52 50" fill="none" xmlns="http://www.w3.org/2000/svg">
<path d="M0 12.4994L25.5987 0L51.1973 12.4994V37.5006L25.5987 50L0 37.5006V12.4994Z" fill="#F1C40F"/>
<path d="M8.28036 16.544L25.5987 8.08675L42.9197 16.544V33.4584L25.5987 41.9156L8.28036 33.4584V16.544Z" fill="#F18F0F"/>
<path d="M8.28036 16.544L25.5987 8.08675L42.9197 16.544V33.4584L41.1292 17.5458L25.5987 9.80149L8.28036 16.544Z" fill="#BA6E0C"/>
<path d="M25.5987 1.16492L50.2415 13.0912V36.7038L48.1039 14.1746L25.5987 1.16492Z" fill="#FFE270"/>
<path d="M26.3121 48.7862L1.6693 36.8599V13.2473L3.80689 35.7742L26.3121 48.7862Z" fill="#D9B00D"/>
<path opacity="0.25" d="M38.1262 19.8093C38.1416 19.7961 38.1565 19.7828 38.1708 19.769C38.1789 19.761 38.1865 19.7529 38.1942 19.7448C38.207 19.7315 38.2195 19.7183 38.2312 19.7043C38.2393 19.6948 38.2466 19.685 38.2543 19.6753C38.2646 19.662 38.2749 19.6488 38.2842 19.635C38.292 19.6239 38.2986 19.6123 38.3057 19.601C38.3136 19.5879 38.3219 19.575 38.329 19.5616C38.336 19.5487 38.3417 19.5354 38.3477 19.5222C38.3536 19.5095 38.3598 19.4971 38.365 19.4843C38.3709 19.4694 38.3753 19.4541 38.3802 19.4388C38.3839 19.4271 38.3882 19.4156 38.3913 19.4037C38.396 19.3858 38.3991 19.3675 38.4021 19.3493C38.404 19.3395 38.4064 19.3298 38.4078 19.3197C38.4113 19.2913 38.4134 19.2626 38.4134 19.2334C38.4134 19.2053 38.4115 19.1775 38.4079 19.15C38.4057 19.1321 38.4016 19.1147 38.3981 19.0971C38.3977 19.0955 38.3976 19.094 38.3972 19.0924C38.397 19.0912 38.3967 19.0899 38.3965 19.0887C38.3951 19.0828 38.3944 19.077 38.3929 19.0711C38.387 19.0473 38.3796 19.0238 38.371 19.0006C38.3707 18.9999 38.3706 18.9992 38.3704 18.9986C38.3701 18.9982 38.37 18.9978 38.3699 18.9973C38.3697 18.997 38.3696 18.9966 38.3695 18.9963C38.3695 18.9963 38.3695 18.9963 38.3695 18.9962C38.3619 18.976 38.3532 18.9561 38.344 18.9366C38.3421 18.9327 38.3404 18.9289 38.3385 18.9251C38.3291 18.9064 38.3191 18.888 38.3082 18.8699C38.3058 18.8662 38.3035 18.8624 38.3011 18.8586C38.2895 18.8403 38.2776 18.8221 38.2644 18.8045C38.2638 18.8036 38.2629 18.8026 38.2622 18.8018C38.2211 18.747 38.1722 18.6963 38.1169 18.65C38.1113 18.6452 38.1059 18.6403 38.1001 18.6358C38.0855 18.6241 38.0704 18.613 38.0551 18.602C38.0463 18.5956 38.0372 18.5892 38.028 18.583C38.0134 18.5732 37.9986 18.5638 37.9834 18.5545C37.9722 18.5477 37.9605 18.5411 37.9491 18.5347C37.9346 18.5266 37.9203 18.5184 37.9053 18.5109C37.89 18.5031 37.874 18.4961 37.8582 18.4889C37.8429 18.482 37.8276 18.475 37.8118 18.4685C37.7869 18.4585 37.7616 18.4489 37.7356 18.4403C37.7239 18.4364 37.7118 18.4331 37.6999 18.4295C37.6801 18.4235 37.6602 18.4177 37.6398 18.4125C37.6269 18.4093 37.6141 18.4065 37.6011 18.4035C37.5807 18.399 37.56 18.3948 37.5391 18.3913C37.5262 18.389 37.5132 18.3868 37.5002 18.3849C37.4773 18.3816 37.4542 18.379 37.4309 18.3768C37.4195 18.3757 37.4083 18.3744 37.3969 18.3735C37.362 18.371 37.3267 18.3694 37.2909 18.3694H26.9748H16.5192C15.9709 18.3694 15.5152 18.672 15.4167 19.0717C15.4152 19.0775 15.4144 19.0832 15.4132 19.089C15.4088 19.1093 15.4043 19.1295 15.4017 19.1502C15.3981 19.1775 15.3963 19.2053 15.3963 19.2334C15.3963 19.7107 15.899 20.0975 16.5192 20.0975H16.6267C16.2901 20.9045 16.1049 21.7636 16.1049 22.6564C16.1049 22.7922 16.11 22.9269 16.1185 23.0611C16.1195 23.0774 16.12 23.0941 16.1212 23.1102C16.1295 23.2271 16.1417 23.3434 16.1563 23.4591C16.1609 23.4964 16.1652 23.5335 16.1705 23.5706C16.1845 23.6685 16.2013 23.7656 16.2196 23.8627C16.2299 23.9174 16.2404 23.9721 16.2521 24.0266C16.2702 24.1106 16.2902 24.1941 16.3113 24.2774C16.3272 24.3393 16.3439 24.4012 16.3614 24.4625C16.3629 24.4677 16.3641 24.4726 16.3654 24.4777C16.4208 24.699 16.4958 24.9217 16.5929 25.1457C16.5946 25.1499 16.5964 25.1541 16.5982 25.1584C16.6011 25.1649 16.6034 25.1716 16.6064 25.1782C16.6139 25.1952 16.6213 25.2114 16.629 25.2282C16.6585 25.2988 16.6916 25.3684 16.7234 25.4385C16.746 25.4875 16.7662 25.5373 16.7897 25.586C16.7901 25.5871 16.7908 25.5883 16.7914 25.5895C18.3036 28.9266 19.7377 31.1254 21.8016 32.3533V32.744V33.5645H26.9747H32.187V32.744V32.3619C34.2585 31.1357 35.6959 28.9344 37.2114 25.5896C37.2118 25.5888 37.212 25.5878 37.2127 25.587C37.2393 25.5321 37.2622 25.4759 37.2875 25.4203C37.3163 25.3564 37.3469 25.293 37.3739 25.2284C37.3815 25.2115 37.3888 25.1953 37.3966 25.1784C37.3994 25.1718 37.4017 25.1651 37.4045 25.1586C37.4064 25.1543 37.4081 25.15 37.4099 25.1459C37.5071 24.9219 37.582 24.6991 37.6374 24.4779C37.6387 24.4735 37.6396 24.4691 37.6409 24.4647C37.6588 24.4023 37.6756 24.3395 37.6916 24.2765C37.7131 24.1935 37.7328 24.1101 37.7508 24.0262C37.7625 23.9723 37.773 23.9181 37.7831 23.8638C37.8016 23.7662 37.8187 23.6682 37.8327 23.5694C37.8377 23.5335 37.8419 23.4975 37.8463 23.4616C37.861 23.3447 37.8735 23.2271 37.8817 23.1088C37.883 23.0943 37.8833 23.0792 37.8842 23.0645C37.8929 22.9294 37.8981 22.7934 37.8981 22.6565C37.8981 22.5425 37.8949 22.429 37.8889 22.3161C37.8859 22.2609 37.8804 22.2063 37.8761 22.1514C37.8717 22.0949 37.8684 22.0381 37.8624 21.982C37.8546 21.9078 37.8441 21.8344 37.8339 21.7609C37.8289 21.7255 37.8251 21.6898 37.8195 21.6545C37.806 21.5683 37.7899 21.4829 37.7729 21.3974C37.7686 21.376 37.7652 21.3545 37.7607 21.3331C37.741 21.2383 37.7186 21.1443 37.6949 21.0507C37.6921 21.0397 37.6896 21.0285 37.6868 21.0174C37.6608 20.917 37.6322 20.8174 37.6015 20.7184C37.6003 20.7145 37.5992 20.7106 37.5981 20.7067C37.5337 20.4994 37.4589 20.2953 37.375 20.0943C37.3752 20.0943 37.3755 20.0942 37.3757 20.0942C37.4104 20.0922 37.4445 20.0889 37.4783 20.0845C37.4802 20.0842 37.4822 20.0841 37.4841 20.0838C37.5169 20.0794 37.5489 20.0739 37.5807 20.0673C37.5835 20.0667 37.5865 20.0662 37.5893 20.0656C37.6199 20.0591 37.65 20.0515 37.6796 20.0431C37.6832 20.042 37.6872 20.0411 37.6909 20.0399C37.7193 20.0316 37.747 20.0223 37.7744 20.0123C37.7791 20.0106 37.7837 20.0089 37.7884 20.0071C37.8144 19.9972 37.8397 19.9865 37.8644 19.9752C37.8701 19.9725 37.8759 19.9698 37.8815 19.9671C37.9047 19.956 37.9275 19.9444 37.9496 19.9319C37.9563 19.9282 37.9627 19.9245 37.9692 19.9207C37.9899 19.9086 38.0101 19.896 38.0296 19.8829C38.0368 19.878 38.0438 19.8729 38.0509 19.868C38.0689 19.8552 38.0865 19.8422 38.1034 19.8285C38.1111 19.8223 38.1188 19.8158 38.1262 19.8093Z" fill="#724D35"/>
<path d="M37.0793 23.9074C37.1008 23.8244 37.1205 23.7409 37.1386 23.6571C37.1502 23.6032 37.1608 23.5491 37.1708 23.4947C37.1893 23.397 37.2064 23.299 37.2204 23.2003C37.2254 23.1643 37.2296 23.1283 37.234 23.0925C37.2487 22.9756 37.2612 22.8579 37.2695 22.7396C37.2707 22.7251 37.2711 22.7101 37.2719 22.6954C37.2806 22.5602 37.2858 22.4243 37.2858 22.2874C37.2858 21.348 37.0829 20.4453 36.7119 19.6021C36.6589 19.4819 36.6026 19.3626 36.5428 19.2446H16.2354C16.1757 19.3626 16.1192 19.4819 16.0664 19.6021C15.6955 20.4454 15.4926 21.348 15.4926 22.2874C15.4926 22.4232 15.4977 22.5579 15.5062 22.6921C15.5072 22.7084 15.5077 22.725 15.5088 22.7412C15.5171 22.8581 15.5294 22.9744 15.5439 23.0901C15.5485 23.1273 15.5528 23.1645 15.5581 23.2016C15.5721 23.2995 15.5889 23.3967 15.6072 23.4937C15.6176 23.5484 15.628 23.6032 15.6397 23.6576C15.6577 23.7417 15.6778 23.8251 15.6989 23.9084C15.7148 23.9703 15.7314 24.0323 15.749 24.0935C15.7505 24.0987 15.7516 24.1036 15.753 24.1087C15.8084 24.3301 15.8834 24.5528 15.9805 24.7767C15.9822 24.7809 15.984 24.7851 15.9858 24.7895C15.9887 24.7959 15.991 24.8026 15.994 24.8092C16.0015 24.8262 16.0089 24.8424 16.0165 24.8592C16.0461 24.9299 16.0792 24.9995 16.111 25.0695C16.1336 25.1185 16.1538 25.1684 16.1773 25.217C16.1777 25.2181 16.1784 25.2193 16.179 25.2206C17.6912 28.5577 19.1253 30.7564 21.1892 31.9844V33.1955H31.5745V31.993C33.6461 30.7667 35.0834 28.5654 36.599 25.2207C36.5994 25.2198 36.5996 25.2188 36.6003 25.218C36.6269 25.1632 36.6498 25.1069 36.6751 25.0514C36.7039 24.9875 36.7345 24.924 36.7615 24.8594C36.7691 24.8425 36.7764 24.8264 36.7841 24.8094C36.7868 24.8028 36.7893 24.7961 36.7921 24.7897C36.794 24.7853 36.7957 24.7811 36.7975 24.7769C36.8947 24.553 36.9696 24.3302 37.025 24.1089C37.0263 24.1045 37.0272 24.1002 37.0285 24.0957C37.0464 24.0331 37.0634 23.9703 37.0793 23.9074Z" fill="#A2DDC4"/>
<path d="M37.801 18.8643C37.801 19.3415 37.2984 19.7283 36.6785 19.7283H15.9069C15.2867 19.7283 14.784 19.3414 14.784 18.8643C14.784 18.3871 15.2867 18.0002 15.9069 18.0002H36.6785C37.2984 18.0001 37.801 18.3871 37.801 18.8643Z" fill="#A2DDC4"/>
<path opacity="0.25" d="M36.6784 19.1074H15.9068C15.429 19.1074 15.022 18.8773 14.8599 18.5538C14.8116 18.6502 14.7839 18.7547 14.7839 18.8643C14.7839 19.3415 15.2866 19.7284 15.9068 19.7284H36.6784C37.2984 19.7284 37.8009 19.3414 37.8009 18.8643C37.8009 18.7547 37.7733 18.6501 37.725 18.5538C37.5629 18.8773 37.156 19.1074 36.6784 19.1074Z" fill="#724D35"/>
<path d="M36.0579 20.0441H36.0292H16.7838H16.7551C16.7551 20.0441 15.0144 25.6337 21.8241 31.5086H21.9212H30.8916H30.9888C37.7983 25.6337 36.0579 20.0441 36.0579 20.0441Z" fill="#C9F2DF"/>
<path opacity="0.25" d="M31.5747 32.3748H21.1893V33.1953H31.5747V32.3748Z" fill="#724D35"/>
<path d="M32.7217 24.8475C29.2097 26.4498 29.6698 24.1158 26.389 24.1123C26.3879 24.1123 26.3867 24.1123 26.3856 24.1123C26.3842 24.1123 26.3831 24.1122 26.3819 24.1122C23.1011 24.1157 23.5612 26.4498 20.0492 24.8475C18.7212 24.2418 17.6863 24.1742 16.9122 24.3242C17.4666 26.3546 18.8041 28.9033 21.8239 31.5086H21.9211H30.8915H30.9886C34.004 28.9069 35.3423 26.3618 35.8981 24.3327C35.1198 24.1726 34.0727 24.2311 32.7217 24.8475Z" fill="#F1C40F"/>
<path opacity="0.25" d="M30.9888 30.8402H30.8916H21.9212H21.8241C19.1121 28.5004 17.7572 26.2066 17.1076 24.2925C17.0409 24.3017 16.9754 24.3118 16.9122 24.3241C17.4666 26.3545 18.8041 28.9032 21.8239 31.5085H21.9211H30.8915H30.9886C34.004 28.9068 35.3423 26.3617 35.8981 24.3326C35.835 24.3196 35.7695 24.3087 35.703 24.2988C35.0524 26.2116 33.6978 28.5031 30.9888 30.8402Z" fill="#724D35"/>
<path d="M26.0158 25.3613C26.0158 25.561 25.8054 25.723 25.5461 25.723C25.2866 25.723 25.0762 25.561 25.0762 25.3613C25.0762 25.1617 25.2866 24.9997 25.5461 24.9997C25.8054 24.9997 26.0158 25.1617 26.0158 25.3613Z" fill="#F9BB62"/>
<path d="M21.2352 27.0519C21.2352 27.4709 20.794 27.8104 20.2496 27.8104C19.7053 27.8104 19.2642 27.4708 19.2642 27.0519C19.2642 26.6329 19.7053 26.2934 20.2496 26.2934C20.794 26.2934 21.2352 26.633 21.2352 27.0519Z" fill="#F9BB62"/>
<path d="M22.4503 28.442C22.4503 28.5683 22.3174 28.6705 22.1535 28.6705C21.9896 28.6705 21.8566 28.5683 21.8566 28.442C21.8566 28.3158 21.9894 28.2135 22.1535 28.2135C22.3175 28.2135 22.4503 28.3158 22.4503 28.442Z" fill="#F9BB62"/>
<path d="M23.325 26.7138C23.325 26.8487 23.183 26.958 23.0077 26.958C22.8324 26.958 22.6903 26.8487 22.6903 26.7138C22.6903 26.5787 22.8324 26.4695 23.0077 26.4695C23.183 26.4695 23.325 26.5788 23.325 26.7138Z" fill="#F9BB62"/>
<path d="M25.0824 29.3624C25.0824 29.6425 24.7873 29.8696 24.4233 29.8696C24.0594 29.8696 23.7645 29.6425 23.7645 29.3624C23.7645 29.0822 24.0594 28.8553 24.4233 28.8553C24.7872 28.8553 25.0824 29.0822 25.0824 29.3624Z" fill="#F9BB62"/>
<path d="M28.8165 27.4652C28.8165 27.5171 28.7619 27.5591 28.6946 27.5591C28.6272 27.5591 28.5726 27.5171 28.5726 27.4652C28.5726 27.4133 28.6272 27.3712 28.6946 27.3712C28.7619 27.3712 28.8165 27.4133 28.8165 27.4652Z" fill="#F9BB62"/>
<path d="M30.0613 28.442C30.0613 28.7429 29.7445 28.9867 29.3537 28.9867C28.9628 28.9867 28.6459 28.7428 28.6459 28.442C28.6459 28.1413 28.9628 27.8974 29.3537 27.8974C29.7445 27.8973 30.0613 28.1412 30.0613 28.442Z" fill="#F9BB62"/>
<path d="M32.1697 26.2934C32.1697 26.4737 31.9796 26.6199 31.7454 26.6199C31.5113 26.6199 31.3212 26.4737 31.3212 26.2934C31.3212 26.1132 31.5113 25.967 31.7454 25.967C31.9798 25.967 32.1697 26.1132 32.1697 26.2934Z" fill="#F9BB62"/>
<path d="M32.2976 27.8104C32.2976 27.9932 32.105 28.1414 31.8674 28.1414C31.63 28.1414 31.4373 27.9933 31.4373 27.8104C31.4373 27.6275 31.6299 27.4793 31.8674 27.4793C32.105 27.4794 32.2976 27.6276 32.2976 27.8104Z" fill="#F9BB62"/>
<path d="M28.4808 25.5868C28.4808 25.7968 28.2596 25.967 27.9867 25.967C27.7138 25.967 27.4927 25.7967 27.4927 25.5868C27.4927 25.3767 27.7139 25.2065 27.9867 25.2065C28.2596 25.2064 28.4808 25.3767 28.4808 25.5868Z" fill="#F9BB62"/>
<path d="M27.8892 29.8696C27.8892 29.994 27.7581 30.0949 27.5963 30.0949C27.4346 30.0949 27.3034 29.9941 27.3034 29.8696C27.3034 29.7451 27.4345 29.6441 27.5963 29.6441C27.7581 29.6441 27.8892 29.7451 27.8892 29.8696Z" fill="#F9BB62"/>
<path opacity="0.8" d="M35.8064 18.1759H33.5595H33.1453H31.1625H30.8984H28.9155H28.5014H26.5187H26.2544H24.2716H23.8574H21.8746H21.6105H19.6275H19.2134H16.9663C16.7899 18.1759 16.6469 18.2859 16.6469 18.4217C16.6469 18.5574 16.7899 18.6674 16.9663 18.6674H19.2133H19.6274H21.6104H21.8745H23.8573H24.2715H26.2543H26.5185H28.5012H28.9154H30.8982H31.1624H33.1452H33.5593H35.8063C35.9829 18.6674 36.1257 18.5574 36.1257 18.4217C36.1257 18.2859 35.9831 18.1759 35.8064 18.1759Z" fill="white"/>
<path opacity="0.25" d="M37.7848 18.7232C37.7832 18.7162 37.7822 18.7091 37.7805 18.702C37.7745 18.6773 37.7668 18.6533 37.758 18.6294C37.7576 18.6286 37.7573 18.6278 37.7571 18.627C37.623 18.2653 37.1914 18 36.6784 18H26.3623V33.1954H31.5745V32.3749V31.9929C33.6461 30.7666 35.0834 28.5653 36.599 25.2206C36.5994 25.2197 36.5996 25.2187 36.6003 25.2179C36.6269 25.1631 36.6498 25.1068 36.6751 25.0513C36.7039 24.9874 36.7345 24.9239 36.7614 24.8593C36.7691 24.8424 36.7764 24.8263 36.7841 24.8093C36.7868 24.8027 36.7893 24.796 36.7921 24.7896C36.794 24.7852 36.7957 24.781 36.7975 24.7768C36.8947 24.5529 36.9696 24.3301 37.025 24.1088C37.0263 24.1044 37.0272 24.1 37.0285 24.0956C37.0464 24.0332 37.0632 23.9704 37.0792 23.9074C37.1007 23.8245 37.1204 23.741 37.1384 23.6572C37.1501 23.6032 37.1606 23.5491 37.1707 23.4948C37.1892 23.3971 37.2063 23.2991 37.2203 23.2004C37.2253 23.1644 37.2295 23.1284 37.2339 23.0926C37.2486 22.9757 37.2611 22.858 37.2693 22.7397C37.2706 22.7252 37.2709 22.7102 37.2718 22.6954C37.2805 22.5603 37.2856 22.4244 37.2856 22.2875C37.2856 21.3933 37.0999 20.5331 36.7623 19.7252C37.3428 19.692 37.8008 19.3197 37.8008 18.8644C37.8008 18.8362 37.7988 18.8084 37.7952 18.7809C37.793 18.7614 37.7889 18.7424 37.7848 18.7232Z" fill="#724D35"/>
</svg>
