<svg width="52" height="50" viewBox="0 0 52 50" fill="none" xmlns="http://www.w3.org/2000/svg">
<path d="M0 12.4994L25.5987 0L51.1973 12.4994V37.5006L25.5987 50L0 37.5006V12.4994Z" fill="#F1C40F"/>
<path d="M8.28036 16.544L25.5987 8.08675L42.9197 16.544V33.4584L25.5987 41.9156L8.28036 33.4584V16.544Z" fill="#F18F0F"/>
<path d="M8.28036 16.544L25.5987 8.08675L42.9197 16.544V33.4584L41.1292 17.5458L25.5987 9.80149L8.28036 16.544Z" fill="#BA6E0C"/>
<path d="M25.5987 1.16492L50.2415 13.0912V36.7038L48.1039 14.1746L25.5987 1.16492Z" fill="#FFE270"/>
<path d="M26.3121 48.7862L1.6693 36.8599V13.2473L3.80689 35.7742L26.3121 48.7862Z" fill="#D9B00D"/>
<path opacity="0.25" d="M35.3396 24.4524C35.2422 24.3486 35.1418 24.2477 35.0396 24.1485C35.0063 24.1162 34.9717 24.0851 34.938 24.0532C34.8678 23.9871 34.7973 23.9216 34.7251 23.8576C34.6846 23.8216 34.6435 23.7864 34.6024 23.7512C34.5343 23.6928 34.4656 23.635 34.3962 23.5784C34.3533 23.5435 34.3102 23.509 34.2671 23.4747C34.1954 23.4183 34.1231 23.363 34.0502 23.3085C34.0087 23.2774 33.9674 23.246 33.9255 23.2156C33.8426 23.1553 33.7587 23.0965 33.6742 23.0385C33.6419 23.0163 33.61 22.9933 33.5774 22.9713C33.4589 22.8914 33.3392 22.8137 33.2186 22.7384C33.2091 22.7324 33.1994 22.727 33.19 22.7211C33.0789 22.6522 32.967 22.5851 32.8543 22.52C32.819 22.4996 32.7835 22.4801 32.7481 22.46C32.66 22.41 32.5718 22.3608 32.483 22.3132C32.4433 22.2918 32.4034 22.271 32.3637 22.25C32.277 22.2045 32.1904 22.16 32.1036 22.1167C32.0653 22.0976 32.0273 22.0786 31.989 22.0599C31.8953 22.0143 31.8017 21.97 31.7082 21.9268C31.6782 21.9129 31.6481 21.8986 31.6181 21.8851C31.4979 21.8306 31.3779 21.7779 31.2583 21.7274C31.2556 21.7263 31.2528 21.725 31.25 21.7239C30.9918 21.6152 30.7359 21.5161 30.4839 21.4258C30.4703 21.4209 30.457 21.4164 30.4434 21.4116C30.3333 21.3726 30.2239 21.3351 30.1154 21.2995C30.097 21.2933 30.0787 21.2874 30.0603 21.2815C29.954 21.2471 29.8491 21.2142 29.7452 21.1831C29.7303 21.1786 29.7154 21.1741 29.7007 21.1698C29.5858 21.1358 29.4722 21.1036 29.3607 21.0737C29.3596 21.0733 29.3585 21.073 29.3574 21.0727C29.3569 21.0724 29.3563 21.0721 29.3557 21.0718C29.2964 21.0339 29.2356 20.9972 29.1735 20.9617C29.1682 20.9588 29.1627 20.9558 29.1574 20.9528C29.0997 20.9201 29.0411 20.8881 28.9809 20.8575C28.9597 20.8467 28.9376 20.8366 28.9163 20.8259C28.8694 20.803 28.8228 20.7796 28.7746 20.758C28.7013 20.7248 28.6266 20.6928 28.5501 20.6627C28.5965 20.6368 28.6418 20.61 28.686 20.5825C28.7005 20.5735 28.7147 20.564 28.7291 20.5548C28.7296 20.5546 28.7299 20.5543 28.7301 20.5541C28.7304 20.5539 28.7308 20.5537 28.7311 20.5535C28.7597 20.5351 28.788 20.5167 28.8158 20.4978C28.8321 20.4867 28.8479 20.4752 28.8638 20.4639C28.8647 20.4634 28.8655 20.4628 28.8662 20.4622C28.8671 20.4616 28.8678 20.4611 28.8687 20.4604C28.8925 20.4433 28.9163 20.4261 28.9394 20.4086C28.9566 20.3956 28.9733 20.3824 28.99 20.3692C29.0126 20.3513 29.0348 20.3332 29.0567 20.3148L29.0568 20.3147L29.0569 20.3146C29.0732 20.3009 29.0894 20.287 29.1053 20.2731C29.1261 20.2548 29.1463 20.2361 29.1663 20.2175C29.1667 20.217 29.1673 20.2166 29.1679 20.2161C29.1685 20.2155 29.1689 20.2151 29.1695 20.2146C29.184 20.2009 29.1986 20.1873 29.2128 20.1735C29.2336 20.153 29.2538 20.132 29.2738 20.1109C29.2867 20.0974 29.3 20.0841 29.3123 20.0705C29.3373 20.0432 29.3609 20.0153 29.3842 19.9874C29.3923 19.9776 29.4006 19.9681 29.4086 19.9582C29.4355 19.9249 29.4614 19.8909 29.486 19.8564C29.4957 19.8428 29.5047 19.8289 29.514 19.815C29.5143 19.8146 29.5147 19.8141 29.515 19.8135C29.5154 19.813 29.5157 19.8125 29.516 19.812C29.5314 19.7891 29.5469 19.7664 29.5613 19.7434C29.5613 19.7433 29.5615 19.7432 29.5615 19.7431C29.5615 19.743 29.5616 19.7429 29.5616 19.7428C29.5713 19.7271 29.5805 19.7112 29.5898 19.6955C29.59 19.6949 29.5903 19.6944 29.5906 19.6939C29.5909 19.6933 29.5912 19.6929 29.5915 19.6924C29.6042 19.6705 29.6168 19.6487 29.6287 19.6265C29.6379 19.6093 29.6465 19.592 29.6552 19.5746C29.6664 19.552 29.6773 19.5292 29.6876 19.5063C29.6953 19.4893 29.7026 19.4723 29.7097 19.4552C29.7099 19.4547 29.7101 19.4542 29.7103 19.4538C29.7104 19.4534 29.7106 19.4529 29.7109 19.4524C29.7202 19.4294 29.729 19.4062 29.7374 19.383C29.7376 19.3828 29.7376 19.3825 29.7377 19.3823C29.7379 19.3821 29.7379 19.3819 29.738 19.3817C29.7442 19.3646 29.7505 19.3477 29.756 19.3305C29.7645 19.3053 29.7715 19.2799 29.7786 19.2542C29.7789 19.2535 29.7792 19.2527 29.7793 19.252C29.7796 19.2511 29.7798 19.2504 29.7801 19.2495C29.7839 19.235 29.7886 19.2207 29.7922 19.206C29.7922 19.2058 29.7923 19.2055 29.7923 19.2053C29.7923 19.205 29.7925 19.2048 29.7925 19.2046C29.8011 19.17 29.8081 19.1352 29.8144 19.1001C29.8158 19.0928 29.8177 19.0855 29.8188 19.0782C29.8189 19.0781 29.8189 19.0779 29.8189 19.0778C29.8189 19.0773 29.8191 19.0768 29.8192 19.0762C29.8192 19.0762 29.8191 19.0762 29.8191 19.0763C29.8339 18.9863 29.8418 18.8949 29.8418 18.8023C29.8418 18.7387 29.8371 18.676 29.8301 18.6137C29.8288 18.6033 29.8279 18.5929 29.8267 18.5826C29.8187 18.5226 29.8074 18.4631 29.7931 18.4044C29.7906 18.3947 29.7881 18.3851 29.7855 18.3755C29.7695 18.3144 29.7509 18.254 29.7283 18.1946C29.7283 18.1945 29.7283 18.1945 29.7283 18.1944C29.7044 18.132 29.6765 18.0706 29.6457 18.0103C29.644 18.0072 29.6425 18.0039 29.6409 18.0007C29.6102 17.9412 29.5758 17.8828 29.5383 17.8255C29.536 17.822 29.5337 17.8185 29.5314 17.8149C29.4139 17.6371 29.266 17.471 29.0915 17.3195C29.0935 17.3182 29.0954 17.3171 29.0974 17.3159C29.1416 17.2891 29.1863 17.2616 29.2318 17.2336C29.2359 17.2311 29.2402 17.2285 29.2444 17.2259C29.3903 17.1356 29.5429 17.0391 29.6997 16.9382C29.7037 16.9356 29.708 16.9329 29.712 16.9303C29.8705 16.8281 30.0332 16.7214 30.1976 16.612C30.1984 16.6114 30.1991 16.6109 30.1998 16.6105C30.5879 16.3523 30.9856 16.0792 31.3618 15.8142C31.3641 15.8127 31.3661 15.8112 31.3682 15.8097C31.5272 15.6977 31.6822 15.5873 31.831 15.4801C31.8346 15.4774 31.8383 15.4748 31.842 15.4722C31.8883 15.4387 31.9341 15.4055 31.9794 15.3728C31.9821 15.3709 31.9847 15.3689 31.9874 15.367C32.0819 15.2983 32.1732 15.2313 32.2607 15.1666C32.2664 15.1625 32.2719 15.1584 32.2775 15.1542C32.3156 15.1259 32.3531 15.0982 32.3897 15.0708C32.395 15.0668 32.4004 15.0629 32.4057 15.0589C32.488 14.9973 32.5664 14.9381 32.64 14.882C32.6446 14.8785 32.649 14.8751 32.6534 14.8716C32.6845 14.8478 32.7146 14.8248 32.7438 14.8022C32.7507 14.7969 32.7575 14.7917 32.7642 14.7865C32.7948 14.7627 32.8244 14.7396 32.8529 14.7172C32.8552 14.7155 32.8574 14.7137 32.8596 14.7119C32.8906 14.6876 32.9201 14.6642 32.9482 14.6415C32.9531 14.6377 32.9575 14.6341 32.9622 14.6303C32.9847 14.6122 33.0063 14.5948 33.0267 14.578C33.0333 14.5726 33.0396 14.5673 33.046 14.5622C33.0649 14.5466 33.0828 14.5316 33.0998 14.5173C33.1049 14.5129 33.1104 14.5085 33.1152 14.5043C33.1361 14.4864 33.1558 14.4694 33.1738 14.4536C33.1763 14.4515 33.1781 14.4497 33.1805 14.4475C33.1956 14.4342 33.2093 14.4217 33.222 14.41C33.2266 14.4057 33.2309 14.4017 33.235 14.3977C33.245 14.3882 33.2542 14.3793 33.2623 14.371C33.2656 14.3676 33.2692 14.3641 33.2722 14.3608C33.2826 14.3501 33.2918 14.34 33.2986 14.3315C33.6731 13.8705 29.5532 13.2984 29.1787 13.5568C28.8042 13.815 32.175 14.3499 32.2998 14.3499C32.3032 14.3499 32.3019 14.3535 32.298 14.3586C32.297 14.3601 32.2955 14.3619 32.294 14.3637C32.2895 14.3692 32.2827 14.3761 32.2736 14.3847C32.2713 14.3868 32.27 14.3884 32.2674 14.3907C32.2552 14.4021 32.2397 14.416 32.2211 14.432C32.2173 14.4354 32.2125 14.4393 32.2083 14.4429C32.1915 14.4572 32.1729 14.4728 32.1521 14.49C32.1466 14.4945 32.1416 14.4988 32.1361 14.5033C32.1093 14.5253 32.0805 14.5489 32.0481 14.5749C32.0481 14.575 32.048 14.5751 32.0479 14.5752C32.0157 14.601 31.9804 14.6293 31.9433 14.6588C31.9359 14.6647 31.9285 14.6705 31.921 14.6765C31.8856 14.7046 31.8484 14.734 31.8091 14.7648C31.8057 14.7675 31.8025 14.77 31.7991 14.7726C31.7555 14.8069 31.7095 14.8429 31.6616 14.8802C31.6538 14.8862 31.646 14.8923 31.6383 14.8983C31.596 14.9313 31.5522 14.9652 31.507 15.0001C31.4992 15.0063 31.4916 15.0122 31.4836 15.0183C31.4311 15.0589 31.3771 15.1006 31.3213 15.1436C31.3168 15.1471 31.312 15.1507 31.3073 15.1542C31.2576 15.1926 31.2064 15.232 31.1543 15.2719C31.1406 15.2824 31.127 15.2928 31.1132 15.3035C31.0597 15.3445 31.0054 15.386 30.9499 15.4284C30.9459 15.4315 30.9419 15.4345 30.9379 15.4376C30.8803 15.4817 30.8214 15.5265 30.7622 15.5717C30.7423 15.587 30.7223 15.6022 30.7023 15.6175C30.6607 15.6492 30.6187 15.6812 30.5765 15.7132C30.5543 15.73 30.5323 15.7466 30.5102 15.7635C30.4543 15.8059 30.3982 15.8486 30.3417 15.8913C30.3172 15.91 30.2924 15.9286 30.2678 15.9473C30.232 15.9746 30.1961 16.0017 30.1602 16.0289C30.1296 16.052 30.099 16.0752 30.0684 16.0982C30.0391 16.1204 30.0099 16.1425 29.9808 16.1646C29.9182 16.2119 29.856 16.2591 29.7938 16.306C29.775 16.32 29.7565 16.3342 29.7379 16.348C29.696 16.3797 29.6542 16.4112 29.6126 16.4426C29.6019 16.4507 29.5913 16.4587 29.5805 16.4667C29.2923 16.6842 29.0153 16.8925 28.7702 17.0766C28.731 17.0506 28.6907 17.0254 28.6496 17.0005C28.6088 16.976 28.5672 16.9521 28.5246 16.9287C28.524 16.9284 28.5233 16.9281 28.5227 16.9277C28.4808 16.9047 28.4382 16.8826 28.3948 16.861C28.3932 16.8602 28.3917 16.8594 28.3902 16.8587C28.3477 16.8377 28.3045 16.8172 28.2606 16.7975C28.2576 16.7962 28.2548 16.795 28.2518 16.7936C28.209 16.7745 28.1657 16.7559 28.1217 16.7381C28.1175 16.7364 28.1133 16.7349 28.1093 16.7332C28.0662 16.716 28.0229 16.6992 27.9789 16.6832C27.9726 16.6808 27.9662 16.6787 27.9599 16.6764C27.9175 16.6614 27.8749 16.6466 27.8318 16.6327C27.8232 16.6299 27.8146 16.6274 27.8059 16.6246C27.7644 16.6115 27.7227 16.5988 27.6804 16.5868C27.6696 16.5838 27.6586 16.5809 27.6476 16.578C27.6072 16.5669 27.5666 16.5559 27.5253 16.5456C27.5117 16.5424 27.4979 16.5393 27.4844 16.5361C27.4453 16.5269 27.4062 16.5178 27.3666 16.5094C27.3498 16.5059 27.3328 16.503 27.316 16.4996C27.2789 16.4923 27.2419 16.4848 27.2043 16.4784C27.1837 16.4749 27.1631 16.4719 27.1425 16.4685C27.1079 16.463 27.0735 16.4573 27.0383 16.4526C27.014 16.4492 26.9891 16.4465 26.9646 16.4435C26.9327 16.4396 26.9012 16.4354 26.8691 16.4321C26.8408 16.4293 26.8119 16.4271 26.7831 16.4247C26.7544 16.4223 26.7258 16.4193 26.6968 16.4173C26.662 16.415 26.627 16.4136 26.592 16.4119C26.5685 16.4108 26.5454 16.4092 26.5218 16.4083C26.463 16.4062 26.4039 16.4053 26.3442 16.4053C26.2863 16.4053 26.2287 16.4064 26.1715 16.4082C25.2657 16.4384 24.4509 16.705 23.8543 17.1196C22.5264 16.1226 20.1779 14.3498 20.2676 14.3498C20.3924 14.3498 23.7632 13.815 23.3886 13.5567C23.0142 13.2983 18.8942 13.8704 19.2688 14.3314C19.5167 14.6367 22.0078 16.4374 23.5476 17.3629C23.1829 17.6953 22.9422 18.0948 22.8701 18.5294C22.8701 18.5299 22.87 18.5302 22.87 18.5306C22.863 18.5731 22.8574 18.616 22.8538 18.659C22.8535 18.6615 22.8531 18.6639 22.853 18.6663C22.8492 18.7114 22.847 18.7567 22.847 18.8025C22.847 19.4648 23.2394 20.064 23.873 20.4979C23.8731 20.498 23.8731 20.498 23.8733 20.4982C23.9575 20.5558 24.0457 20.6108 24.1382 20.6625C23.9152 20.7505 23.7059 20.8523 23.5095 20.9645C21.5556 21.4161 18.8912 22.5377 17.0957 24.4518C14.2541 27.4812 13.5833 30.7731 15.5975 31.8044C16.7781 32.4088 18.6191 32.1015 20.513 31.1343C20.73 31.5112 21.0293 31.9447 21.3807 32.3993H21.3806C21.382 32.4011 21.3836 32.4029 21.3849 32.4047C21.4915 32.5425 21.6028 32.6821 21.718 32.8227C21.7226 32.8283 21.727 32.8337 21.7317 32.8393C21.8462 32.9786 21.9645 33.1189 22.0858 33.259C22.0906 33.2645 22.0951 33.27 22.1 33.2754C22.2232 33.4176 22.3496 33.5595 22.4781 33.7004C22.4801 33.7026 22.482 33.7047 22.4841 33.7069C23.8566 35.2101 25.4738 36.5783 26.2842 36.5783C26.3051 36.5783 26.3265 36.577 26.3488 36.5746C26.3564 36.5738 26.3643 36.5722 26.372 36.5711C26.3871 36.5691 26.4021 36.5671 26.418 36.5639C26.4277 36.562 26.4383 36.5591 26.4483 36.5569C26.4628 36.5536 26.4768 36.5505 26.4916 36.5464C26.5029 36.5433 26.5148 36.5394 26.5264 36.5357C26.5408 36.5314 26.5548 36.5271 26.5696 36.5221C26.5821 36.5178 26.5951 36.5128 26.608 36.5079C26.6224 36.5025 26.6367 36.4973 26.6516 36.4914C26.6652 36.4859 26.6792 36.4798 26.6931 36.4739C26.7078 36.4676 26.7224 36.4614 26.7374 36.4546C26.752 36.4478 26.7671 36.4406 26.7821 36.4335C26.7969 36.4264 26.8117 36.4193 26.8269 36.4117C26.8426 36.4039 26.8588 36.3954 26.8746 36.3871C26.8895 36.3793 26.9045 36.3715 26.9197 36.3631C26.9364 36.3539 26.9534 36.3443 26.9706 36.3348C26.9854 36.3263 27.0004 36.3178 27.0156 36.3089C27.0333 36.2986 27.0512 36.2879 27.0692 36.277C27.0844 36.268 27.0995 36.2588 27.1148 36.2493C27.1337 36.2377 27.1526 36.2257 27.1717 36.2136C27.1866 36.2041 27.2016 36.1945 27.2165 36.1848C27.2365 36.1719 27.2563 36.1587 27.2766 36.1452C27.2915 36.1353 27.3064 36.1253 27.3214 36.1151C27.3423 36.1009 27.3636 36.0864 27.3847 36.0716C27.3992 36.0616 27.4135 36.0515 27.4279 36.0413C27.4501 36.0257 27.4725 36.0097 27.4949 35.9935C27.509 35.9833 27.523 35.9731 27.5371 35.9627C27.5607 35.9455 27.5843 35.9282 27.608 35.9103C27.6209 35.9007 27.6339 35.8908 27.6468 35.8812C27.6722 35.8619 27.6978 35.8425 27.7235 35.8226C27.7348 35.8138 27.7463 35.8048 27.7577 35.796C27.7852 35.7746 27.8128 35.7532 27.8405 35.7311C27.8499 35.7236 27.8598 35.7157 27.8694 35.708C27.8995 35.684 27.9297 35.6597 27.9603 35.6349C27.966 35.6301 27.9719 35.6253 27.9777 35.6205C28.0119 35.5925 28.0462 35.5643 28.0809 35.5354C28.0822 35.5342 28.0837 35.5332 28.0848 35.5321C28.4787 35.2033 28.8967 34.8172 29.3118 34.4036C29.3123 34.4032 29.3127 34.4028 29.3131 34.4024C29.3533 34.3623 29.3936 34.322 29.4337 34.2814C29.4357 34.2794 29.4375 34.2775 29.4395 34.2755C29.4778 34.2368 29.516 34.1979 29.5543 34.1588C29.5583 34.1546 29.5626 34.1503 29.5668 34.1461C29.6034 34.1086 29.6398 34.0709 29.6763 34.0331C29.6795 34.0296 29.6831 34.0261 29.6864 34.0225C29.6877 34.0212 29.6891 34.0198 29.6903 34.0184C29.7629 33.9429 29.8351 33.8671 29.9069 33.7906C29.9076 33.7898 29.9083 33.7889 29.9091 33.7882C29.9101 33.7871 29.9111 33.7862 29.9121 33.785C29.9134 33.7836 29.9149 33.7824 29.916 33.781C29.9177 33.7791 29.9194 33.7773 29.9212 33.7754C29.9234 33.7731 29.9254 33.7707 29.9276 33.7684C29.9984 33.6929 30.0686 33.6171 30.1382 33.541C30.1383 33.5408 30.1386 33.5406 30.1387 33.5404C30.1387 33.5404 30.1389 33.5403 30.1389 33.5402C30.284 33.3814 30.4261 33.2218 30.5642 33.0627L30.5643 33.0626C30.5645 33.0625 30.5646 33.0624 30.5646 33.0622C30.5685 33.0577 30.5726 33.0532 30.5763 33.0487C30.5773 33.0476 30.5784 33.0465 30.5794 33.0455C30.5805 33.0441 30.5816 33.0428 30.5828 33.0415C30.6464 32.9678 30.7093 32.8943 30.7711 32.8211C30.7718 32.8202 30.7726 32.8193 30.7734 32.8185C30.7741 32.8178 30.7746 32.817 30.7752 32.8162C30.7802 32.8102 30.7852 32.8043 30.7902 32.7983C30.8544 32.7221 30.9176 32.6462 30.9794 32.5708C30.9798 32.5701 30.9804 32.5695 30.9809 32.5689C30.9822 32.5673 30.9834 32.566 30.9845 32.5645C30.9867 32.562 30.9885 32.5594 30.9906 32.557C31.037 32.5002 31.0826 32.4437 31.1276 32.3875C31.1316 32.3824 31.1359 32.3772 31.1399 32.3721C31.2358 32.252 31.3279 32.1335 31.416 32.0173C31.4181 32.0143 31.4202 32.0114 31.4225 32.0085C31.5558 31.8321 31.679 31.6611 31.7905 31.4976C31.7918 31.4957 31.7931 31.4938 31.7942 31.4919C31.8689 31.3822 31.9384 31.2759 32.0015 31.1737C32.0021 31.174 32.0025 31.1742 32.0031 31.1745C32.5844 31.466 33.1598 31.6948 33.7119 31.8537C33.7164 31.8549 33.7208 31.856 33.7252 31.8574C33.8263 31.8861 33.9265 31.9125 34.0259 31.9367C34.0407 31.9403 34.0552 31.9437 34.0699 31.9472C34.16 31.9685 34.249 31.9877 34.3374 32.005C34.3551 32.0085 34.373 32.012 34.3906 32.0154C34.4785 32.0319 34.5656 32.0462 34.6516 32.0586C34.6665 32.0608 34.6816 32.0632 34.6965 32.0653C34.9967 32.1062 35.2851 32.1222 35.5587 32.1114C35.5827 32.1104 35.6062 32.1084 35.6301 32.1071C35.694 32.1034 35.7573 32.0988 35.8193 32.0921C35.8491 32.089 35.8782 32.085 35.9075 32.0811C35.9629 32.0739 36.0173 32.0656 36.0711 32.0557C36.1018 32.0501 36.1323 32.0444 36.1624 32.038C36.2142 32.0271 36.2651 32.0145 36.3151 32.0012C36.3442 31.9935 36.3733 31.9861 36.4016 31.9777C36.4541 31.9619 36.5053 31.9441 36.5557 31.9256C36.5795 31.9169 36.6039 31.9093 36.6272 31.9C36.6998 31.8711 36.7707 31.8397 36.8391 31.8048C38.852 30.7736 38.1811 27.4818 35.3396 24.4524Z" fill="#724D35"/>
<path d="M29.5577 24.5288C30.0512 24.0389 30.341 23.4451 30.341 22.8047C30.341 21.6776 29.4449 20.6946 28.1152 20.1702C28.903 19.7306 29.4063 19.0609 29.4063 18.3104C29.4063 16.9865 27.8406 15.9131 25.9089 15.9131C23.9774 15.9131 22.4115 16.9865 22.4115 18.3104C22.4115 19.0609 22.9149 19.7306 23.7026 20.1703C22.3729 20.6947 21.4769 21.6776 21.4769 22.8047C21.4769 23.4222 21.7463 23.996 22.2078 24.4754C20.6877 25.6459 19.7009 27.5301 19.7009 29.6559C19.7009 30.9756 24.282 36.086 25.8483 36.086C27.204 36.086 31.9957 30.9102 31.9957 29.6559C31.9958 27.5622 31.0388 25.7029 29.5577 24.5288Z" fill="#35241B"/>
<path d="M29.5577 24.5288C30.0512 24.0389 30.341 23.4451 30.341 22.8047C30.341 21.6776 29.4449 20.6946 28.1152 20.1702C28.903 19.7306 29.4063 19.0609 29.4063 18.3104C29.4063 16.9865 27.8406 15.9131 25.9089 15.9131C23.9774 15.9131 22.4115 16.9865 22.4115 18.3104C22.4115 19.0609 22.9149 19.7306 23.7026 20.1703C22.3729 20.6947 21.4769 21.6776 21.4769 22.8047C21.4769 23.4222 21.7463 23.996 22.2078 24.4754C20.6877 25.6459 19.7009 27.5301 19.7009 29.6559C19.7009 30.9756 24.282 36.086 25.8483 36.086C27.204 36.086 31.9957 30.9102 31.9957 29.6559C31.9958 27.5622 31.0388 25.7029 29.5577 24.5288Z" fill="#35241B"/>
<path d="M27.3949 17.2886C27.3949 17.2886 31.9891 13.8576 31.8643 13.8576C31.7395 13.8576 28.3687 13.3228 28.7433 13.0645C29.1177 12.8061 33.2377 13.3782 32.8632 13.8392C32.4886 14.3003 26.9954 18.1741 27.3949 17.2886Z" fill="#F1C40F"/>
<path d="M24.3019 17.2886C24.3019 17.2886 19.7077 13.8576 19.8325 13.8576C19.9573 13.8576 23.328 13.3228 22.9535 13.0645C22.579 12.8061 18.459 13.3782 18.8336 13.8392C19.2081 14.3003 24.7013 18.1741 24.3019 17.2886Z" fill="#F1C40F"/>
<path d="M20.1999 27.1199C21.574 26.6698 25.6962 25.6148 31.3654 26.8207C30.9396 25.9168 30.3187 25.132 29.5579 24.5288C30.0514 24.0389 30.3412 23.4451 30.3412 22.8047C30.3412 21.6776 29.4451 20.6946 28.1154 20.1702C28.1909 20.1282 28.2628 20.0832 28.333 20.0369C27.6119 19.7288 26.7608 19.5502 25.8484 19.5502C24.9671 19.5502 24.1428 19.7167 23.4377 20.0058C23.5222 20.0635 23.6104 20.1187 23.7027 20.1703C22.373 20.6947 21.4771 21.6776 21.4771 22.8047C21.4771 23.4222 21.7464 23.996 22.2079 24.4754C21.3321 25.1499 20.6349 26.0621 20.1999 27.1199Z" fill="#F1C40F"/>
<path d="M29.2505 33.5302C29.8614 32.8952 30.4478 32.2198 30.9207 31.6023C28.1829 31.213 24.5063 31.0279 20.9451 31.9071C21.3847 32.476 21.9056 33.0771 22.4479 33.6412C24.0225 33.3427 26.3389 33.1362 29.2505 33.5302Z" fill="#F1C40F"/>
<path d="M31.7225 30.4139C31.8963 30.0983 31.9958 29.8363 31.9958 29.6559C31.9958 29.1882 31.9456 28.7335 31.855 28.2943C28.7893 27.6586 24.1223 27.1462 19.8004 28.5004C19.7354 28.8754 19.7012 29.2614 19.7012 29.6558C19.7012 29.8808 19.8346 30.2163 20.0633 30.6177C21.2942 30.1813 25.588 28.9544 31.7225 30.4139Z" fill="#F1C40F"/>
<g opacity="0.25">
<path d="M28.1153 20.1701C28.8056 19.7848 29.2777 19.2225 29.3838 18.5841C25.4419 20.4629 23.2901 18.9544 22.4348 18.037C22.4199 18.1268 22.4116 18.2178 22.4116 18.3102C22.4116 19.0607 22.915 19.7304 23.7027 20.1701C26.4876 19.5227 28.1153 20.1701 28.1153 20.1701Z" fill="#724D35"/>
<path d="M30.9047 26.003C30.2986 29.0426 28.4305 33.5796 25.3622 33.2438C22.857 32.9696 21.5764 28.409 21.0299 25.6677C20.1992 26.7638 19.7009 28.1483 19.7009 29.656C19.7009 30.9757 24.282 36.0861 25.8483 36.0861C27.204 36.0861 31.9957 30.9103 31.9957 29.656C31.9958 28.2982 31.5915 27.0405 30.9047 26.003Z" fill="#724D35"/>
<path d="M21.5257 22.3589C21.4944 22.5046 21.4771 22.6532 21.4771 22.8047C21.4771 23.4222 21.7464 23.996 22.2079 24.4754C22.1846 24.4932 22.1629 24.5128 22.1399 24.531C25.2856 24.1829 29.5577 24.5288 29.5577 24.5288C30.0351 24.0551 30.3191 23.4835 30.3376 22.8675C25.3019 24.7783 22.4688 23.1139 21.5257 22.3589Z" fill="#724D35"/>
</g>
<path opacity="0.5" d="M25.4527 20.3414C26.5448 20.8791 26.7963 24.6646 23.9543 27.6941C21.1127 30.7234 17.1761 32.3432 15.1619 31.3121C13.1477 30.2807 13.8186 26.9889 16.6603 23.9595C19.5019 20.9301 24.5228 19.8837 25.4527 20.3414Z" fill="#79C6C6"/>
<path opacity="0.5" d="M26.1124 20.3414C25.0203 20.8791 24.7688 24.6646 27.6107 27.6941C30.4524 30.7234 34.389 32.3432 36.4032 31.3121C38.4174 30.2807 37.7466 26.9889 34.905 23.9595C32.0632 20.9301 27.0423 19.8837 26.1124 20.3414Z" fill="#79C6C6"/>
<path opacity="0.25" d="M28.9228 20.5801C28.6772 20.4239 28.4076 20.2853 28.1154 20.1701C28.1617 20.1442 28.207 20.1174 28.2512 20.0899C28.2662 20.0806 28.2807 20.0709 28.2954 20.0615C28.3243 20.0429 28.353 20.0244 28.381 20.0052C28.3982 19.9936 28.4146 19.9815 28.4313 19.9696C28.4561 19.952 28.4807 19.9342 28.5045 19.916C28.5217 19.903 28.5384 19.8898 28.5551 19.8766C28.5777 19.8586 28.5999 19.8405 28.6219 19.8221C28.6382 19.8084 28.6545 19.7945 28.6704 19.7805C28.6917 19.7617 28.7124 19.7427 28.733 19.7235C28.7481 19.7093 28.7632 19.6952 28.7779 19.681C28.7988 19.6605 28.8189 19.6394 28.8389 19.6184C28.8518 19.6049 28.8651 19.5916 28.8775 19.578C28.9025 19.5507 28.9261 19.5229 28.9494 19.4949C28.9576 19.4851 28.9659 19.4756 28.9739 19.4657C29.0009 19.4324 29.0266 19.3984 29.0512 19.3639C29.0614 19.3498 29.0705 19.3354 29.0802 19.3212C29.0961 19.2978 29.112 19.2745 29.1267 19.2507C29.1367 19.2345 29.1463 19.218 29.1559 19.2015C29.1689 19.1792 29.1817 19.1568 29.1939 19.1341C29.203 19.1169 29.2118 19.0996 29.2203 19.0822C29.2315 19.0596 29.2424 19.0368 29.2527 19.014C29.2605 18.9966 29.2681 18.9791 29.2754 18.9615C29.285 18.9378 29.2941 18.914 29.3027 18.89C29.309 18.8728 29.3153 18.8556 29.321 18.8382C29.3296 18.8123 29.337 18.786 29.3443 18.7598C29.3486 18.7443 29.3534 18.7287 29.3573 18.7132C29.3659 18.6784 29.373 18.6433 29.3793 18.608C29.3807 18.6006 29.3826 18.5931 29.3839 18.5857C29.3839 18.5852 29.384 18.5847 29.3842 18.5842L29.384 18.5843C29.3989 18.4943 29.4068 18.4028 29.4068 18.3102C29.4068 17.7502 29.1258 17.2354 28.6564 16.8274C30.2006 15.8901 32.6194 14.1397 32.8636 13.8391C33.238 13.3781 29.1181 12.8061 28.7437 13.0644C28.3692 13.3226 31.7399 13.8575 31.8647 13.8575C31.9532 13.8575 29.6721 15.5803 28.3353 16.5842C27.7065 16.1687 26.8518 15.9129 25.9093 15.9129C25.8514 15.9129 25.7938 15.9141 25.7366 15.9158V36.0771C25.7754 36.0823 25.8131 36.0859 25.8487 36.0859C26.4969 36.0859 27.9308 34.9023 29.2508 33.5301C29.2521 33.5288 29.2534 33.5274 29.2547 33.526C29.328 33.4497 29.4009 33.373 29.4734 33.2957C29.4772 33.2913 29.4814 33.2871 29.4854 33.2829C29.5584 33.2048 29.6309 33.1265 29.7028 33.0478L29.703 33.0476C29.8481 32.8888 29.9902 32.7291 30.1284 32.57C30.1333 32.5643 30.1383 32.5586 30.1433 32.5529C30.2089 32.4769 30.2737 32.4012 30.3373 32.3259C30.343 32.3192 30.3486 32.3125 30.3542 32.3058C30.4189 32.2289 30.4826 32.1525 30.5449 32.0763C30.5462 32.0747 30.5473 32.0734 30.5485 32.0719C30.9573 31.5721 31.3104 31.0929 31.5655 30.6811C33.4319 31.617 35.2388 31.9083 36.4032 31.3122C38.4174 30.2808 37.7466 26.989 34.9049 23.9596C33.2384 22.1831 30.8235 21.0894 28.9228 20.5801Z" fill="#724D35"/>
</svg>
