<svg width="52" height="50" viewBox="0 0 52 50" fill="none" xmlns="http://www.w3.org/2000/svg">
<path d="M0 12.4994L25.5987 0L51.1973 12.4994V37.5006L25.5987 50L0 37.5006V12.4994Z" fill="#F1C40F"/>
<path d="M8.28036 16.544L25.5987 8.08675L42.9197 16.544V33.4584L25.5987 41.9156L8.28036 33.4584V16.544Z" fill="#F18F0F"/>
<path d="M8.28036 16.544L25.5987 8.08675L42.9197 16.544V33.4584L41.1292 17.5458L25.5987 9.80149L8.28036 16.544Z" fill="#BA6E0C"/>
<path d="M25.5987 1.16492L50.2415 13.0912V36.7038L48.1039 14.1746L25.5987 1.16492Z" fill="#FFE270"/>
<path d="M26.3121 48.7862L1.6693 36.8599V13.2473L3.80689 35.7742L26.3121 48.7862Z" fill="#D9B00D"/>
<path opacity="0.25" d="M36.9998 22.9644C36.9999 22.9607 36.9999 22.9572 36.9999 22.9536C36.9999 22.9535 36.9999 22.9534 36.9999 22.9533C36.9999 22.9533 36.9999 22.9532 36.9999 22.9531C37.0005 22.913 36.9984 22.8735 36.9925 22.8345C36.9925 22.834 36.9925 22.8336 36.9923 22.833C36.9861 22.7917 36.9759 22.7509 36.9614 22.7107C36.9549 22.6922 36.9473 22.674 36.9392 22.6557C36.933 22.6426 36.9263 22.6293 36.9193 22.6164C36.9132 22.6049 36.9067 22.5935 36.8998 22.5822C36.8892 22.5644 36.8777 22.5468 36.8651 22.5294C36.8557 22.5159 36.8458 22.5027 36.8351 22.4892C36.8264 22.4785 36.8175 22.4676 36.8079 22.4568C36.7906 22.4369 36.7722 22.4173 36.7522 22.3978C36.7431 22.3888 36.7334 22.3803 36.7238 22.3715C36.7065 22.3555 36.6883 22.3397 36.6691 22.324C36.6602 22.3169 36.652 22.3095 36.6427 22.3023C36.6159 22.2813 36.5869 22.2605 36.5566 22.2399C36.5464 22.2328 36.5359 22.2259 36.5253 22.2188C36.4925 22.1975 36.4585 22.1762 36.422 22.1551C36.4151 22.1511 36.4074 22.147 36.4004 22.143C36.366 22.1236 36.3298 22.1044 36.2917 22.0851C36.2826 22.0804 36.2735 22.0758 36.264 22.0711C36.2205 22.0497 36.1747 22.0283 36.1268 22.0072C36.1165 22.0026 36.1058 21.998 36.0952 21.9934C36.0442 21.9714 35.9916 21.9497 35.9357 21.9281C35.8778 21.9058 35.8175 21.8839 35.7555 21.8626C35.7324 21.8546 35.7083 21.847 35.6847 21.839C35.6456 21.8259 35.6064 21.813 35.5661 21.8005C35.5352 21.7907 35.5034 21.7813 35.472 21.772C35.4382 21.762 35.4042 21.7521 35.3695 21.7423C35.3322 21.7317 35.2947 21.7213 35.2563 21.7111C35.2281 21.7035 35.1994 21.6962 35.1705 21.6888C35.1257 21.6772 35.0808 21.6657 35.0346 21.6546C35.0197 21.651 35.0045 21.6476 34.9894 21.644C34.798 21.5989 34.5977 21.5573 34.3901 21.52C34.3932 21.5192 34.3958 21.5186 34.3987 21.518C34.4995 21.495 34.5977 21.471 34.6941 21.4462C34.7195 21.4398 34.745 21.4333 34.7702 21.4266C34.8095 21.4162 34.8486 21.4055 34.8873 21.3947C34.9202 21.3854 34.9526 21.376 34.9849 21.3667C35.0165 21.3573 35.0487 21.3483 35.0798 21.3388C35.1396 21.3206 35.1979 21.302 35.2552 21.283C35.2776 21.2756 35.2993 21.2679 35.3215 21.2604C35.3643 21.2457 35.4067 21.2308 35.4479 21.2157C35.4671 21.2087 35.4862 21.2017 35.5052 21.1946C35.5634 21.1726 35.6206 21.1504 35.6749 21.1277C35.7339 21.1032 35.7897 21.0784 35.8429 21.0535C35.843 21.0533 35.8432 21.0533 35.8432 21.0532C35.8433 21.0531 35.8435 21.0531 35.8436 21.0531C35.8617 21.0448 35.878 21.0362 35.8953 21.0275C35.9288 21.0114 35.9622 20.995 35.9934 20.9786C35.9935 20.9785 35.9938 20.9783 35.9938 20.9783C35.9942 20.9782 35.9944 20.9781 35.9947 20.978C36.0145 20.9675 36.0324 20.9569 36.0511 20.9464C36.0774 20.9316 36.1038 20.917 36.1284 20.9021C36.1469 20.8911 36.1643 20.8796 36.1816 20.8685C36.1823 20.8681 36.183 20.8676 36.1836 20.8672C36.1842 20.8668 36.1849 20.8664 36.1857 20.8659C36.2064 20.8526 36.227 20.8391 36.2464 20.8257C36.2464 20.8257 36.2466 20.8257 36.2466 20.8256C36.2467 20.8255 36.2467 20.8255 36.2469 20.8254C36.2648 20.8128 36.2814 20.8003 36.2981 20.7877C36.3158 20.7747 36.333 20.7614 36.3491 20.748C36.3654 20.7348 36.3809 20.7213 36.3959 20.708C36.3959 20.7079 36.3959 20.7078 36.396 20.7078C36.3962 20.7077 36.3962 20.7077 36.3962 20.7077C36.4103 20.6951 36.4239 20.6825 36.4368 20.67C36.4514 20.6557 36.4654 20.6416 36.4786 20.6272C36.4786 20.6271 36.4786 20.6271 36.4788 20.627C36.4789 20.6269 36.4789 20.6269 36.4789 20.6269C36.4899 20.615 36.5001 20.6033 36.51 20.5913C36.5229 20.576 36.5353 20.5608 36.5468 20.5453C36.5548 20.5347 36.562 20.5238 36.5693 20.5129C36.5693 20.5128 36.5694 20.5127 36.5694 20.5126C36.5694 20.5125 36.5695 20.5124 36.5697 20.5123C36.5806 20.4958 36.5915 20.4794 36.6009 20.4628C36.6061 20.4535 36.6106 20.444 36.6154 20.4346C36.6248 20.4162 36.6342 20.3977 36.642 20.379C36.6446 20.3726 36.6465 20.3662 36.6488 20.3595C36.6921 20.2435 36.7007 20.1239 36.6804 20.0003C36.6801 19.9987 36.6798 19.9972 36.6795 19.9954C36.6727 19.9552 36.6631 19.9146 36.6504 19.8733C36.6504 19.8731 36.6504 19.8729 36.6503 19.8728C36.6503 19.8726 36.6503 19.8724 36.6501 19.8722C36.6501 19.8721 36.6501 19.8721 36.6501 19.872C36.5103 19.42 36.0343 18.9146 35.5176 18.3342C35.5122 18.328 35.5069 18.322 35.5015 18.316C35.472 18.2826 35.4422 18.2492 35.4124 18.2154C35.392 18.1922 35.3716 18.169 35.3513 18.1457C35.3341 18.126 35.3169 18.1064 35.2998 18.0866C35.2614 18.0426 35.2234 17.9982 35.1852 17.9533C34.0161 16.5747 33.4074 15.3159 31.4408 16.1355C31.3814 16.1603 31.3214 16.1867 31.2611 16.2147C31.2313 16.2284 31.2012 16.2434 31.1713 16.2579C31.1412 16.2727 31.1112 16.2867 31.0807 16.302C31.0402 16.3224 30.9996 16.3444 30.9588 16.366C30.9392 16.3766 30.9197 16.3863 30.9003 16.3972C30.8523 16.4232 30.8041 16.4507 30.756 16.4785C30.744 16.4854 30.7322 16.492 30.7203 16.4988C30.6667 16.5302 30.6128 16.5629 30.559 16.5961C30.553 16.5998 30.5472 16.6034 30.5412 16.6071C30.4834 16.6432 30.4257 16.6803 30.3682 16.7183C30.3664 16.7194 30.3645 16.7206 30.3626 16.7218C30.2424 16.8012 30.123 16.8849 30.0048 16.9722C30.0069 16.9674 30.0085 16.9626 30.0105 16.9579C30.0342 16.9013 30.0568 16.8448 30.078 16.7888C30.0781 16.7883 30.0782 16.7879 30.0784 16.7875C30.147 16.6053 30.2025 16.4263 30.2432 16.2537C30.2433 16.2533 30.2433 16.253 30.2435 16.2526C30.2569 16.1955 30.2688 16.139 30.2791 16.0835C30.2806 16.0751 30.2816 16.0669 30.2829 16.0587C30.2914 16.0113 30.2991 15.9643 30.3051 15.9182C30.3077 15.8973 30.309 15.8772 30.3112 15.8565C30.3145 15.824 30.3186 15.7907 30.321 15.7587C30.3245 15.7064 30.3262 15.6552 30.3262 15.6053C30.3262 15.5634 30.3246 15.523 30.3217 15.4837C30.3194 15.4471 30.3156 15.4118 30.3109 15.3771C30.3109 15.3767 30.3109 15.3764 30.3108 15.3762C30.3055 15.3361 30.299 15.2976 30.2908 15.2603C30.2907 15.2596 30.2904 15.2589 30.2904 15.2583C30.1107 14.4317 29.2471 14.2762 28.0484 14.2614C28.0471 14.2614 28.0459 14.2614 28.0448 14.2613C27.9925 14.2606 27.9396 14.2604 27.8861 14.2602C27.8823 14.2602 27.8785 14.2602 27.8748 14.2602C27.8225 14.26 27.7694 14.2601 27.716 14.2604C27.7114 14.2604 27.7069 14.2605 27.7026 14.2605C27.6487 14.2607 27.5943 14.2611 27.5395 14.2618C27.5371 14.2619 27.5346 14.2619 27.5321 14.2619C27.3337 14.264 27.1284 14.2677 26.9175 14.2709C26.7763 14.2732 26.6325 14.2752 26.4868 14.2766C26.3867 14.2775 26.2858 14.2783 26.1838 14.2783C24.0123 14.2783 22.2324 14.0303 22.0567 15.3764C22.0567 15.3763 22.0567 15.3763 22.0567 15.3763C22.0565 15.3765 22.0565 15.3769 22.0565 15.3772C22.052 15.4119 22.0481 15.4472 22.0457 15.4838C22.0428 15.5232 22.0412 15.5635 22.0412 15.6054C22.0412 16.2153 22.3099 17.009 22.768 17.7587C21.9394 17.0913 20.9266 16.5311 20.0662 16.2613C17.9781 15.6058 17.5803 16.9055 16.6456 18.3694C16.1818 19.0956 15.6732 19.726 15.5333 20.2569C15.5333 20.257 15.5333 20.257 15.5333 20.2571C15.5247 20.2897 15.5176 20.322 15.5119 20.354C15.5117 20.3549 15.5115 20.356 15.5113 20.3569C15.5058 20.3885 15.5017 20.4196 15.4992 20.4504C15.4991 20.4517 15.4989 20.4532 15.4988 20.4544C15.4964 20.4847 15.4957 20.5145 15.4966 20.5443C15.4967 20.546 15.4966 20.5478 15.4966 20.5497C15.4975 20.5786 15.5002 20.6072 15.5045 20.6353C15.5048 20.6376 15.5048 20.6401 15.5052 20.6422C15.5094 20.6699 15.5157 20.6967 15.5231 20.7237C15.5238 20.7267 15.5243 20.7297 15.5251 20.7326C15.5329 20.7588 15.5426 20.7847 15.5534 20.8101C15.5549 20.8136 15.5557 20.8169 15.5573 20.8204C15.5683 20.8452 15.5817 20.8697 15.5959 20.894C15.5981 20.8979 15.5999 20.9018 15.6022 20.9057C15.6166 20.9294 15.6335 20.9525 15.6512 20.9756C15.6544 20.9799 15.657 20.9843 15.6603 20.9885C15.6781 21.0108 15.6984 21.0326 15.7193 21.0543C15.7239 21.0592 15.7278 21.0643 15.7326 21.069C15.7539 21.0901 15.7776 21.1106 15.8019 21.1313C15.8081 21.1365 15.8132 21.1417 15.8194 21.1468C15.8439 21.1666 15.871 21.1862 15.8987 21.2054C15.9066 21.211 15.9134 21.2168 15.9214 21.2223C15.9495 21.2413 15.9807 21.2598 16.0122 21.2783C16.0214 21.2839 16.0298 21.2897 16.0393 21.2952C16.0704 21.3128 16.1045 21.3301 16.1388 21.3474C16.1507 21.3534 16.1614 21.3596 16.1737 21.3657C16.209 21.3828 16.2473 21.3994 16.2858 21.4161C16.2992 21.4218 16.3113 21.4278 16.3251 21.4337C16.3674 21.4513 16.413 21.4685 16.459 21.4855C16.4711 21.49 16.4817 21.4946 16.494 21.499C16.5534 21.5206 16.6156 21.5415 16.6813 21.562C16.997 21.6612 17.3687 21.7447 17.7742 21.8106C17.3363 21.9407 16.9431 22.088 16.6251 22.2449C14.8741 23.1091 15.9803 23.9564 17.2093 25.1366C17.2144 25.1415 17.2195 25.1465 17.2244 25.1515C17.2563 25.1821 17.2882 25.213 17.3201 25.2439C17.3298 25.2532 17.3394 25.2626 17.349 25.2719C17.3867 25.3087 17.4244 25.3458 17.4619 25.3832C18.7789 26.6946 19.5242 27.9168 21.395 26.9934C21.4493 26.9667 21.5039 26.9382 21.5586 26.9084C21.5763 26.8988 21.5941 26.8885 21.6119 26.8786C21.6495 26.8576 21.6871 26.8364 21.7248 26.8142C21.7453 26.802 21.7659 26.7897 21.7866 26.7771C21.8221 26.7557 21.8577 26.7336 21.8932 26.711C21.9143 26.6977 21.9353 26.6843 21.9564 26.6705C21.993 26.6466 22.0294 26.6221 22.066 26.5974C22.0854 26.5841 22.1047 26.5712 22.124 26.5578C22.1687 26.5267 22.2131 26.4947 22.2577 26.4621C22.1276 26.843 22.053 27.2105 22.0431 27.5354C22.043 27.5382 22.0427 27.5411 22.0427 27.5438C22.0411 27.6025 22.0411 27.6603 22.0437 27.7161C22.1101 29.104 23.4992 29.0502 25.355 28.9757V35.4804H26.4293H27.4868V31.7706L27.4869 31.7707C27.5235 31.7888 27.5612 31.8072 27.6003 31.8255C27.6045 31.8275 27.609 31.8293 27.6132 31.8315C27.6478 31.8476 27.6833 31.8638 27.7199 31.88C27.7256 31.8826 27.7313 31.8852 27.7371 31.8878C27.7785 31.906 27.8208 31.924 27.8644 31.9422C27.8647 31.9423 27.8648 31.9425 27.8651 31.9426C27.9067 31.9595 27.9495 31.9767 27.9931 31.9935C28.0018 31.9969 28.0107 32.0002 28.0196 32.0038C28.0633 32.0204 28.1076 32.0371 28.1533 32.0533C28.1545 32.0537 28.1558 32.054 28.1569 32.0545C28.2044 32.0716 28.2532 32.0882 28.3029 32.1045C28.3125 32.1076 28.3222 32.1106 28.3318 32.1138C28.3739 32.1274 28.4166 32.1409 28.4601 32.154C28.4696 32.157 28.4791 32.1598 28.4887 32.1627C28.5404 32.178 28.5933 32.1931 28.6472 32.2076C28.6537 32.2093 28.6606 32.211 28.6673 32.2128C28.7145 32.2255 28.7627 32.2377 28.8115 32.2495C28.8246 32.2526 28.8377 32.2559 28.8508 32.2591C28.9062 32.2723 28.9623 32.285 29.0195 32.2971C29.02 32.2972 29.0206 32.2973 29.0212 32.2973C29.0791 32.3094 29.1384 32.321 29.1986 32.3319C29.213 32.3345 29.2277 32.3372 29.2423 32.3397C29.2921 32.3484 29.3425 32.3568 29.3937 32.3647C29.4061 32.3666 29.4181 32.3687 29.4305 32.3705C29.4924 32.3798 29.5554 32.3884 29.6193 32.3959C29.6317 32.3976 29.6444 32.3987 29.6568 32.4002C29.71 32.4063 29.7636 32.412 29.8182 32.4171C29.8352 32.4187 29.8523 32.4202 29.8695 32.4218C29.9362 32.4276 30.0037 32.4328 30.0724 32.4367C30.0734 32.4368 30.0743 32.4368 30.0753 32.4369C30.1423 32.4408 30.2105 32.4434 30.2794 32.4456C30.2982 32.4462 30.3172 32.4467 30.3361 32.4471C30.3948 32.4486 30.4541 32.4492 30.5143 32.4492C30.5278 32.4492 30.5412 32.4495 30.5549 32.4494C30.6269 32.4491 30.6999 32.4476 30.7736 32.4452C30.7911 32.4445 30.8087 32.4436 30.8262 32.443C30.8859 32.4406 30.9464 32.4374 31.0073 32.4336C31.0272 32.4324 31.0471 32.4312 31.0672 32.4298C31.1438 32.4245 31.221 32.4183 31.2994 32.4106C31.308 32.4097 31.3167 32.4086 31.3252 32.4078C31.3955 32.4005 31.4669 32.3924 31.5387 32.3832C31.561 32.3803 31.5836 32.3772 31.6059 32.3743C31.6752 32.3648 31.7452 32.3547 31.8158 32.3432C31.8287 32.3411 31.841 32.3396 31.8539 32.3373C31.936 32.3237 32.0189 32.3087 32.1027 32.2925C32.1243 32.2883 32.146 32.2838 32.1677 32.2794C32.235 32.2657 32.3029 32.2513 32.3713 32.236C32.3929 32.231 32.4145 32.2263 32.4363 32.2213C32.5226 32.2014 32.6094 32.18 32.6974 32.1571C32.7122 32.1532 32.7274 32.1488 32.7422 32.1448C32.8173 32.1248 32.8927 32.1036 32.9689 32.0814C32.994 32.074 33.0192 32.0666 33.0444 32.059C33.1271 32.0341 33.2106 32.0083 33.2947 31.9806C33.3034 31.9777 33.3119 31.9751 33.3206 31.9723C33.4125 31.9418 33.5056 31.9092 33.5993 31.8755C33.6244 31.8664 33.6496 31.857 33.6748 31.8476C33.7502 31.8197 33.8263 31.7907 33.9029 31.7605C33.9254 31.7517 33.9478 31.7431 33.9702 31.7341C34.0657 31.6958 34.162 31.6557 34.2591 31.6139C34.2792 31.6052 34.2996 31.5959 34.3199 31.5869C34.3999 31.5518 34.4804 31.5155 34.5616 31.478C34.5891 31.4653 34.6166 31.4524 34.6443 31.4393C34.7445 31.3919 34.8452 31.3435 34.9472 31.2923C34.9472 31.2923 34.9462 31.2915 34.9443 31.2902C34.9433 31.2896 34.9414 31.2883 34.9395 31.2872C34.9383 31.2863 34.9374 31.2858 34.936 31.2848C34.9339 31.2835 34.9315 31.2821 34.9291 31.2804C34.9265 31.2786 34.9242 31.2772 34.921 31.2751C34.9182 31.2733 34.9149 31.2711 34.9118 31.2692C34.9086 31.267 34.9055 31.2651 34.9017 31.2627C34.8972 31.2599 34.892 31.2565 34.8866 31.2533C34.8834 31.2513 34.8803 31.2495 34.877 31.2471C34.871 31.2434 34.8646 31.2395 34.8579 31.2354C34.8541 31.233 34.8505 31.2308 34.8464 31.2283C34.8391 31.2238 34.8312 31.2192 34.8232 31.2144C34.8193 31.212 34.8155 31.2096 34.8114 31.2072C34.8024 31.2018 34.7932 31.1963 34.7833 31.1904C34.7794 31.1881 34.7754 31.1858 34.7714 31.1834C34.7609 31.1773 34.7501 31.1709 34.7386 31.1643C34.7346 31.162 34.7304 31.1595 34.7263 31.1572C34.7142 31.1502 34.7019 31.143 34.6889 31.1356C34.6851 31.1336 34.6812 31.1312 34.6772 31.1292C34.6633 31.1212 34.649 31.1131 34.634 31.1047C34.6311 31.1031 34.6281 31.1015 34.6254 31.1C34.6088 31.0907 34.592 31.0814 34.5742 31.0718C34.5735 31.0713 34.5725 31.0708 34.5718 31.0702C34.392 30.9721 34.1525 30.8504 33.8642 30.7245C33.8633 30.7241 33.8626 30.7237 33.8617 30.7233C33.8304 30.7096 33.7983 30.6961 33.7658 30.6825C33.7647 30.6819 33.7635 30.6815 33.7625 30.681C33.7301 30.6673 33.6974 30.6535 33.664 30.64C33.6625 30.6394 33.6609 30.6387 33.6596 30.6382C33.626 30.6244 33.5914 30.6107 33.5566 30.597C33.5563 30.5968 33.5559 30.5966 33.5555 30.5965C32.5543 30.2016 31.1094 29.8324 29.5446 30.0811C29.5423 30.0815 29.5401 30.0817 29.5379 30.0821C29.4846 30.0907 29.4313 30.1 29.3778 30.1099C29.3743 30.1105 29.3708 30.1112 29.3673 30.1118C29.3144 30.1218 29.2615 30.1324 29.2085 30.1439C29.2046 30.1448 29.2006 30.1456 29.1967 30.1463C29.1435 30.1579 29.0904 30.1702 29.0369 30.1832C29.0338 30.184 29.0306 30.1848 29.0276 30.1855C28.9732 30.199 28.9187 30.2131 28.8642 30.2282C28.8628 30.2285 28.8613 30.229 28.86 30.2293C28.4055 30.3549 27.9451 30.5377 27.4864 30.792V28.9312C27.5448 28.9307 27.6025 28.93 27.6597 28.9292C27.6728 28.929 27.6858 28.9287 27.6991 28.9285C27.7444 28.9278 27.7894 28.927 27.834 28.926C27.8517 28.9256 27.8694 28.9252 27.887 28.9249C27.9276 28.9239 27.968 28.9229 28.0081 28.9218C28.0257 28.9211 28.0432 28.9207 28.0608 28.9201C28.1054 28.9187 28.1494 28.917 28.1931 28.9151C28.2041 28.9147 28.2154 28.9144 28.2264 28.9138C28.2808 28.9114 28.3341 28.9088 28.3868 28.9055C28.3985 28.9049 28.4099 28.9041 28.4214 28.9034C28.4619 28.9009 28.5018 28.8983 28.5413 28.8952C28.5585 28.894 28.5751 28.8926 28.5921 28.8911C28.6261 28.8885 28.6597 28.8853 28.6929 28.8821C28.7104 28.8804 28.7277 28.8788 28.7449 28.8769C28.779 28.8734 28.8127 28.8696 28.8459 28.8654C28.8602 28.8636 28.8749 28.8621 28.8889 28.8602C28.9353 28.854 28.9811 28.8476 29.0257 28.8404C29.0319 28.8394 29.0379 28.8382 29.044 28.8373C29.0822 28.8309 29.1198 28.8242 29.1565 28.817C29.1709 28.8142 29.185 28.811 29.1992 28.8081C29.2274 28.8021 29.2556 28.7959 29.2829 28.7894C29.2981 28.7858 29.313 28.7821 29.3277 28.7785C29.3548 28.7714 29.3813 28.7642 29.4072 28.7566C29.4203 28.7529 29.4336 28.7492 29.4464 28.7453C29.4802 28.7349 29.5133 28.7238 29.5456 28.7121C29.5496 28.7107 29.5538 28.7094 29.5577 28.7081C29.5934 28.6947 29.6276 28.6806 29.661 28.6659C29.6716 28.6612 29.6818 28.656 29.6922 28.6513C29.7149 28.6406 29.7372 28.6296 29.7588 28.6182C29.7704 28.612 29.7816 28.6057 29.7928 28.5992C29.813 28.5879 29.8325 28.576 29.8516 28.5637C29.8619 28.557 29.8724 28.5505 29.8823 28.5437C29.9039 28.529 29.9244 28.5135 29.9444 28.4976C29.9506 28.4927 29.9572 28.488 29.9633 28.483C29.9886 28.4619 30.0127 28.4397 30.0357 28.4167C30.042 28.4102 30.0478 28.4032 30.0539 28.3967C30.0702 28.3794 30.0861 28.3615 30.101 28.3429C30.1083 28.3337 30.1152 28.3241 30.1224 28.3148C30.1352 28.2975 30.1474 28.2794 30.1591 28.2611C30.1655 28.251 30.1721 28.241 30.178 28.2305C30.19 28.2099 30.2012 28.1885 30.2117 28.1668C30.2159 28.1579 30.2206 28.1496 30.2247 28.1405C30.2385 28.1094 30.2513 28.0772 30.2624 28.0438C30.2644 28.0374 30.266 28.0305 30.2681 28.0241C30.2767 27.9964 30.2844 27.9678 30.2911 27.9384C30.2939 27.9259 30.296 27.913 30.2987 27.9003C30.3035 27.8753 30.3077 27.8497 30.3112 27.8234C30.3131 27.8093 30.3147 27.795 30.3163 27.7805C30.3191 27.7527 30.321 27.7242 30.3224 27.695C30.3231 27.6816 30.3239 27.6686 30.3243 27.655C30.3252 27.6118 30.325 27.5678 30.323 27.5218C30.3204 27.4681 30.3153 27.4129 30.3086 27.3566C30.3086 27.3565 30.3086 27.3565 30.3086 27.3565C30.3086 27.3563 30.3086 27.356 30.3084 27.3558C30.3007 27.293 30.2899 27.2282 30.2773 27.1623C30.2745 27.1482 30.2714 27.1342 30.2684 27.1201C30.2566 27.0633 30.243 27.0058 30.2276 26.9473C30.2245 26.9358 30.2217 26.9243 30.2185 26.9125C30.1791 26.7687 30.1288 26.6204 30.0689 26.4691C30.0669 26.4642 30.0648 26.4593 30.0628 26.4544C30.0335 26.3812 30.0018 26.3075 29.9681 26.2335C29.9662 26.2293 29.9643 26.2252 29.9624 26.2212C29.8533 25.9833 29.7216 25.7422 29.5701 25.5047C29.5723 25.5066 29.5748 25.5085 29.5768 25.5107C29.5772 25.511 29.5778 25.5114 29.5783 25.512C29.6153 25.5455 29.6527 25.5786 29.6906 25.6116C29.7081 25.6269 29.7258 25.6422 29.7436 25.6573C29.7442 25.6579 29.7449 25.6586 29.7456 25.6591C29.7462 25.6598 29.7471 25.6604 29.7477 25.6609C29.7838 25.6918 29.8199 25.7224 29.8567 25.7528C29.8568 25.7528 29.8568 25.7528 29.8568 25.7529C29.8569 25.753 29.8569 25.7531 29.8569 25.7531C29.8763 25.7693 29.896 25.7851 29.9155 25.8009C29.9167 25.8021 29.9181 25.8031 29.9193 25.8041C29.9206 25.8052 29.9221 25.8062 29.9232 25.8073C29.9582 25.8355 29.9932 25.8639 30.0286 25.8917C30.0516 25.9097 30.0747 25.9275 30.0979 25.9451L30.0981 25.9452C30.0981 25.9452 30.0981 25.9453 30.0982 25.9453C30.1339 25.9728 30.1694 26.0004 30.2054 26.0272C30.2277 26.0439 30.2504 26.0599 30.2729 26.0764C30.2758 26.0785 30.2789 26.0808 30.2821 26.0832C30.2826 26.0835 30.2832 26.0839 30.284 26.0843C30.34 26.1253 30.3964 26.1655 30.4532 26.2049C30.4534 26.2051 30.4535 26.2052 30.4537 26.2053C30.4559 26.2069 30.4578 26.2082 30.4601 26.2095C30.4933 26.2328 30.5265 26.256 30.56 26.2786C30.5605 26.2788 30.5606 26.2791 30.561 26.2793C30.5613 26.2795 30.5618 26.2797 30.5621 26.28C30.5886 26.2978 30.6151 26.3147 30.6416 26.3322C30.6428 26.3329 30.6436 26.3335 30.6447 26.3341C30.6458 26.3348 30.6467 26.3354 30.6479 26.3362C30.6811 26.358 30.7143 26.3798 30.7475 26.401C30.748 26.4013 30.7483 26.4016 30.7487 26.4019C30.7491 26.402 30.7496 26.4023 30.7499 26.4026C30.7764 26.4195 30.8029 26.4355 30.8294 26.4521C30.8303 26.4525 30.831 26.453 30.832 26.4536C30.8328 26.4541 30.8335 26.4546 30.8344 26.455C30.8687 26.4763 30.9033 26.4976 30.9376 26.5181C30.9652 26.5347 30.9924 26.5504 31.02 26.5664C31.0554 26.5871 31.0906 26.6073 31.1259 26.6271C31.1263 26.6273 31.1265 26.6276 31.1269 26.6277C31.1272 26.6279 31.1276 26.6281 31.1279 26.6284C31.1544 26.6432 31.1809 26.6577 31.2075 26.6722C31.2077 26.6723 31.2079 26.6726 31.208 26.6727C31.2083 26.6728 31.2085 26.673 31.2088 26.6731C31.244 26.6923 31.2791 26.711 31.3142 26.7293C31.315 26.7298 31.3157 26.7303 31.3163 26.7306C31.317 26.7309 31.3177 26.7313 31.3185 26.7317C31.344 26.745 31.3695 26.7583 31.395 26.7712C31.4324 26.7904 31.4698 26.8085 31.5071 26.8266C31.5313 26.8382 31.5554 26.8502 31.5792 26.8614C31.5794 26.8615 31.5797 26.8617 31.58 26.8618C31.5801 26.8619 31.5806 26.862 31.5807 26.862C31.62 26.8805 31.6591 26.8978 31.6981 26.9151C31.6996 26.9158 31.701 26.9166 31.7025 26.917C31.7038 26.9176 31.7051 26.9183 31.7064 26.9188C31.7252 26.9271 31.7442 26.936 31.763 26.9439C31.8234 26.9697 31.8834 26.9944 31.9429 27.0174C33.9474 27.7903 34.4954 26.5176 35.598 25.1125C35.641 25.0578 35.6842 25.0038 35.7275 24.9501C35.7284 24.949 35.7292 24.948 35.7301 24.9469C35.7432 24.9306 35.7565 24.9144 35.7696 24.8982C35.7996 24.8614 35.8293 24.8246 35.8592 24.7884C35.8749 24.7693 35.8907 24.75 35.9062 24.7312C35.9175 24.7176 35.9285 24.7042 35.9396 24.6908C35.9558 24.6711 35.9711 24.6526 35.9874 24.6329C36.1417 24.4467 36.2904 24.268 36.4246 24.0965C36.4247 24.0964 36.4247 24.0963 36.4247 24.0962C36.4255 24.0953 36.4262 24.0943 36.4269 24.0934C36.467 24.0421 36.5057 23.9916 36.5427 23.9416C36.5433 23.9408 36.5439 23.94 36.5445 23.9395C36.6186 23.8395 36.6861 23.742 36.7454 23.647C36.7474 23.6437 36.7496 23.6402 36.7518 23.6366C36.8105 23.5417 36.8608 23.4492 36.9003 23.3589C36.9005 23.3583 36.9008 23.3575 36.9011 23.3568C36.9011 23.3568 36.9011 23.3568 36.9011 23.3567C36.9201 23.3131 36.9364 23.2701 36.9501 23.2276C36.9501 23.2276 36.9502 23.2275 36.9502 23.2274C36.9502 23.2273 36.9502 23.2272 36.9502 23.2272C36.9511 23.2243 36.9523 23.2213 36.9531 23.2184C36.9814 23.1313 36.9971 23.0467 36.9998 22.9644ZM28.2224 23.9939C28.2208 23.9924 28.2192 23.9912 28.2174 23.9898C27.9863 23.8079 27.7422 23.6479 27.4875 23.5172C27.4872 23.517 27.4869 23.5169 27.4866 23.5167V23.348C27.7005 23.2885 27.9016 23.2113 28.0866 23.1192C28.0867 23.1192 28.0867 23.1192 28.0869 23.1191C28.0936 23.2856 28.1287 23.4578 28.189 23.6336C28.1902 23.6369 28.191 23.6401 28.1922 23.6433C28.2063 23.6837 28.2216 23.724 28.2381 23.7647C28.2413 23.7727 28.2446 23.7807 28.2481 23.7888C28.3026 23.9185 28.3688 24.0495 28.4467 24.1808C28.4463 24.1804 28.4457 24.1801 28.4451 24.1797C28.3723 24.1155 28.298 24.0537 28.2224 23.9939ZM27.8195 19.719C27.8195 19.719 27.8194 19.7191 27.8194 19.7192C27.8194 19.7192 27.8194 19.7191 27.8192 19.7191C27.7773 19.7028 27.7346 19.687 27.6915 19.6721C27.6908 19.6719 27.6902 19.6716 27.6894 19.6714C27.7471 19.6394 27.8041 19.6061 27.8606 19.5711C27.8452 19.6207 27.831 19.6701 27.8195 19.719ZM29.2809 21.6887C29.2851 21.6605 29.288 21.632 29.2905 21.6035C29.2905 21.6034 29.2905 21.6033 29.2905 21.6033C29.3344 21.6154 29.379 21.6273 29.4241 21.6387C29.4138 21.6422 29.4037 21.646 29.3934 21.6495C29.3556 21.6624 29.3173 21.6749 29.2809 21.6887ZM23.5673 21.3039C23.567 21.3065 23.5668 21.3091 23.5665 21.3117C23.5654 21.3218 23.5642 21.3317 23.5632 21.3417C23.559 21.3869 23.5559 21.4323 23.5559 21.4784C23.5559 21.5252 23.5591 21.5715 23.5636 21.6175C23.444 21.5685 23.3168 21.5248 23.1819 21.4871C23.3202 21.4313 23.449 21.3701 23.5673 21.3039ZM24.5592 23.4973C24.5623 23.4845 24.5658 23.472 24.5687 23.4594C24.5776 23.4216 24.5852 23.3842 24.592 23.3469C24.5946 23.3327 24.597 23.3189 24.5992 23.305C24.6053 23.2676 24.6105 23.2306 24.6145 23.194C24.6158 23.1818 24.6164 23.17 24.6175 23.1581C24.6209 23.12 24.6238 23.082 24.6247 23.0445C24.7881 23.137 24.9663 23.2172 25.1564 23.2831C24.945 23.3521 24.7406 23.4441 24.5447 23.5553C24.5499 23.5358 24.5543 23.5165 24.5592 23.4973ZM24.8885 19.7796C24.7035 19.8623 24.5326 19.9589 24.3795 20.0682C24.3671 19.8314 24.291 19.5843 24.162 19.3338C24.3917 19.5085 24.6346 19.6594 24.8885 19.7796Z" fill="#724D35"/>
<path d="M26.9912 21.2178H24.8595V35.2199H26.9912V21.2178Z" fill="#A6C943"/>
<path d="M27.5685 20.6613C26.3994 19.2829 28.9789 16.6952 30.9454 15.8756C32.912 15.0562 33.5208 16.3149 34.6899 17.6933C35.859 19.0719 37.146 20.048 35.1794 20.8676C33.213 21.6872 28.7378 22.0398 27.5685 20.6613Z" fill="white"/>
<path d="M25.4739 22.8808C27.7602 22.827 29.7516 25.6586 29.8284 27.2614C29.9052 28.8642 28.0382 28.6315 25.7518 28.6852C23.4653 28.739 21.6248 29.0591 21.5482 27.4562C21.4713 25.8532 23.1873 22.9347 25.4739 22.8808Z" fill="white"/>
<path d="M23.7119 20.4823C22.7771 21.946 18.2736 21.9573 16.1855 21.3021C14.0974 20.6467 15.2153 19.573 16.15 18.1093C17.0849 16.6455 17.4824 15.3458 19.5705 16.0011C21.6589 16.6565 24.6467 19.0187 23.7119 20.4823Z" fill="white"/>
<path opacity="0.25" d="M23.712 19.9823C22.7771 21.4458 18.2737 21.4571 16.1856 20.8018C15.4813 20.5808 15.1426 20.3119 15.0379 19.9968C14.8958 20.5355 15.1339 20.9719 16.1856 21.3021C18.2737 21.9573 22.777 21.946 23.712 20.4824C23.8812 20.2172 23.9204 19.9225 23.861 19.6139C23.834 19.7413 23.7868 19.8649 23.712 19.9823Z" fill="#724D35"/>
<path opacity="0.25" d="M35.1794 20.3836C33.213 21.2031 28.7378 21.5557 27.5685 20.1772C27.4204 20.0027 27.3329 19.8084 27.2964 19.6011C27.2353 19.9922 27.3099 20.3563 27.5685 20.6612C28.7376 22.0397 33.213 21.6871 35.1794 20.8674C36.0846 20.4902 36.2994 20.0796 36.1549 19.612C36.054 19.8871 35.7585 20.1422 35.1794 20.3836Z" fill="#724D35"/>
<path opacity="0.25" d="M29.814 27.096C29.6317 28.347 27.8729 28.1514 25.7518 28.2011C23.5282 28.2534 21.7271 28.557 21.5591 27.0997C21.5472 27.2239 21.5428 27.3436 21.5482 27.4561C21.6248 29.059 23.4653 28.7389 25.7518 28.6851C28.0382 28.6314 29.9052 28.8641 29.8284 27.2613C29.8258 27.2078 29.8207 27.1524 29.814 27.096Z" fill="#724D35"/>
<path d="M25.6883 19.826C23.4005 19.826 21.5459 16.9492 21.5459 15.3456C21.5459 13.7417 23.4005 14.0182 25.6883 14.0182C27.9762 14.0182 29.8307 13.7417 29.8307 15.3456C29.8306 16.9492 27.976 19.826 25.6883 19.826Z" fill="#EFE8E4"/>
<path opacity="0.25" d="M25.6883 19.342C23.5169 19.342 21.7367 16.7512 21.5612 15.1164C21.5519 15.1885 21.5459 15.2639 21.5459 15.3456C21.5459 16.9492 23.4005 19.826 25.6883 19.826C27.9762 19.826 29.8307 16.9492 29.8307 15.3456C29.8307 15.2639 29.8248 15.1885 29.8154 15.1164C29.6397 16.7512 27.8596 19.342 25.6883 19.342Z" fill="#724D35"/>
<path d="M27.8436 22.0528C28.9461 20.6477 33.4357 20.8948 35.4403 21.6677C37.445 22.4406 36.2055 23.4466 35.1031 24.8518C34.0005 26.257 33.4525 27.5295 31.448 26.7565C29.4431 25.9837 26.741 23.4581 27.8436 22.0528Z" fill="#EFE8E4"/>
<path d="M23.7406 21.7796C25.0576 23.0909 22.7699 25.8103 20.8993 26.7334C19.0287 27.6568 18.2834 26.4345 16.9663 25.1233C15.6493 23.8119 14.2587 22.9082 16.1293 21.9848C18.0002 21.0616 22.4235 20.4684 23.7406 21.7796Z" fill="#EFE8E4"/>
<path opacity="0.25" d="M35.1031 24.3677C34.0005 25.7729 33.4525 27.0455 31.448 26.2725C29.8615 25.6609 27.8401 23.9519 27.6115 22.5688C27.3456 24.0074 29.6699 26.0711 31.448 26.7565C33.4525 27.5294 34.0005 26.2569 35.1031 24.8518C35.8672 23.878 36.696 23.096 36.4663 22.4503C36.3059 22.9944 35.6855 23.6255 35.1031 24.3677Z" fill="#724D35"/>
<path opacity="0.25" d="M20.8993 26.2495C19.0287 27.1729 18.2834 25.9505 16.9663 24.6392C16.2227 23.8988 15.4559 23.2884 15.2657 22.7309C15.0002 23.4217 16.0021 24.1631 16.9663 25.1233C18.2834 26.4345 19.0286 27.6568 20.8993 26.7334C22.4684 25.9591 24.3294 23.9218 24.1123 22.511C23.9249 23.8692 22.2962 25.5601 20.8993 26.2495Z" fill="#724D35"/>
<path d="M23.0606 21.2178C23.0606 20.1065 24.3457 19.2057 25.9309 19.2057C27.5161 19.2057 28.8013 20.1065 28.8013 21.2178C28.8013 22.3292 27.5161 23.23 25.9309 23.23C24.3457 23.23 23.0606 22.3292 23.0606 21.2178Z" fill="#EA9B1C"/>
<path opacity="0.25" d="M25.9309 22.6322C24.4905 22.6322 23.2982 21.8884 23.0922 20.9189C23.0715 21.0167 23.0606 21.1163 23.0606 21.218C23.0606 22.3293 24.3457 23.2301 25.9309 23.2301C27.5161 23.2301 28.8013 22.3293 28.8013 21.218C28.8013 21.1163 28.7902 21.0167 28.7696 20.9189C28.5634 21.8884 27.3713 22.6322 25.9309 22.6322Z" fill="#724D35"/>
<path d="M25.5758 19.7554C25.6761 19.9077 25.4366 20.1351 25.041 20.2628C24.6455 20.3904 24.2435 20.3702 24.1433 20.2178C24.0432 20.0653 24.2827 19.8381 24.6783 19.7105C25.0737 19.5827 25.4756 19.6029 25.5758 19.7554Z" fill="white"/>
<path d="M26.2173 31.0317C26.2173 31.0317 29.2821 33.6358 34.4519 31.0317C34.4519 31.0317 30.1179 28.1238 26.2173 31.0317Z" fill="#A6C943"/>
<path opacity="0.25" d="M25.9339 35.3303H26.9913V31.6206C28.2065 32.2244 30.8055 32.9788 34.452 31.1421C34.452 31.1421 30.6694 28.6047 26.9913 30.642V28.7814C28.6737 28.7641 29.8907 28.6719 29.8285 27.3716C29.8259 27.318 29.8208 27.2627 29.8141 27.2064C29.8141 27.2064 29.8141 27.2063 29.8141 27.2062C29.7477 26.6574 29.4822 25.9927 29.0755 25.3545C29.0778 25.3563 29.0802 25.3584 29.0823 25.3605C29.1199 25.3944 29.1578 25.428 29.1963 25.4614C29.2146 25.4774 29.2328 25.4932 29.2512 25.509C29.2882 25.5407 29.325 25.5718 29.3625 25.6029C29.3832 25.6201 29.4043 25.6369 29.4251 25.654C29.4614 25.6833 29.4977 25.7129 29.5344 25.7418C29.5574 25.7598 29.5806 25.7774 29.6039 25.7952C29.6396 25.8226 29.6751 25.8503 29.7113 25.8773C29.7368 25.8962 29.7624 25.9143 29.7879 25.933C29.8449 25.9745 29.902 26.0154 29.9595 26.0553C29.9953 26.0799 30.0309 26.1049 30.0667 26.1291C30.0946 26.1479 30.1224 26.1657 30.1502 26.184C30.185 26.2068 30.2196 26.2295 30.2542 26.2517C30.2821 26.2691 30.3097 26.2862 30.3376 26.3034C30.3727 26.3251 30.4079 26.3469 30.4432 26.368C30.4707 26.3844 30.498 26.4003 30.5256 26.4163C30.5613 26.4371 30.5969 26.4575 30.6324 26.4776C30.6595 26.4928 30.6866 26.5077 30.7136 26.5224C30.7499 26.5421 30.786 26.5613 30.822 26.5802C30.8482 26.594 30.8743 26.6076 30.9006 26.6206C30.9381 26.6398 30.9755 26.658 31.0128 26.676C31.0371 26.6877 31.0613 26.6998 31.0855 26.7111C31.1266 26.7305 31.1674 26.7485 31.208 26.7665C31.2283 26.7755 31.2485 26.7849 31.2686 26.7934C31.3291 26.8193 31.3891 26.8439 31.4486 26.8669C33.453 27.6397 34.0011 26.3673 35.1037 24.962C35.1466 24.9073 35.1898 24.8533 35.2332 24.7997C35.2472 24.7823 35.2611 24.7649 35.2751 24.7478C35.3051 24.7109 35.335 24.6742 35.3647 24.6379C35.3805 24.6189 35.3963 24.5995 35.4118 24.5806C35.423 24.567 35.4339 24.5536 35.4453 24.5403C35.6165 24.3331 35.7824 24.1351 35.9304 23.9459C35.9312 23.9449 35.932 23.9439 35.9328 23.9429C35.9728 23.8917 36.0116 23.8411 36.0484 23.7911C36.049 23.7904 36.0496 23.7895 36.0502 23.7889C36.1243 23.6889 36.1918 23.5914 36.2511 23.4966C36.2531 23.4931 36.2554 23.4897 36.2573 23.4861C36.3162 23.3913 36.3665 23.2987 36.4059 23.2085C36.4062 23.2077 36.4065 23.2068 36.4068 23.2063C36.4259 23.1626 36.4421 23.1196 36.4561 23.0769C36.4569 23.0742 36.458 23.0709 36.459 23.068C36.4865 22.9812 36.5022 22.8967 36.5049 22.8144C36.505 22.8107 36.505 22.8071 36.505 22.8033C36.5057 22.7633 36.5036 22.7237 36.4977 22.6845C36.4977 22.684 36.4977 22.6835 36.4976 22.683C36.4912 22.6417 36.4811 22.6009 36.4667 22.5607C36.365 22.2747 36.0563 22.0155 35.4408 21.7782C35.018 21.6151 34.4839 21.4759 33.8952 21.3702C34.3827 21.2598 34.8229 21.1267 35.1799 20.9779C35.239 20.9533 35.2949 20.9285 35.3481 20.9036C35.3665 20.895 35.3828 20.8865 35.4003 20.8778C35.4339 20.8614 35.4677 20.845 35.499 20.8285C35.5189 20.8179 35.5372 20.8073 35.5562 20.7966C35.5825 20.782 35.6089 20.7673 35.6335 20.7524C35.6527 20.7408 35.6705 20.7292 35.6887 20.7173C35.7103 20.7034 35.7317 20.6897 35.7517 20.6758C35.7697 20.6632 35.7865 20.6505 35.8032 20.638C35.8209 20.6248 35.8381 20.6115 35.8544 20.5983C35.8707 20.585 35.8863 20.5714 35.9013 20.5581C35.9154 20.5455 35.929 20.5329 35.9421 20.5202C35.9566 20.5059 35.9706 20.4917 35.984 20.4773C35.995 20.4655 36.0053 20.4536 36.0154 20.4416C36.0282 20.4264 36.0407 20.4111 36.0521 20.3956C36.0602 20.3848 36.0674 20.3739 36.0748 20.363C36.0859 20.3464 36.0968 20.3298 36.1063 20.3131C36.1117 20.3038 36.116 20.2941 36.1208 20.2848C36.1303 20.2664 36.1396 20.2481 36.1474 20.2293C36.15 20.2229 36.1519 20.2165 36.1542 20.2099C36.2123 20.0545 36.2078 19.8926 36.1557 19.723C36.1557 19.7229 36.1555 19.7227 36.1555 19.7225C35.9858 19.1743 35.3215 18.5476 34.6905 17.8036C33.5214 16.4251 32.9127 15.1664 30.9459 15.986C30.4822 16.1793 29.9844 16.4718 29.5096 16.8228C29.7167 16.331 29.8312 15.8542 29.8312 15.4559C29.8312 15.4137 29.8296 15.3734 29.8266 15.3342C29.8243 15.2976 29.8204 15.2622 29.8159 15.2275C29.8159 15.2271 29.8159 15.2269 29.8159 15.2267C29.8159 15.2267 29.8159 15.2267 29.8159 15.2268C29.6469 13.9319 27.993 14.1119 25.9344 14.1274V35.3303H25.9339ZM28.7953 21.453C28.839 21.4653 28.8836 21.477 28.9288 21.4886C28.8806 21.5048 28.8319 21.5208 28.7857 21.5385C28.7898 21.5102 28.7927 21.4815 28.7953 21.453ZM27.3653 19.4211C27.3498 19.4706 27.3356 19.5201 27.3242 19.569C27.2815 19.5524 27.2383 19.5364 27.1941 19.5211C27.2518 19.4894 27.3089 19.4559 27.3653 19.4211ZM26.9912 23.1979C27.2052 23.1382 27.4064 23.061 27.5915 22.969C27.6048 23.3059 27.7356 23.667 27.9514 24.0309C27.6543 23.7689 27.3321 23.5417 26.9913 23.3665L26.9912 23.1979Z" fill="#724D35"/>
</svg>
