<svg width="52" height="50" viewBox="0 0 52 50" fill="none" xmlns="http://www.w3.org/2000/svg">
<path d="M0 12.4994L25.5987 0L51.1973 12.4994V37.5006L25.5987 50L0 37.5006V12.4994Z" fill="#F1C40F"/>
<path d="M8.28036 16.544L25.5987 8.08675L42.9197 16.544V33.4584L25.5987 41.9156L8.28036 33.4584V16.544Z" fill="#F18F0F"/>
<path d="M8.28036 16.544L25.5987 8.08675L42.9197 16.544V33.4584L41.1292 17.5458L25.5987 9.80149L8.28036 16.544Z" fill="#BA6E0C"/>
<path d="M25.5987 1.16492L50.2415 13.0912V36.7038L48.1039 14.1746L25.5987 1.16492Z" fill="#FFE270"/>
<path d="M26.3121 48.7862L1.6693 36.8599V13.2473L3.80689 35.7742L26.3121 48.7862Z" fill="#D9B00D"/>
<path d="M35 32.0193C35 33.3713 33.4362 34.4672 31.5072 34.4672H21.4926C19.5636 34.4672 18 33.3713 18 32.0193V19.2742C18 17.9222 19.5636 16.8262 21.4926 16.8262H31.5072C33.4362 16.8262 35 17.9222 35 19.2742V32.0193Z" fill="#A2DDC4"/>
<path d="M34.3887 31.4386C34.3887 32.6934 32.9375 33.7104 31.1471 33.7104H21.8527C20.0624 33.7104 18.6111 32.6934 18.6111 31.4386V19.61C18.6111 18.3553 20.0624 17.3381 21.8527 17.3381H31.1471C32.9375 17.3381 34.3887 18.3553 34.3887 19.61V31.4386Z" fill="#C9F2DF"/>
<path d="M18.6113 19.8242V31.6528C18.6113 32.9076 20.0625 33.9247 21.8529 33.9247H31.1472C32.9376 33.9247 34.3889 32.9077 34.3889 31.6528V19.8242C34.3889 19.7131 34.3735 19.6047 34.3518 19.4979H18.6483C18.6265 19.6047 18.6113 19.7131 18.6113 19.8242Z" fill="#F1C40F"/>
<path opacity="0.25" d="M31.1471 33.2376H21.8527C20.0624 33.2376 18.6111 32.2203 18.6111 30.9656V31.6528C18.6111 32.9076 20.0624 33.9247 21.8527 33.9247H31.1471C32.9375 33.9247 34.3887 32.9077 34.3887 31.6528V30.9656C34.3887 32.2204 32.9375 33.2376 31.1471 33.2376Z" fill="#724D35"/>
<path d="M20.456 20.8137C20.456 20.701 20.5862 20.6098 20.747 20.6098C20.9076 20.6098 21.038 20.701 21.038 20.8137C21.038 20.9263 20.9076 21.0177 20.747 21.0177C20.5862 21.0177 20.456 20.9263 20.456 20.8137Z" fill="#FFE270"/>
<path d="M24.1816 22.8944C24.1816 23.2775 23.7385 23.588 23.1921 23.588C22.6455 23.588 22.2024 23.2775 22.2024 22.8944C22.2024 22.5114 22.6455 22.2009 23.1921 22.2009C23.7384 22.2009 24.1816 22.5114 24.1816 22.8944Z" fill="#FFE270"/>
<path d="M21.7541 26.1176C21.7541 26.3949 21.4336 26.6195 21.038 26.6195C20.6425 26.6195 20.3219 26.3949 20.3219 26.1176C20.3219 25.8405 20.6425 25.6158 21.038 25.6158C21.4336 25.6158 21.7541 25.8405 21.7541 26.1176Z" fill="#FFE270"/>
<path d="M29.0713 26.8928C29.0713 27.0957 28.8367 27.2601 28.5474 27.2601C28.2582 27.2601 28.0236 27.0957 28.0236 26.8928C28.0236 26.6901 28.2582 26.5257 28.5474 26.5257C28.8367 26.5256 29.0713 26.69 29.0713 26.8928Z" fill="#FFE270"/>
<path d="M29.7698 21.3848C29.7698 21.6552 29.4571 21.8744 29.0713 21.8744C28.6855 21.8744 28.3728 21.6553 28.3728 21.3848C28.3728 21.1144 28.6856 20.8952 29.0713 20.8952C29.4571 20.8953 29.7698 21.1145 29.7698 21.3848Z" fill="#FFE270"/>
<path d="M31.6326 23.0985C31.6326 23.3689 31.3198 23.5881 30.934 23.5881C30.5484 23.5881 30.2357 23.3689 30.2357 23.0985C30.2357 22.8281 30.5484 22.6089 30.934 22.6089C31.3198 22.6089 31.6326 22.8281 31.6326 23.0985Z" fill="#FFE270"/>
<path d="M24.0069 30.7689C24.0069 31.2194 23.4856 31.5848 22.8427 31.5848C22.1997 31.5848 21.6785 31.2194 21.6785 30.7689C21.6785 30.3183 22.1999 29.9529 22.8427 29.9529C23.4856 29.9529 24.0069 30.3182 24.0069 30.7689Z" fill="#FFE270"/>
<path d="M30.8759 31.5848C30.8759 31.8327 30.5893 32.0337 30.2357 32.0337C29.8819 32.0337 29.5953 31.8327 29.5953 31.5848C29.5953 31.337 29.8819 31.136 30.2357 31.136C30.5891 31.136 30.8759 31.337 30.8759 31.5848Z" fill="#FFE270"/>
<path d="M32.7969 28.1576C32.7969 28.6083 32.2756 28.9736 31.6327 28.9736C30.9897 28.9736 30.4685 28.6083 30.4685 28.1576C30.4685 27.7071 30.9897 27.3417 31.6327 27.3417C32.2756 27.3417 32.7969 27.707 32.7969 28.1576Z" fill="#FFE270"/>
<path d="M31.8654 16.3257C31.8654 16.7314 31.3962 17.0601 30.8175 17.0601H22.0857C21.5071 17.0601 21.038 16.7314 21.038 16.3257C21.038 15.9202 21.5071 15.5913 22.0857 15.5913H30.8175C31.3963 15.5913 31.8654 15.92 31.8654 16.3257Z" fill="#A2DDC4"/>
<path d="M30.4876 15.9585H26.8011H26.1216H22.4351C22.1458 15.9585 21.9112 16.1229 21.9112 16.3256C21.9112 16.5284 22.1458 16.6928 22.4351 16.6928H26.1216H26.8011H30.4876C30.7769 16.6928 31.0114 16.5284 31.0114 16.3256C31.0116 16.1229 30.7769 15.9585 30.4876 15.9585Z" fill="#C9F2DF"/>
<path d="M30.4876 17.4885H26.8011H26.1216H22.4351C22.1458 17.4885 21.9112 17.6529 21.9112 17.8556C21.9112 18.0584 22.1458 18.2228 22.4351 18.2228H26.1216H26.8011H30.4876C30.7769 18.2228 31.0114 18.0584 31.0114 17.8556C31.0114 17.6529 30.7769 17.4885 30.4876 17.4885Z" fill="white"/>
<path d="M19.2742 20.6134V25.5677V26.4806V31.4349C19.2742 31.8236 19.7241 32.139 20.2787 32.139C20.8337 32.139 21.2833 31.8236 21.2833 31.4349V26.4806V25.5677V20.6134C21.2833 20.2247 20.8337 19.9093 20.2787 19.9093C19.7242 19.9093 19.2742 20.2247 19.2742 20.6134Z" fill="white"/>
<path d="M32.7156 14.0001H26.6735H26.3267H20.2844C19.8592 14.0001 19.5146 14.1485 19.5146 14.3316V15.2598C19.5146 15.443 19.8592 15.5914 20.2844 15.5914H26.3267H26.6735H32.7156C33.1408 15.5914 33.4854 15.443 33.4854 15.2598V14.3316C33.4856 14.1485 33.1409 14.0001 32.7156 14.0001Z" fill="#724D35"/>
<path opacity="0.25" d="M32.7156 14.7957H26.6735H26.3267H20.2844C19.8592 14.7957 19.5146 14.9441 19.5146 15.1273V15.2598C19.5146 15.443 19.8592 15.5914 20.2844 15.5914H26.3267H26.6735H32.7156C33.1408 15.5914 33.4854 15.443 33.4854 15.2598V15.1273C33.4856 14.9441 33.1409 14.7957 32.7156 14.7957Z" fill="#724D35"/>
<path opacity="0.25" d="M26.4517 34.4672H31.5072C33.4363 34.4672 35 33.3713 35 32.0193V19.2742C35 17.9394 33.4749 16.856 31.5797 16.8288C31.7564 16.6972 31.8656 16.5206 31.8656 16.3257C31.8656 15.9202 31.3963 15.5913 30.8177 15.5913H32.7156C33.1408 15.5913 33.4854 15.4429 33.4854 15.2597V15.1272V14.3316C33.4854 14.1484 33.1408 14 32.7156 14H26.6735H26.4519L26.4517 34.4672Z" fill="#724D35"/>
</svg>
