<svg width="106" height="163" viewBox="0 0 106 163" fill="none" xmlns="http://www.w3.org/2000/svg">
<path opacity="0.25" d="M105.971 43.7373C105.965 43.6227 105.951 43.5081 105.942 43.3943C105.926 43.1892 105.913 42.984 105.891 42.7813C105.874 42.6322 105.85 42.4856 105.829 42.3382C105.807 42.1723 105.787 42.0056 105.759 41.8406C105.731 41.6723 105.694 41.5064 105.661 41.3398C105.633 41.1979 105.609 41.0553 105.577 40.9143C105.536 40.73 105.486 40.5473 105.438 40.3646C105.408 40.246 105.381 40.1258 105.347 40.008C105.289 39.8029 105.223 39.601 105.158 39.3982C105.129 39.3061 105.102 39.2115 105.07 39.1202C104.995 38.8982 104.911 38.6794 104.828 38.4607C104.801 38.391 104.777 38.3205 104.75 38.2508C104.653 38.0112 104.549 37.774 104.443 37.5392C104.424 37.4943 104.405 37.4487 104.385 37.4046C104.267 37.1498 104.142 36.899 104.012 36.649C104 36.6257 103.989 36.6017 103.977 36.5784C103.834 36.3068 103.685 36.04 103.529 35.7764C100.065 29.9213 93.2997 25.9084 85.4812 25.7609C85.7426 25.5093 85.9792 25.2369 86.1866 24.9452L86.1875 24.9444C86.2911 24.7978 86.3886 24.6487 86.4772 24.4933C86.4834 24.4829 86.4887 24.4716 86.495 24.4604C86.5774 24.3154 86.6545 24.1687 86.7218 24.0173C86.7351 23.9885 86.7449 23.958 86.7573 23.9292C86.8157 23.7929 86.8716 23.6567 86.9185 23.5157C86.9363 23.462 86.9487 23.4051 86.9655 23.3514C87.0009 23.2328 87.0382 23.1134 87.0648 22.9908C87.0851 22.9003 87.0958 22.8065 87.1117 22.7152C87.1268 22.6246 87.1454 22.5349 87.156 22.4436C87.1764 22.2569 87.1879 22.0669 87.1879 21.8746C87.1879 18.7343 84.3726 16.1878 80.8989 16.1878H92.2904C94.8425 16.1878 96.9108 15.0388 96.9108 13.6205V12.594V6.43361C96.9108 5.01531 94.8434 3.86626 92.2904 3.86626H56.0273H54.6963H53.9449H17.6818C15.1297 3.86626 13.0614 5.01531 13.0614 6.43361V12.594V13.6205C13.0614 15.0388 15.1297 16.1878 17.6818 16.1878H28.4937C25.0209 16.1878 22.2056 18.7335 22.2056 21.8746C22.2056 23.3859 22.8614 24.7553 23.9239 25.773C12.816 26.2497 3.97131 34.5423 3.97131 44.7052V143.392C3.97131 153.862 13.3565 162.347 24.9341 162.347H54.6963H85.0381C96.6157 162.347 106 153.862 106 143.392V44.7068C105.998 44.3815 105.988 44.0586 105.971 43.7373Z" fill="#724D35"/>
<path d="M102.33 139.526C102.33 149.995 92.9443 158.481 81.3668 158.481H21.2619C9.68432 158.481 0.299988 149.995 0.299988 139.526V40.839C0.299988 30.37 9.68432 21.8835 21.2619 21.8835H81.3668C92.9443 21.8835 102.33 30.37 102.33 40.839V139.526Z" fill="#A2DDC4"/>
<path d="M98.6609 135.03C98.6609 144.746 89.9509 152.621 79.2055 152.621H23.4232C12.6777 152.621 3.96777 144.746 3.96777 135.03V43.4392C3.96777 33.7234 12.6777 25.8475 23.4232 25.8475H79.2055C89.9509 25.8475 98.6609 33.7234 98.6609 43.4392V135.03Z" fill="#C9F2DF"/>
<path d="M3.96866 45.0979V136.689C3.96866 146.404 12.6786 154.28 23.4241 154.28H79.2064C89.9518 154.28 98.6618 146.405 98.6618 136.689V45.0979C98.6618 44.2373 98.5696 43.3983 98.4394 42.5714H4.19108C4.05993 43.3983 3.96866 44.2373 3.96866 45.0979Z" fill="#FFD200"/>
<path opacity="0.25" d="M79.2055 148.96H23.4232C12.6777 148.96 3.96777 141.083 3.96777 131.367V136.689C3.96777 146.404 12.6777 154.28 23.4232 154.28H79.2055C89.9509 154.28 98.6609 146.405 98.6609 136.689V131.367C98.6609 141.084 89.9509 148.96 79.2055 148.96Z" fill="#724D35"/>
<path d="M15.0402 52.7599C15.0402 51.8872 15.8218 51.1805 16.7868 51.1805C17.751 51.1805 18.5334 51.8872 18.5334 52.7599C18.5334 53.6317 17.751 54.3392 16.7868 54.3392C15.8218 54.3392 15.0402 53.6317 15.0402 52.7599Z" fill="#F9BB62"/>
<path d="M37.4004 68.8708C37.4004 71.8372 34.7411 74.2411 31.4614 74.2411C28.1809 74.2411 25.5216 71.8372 25.5216 68.8708C25.5216 65.9052 28.1809 63.5005 31.4614 63.5005C34.7402 63.5005 37.4004 65.9052 37.4004 68.8708Z" fill="#F9BB62"/>
<path d="M22.8313 93.8288C22.8313 95.9755 20.9074 97.7151 18.5334 97.7151C16.1594 97.7151 14.2356 95.9755 14.2356 93.8288C14.2356 91.6829 16.1594 89.9433 18.5334 89.9433C20.9074 89.9433 22.8313 91.6829 22.8313 93.8288Z" fill="#F9BB62"/>
<path d="M66.7471 99.8313C66.7471 101.402 65.339 102.675 63.603 102.675C61.867 102.675 60.459 101.402 60.459 99.8313C60.459 98.2616 61.867 96.9883 63.603 96.9883C65.339 96.9875 66.7471 98.2608 66.7471 99.8313Z" fill="#F9BB62"/>
<path d="M70.9395 57.1814C70.9395 59.2752 69.0626 60.9732 66.7471 60.9732C64.4316 60.9732 62.5547 59.276 62.5547 57.1814C62.5547 55.0876 64.4325 53.3905 66.7471 53.3905C69.0626 53.3913 70.9395 55.0884 70.9395 57.1814Z" fill="#F9BB62"/>
<path d="M82.1191 70.4509C82.1191 72.5447 80.2423 74.2419 77.9267 74.2419C75.6121 74.2419 73.7353 72.5447 73.7353 70.4509C73.7353 68.3571 75.6121 66.66 77.9267 66.66C80.2423 66.66 82.1191 68.3571 82.1191 70.4509Z" fill="#F9BB62"/>
<path d="M36.3521 129.844C36.3521 133.333 33.2231 136.162 29.3648 136.162C25.5056 136.162 22.3775 133.333 22.3775 129.844C22.3775 126.355 25.5065 123.526 29.3648 123.526C33.2231 123.526 36.3521 126.354 36.3521 129.844Z" fill="#F9BB62"/>
<path d="M77.5776 136.162C77.5776 138.081 75.8576 139.637 73.7353 139.637C71.6121 139.637 69.892 138.081 69.892 136.162C69.892 134.243 71.6121 132.687 73.7353 132.687C75.8567 132.687 77.5776 134.243 77.5776 136.162Z" fill="#F9BB62"/>
<path d="M89.1073 109.625C89.1073 113.114 85.9783 115.943 82.12 115.943C78.2608 115.943 75.1327 113.114 75.1327 109.625C75.1327 106.136 78.2608 103.307 82.12 103.307C85.9783 103.307 89.1073 106.135 89.1073 109.625Z" fill="#F9BB62"/>
<path d="M83.5166 18.0084C83.5166 21.1495 80.7004 23.6952 77.2276 23.6952H24.8215C21.3487 23.6952 18.5334 21.1495 18.5334 18.0084C18.5334 14.8681 21.3487 12.3216 24.8215 12.3216H77.2276C80.7013 12.3216 83.5166 14.8673 83.5166 18.0084Z" fill="#A2DDC4"/>
<path d="M75.2471 15.1646H53.1216H49.0436H26.9182C25.1822 15.1646 23.7741 16.4378 23.7741 18.0076C23.7741 19.5781 25.1822 20.8506 26.9182 20.8506H49.0436H53.1216H75.2471C76.9839 20.8506 78.3911 19.5781 78.3911 18.0076C78.392 16.4378 76.9839 15.1646 75.2471 15.1646Z" fill="#C9F2DF"/>
<path d="M75.2471 27.0117H53.1216H49.0436H26.9182C25.1822 27.0117 23.7741 28.285 23.7741 29.8548C23.7741 31.4245 25.1822 32.6978 26.9182 32.6978H49.0436H53.1216H75.2471C76.9839 32.6978 78.3911 31.4245 78.3911 29.8548C78.3911 28.285 76.9839 27.0117 75.2471 27.0117Z" fill="white"/>
<path d="M7.94748 51.2085V89.5707V96.639V135.001C7.94748 138.011 10.6476 140.453 13.976 140.453C17.307 140.453 20.0053 138.011 20.0053 135.001V96.639V89.5707V51.2085C20.0053 48.1989 17.307 45.7565 13.976 45.7565C10.6485 45.7565 7.94748 48.1989 7.94748 51.2085Z" fill="white"/>
<path d="M88.619 0.000793457H52.356H50.2744H14.0105C11.4584 0.000793457 9.39011 1.14986 9.39011 2.56816V9.755C9.39011 11.1733 11.4584 12.3224 14.0105 12.3224H50.2744H52.356H88.619C91.1712 12.3224 93.2394 11.1733 93.2394 9.755V2.56816C93.2403 1.14986 91.172 0.000793457 88.619 0.000793457Z" fill="#724D35"/>
<path opacity="0.25" d="M88.619 6.16118H52.356H50.2744H14.0105C11.4584 6.16118 9.39011 7.31024 9.39011 8.72853V9.755C9.39011 11.1733 11.4584 12.3224 14.0105 12.3224H50.2744H52.356H88.619C91.1712 12.3224 93.2394 11.1733 93.2394 9.755V8.72853C93.2403 7.31024 91.172 6.16118 88.619 6.16118Z" fill="#724D35"/>
<path opacity="0.25" d="M51.025 158.481H81.3668C92.9443 158.481 102.33 149.995 102.33 139.526V40.839C102.33 30.503 93.1765 22.1142 81.8019 21.9035C82.8626 20.885 83.5175 19.5172 83.5175 18.0084C83.5175 14.8681 80.7013 12.3216 77.2285 12.3216H88.619C91.1712 12.3216 93.2394 11.1725 93.2394 9.75419V8.72774V2.56736C93.2394 1.14906 91.1712 0 88.619 0H52.356H51.0259L51.025 158.481Z" fill="#724D35"/>
</svg>
