<svg width="296" height="143" viewBox="0 0 296 143" fill="none" xmlns="http://www.w3.org/2000/svg">
<path d="M169.601 43.0162C164.866 34.9962 150.343 34.5452 150.188 34.5322L150.217 33.4342C150.841 33.4492 165.513 33.9062 170.548 42.4582L169.601 43.0162Z" fill="#784600"/>
<path d="M195.331 56.5042L181.39 64.5962L181.707 63.8292L183.604 75.4302L183.633 75.6082L183.503 75.6922L178.073 79.3182L183.192 75.2732L183.091 75.5352L180.275 64.1192L180.16 63.6692L180.601 63.3572L193.847 54.1782C194.469 53.7442 195.338 53.8972 195.773 54.5272C196.206 55.1472 196.046 56.0082 195.422 56.4432C195.39 56.4602 195.358 56.4852 195.331 56.5042Z" fill="#784600"/>
<path d="M180.684 40.3362C176.567 44.9442 179.382 62.9612 192.989 61.5892C205.161 60.3622 204.685 52.1962 205.361 47.5782C206.044 42.9282 205.815 29.5522 189.803 34.9772C186.034 36.2612 182.446 38.3692 180.684 40.3362Z" fill="#784600"/>
<path d="M196.933 57.4682L185.954 69.2812L186.044 68.4582L191.241 79.0002L191.323 79.1572L191.229 79.2762L187.093 84.3302L190.809 78.9642L190.792 79.2462L184.761 69.1582L184.52 68.7472L184.848 68.3302L194.842 55.6762C195.31 55.0812 196.178 54.9792 196.772 55.4472C197.371 55.9232 197.474 56.7852 197.007 57.3862C196.98 57.4142 196.955 57.4432 196.933 57.4682Z" fill="#784600"/>
<path d="M205.071 64.8902C205.079 64.8982 205.079 64.9092 205.084 64.9162L205.09 64.8822L205.071 64.8902Z" fill="#784600"/>
<path d="M218.025 84.0532C219.855 86.8882 221.207 89.2772 221.652 90.9962C222.984 91.8782 228.71 87.0022 230.918 78.1792C226.794 82.7972 221.856 85.1522 218.025 84.0532Z" fill="#784600"/>
<path d="M231.741 68.8702C231.708 68.5162 231.684 68.1612 231.653 67.8152C231.64 67.6352 231.622 67.4652 231.6 67.2902C231.653 67.8122 231.707 68.3342 231.741 68.8702Z" fill="#784600"/>
<path d="M213.704 56.4972C215.985 52.2672 217.118 47.9042 217.107 44.1902C218.082 44.6312 219.033 45.1332 219.97 45.7262C219.027 45.1312 218.082 44.6152 217.107 44.1822C214.666 43.0772 212.146 42.4392 209.726 42.1682C205.164 41.6412 200.965 42.4192 198.392 43.7802L198.05 48.0102C198.245 50.7672 199.285 53.8942 200.819 57.1942C201.926 59.5562 203.319 62.0192 204.821 64.4862L205.227 64.2382L205.481 64.6462L205.094 64.8762L205.09 64.9292C205.277 65.2382 205.462 65.5452 205.659 65.8552C205.949 66.3102 206.247 66.7762 206.537 67.2342C206.247 66.7702 205.955 66.3072 205.667 65.8442C208.639 63.7822 211.523 60.5492 213.704 56.4972Z" fill="#784600"/>
<path d="M228.729 66.4612C229.54 64.9492 230.201 63.4382 230.718 61.9312C230.92 62.7802 231.092 63.6742 231.243 64.5902C231.22 64.4462 231.21 64.2822 231.182 64.1362C231.151 63.9392 231.113 63.7322 231.077 63.5322C230.961 62.9072 230.823 62.2862 230.682 61.6862C230.602 61.3372 230.512 61.0002 230.422 60.6722C230.388 60.5502 230.351 60.4352 230.317 60.3112C230.244 60.0822 230.189 59.8592 230.126 59.6412C229.758 58.4392 229.332 57.3202 228.859 56.2652C228.67 55.8392 228.47 55.4262 228.265 55.0212C228.069 54.6332 227.87 54.2652 227.675 53.8942C227.616 53.8092 227.566 53.7272 227.53 53.6492C227.375 53.3812 227.213 53.1242 227.049 52.8822C226.808 52.4742 226.545 52.0772 226.264 51.6972C226.041 51.3922 225.819 51.1012 225.588 50.8242C225.538 51.2662 225.453 51.7232 225.346 52.1792V52.1932C224.827 54.7772 223.842 57.5072 222.399 60.1962C219.908 64.8272 216.52 68.3912 213.102 70.3452C211.917 71.0382 210.724 71.5152 209.579 71.7822C210.631 73.3302 211.686 74.8392 212.715 76.3062C213.192 76.9942 213.65 77.6482 214.118 78.3112C218.995 78.1402 224.91 73.5582 228.729 66.4612Z" fill="#784600"/>
<path d="M216.17 81.2872C216.826 82.2442 217.451 83.1692 218.025 84.0542C217.327 82.9792 216.54 81.8292 215.723 80.6412C215.874 80.8522 216.025 81.0732 216.17 81.2872Z" fill="#784600"/>
<path d="M200.844 45.7262C197.321 45.4422 194.368 44.4672 192.083 42.8372L190.523 41.7292L192.413 41.4232C197.62 40.5742 202.632 37.6642 205.957 35.5512C209.406 33.3452 213.012 30.8962 216.037 27.8852C218.425 25.5182 220.181 22.7752 222.034 19.8702L223.093 18.2282C225.376 14.7262 228.813 9.43222 233.638 8.31122C235.008 7.99722 236.858 8.13522 237.99 8.66222C242.109 10.5642 242.329 17.0392 241.5 20.6692C238.129 35.4002 215.958 46.9482 200.844 45.7262ZM194.677 42.5572C196.439 43.4262 198.548 43.9592 200.97 44.1552C215.346 45.3222 236.842 33.9752 239.959 20.3242C240.715 17.0352 240.396 11.5122 237.334 10.0902C236.515 9.71221 235.026 9.60921 233.994 9.84821C229.789 10.8232 226.558 15.7972 224.409 19.0822L223.369 20.7162C221.54 23.5682 219.662 26.5142 217.147 29.0042C214.019 32.1172 210.331 34.6312 206.796 36.8782C203.781 38.7962 199.41 41.3542 194.677 42.5572Z" fill="#784600"/>
<path d="M203.657 38.7642L203.264 38.0812C201.888 35.7012 199.647 34.4952 196.431 34.4962L194.866 34.5012L195.803 33.2432C197.971 30.3242 199.532 27.8352 200.704 25.4142C202.176 22.3842 202.931 19.2092 203.722 15.8522L204.184 13.9682C205.177 9.90722 206.686 3.77821 210.866 1.12921C211.88 0.484214 213.555 -0.102784 215.019 0.0152157C219.611 0.461216 221.946 6.50321 222.36 10.2062C223.072 16.5352 220.402 23.9482 214.84 31.0982L214.725 31.2182C212.139 33.3962 209.266 35.2992 206.795 36.8762C206.001 37.3812 205.178 37.8802 204.34 38.3652L203.657 38.7642ZM197.917 33.0022C200.648 33.3172 202.758 34.5352 204.2 36.6232C204.797 36.2722 205.383 35.9102 205.956 35.5502C208.475 33.9362 211.157 32.1582 213.65 30.0682C218.918 23.2682 221.458 16.2812 220.789 10.3802C220.419 7.02722 218.306 1.91521 214.941 1.58821C213.965 1.50721 212.631 1.88022 211.711 2.45522C208.066 4.76722 206.653 10.5292 205.705 14.3372L205.26 16.2132C204.478 19.5102 203.668 22.9152 202.122 26.0962C201.063 28.2782 199.719 30.4962 197.917 33.0022Z" fill="#784600"/>
<path d="M152.102 32.8672C152.718 33.9132 152.371 35.2672 151.321 35.8822C150.273 36.5002 148.927 36.1562 148.305 35.1002C147.689 34.0542 148.034 32.7052 149.08 32.0852C150.132 31.4712 151.478 31.8192 152.102 32.8672Z" fill="#784600"/>
<path d="M209.038 59.0702L200.409 75.0842L200.419 74.4412L206.101 87.5952L206.154 87.7122L206.087 87.8082L202.588 93.2272L205.695 87.5802L205.685 87.7922L199.091 75.0742L198.934 74.7832L199.102 74.4332L206.563 57.8532C206.88 57.1552 207.691 56.8472 208.386 57.1592C209.086 57.4702 209.394 58.2902 209.079 58.9842C209.066 59.0112 209.045 59.0422 209.038 59.0702Z" fill="#784600"/>
<path d="M215.101 66.1012L210.887 85.1302L210.757 84.5592L219.249 96.8162L219.333 96.9432L219.272 97.0632L215.939 103.528L218.838 96.8562L218.863 97.1002L209.577 85.4362L209.39 85.2022L209.444 84.8642L212.397 65.5932C212.506 64.8452 213.208 64.3262 213.96 64.4372C214.71 64.5562 215.229 65.2572 215.117 66.0082C215.111 66.0442 215.107 66.0722 215.101 66.1012Z" fill="#784600"/>
<path d="M176.004 36.4402C168.608 35.8402 162.525 43.3092 163.93 51.5522L163.924 51.5482C164.529 53.3542 166.793 60.5642 166.484 62.4792C169.509 63.3742 175.733 62.1732 178.94 60.6692L178.927 60.6662C190.094 55.7622 187.87 37.4012 176.004 36.4402ZM169.318 54.6952C167.652 54.5602 166.459 52.5082 166.648 50.0992C166.843 47.6982 168.352 45.8642 170.021 45.9992C171.693 46.1342 172.888 48.1892 172.695 50.5862C172.496 52.9972 170.992 54.8302 169.318 54.6952Z" fill="#784600"/>
<path d="M170.973 41.0302C170.967 41.1192 170.927 41.2032 170.86 41.2612C170.793 41.3202 170.705 41.3502 170.616 41.3422L170.232 41.3122C170.024 41.2962 169.867 41.1182 169.877 40.9102C170.295 31.7722 158.99 23.2802 158.879 23.1932L159.53 22.3082C160.015 22.6672 171.481 31.2882 170.973 41.0302Z" fill="#784600"/>
<path d="M161.39 22.9102C161.294 24.1242 160.229 25.0282 159.018 24.9292C157.802 24.8292 156.897 23.7682 156.995 22.5582C157.098 21.3422 158.163 20.4342 159.373 20.5332C160.59 20.6292 161.487 21.6952 161.39 22.9102Z" fill="#784600"/>
<path d="M221.9 91.8802C221.64 91.8592 221.417 91.7882 221.222 91.6552L220.966 91.4852L220.892 91.1972C220.518 89.7532 219.43 87.6832 217.367 84.4822C216.792 83.5992 216.178 82.6862 215.527 81.7352C215.086 81.0952 214.658 80.4632 214.204 79.8162L212.076 76.7602C211.045 75.2842 209.99 73.7762 208.927 72.2262C207.898 70.7272 206.877 69.1892 205.881 67.6562L205.005 66.2752C202.884 62.9052 201.283 60.0402 200.105 57.5212C198.378 53.8122 197.452 50.7162 197.261 48.0642L197.643 43.2882L198.023 43.0902C200.959 41.5292 205.398 40.8842 209.813 41.3832C212.493 41.6882 215.052 42.3872 217.436 43.4652C218.411 43.9012 219.402 44.4352 220.391 45.0622C222.592 46.4452 224.548 48.2142 226.21 50.3302C226.443 50.6132 226.67 50.9212 226.903 51.2402C227.191 51.6282 227.472 52.0462 227.729 52.4742C227.882 52.6942 228.048 52.9672 228.212 53.2552L228.38 53.5342L228.97 54.6642C229.18 55.0922 229.38 55.5102 229.575 55.9422C230.065 57.0232 230.489 58.1602 230.873 59.4102L231.251 60.7292C231.318 60.9882 231.392 61.2402 231.45 61.5072C231.589 62.1192 231.732 62.7502 231.853 63.3902C231.897 63.6592 231.935 63.8492 231.966 64.0352C232.13 64.9552 232.268 65.9532 232.363 66.9592C232.39 67.2002 232.42 67.4712 232.439 67.7522L232.525 68.8132C232.744 72.0992 232.458 75.3152 231.683 78.3722C229.649 86.5032 224.421 92.0842 221.9 91.8802ZM199.141 44.2832L198.834 48.0712C199.008 50.4112 199.888 53.3262 201.529 56.8592C202.686 59.3152 204.252 62.1182 206.325 65.4322L207.205 66.8012C208.194 68.3192 209.2 69.8462 210.226 71.3332C211.283 72.8812 212.337 74.3902 213.36 75.8512L215.505 78.9142C215.952 79.5712 216.385 80.2082 216.809 80.8232C217.485 81.8002 218.115 82.7352 218.683 83.6332C220.622 86.6362 221.745 88.7262 222.266 90.2812C223.768 89.8992 228.246 85.5972 230.151 77.9842C230.892 75.0842 231.161 72.0362 230.951 68.9222L230.873 67.8782C230.852 67.6232 230.829 67.3822 230.797 67.1382C230.7 66.1442 230.57 65.1902 230.409 64.2772C230.38 64.0842 230.352 63.9232 230.318 63.7642C230.186 63.0572 230.053 62.4532 229.917 61.8642C229.865 61.6152 229.793 61.3702 229.734 61.1352L229.369 59.8812C229.003 58.6862 228.608 57.6102 228.145 56.5872C227.952 56.1702 227.761 55.7632 227.567 55.3702L226.979 54.2502C226.954 54.2282 226.88 54.1042 226.819 53.9882C226.704 53.7932 226.559 53.5552 226.405 53.3232C226.151 52.9022 225.897 52.5252 225.632 52.1692C225.413 51.8632 225.206 51.5852 224.985 51.3132C223.426 49.3312 221.597 47.6772 219.551 46.3902C218.625 45.8032 217.698 45.3052 216.793 44.9012C214.554 43.8842 212.149 43.2312 209.636 42.9482C205.669 42.4972 201.811 43.0122 199.141 44.2832Z" fill="#784600"/>
<path d="M19.631 136V108.79H12.611V100.84H36.791V108.79H29.771V136H19.631ZM49.3214 124.3V136H39.3614V100.84H43.3214C44.2814 100.84 45.7114 100.8 47.6114 100.72C49.5114 100.62 51.0814 100.57 52.3214 100.57C56.6414 100.57 59.8614 101.52 61.9814 103.42C64.1214 105.32 65.1914 108.23 65.1914 112.15C65.1914 114.47 64.6814 116.53 63.6614 118.33C62.6614 120.13 61.3314 121.56 59.6714 122.62C60.5714 122.84 61.3414 123.35 61.9814 124.15C62.6414 124.95 63.1514 125.9 63.5114 127C63.8714 128.08 64.1814 129.18 64.4414 130.3C64.7214 131.4 65.0314 132.49 65.3714 133.57C65.7314 134.65 66.1214 135.46 66.5414 136H55.4714C55.2514 135.72 55.0814 134.94 54.9614 133.66C54.8414 132.36 54.6714 130.81 54.4514 129.01C54.2514 127.19 53.9614 125.67 53.5814 124.45C53.5414 124.45 53.4914 124.45 53.4314 124.45C53.0514 124.45 52.6414 124.45 52.2014 124.45C51.7814 124.43 51.4114 124.41 51.0914 124.39C50.7714 124.37 50.4314 124.35 50.0714 124.33C49.7314 124.31 49.4814 124.3 49.3214 124.3ZM49.3214 118.72H50.2814C50.7814 118.72 51.2014 118.7 51.5414 118.66C51.8814 118.62 52.2514 118.55 52.6514 118.45C53.0714 118.33 53.4114 118.15 53.6714 117.91C53.9514 117.67 54.2114 117.36 54.4514 116.98C54.6914 116.6 54.8714 116.11 54.9914 115.51C55.1114 114.91 55.1714 114.21 55.1714 113.41V111.04C55.1714 109.3 54.7114 108.09 53.7914 107.41C52.8914 106.71 51.5914 106.36 49.8914 106.36H49.3214V118.72ZM85.7053 136L84.3553 130.39H75.8353L74.6953 136H65.8753L75.0253 103.27L74.3053 100.84H86.6953L96.7153 136H85.7053ZM79.7053 111.16L77.0653 124.27H82.8853L79.7053 111.16ZM97.9887 136V100.84H108.219V136H97.9887ZM121.853 136H112.313V103.66L110.843 100.84H121.883L127.403 112.24L132.683 123.61L131.213 110.26V100.84H140.783V136H131.633L124.493 122.11L120.083 113.41L121.853 124.93V136ZM166.102 136H144.832V100.84H165.652L165.052 107.92L154.762 107.62V114.4H162.862V121.42L154.762 120.82V128.8L166.102 128.5V136ZM178.696 124.3V136H168.736V100.84H172.696C173.656 100.84 175.086 100.8 176.986 100.72C178.886 100.62 180.456 100.57 181.696 100.57C186.016 100.57 189.236 101.52 191.356 103.42C193.496 105.32 194.566 108.23 194.566 112.15C194.566 114.47 194.056 116.53 193.036 118.33C192.036 120.13 190.706 121.56 189.046 122.62C189.946 122.84 190.716 123.35 191.356 124.15C192.016 124.95 192.526 125.9 192.886 127C193.246 128.08 193.556 129.18 193.816 130.3C194.096 131.4 194.406 132.49 194.746 133.57C195.106 134.65 195.496 135.46 195.916 136H184.846C184.626 135.72 184.456 134.94 184.336 133.66C184.216 132.36 184.046 130.81 183.826 129.01C183.626 127.19 183.336 125.67 182.956 124.45C182.916 124.45 182.866 124.45 182.806 124.45C182.426 124.45 182.016 124.45 181.576 124.45C181.156 124.43 180.786 124.41 180.466 124.39C180.146 124.37 179.806 124.35 179.446 124.33C179.106 124.31 178.856 124.3 178.696 124.3ZM178.696 118.72H179.656C180.156 118.72 180.576 118.7 180.916 118.66C181.256 118.62 181.626 118.55 182.026 118.45C182.446 118.33 182.786 118.15 183.046 117.91C183.326 117.67 183.586 117.36 183.826 116.98C184.066 116.6 184.246 116.11 184.366 115.51C184.486 114.91 184.546 114.21 184.546 113.41V111.04C184.546 109.3 184.086 108.09 183.166 107.41C182.266 106.71 180.966 106.36 179.266 106.36H178.696V118.72ZM208.3 136.63C206.76 136.63 205.32 136.49 203.98 136.21C202.66 135.95 201.55 135.6 200.65 135.16C199.75 134.72 199.01 134.3 198.43 133.9C197.87 133.5 197.4 133.1 197.02 132.7L197.77 125.41C198.59 126.51 199.69 127.47 201.07 128.29C202.45 129.09 203.94 129.49 205.54 129.49C207.14 129.49 208.29 129.32 208.99 128.98C209.71 128.64 210.07 128.02 210.07 127.12C210.07 126.16 209.66 125.34 208.84 124.66C208.04 123.98 206.65 123.16 204.67 122.2C203.95 121.84 203.34 121.52 202.84 121.24C202.34 120.94 201.67 120.46 200.83 119.8C200.01 119.12 199.34 118.42 198.82 117.7C198.3 116.96 197.84 116.02 197.44 114.88C197.04 113.72 196.84 112.48 196.84 111.16C196.84 104.02 200.87 100.45 208.93 100.45C210.21 100.45 211.41 100.59 212.53 100.87C213.67 101.13 214.56 101.42 215.2 101.74C215.84 102.06 216.42 102.44 216.94 102.88C217.48 103.3 217.82 103.6 217.96 103.78C218.1 103.94 218.2 104.07 218.26 104.17L216.76 109.96C215.98 109.04 215 108.36 213.82 107.92C212.66 107.46 211.55 107.23 210.49 107.23C207.93 107.23 206.65 108.03 206.65 109.63C206.65 110.05 206.73 110.43 206.89 110.77C207.05 111.11 207.31 111.42 207.67 111.7C208.03 111.98 208.36 112.22 208.66 112.42C208.98 112.62 209.41 112.87 209.95 113.17C210.51 113.45 210.93 113.68 211.21 113.86C214.13 115.1 216.27 116.57 217.63 118.27C219.01 119.97 219.7 122.04 219.7 124.48C219.7 128.44 218.72 131.46 216.76 133.54C214.82 135.6 212 136.63 208.3 136.63Z" fill="#FFBE00"/>
<path d="M23.96 89H17.34V65.56H19.98C20.6867 65.56 21.7533 65.5333 23.18 65.48C24.6067 65.4133 25.78 65.38 26.7 65.38C29.2867 65.38 31.2467 66.0667 32.58 67.44C33.9133 68.8133 34.58 70.8733 34.58 73.62C34.58 75.2733 34.36 76.78 33.92 78.14C33.4933 79.4867 32.9133 80.5933 32.18 81.46C31.4467 82.3267 30.6133 82.9933 29.68 83.46C28.7467 83.9267 27.76 84.16 26.72 84.16C26.5867 84.16 26.4467 84.16 26.3 84.16C26.1667 84.16 26.04 84.16 25.92 84.16C25.8133 84.1467 25.68 84.14 25.52 84.14C25.3733 84.1267 25.2533 84.12 25.16 84.12C25.08 84.1067 24.96 84.1 24.8 84.1C24.6533 84.0867 24.5533 84.08 24.5 84.08C24.4467 84.08 24.3467 84.0733 24.2 84.06C24.0533 84.0467 23.9733 84.04 23.96 84.04V89ZM28.02 72.74C28.02 71.7533 27.7533 70.9533 27.22 70.34C26.6867 69.7267 25.92 69.42 24.92 69.42H23.96V79.82H24.7C25.7533 79.82 26.5667 79.4667 27.14 78.76C27.7267 78.0533 28.02 77.0333 28.02 75.7V72.74ZM50.27 89H36.09V65.56H49.97L49.57 70.28L42.71 70.08V74.6H48.11V79.28L42.71 78.88V84.2L50.27 84V89ZM58.6661 81.2V89H52.0261V65.56H54.6661C55.3061 65.56 56.2594 65.5333 57.5261 65.48C58.7928 65.4133 59.8394 65.38 60.6661 65.38C63.5461 65.38 65.6928 66.0133 67.1061 67.28C68.5328 68.5467 69.2461 70.4867 69.2461 73.1C69.2461 74.6467 68.9061 76.02 68.2261 77.22C67.5594 78.42 66.6728 79.3733 65.5661 80.08C66.1661 80.2267 66.6794 80.5667 67.1061 81.1C67.5461 81.6333 67.8861 82.2667 68.1261 83C68.3661 83.72 68.5728 84.4533 68.7461 85.2C68.9328 85.9333 69.1394 86.66 69.3661 87.38C69.6061 88.1 69.8661 88.64 70.1461 89H62.7661C62.6194 88.8133 62.5061 88.2933 62.4261 87.44C62.3461 86.5733 62.2328 85.54 62.0861 84.34C61.9528 83.1267 61.7594 82.1133 61.5061 81.3C61.4794 81.3 61.4461 81.3 61.4061 81.3C61.1528 81.3 60.8794 81.3 60.5861 81.3C60.3061 81.2867 60.0594 81.2733 59.8461 81.26C59.6328 81.2467 59.4061 81.2333 59.1661 81.22C58.9394 81.2067 58.7728 81.2 58.6661 81.2ZM58.6661 77.48H59.3061C59.6394 77.48 59.9194 77.4667 60.1461 77.44C60.3728 77.4133 60.6194 77.3667 60.8861 77.3C61.1661 77.22 61.3928 77.1 61.5661 76.94C61.7528 76.78 61.9261 76.5733 62.0861 76.32C62.2461 76.0667 62.3661 75.74 62.4461 75.34C62.5261 74.94 62.5661 74.4733 62.5661 73.94V72.36C62.5661 71.2 62.2594 70.3933 61.6461 69.94C61.0461 69.4733 60.1794 69.24 59.0461 69.24H58.6661V77.48ZM78.402 89.42C77.3754 89.42 76.4154 89.3267 75.522 89.14C74.642 88.9667 73.902 88.7333 73.302 88.44C72.702 88.1467 72.2087 87.8667 71.822 87.6C71.4487 87.3333 71.1354 87.0667 70.882 86.8L71.382 81.94C71.9287 82.6733 72.662 83.3133 73.582 83.86C74.502 84.3933 75.4954 84.66 76.562 84.66C77.6287 84.66 78.3954 84.5467 78.862 84.32C79.342 84.0933 79.582 83.68 79.582 83.08C79.582 82.44 79.3087 81.8933 78.762 81.44C78.2287 80.9867 77.302 80.44 75.982 79.8C75.502 79.56 75.0954 79.3467 74.762 79.16C74.4287 78.96 73.982 78.64 73.422 78.2C72.8754 77.7467 72.4287 77.28 72.082 76.8C71.7354 76.3067 71.4287 75.68 71.162 74.92C70.8954 74.1467 70.762 73.32 70.762 72.44C70.762 67.68 73.4487 65.3 78.822 65.3C79.6754 65.3 80.4754 65.3933 81.222 65.58C81.982 65.7533 82.5754 65.9467 83.002 66.16C83.4287 66.3733 83.8154 66.6267 84.162 66.92C84.522 67.2 84.7487 67.4 84.842 67.52C84.9354 67.6267 85.002 67.7133 85.042 67.78L84.042 71.64C83.522 71.0267 82.8687 70.5733 82.082 70.28C81.3087 69.9733 80.5687 69.82 79.862 69.82C78.1554 69.82 77.302 70.3533 77.302 71.42C77.302 71.7 77.3554 71.9533 77.462 72.18C77.5687 72.4067 77.742 72.6133 77.982 72.8C78.222 72.9867 78.442 73.1467 78.642 73.28C78.8554 73.4133 79.142 73.58 79.502 73.78C79.8754 73.9667 80.1554 74.12 80.342 74.24C82.2887 75.0667 83.7154 76.0467 84.622 77.18C85.542 78.3133 86.002 79.6933 86.002 81.32C86.002 83.96 85.3487 85.9733 84.042 87.36C82.7487 88.7333 80.8687 89.42 78.402 89.42ZM94.9012 79.94C94.9012 82.1533 95.0679 83.6933 95.4013 84.56C95.7479 85.4267 96.3479 85.86 97.2013 85.86C97.8279 85.86 98.3013 85.7067 98.6213 85.4C98.9413 85.08 99.1813 84.4333 99.3412 83.46C99.5146 82.4733 99.6012 81 99.6012 79.04V74.22C99.6012 72.3133 99.4146 70.8933 99.0413 69.96C98.6679 69.0267 98.0546 68.56 97.2013 68.56C96.3479 68.56 95.7479 69.02 95.4013 69.94C95.0679 70.8467 94.9012 72.5067 94.9012 74.92V79.94ZM96.7813 89.42C95.6746 89.42 94.6746 89.32 93.7813 89.12C92.9013 88.92 92.1412 88.64 91.5012 88.28C90.8613 87.92 90.3013 87.46 89.8213 86.9C89.3546 86.34 88.9746 85.74 88.6812 85.1C88.4013 84.46 88.1746 83.7133 88.0012 82.86C87.8279 81.9933 87.7079 81.1333 87.6412 80.28C87.5746 79.4133 87.5413 78.44 87.5413 77.36C87.5413 75.76 87.6212 74.3667 87.7812 73.18C87.9546 71.9933 88.2679 70.88 88.7212 69.84C89.1746 68.7867 89.7746 67.9333 90.5213 67.28C91.2812 66.6267 92.2546 66.1133 93.4413 65.74C94.6413 65.3667 96.0546 65.18 97.6812 65.18C98.8012 65.18 99.8079 65.2867 100.701 65.5C101.595 65.7 102.361 65.98 103.001 66.34C103.641 66.7 104.195 67.1667 104.661 67.74C105.141 68.3133 105.521 68.9267 105.801 69.58C106.095 70.22 106.328 70.9733 106.501 71.84C106.675 72.7067 106.795 73.5667 106.861 74.42C106.928 75.2733 106.961 76.24 106.961 77.32C106.961 78.92 106.875 80.3133 106.701 81.5C106.528 82.6867 106.215 83.8 105.761 84.84C105.308 85.8667 104.701 86.7067 103.941 87.36C103.181 88 102.201 88.5067 101.001 88.88C99.8146 89.24 98.4079 89.42 96.7813 89.42ZM115.399 89H109.039V67.44L108.059 65.56H115.419L119.099 73.16L122.619 80.74L121.639 71.84V65.56H128.019V89H121.919L117.159 79.74L114.219 73.94L115.399 81.62V89ZM142.219 89L141.319 85.26H135.639L134.879 89H128.999L135.099 67.18L134.619 65.56H142.879L149.559 89H142.219ZM138.219 72.44L136.459 81.18H140.339L138.219 72.44ZM150.348 89V65.56H156.968V83.64H162.928V89H150.348Z" fill="#FFBE00"/>
</svg>
