<svg width="146" height="149" viewBox="0 0 146 149" fill="none" xmlns="http://www.w3.org/2000/svg">
<path d="M98.013 65.333L90.275 60.863L86.351 63.119C87.622 63.501 88.844 64.195 89.894 65.062L90.276 64.837L97.792 69.176L98.013 65.333Z" fill="#FFBE00"/>
<path d="M99.284 66.066L99.062 69.912L99.994 70.45L99.876 66.414L99.284 66.066Z" fill="#FFBE00"/>
<path d="M108.358 71.311L101.212 67.181L101.327 71.113L101.331 71.22L104.236 72.896L105.446 73.595V73.817C105.484 73.805 105.538 73.79 105.576 73.763C106.179 73.515 106.784 73.278 107.362 73.068C107.362 73.056 107.375 73.056 107.375 73.056C107.873 72.873 108.373 72.689 108.843 72.529H108.883V71.613L108.358 71.311Z" fill="#FFBE00"/>
<path d="M98.612 95.055L98.49 95.126L98.669 95.21L98.612 95.055Z" fill="#FFBE00"/>
<path d="M100.696 97.819L99.727 94.578L99.685 94.437L98.643 95.036L98.879 95.307L98.669 95.21L99.822 98.325L100.696 97.819Z" fill="#FFBE00"/>
<path d="M100.916 93.979L100.983 94.2L101.869 97.147L108.883 93.093V90.573C108.515 90.667 108.122 90.729 107.728 90.768C107.216 90.833 106.694 90.863 106.163 90.863C105.968 90.863 105.789 90.863 105.59 90.848C105.536 90.848 105.494 90.848 105.445 90.833V91.11L103.857 92.032L100.853 93.765L100.916 93.979Z" fill="#FFBE00"/>
<path d="M72.301 71.243L75.109 73.591L75.853 73.175C75.446 72.4 75.275 71.637 75.275 71.033C75.275 70.51 75.422 69.907 75.682 69.288L72.301 71.243Z" fill="#FFBE00"/>
<path d="M75.105 75.298L71.667 72.424V74.182L74.312 76.816C74.535 76.343 74.793 75.892 75.104 75.48L75.105 75.298Z" fill="#FFBE00"/>
<path d="M71.667 76.03V77.481C72.047 77.645 72.415 77.817 72.793 77.977C72.953 78.042 73.11 78.11 73.268 78.172C73.344 78.214 73.424 78.252 73.503 78.279C73.583 78.321 73.661 78.355 73.74 78.382V78.371C73.755 78.298 73.788 78.237 73.809 78.167L71.667 76.03Z" fill="#FFBE00"/>
<path d="M69.789 69.949L69.555 65.833L68.999 65.513L68.886 69.426L69.789 69.949Z" fill="#FFBE00"/>
<path d="M70.352 27.292L51.741 38.035V59.523L67.594 68.677L67.709 64.768L55.186 57.534V40.022L70.352 31.269L85.514 40.022V57.534L70.878 65.989L71.096 69.839L78.162 65.76C79.49 64.474 81.155 63.42 82.911 63.015L88.962 59.522V38.035L70.352 27.292Z" fill="#FFBE00"/>
<path d="M69.043 89.837C68.489 90.007 67.902 90.165 67.283 90.31C66.916 90.39 66.55 90.467 66.168 90.531C66.168 90.531 66.168 90.531 66.153 90.531C65.972 90.573 65.786 90.6 65.588 90.611V91.109L63.807 92.134C65.657 92.031 67.493 91.661 69.043 91.205V89.837Z" fill="#FFBE00"/>
<path d="M63.901 93.442C63.502 93.469 63.09 93.486 62.691 93.486C62.304 93.486 61.958 93.44 61.592 93.415L50.434 99.864L35.264 91.109V73.593L50.434 64.836L58.141 69.287C59.8 69.642 61.79 70.306 64.277 71.325L64.361 71.359L64.363 71.363C65.865 71.985 67.409 72.676 69.035 73.409L68.075 72.455L67.903 72.279L67.504 71.884L67.517 71.321L67.523 71.115L67.535 70.737L50.433 60.862L31.814 71.612V93.092L50.433 103.838L69.042 93.092V92.561C67.768 92.921 65.955 93.326 63.901 93.442Z" fill="#FFBE00"/>
<path d="M75.105 78.381V78.948C75.067 78.934 75.027 78.919 74.973 78.892C75.013 78.721 75.052 78.553 75.105 78.381Z" fill="#784600"/>
<path d="M74.345 85.508C73.452 85.731 72.547 85.951 71.667 86.149V84.809C72.415 84.628 73.188 84.444 73.95 84.263C74.055 84.68 74.187 85.103 74.345 85.508Z" fill="#784600"/>
<path d="M108.883 85.309V86.649C107.675 86.848 106.494 86.962 105.445 87.017V85.704C105.575 85.691 105.707 85.691 105.85 85.679C106.01 85.679 106.178 85.664 106.35 85.641C106.694 85.61 107.032 85.574 107.375 85.534C107.728 85.494 108.068 85.442 108.423 85.389C108.579 85.363 108.739 85.34 108.883 85.309Z" fill="#784600"/>
<path d="M65.588 85.731V85.744C65.905 85.731 66.193 85.717 66.454 85.691C66.182 85.718 65.892 85.731 65.588 85.731Z" fill="#784600"/>
<path d="M92.554 76.299L99.158 70.773L98.994 71.145L99.471 62.842V62.789L99.498 62.753L102.037 59.549L99.746 62.937L99.7771 62.849L100.017 71.159L100.021 71.354L99.849 71.53L93.743 77.607C93.398 77.951 92.837 77.951 92.493 77.603C92.149 77.256 92.153 76.698 92.497 76.353C92.512 76.335 92.535 76.316 92.554 76.299Z" fill="#784600"/>
<path d="M84.425 116.446C85.118 116.446 88.34 113.405 90.869 108.968H77.985C80.516 113.405 83.73 116.446 84.425 116.446Z" fill="#784600"/>
<path d="M84.425 84.05C81.698 84.05 78.041 86.283 76.113 90.914H92.745C90.813 86.283 87.153 84.05 84.425 84.05Z" fill="#784600"/>
<path d="M94.071 97.445H74.782C74.767 97.67 74.767 97.897 74.767 98.124C74.767 99.586 74.967 101.035 75.313 102.434H93.543C93.887 101.035 94.085 99.586 94.085 98.124C94.085 97.897 94.085 97.67 94.071 97.445Z" fill="#784600"/>
<path d="M87.313 66.261H86.607C86.607 59.898 94.562 54.863 94.898 54.653L95.274 55.254C95.194 55.303 87.313 60.291 87.313 66.261Z" fill="#784600"/>
<path d="M92.585 83.656C92.925 83.748 93.28 83.843 93.635 83.935C93.528 84.355 93.398 84.775 93.238 85.179C92.035 84.864 90.892 84.549 89.867 84.263C90.772 84.904 91.783 85.586 92.795 86.242C92.612 86.648 92.402 87.026 92.177 87.41C90.287 90.676 87.272 93.117 84.424 93.117C81.576 93.117 78.557 90.676 76.667 87.41C76.444 87.026 76.234 86.648 76.051 86.242C77.063 85.585 78.072 84.904 78.977 84.263C77.967 84.549 76.799 84.877 75.606 85.193C75.447 84.775 75.316 84.355 75.211 83.935C78.477 83.08 81.431 82.202 82.245 81.95H82.258C82.401 81.832 82.481 81.782 82.481 81.782V80.927C81.42 80.927 80.147 80.677 78.729 80.245C77.601 79.919 76.38 79.457 75.106 78.947C75.068 78.933 75.028 78.918 74.974 78.891C74.974 78.907 74.961 78.918 74.961 78.933V78.891C75.001 78.719 75.039 78.551 75.106 78.38C75.171 78.117 75.261 77.87 75.367 77.632C76.825 74.208 80.734 73.093 84.424 73.093C88.123 73.093 92.036 74.208 93.49 77.632C93.65 78.025 93.792 78.445 93.883 78.892C92.558 79.43 91.287 79.904 90.119 80.245H90.104C89.501 80.426 88.911 80.587 88.373 80.69C88.136 80.743 87.915 80.783 87.692 80.823C87.612 80.834 87.547 80.834 87.48 80.85C87.321 80.86 87.178 80.89 87.049 80.9C86.81 80.915 86.589 80.927 86.368 80.927V81.782C86.368 81.782 86.431 81.82 86.551 81.927C86.562 81.936 86.562 81.936 86.574 81.936L86.589 81.949H86.602C86.615 81.964 86.627 81.964 86.64 81.964C86.798 82.002 87.008 82.067 87.256 82.147C87.926 82.343 88.951 82.647 90.169 82.987C90.486 83.079 90.799 83.168 91.127 83.249C91.39 83.331 91.665 83.404 91.955 83.488C92.161 83.542 92.375 83.603 92.585 83.656Z" fill="#784600"/>
<path d="M65.588 90.612C65.786 90.601 65.972 90.574 66.153 90.532C65.972 90.574 65.775 90.601 65.588 90.627C65.393 90.652 65.21 90.677 65.015 90.703C65.21 90.677 65.394 90.652 65.588 90.612Z" fill="#784600"/>
<path d="M82.243 81.95C82.033 82.11 81.665 82.37 81.209 82.702C81.01 82.843 80.8 82.988 80.564 83.16C80.091 83.488 79.552 83.87 78.976 84.263C77.966 84.549 76.798 84.877 75.605 85.193L74.345 85.508C73.452 85.731 72.547 85.951 71.667 86.149C70.747 86.346 69.869 86.531 69.042 86.676C68.124 86.832 67.282 86.951 66.561 87.004C66.244 87.027 65.931 87.046 65.588 87.054C65.367 87.069 65.143 87.069 64.92 87.069C62.429 87.069 58.753 86.676 55.51 85.521C55.51 85.508 55.51 85.508 55.51 85.494C55.51 85.339 55.525 85.179 55.552 85.036C55.552 85.019 55.552 85.007 55.552 85.007C55.579 84.851 55.617 84.694 55.657 84.536C55.657 84.509 55.67 84.498 55.682 84.473C55.697 84.389 55.72 84.301 55.762 84.221C55.919 84.286 56.09 84.339 56.251 84.389C56.419 84.444 56.575 84.498 56.747 84.549C57.427 84.774 58.125 84.956 58.831 85.103C59.016 85.141 59.201 85.179 59.369 85.206C59.713 85.271 60.064 85.34 60.421 85.389C60.593 85.431 60.763 85.454 60.944 85.465C61.116 85.494 61.301 85.52 61.471 85.534C61.811 85.574 62.153 85.61 62.494 85.641C63.609 85.731 64.658 85.771 65.588 85.731C65.891 85.731 66.182 85.717 66.454 85.691C67.193 85.641 68.069 85.508 69.042 85.34C69.868 85.193 70.746 85.008 71.667 84.809C72.415 84.628 73.188 84.444 73.95 84.263C74.37 84.156 74.792 84.038 75.21 83.935C78.476 83.08 81.43 82.202 82.243 81.95Z" fill="#784600"/>
<path d="M83.791 81.546L83.726 81.347L83.463 80.622L83.11 79.618L83.03 79.381L82.373 79.618L81.796 79.815C81.09 80.061 80.052 80.206 78.727 80.246C80.145 80.677 81.418 80.928 82.479 80.928V81.783C82.479 81.783 82.399 81.832 82.256 81.951H82.243C82.033 82.111 81.665 82.371 81.209 82.703C81.01 82.844 80.8 82.989 80.564 83.161C80.091 83.489 79.552 83.871 78.976 84.264C78.071 84.905 77.062 85.587 76.05 86.243C75.682 86.48 75.327 86.716 74.96 86.938C73.765 87.688 72.612 88.368 71.668 88.826C71.471 88.931 71.273 89.013 71.103 89.091C70.853 89.196 70.5781 89.314 70.2901 89.417C69.8951 89.564 69.491 89.705 69.044 89.837C68.49 90.007 67.903 90.165 67.284 90.31C66.917 90.39 66.551 90.467 66.169 90.531C66.169 90.531 66.169 90.531 66.154 90.531C65.973 90.573 65.787 90.6 65.589 90.611C65.394 90.651 65.211 90.676 65.016 90.703C65.016 90.703 65.0161 90.703 65.0011 90.703C64.6211 90.758 64.226 90.795 63.844 90.821C63.466 90.848 63.0711 90.863 62.6911 90.863C60.5651 90.863 58.584 90.43 57.282 89.271C57.049 89.061 56.852 88.855 56.679 88.641C56.484 88.422 56.314 88.194 56.181 87.96C55.986 87.674 55.839 87.355 55.748 87.053C55.567 86.541 55.489 86.018 55.511 85.52C55.511 85.507 55.511 85.507 55.511 85.493C55.511 85.338 55.5261 85.178 55.5531 85.035C55.5531 85.018 55.5531 85.006 55.5531 85.006C55.5801 84.85 55.618 84.693 55.658 84.535C55.658 84.508 55.671 84.497 55.683 84.472C55.698 84.388 55.721 84.3 55.763 84.22V84.207C55.763 84.207 55.763 84.207 55.748 84.207C55.527 84.129 55.29 84.048 55.08 83.942C54.897 83.879 54.713 83.801 54.542 83.707C54.386 84.129 54.281 84.564 54.241 85.007C54.23 85.036 54.23 85.047 54.23 85.074C54.031 86.977 54.806 88.815 56.406 90.256C57.838 91.531 59.95 92.172 62.693 92.172C63.061 92.172 63.441 92.159 63.81 92.134C65.66 92.031 67.496 91.661 69.046 91.205C70.056 90.928 70.936 90.6 71.63 90.298C71.643 90.298 71.657 90.283 71.67 90.283C72.626 89.852 73.834 89.18 75.108 88.391C75.621 88.08 76.144 87.752 76.669 87.41C79.307 85.704 81.8911 83.843 82.8761 83.117H82.89C83.1 82.961 83.232 82.865 83.272 82.842L83.795 82.449L84.045 82.264L83.791 81.546Z" fill="#784600"/>
<path d="M74.973 78.892C74.973 78.908 74.96 78.919 74.96 78.934V78.892C74.973 78.892 74.973 78.892 74.973 78.892Z" fill="#784600"/>
<path d="M82.257 81.95C82.4 81.832 82.48 81.782 82.48 81.782V81.873C82.48 81.873 82.4 81.901 82.257 81.95Z" fill="#784600"/>
<path d="M75.179 54.95C75.179 55.733 74.545 56.366 73.765 56.366C72.986 56.366 72.353 55.732 72.353 54.95C72.353 54.171 72.987 53.54 73.765 53.54C74.546 53.54 75.179 54.171 75.179 54.95Z" fill="#784600"/>
<path d="M93.672 54.95C93.672 55.733 94.306 56.366 95.086 56.366C95.867 56.366 96.501 55.732 96.501 54.95C96.501 54.171 95.867 53.54 95.086 53.54C94.306 53.54 93.672 54.171 93.672 54.95Z" fill="#784600"/>
<path d="M105.445 90.833C105.495 90.848 105.537 90.848 105.59 90.848H105.445V90.833Z" fill="#784600"/>
<path d="M113.332 85.495C113.332 85.508 113.332 85.508 113.332 85.522C111.889 86.034 110.351 86.4 108.883 86.65C107.675 86.849 106.494 86.963 105.445 87.018C104.907 87.054 104.407 87.069 103.937 87.069C103.357 87.069 102.807 87.046 102.295 87.004C100.035 86.848 96.466 86.019 93.237 85.179C92.034 84.864 90.891 84.549 89.866 84.263C89.29 83.87 88.751 83.488 88.278 83.16C88.041 82.988 87.833 82.843 87.637 82.702C87.177 82.37 86.809 82.11 86.601 81.95C86.614 81.965 86.626 81.965 86.639 81.965C86.797 82.003 87.007 82.068 87.255 82.148C87.925 82.344 88.95 82.648 90.168 82.988C90.485 83.08 90.798 83.169 91.126 83.25C91.389 83.332 91.664 83.405 91.954 83.489C92.16 83.542 92.374 83.604 92.584 83.657C92.924 83.749 93.279 83.844 93.634 83.936C94.027 84.039 94.42 84.131 94.829 84.238C95.22 84.341 95.627 84.433 96.02 84.524C96.65 84.669 97.257 84.81 97.86 84.948C98.097 84.998 98.331 85.049 98.57 85.105C98.883 85.168 99.198 85.219 99.498 85.286C99.578 85.299 99.658 85.311 99.736 85.324C100.036 85.379 100.326 85.433 100.601 85.467C100.746 85.496 100.876 85.522 101.007 85.536C101.154 85.547 101.284 85.576 101.413 85.587C101.535 85.601 101.638 85.612 101.757 85.627C101.978 85.65 102.188 85.68 102.387 85.692C102.979 85.732 103.658 85.757 104.395 85.745C104.552 85.757 104.712 85.745 104.88 85.732C105.063 85.718 105.25 85.718 105.445 85.705C105.575 85.692 105.707 85.692 105.85 85.68C106.01 85.68 106.178 85.665 106.35 85.642C106.694 85.611 107.032 85.575 107.375 85.535C107.728 85.495 108.068 85.443 108.423 85.39C108.58 85.363 108.74 85.34 108.883 85.31C109.08 85.285 109.29 85.245 109.484 85.207C109.843 85.142 110.182 85.075 110.537 84.984C110.888 84.906 111.245 84.81 111.587 84.707C111.927 84.616 112.267 84.511 112.61 84.39C112.766 84.34 112.936 84.287 113.095 84.222C113.095 84.237 113.095 84.237 113.106 84.247C113.106 84.264 113.121 84.272 113.121 84.287V84.302C113.148 84.378 113.159 84.459 113.188 84.537C113.197 84.566 113.197 84.577 113.197 84.604C113.239 84.734 113.264 84.852 113.277 84.984C113.292 84.998 113.292 85.02 113.292 85.037C113.32 85.18 113.332 85.34 113.332 85.495Z" fill="#784600"/>
<path d="M114.63 85.075C114.63 85.048 114.63 85.02 114.619 84.997C114.564 84.566 114.462 84.13 114.302 83.709C114.146 83.789 113.974 83.871 113.804 83.936C113.581 84.039 113.344 84.131 113.107 84.209H113.096V84.222C113.096 84.237 113.096 84.237 113.107 84.247C113.107 84.264 113.122 84.272 113.122 84.287V84.302C113.149 84.378 113.16 84.459 113.189 84.537C113.198 84.566 113.198 84.577 113.198 84.604C113.24 84.734 113.265 84.852 113.278 84.984C113.293 84.998 113.293 85.02 113.293 85.037C113.319 85.18 113.331 85.341 113.331 85.495C113.331 85.508 113.331 85.508 113.331 85.522C113.358 85.705 113.343 85.902 113.319 86.097C113.304 86.244 113.277 86.376 113.251 86.521C113.239 86.572 113.228 86.636 113.213 86.689C113.213 86.704 113.213 86.704 113.213 86.718C113.198 86.754 113.188 86.81 113.173 86.861C113.148 86.939 113.122 87.02 113.095 87.098C113.042 87.228 112.988 87.357 112.923 87.503C112.847 87.659 112.766 87.82 112.675 87.963C112.61 88.083 112.53 88.198 112.45 88.305C112.414 88.358 112.374 88.425 112.322 88.477C112.267 88.542 112.217 88.592 112.175 88.645C112.007 88.859 111.797 89.065 111.574 89.275C111.389 89.435 111.19 89.579 110.984 89.722C110.946 89.749 110.904 89.764 110.866 89.791C110.784 89.831 110.707 89.882 110.618 89.932C110.538 89.986 110.446 90.028 110.351 90.066C110.236 90.133 110.103 90.184 109.973 90.234C109.87 90.276 109.748 90.314 109.645 90.352C109.393 90.443 109.145 90.512 108.883 90.577C108.515 90.671 108.122 90.733 107.728 90.772C107.216 90.837 106.694 90.867 106.163 90.867C105.968 90.867 105.789 90.867 105.59 90.852C105.536 90.852 105.494 90.852 105.445 90.837C105.209 90.826 104.972 90.814 104.735 90.799C104.422 90.772 104.094 90.746 103.777 90.696C103.607 90.681 103.437 90.656 103.265 90.631C102.872 90.578 102.49 90.498 102.124 90.435C101.769 90.353 101.414 90.277 101.086 90.196C100.708 90.106 100.326 90.001 99.971 89.896C99.799 89.841 99.631 89.791 99.471 89.737C99.301 89.699 99.147 89.645 99.002 89.579C98.845 89.527 98.7 89.472 98.555 89.42C98.265 89.317 97.99 89.199 97.742 89.094C97.517 89.001 97.269 88.882 97.021 88.754C96.862 88.672 96.704 88.592 96.536 88.502C96.192 88.321 95.826 88.126 95.459 87.897C94.604 87.414 93.699 86.836 92.795 86.246C91.783 85.589 90.772 84.908 89.867 84.267C89.291 83.874 88.752 83.492 88.279 83.164C88.042 82.992 87.834 82.847 87.638 82.706C87.178 82.374 86.81 82.114 86.602 81.954H86.589L86.574 81.941C86.562 81.941 86.562 81.941 86.551 81.932C86.431 81.825 86.368 81.787 86.368 81.787V80.932C86.589 80.932 86.811 80.92 87.049 80.905C87.179 80.895 87.322 80.865 87.48 80.855C87.547 80.84 87.612 80.84 87.692 80.828C87.915 80.788 88.137 80.748 88.373 80.695C88.911 80.592 89.501 80.431 90.104 80.25C88.779 80.21 87.768 80.065 87.06 79.819L86.484 79.622L85.829 79.385L85.749 79.622L85.394 80.618L85.133 81.351L85.055 81.588L84.816 82.269L85.055 82.439L85.593 82.847C85.631 82.87 85.749 82.966 85.959 83.109L85.984 83.122C86.955 83.847 89.542 85.708 92.178 87.415C94.016 88.61 95.881 89.709 97.221 90.303C98.765 90.973 101.233 91.733 103.859 92.036C104.623 92.128 105.394 92.177 106.165 92.177C107.154 92.177 108.058 92.101 108.885 91.914C110.342 91.626 111.521 91.074 112.441 90.261C114.053 88.816 114.828 86.978 114.63 85.075Z" fill="#784600"/>
<path d="M86.549 81.927C86.429 81.9 86.366 81.873 86.366 81.873V81.782C86.366 81.782 86.429 81.821 86.549 81.927Z" fill="#784600"/>
<path d="M92.585 83.656C92.375 83.603 92.161 83.541 91.955 83.488C91.665 83.404 91.39 83.331 91.127 83.249C90.799 83.169 90.486 83.079 90.169 82.987C88.951 82.647 87.926 82.344 87.256 82.147C87.008 82.067 86.798 82.002 86.64 81.964C86.627 81.964 86.615 81.964 86.602 81.949C86.81 82.109 87.179 82.369 87.638 82.701C87.835 82.842 88.043 82.987 88.279 83.159C88.752 83.487 89.291 83.869 89.867 84.262C90.892 84.548 92.035 84.863 93.238 85.178C93.398 84.773 93.528 84.354 93.635 83.934C93.279 83.844 92.924 83.748 92.585 83.656ZM104.88 85.731C104.712 85.744 104.552 85.756 104.395 85.744C104.235 85.756 104.082 85.756 103.937 85.756C103.372 85.756 102.86 85.731 102.387 85.691C102.188 85.68 101.978 85.649 101.757 85.626C101.639 85.611 101.536 85.599 101.413 85.586C101.283 85.575 101.154 85.546 101.007 85.535C100.876 85.522 100.746 85.495 100.601 85.466C100.326 85.432 100.036 85.378 99.736 85.323C99.658 85.309 99.578 85.298 99.498 85.285C99.198 85.218 98.883 85.167 98.57 85.104C98.331 85.049 98.097 84.997 97.86 84.947C97.257 84.81 96.65 84.668 96.02 84.523C95.627 84.431 95.22 84.34 94.829 84.237C94.42 84.13 94.027 84.039 93.634 83.935C93.279 83.843 92.924 83.748 92.584 83.656C92.374 83.603 92.161 83.541 91.955 83.488C91.665 83.404 91.39 83.331 91.127 83.249C90.799 83.169 90.486 83.079 90.169 82.987C88.951 82.647 87.926 82.344 87.256 82.147C87.008 82.067 86.798 82.002 86.64 81.964C86.627 81.964 86.615 81.964 86.602 81.949C86.81 82.109 87.179 82.369 87.638 82.701C87.835 82.842 88.043 82.987 88.279 83.159C88.752 83.487 89.291 83.869 89.867 84.262C90.892 84.548 92.034 84.863 93.237 85.178C96.466 86.018 100.036 86.846 102.295 87.003C102.807 87.045 103.356 87.068 103.937 87.068C104.406 87.068 104.907 87.053 105.445 87.017V85.717C105.25 85.731 105.063 85.731 104.88 85.731ZM104.88 85.731C104.712 85.744 104.552 85.756 104.395 85.744C104.235 85.756 104.082 85.756 103.937 85.756C103.372 85.756 102.86 85.731 102.387 85.691C102.188 85.68 101.978 85.649 101.757 85.626C101.639 85.611 101.536 85.599 101.413 85.586C101.283 85.575 101.154 85.546 101.007 85.535C100.876 85.522 100.746 85.495 100.601 85.466C100.326 85.432 100.036 85.378 99.736 85.323C99.658 85.309 99.578 85.298 99.498 85.285C99.198 85.218 98.883 85.167 98.57 85.104C98.331 85.049 98.097 84.997 97.86 84.947C97.257 84.81 96.65 84.668 96.02 84.523C95.627 84.431 95.22 84.34 94.829 84.237C94.42 84.13 94.027 84.039 93.634 83.935C93.279 83.843 92.924 83.748 92.584 83.656C92.374 83.603 92.161 83.541 91.955 83.488C91.665 83.404 91.39 83.331 91.127 83.249C90.799 83.169 90.486 83.079 90.169 82.987C88.951 82.647 87.926 82.344 87.256 82.147C87.008 82.067 86.798 82.002 86.64 81.964C86.627 81.964 86.615 81.964 86.602 81.949C86.81 82.109 87.179 82.369 87.638 82.701C87.835 82.842 88.043 82.987 88.279 83.159C88.752 83.487 89.291 83.869 89.867 84.262C90.892 84.548 92.034 84.863 93.237 85.178C96.466 86.018 100.036 86.846 102.295 87.003C102.807 87.045 103.356 87.068 103.937 87.068C104.406 87.068 104.907 87.053 105.445 87.017V85.717C105.25 85.731 105.063 85.731 104.88 85.731ZM104.88 85.731C104.712 85.744 104.552 85.756 104.395 85.744C104.235 85.756 104.082 85.756 103.937 85.756C103.372 85.756 102.86 85.731 102.387 85.691C102.188 85.68 101.978 85.649 101.757 85.626C101.639 85.611 101.536 85.599 101.413 85.586C101.283 85.575 101.154 85.546 101.007 85.535C100.876 85.522 100.746 85.495 100.601 85.466C100.326 85.432 100.036 85.378 99.736 85.323C99.658 85.309 99.578 85.298 99.498 85.285C99.198 85.218 98.883 85.167 98.57 85.104C98.331 85.049 98.097 84.997 97.86 84.947C97.257 84.81 96.65 84.668 96.02 84.523C95.627 84.431 95.22 84.34 94.829 84.237C94.42 84.13 94.027 84.039 93.634 83.935C93.279 83.843 92.924 83.748 92.584 83.656C92.374 83.603 92.161 83.541 91.955 83.488C91.665 83.404 91.39 83.331 91.127 83.249C90.799 83.169 90.486 83.079 90.169 82.987C88.951 82.647 87.926 82.344 87.256 82.147C87.008 82.067 86.798 82.002 86.64 81.964C86.627 81.964 86.615 81.964 86.602 81.949C86.81 82.109 87.179 82.369 87.638 82.701C87.835 82.842 88.043 82.987 88.279 83.159C88.752 83.487 89.291 83.869 89.867 84.262C90.892 84.548 92.034 84.863 93.237 85.178C96.466 86.018 100.036 86.846 102.295 87.003C102.807 87.045 103.356 87.068 103.937 87.068C104.406 87.068 104.907 87.053 105.445 87.017V85.717C105.25 85.731 105.063 85.731 104.88 85.731ZM104.88 85.731C104.712 85.744 104.552 85.756 104.395 85.744C104.235 85.756 104.082 85.756 103.937 85.756C103.372 85.756 102.86 85.731 102.387 85.691C102.188 85.68 101.978 85.649 101.757 85.626C101.639 85.611 101.536 85.599 101.413 85.586C101.283 85.575 101.154 85.546 101.007 85.535C100.876 85.522 100.746 85.495 100.601 85.466C100.326 85.432 100.036 85.378 99.736 85.323C99.658 85.309 99.578 85.298 99.498 85.285C99.198 85.218 98.883 85.167 98.57 85.104C98.331 85.049 98.097 84.997 97.86 84.947C97.257 84.81 96.65 84.668 96.02 84.523C95.627 84.431 95.22 84.34 94.829 84.237C94.42 84.13 94.027 84.039 93.634 83.935C93.279 83.843 92.924 83.748 92.584 83.656C92.374 83.603 92.161 83.541 91.955 83.488C91.665 83.404 91.39 83.331 91.127 83.249C90.799 83.169 90.486 83.079 90.169 82.987C88.951 82.647 87.926 82.344 87.256 82.147C87.008 82.067 86.798 82.002 86.64 81.964C86.627 81.964 86.615 81.964 86.602 81.949C86.81 82.109 87.179 82.369 87.638 82.701C87.835 82.842 88.043 82.987 88.279 83.159C88.752 83.487 89.291 83.869 89.867 84.262C90.892 84.548 92.034 84.863 93.237 85.178C96.466 86.018 100.036 86.846 102.295 87.003C102.807 87.045 103.356 87.068 103.937 87.068C104.406 87.068 104.907 87.053 105.445 87.017V85.717C105.25 85.731 105.063 85.731 104.88 85.731ZM104.88 85.731C104.712 85.744 104.552 85.756 104.395 85.744C104.235 85.756 104.082 85.756 103.937 85.756C103.372 85.756 102.86 85.731 102.387 85.691C102.188 85.68 101.978 85.649 101.757 85.626C101.639 85.611 101.536 85.599 101.413 85.586C101.283 85.575 101.154 85.546 101.007 85.535C100.876 85.522 100.746 85.495 100.601 85.466C100.326 85.432 100.036 85.378 99.736 85.323C99.658 85.309 99.578 85.298 99.498 85.285C99.198 85.218 98.883 85.167 98.57 85.104C98.331 85.049 98.097 84.997 97.86 84.947C97.257 84.81 96.65 84.668 96.02 84.523C95.627 84.431 95.22 84.34 94.829 84.237C94.42 84.13 94.027 84.039 93.634 83.935C93.279 83.843 92.924 83.748 92.584 83.656C92.374 83.603 92.161 83.541 91.955 83.488C91.665 83.404 91.39 83.331 91.127 83.249C90.799 83.169 90.486 83.079 90.169 82.987C88.951 82.647 87.926 82.344 87.256 82.147C87.008 82.067 86.798 82.002 86.64 81.964C86.627 81.964 86.615 81.964 86.602 81.949C86.81 82.109 87.179 82.369 87.638 82.701C87.835 82.842 88.043 82.987 88.279 83.159C88.752 83.487 89.291 83.869 89.867 84.262C90.892 84.548 92.034 84.863 93.237 85.178C96.466 86.018 100.036 86.846 102.295 87.003C102.807 87.045 103.356 87.068 103.937 87.068C104.406 87.068 104.907 87.053 105.445 87.017V85.717C105.25 85.731 105.063 85.731 104.88 85.731ZM119.92 74.403C118.947 72.361 116.885 70.822 114.526 70.391C114.171 70.324 113.778 70.284 113.369 70.284C111.949 70.284 110.245 70.681 108.357 71.311C107.071 71.742 105.681 72.281 104.234 72.895C102.677 73.554 101.046 74.3 99.382 75.048C97.399 75.957 95.378 76.857 93.488 77.632C90.732 78.762 88.239 79.575 86.481 79.617H85.052V82.829L85.956 83.104L85.981 83.117C86.139 83.169 87.714 83.655 89.865 84.262C90.89 84.548 92.034 84.863 93.237 85.178C96.466 86.018 100.036 86.846 102.295 87.003C102.807 87.045 103.356 87.068 103.937 87.068C104.406 87.068 104.907 87.053 105.445 87.017C106.493 86.961 107.673 86.847 108.882 86.649C110.35 86.399 111.888 86.032 113.331 85.521C113.762 85.363 114.194 85.193 114.617 84.996C116.715 84.076 118.513 82.767 119.497 80.965C120.734 78.747 120.875 76.427 119.92 74.403ZM118.355 80.335C118.214 80.587 118.053 80.824 117.87 81.06C117.792 81.159 117.715 81.268 117.61 81.373C117.545 81.464 117.45 81.556 117.358 81.648C117.228 81.793 117.098 81.927 116.953 82.041C116.73 82.255 116.48 82.434 116.232 82.621C116.232 82.621 116.217 82.621 116.217 82.631C115.969 82.803 115.694 82.988 115.417 83.144C115.064 83.354 114.682 83.541 114.3 83.707C114.144 83.787 113.972 83.869 113.802 83.934C113.579 84.037 113.342 84.129 113.105 84.207L113.094 84.22C112.936 84.285 112.766 84.338 112.609 84.388C112.265 84.508 111.926 84.613 111.586 84.705C111.244 84.808 110.887 84.904 110.536 84.982C110.181 85.074 109.841 85.141 109.483 85.205C109.273 85.257 109.078 85.283 108.882 85.322C108.724 85.347 108.579 85.377 108.422 85.389C108.067 85.454 107.716 85.507 107.374 85.534C107.031 85.585 106.693 85.626 106.349 85.641C106.177 85.664 106.009 85.679 105.849 85.679C105.706 85.69 105.575 85.704 105.445 85.717C105.25 85.731 105.063 85.731 104.88 85.731C104.712 85.744 104.551 85.756 104.394 85.744C104.234 85.756 104.082 85.756 103.937 85.756C103.372 85.756 102.859 85.731 102.386 85.691C102.187 85.68 101.977 85.649 101.756 85.626C101.638 85.611 101.535 85.599 101.412 85.586C101.282 85.575 101.153 85.546 101.006 85.535C100.875 85.522 100.746 85.495 100.601 85.466C100.326 85.432 100.035 85.378 99.735 85.323C99.657 85.309 99.578 85.298 99.498 85.285C99.198 85.218 98.883 85.167 98.57 85.104C98.331 85.049 98.097 84.997 97.86 84.947C97.257 84.81 96.649 84.668 96.019 84.523C95.626 84.431 95.219 84.34 94.828 84.237C94.419 84.13 94.026 84.039 93.633 83.935C93.278 83.843 92.924 83.748 92.584 83.656C92.374 83.603 92.159 83.541 91.953 83.488C91.663 83.404 91.388 83.331 91.125 83.249C90.797 83.169 90.484 83.079 90.167 82.987C88.949 82.647 87.924 82.344 87.254 82.147C87.006 82.067 86.796 82.002 86.638 81.964C86.625 81.964 86.613 81.964 86.6 81.949H86.587L86.572 81.936C86.56 81.936 86.56 81.936 86.549 81.927C86.429 81.9 86.366 81.873 86.366 81.873V80.926C86.587 80.926 86.809 80.914 87.047 80.899C87.177 80.889 87.32 80.859 87.478 80.849C87.545 80.834 87.61 80.834 87.69 80.822C87.913 80.782 88.135 80.742 88.371 80.689C88.909 80.586 89.499 80.425 90.102 80.244H90.117C91.285 79.902 92.556 79.429 93.881 78.891C95.511 78.234 97.202 77.479 98.931 76.704C99.565 76.41 100.206 76.124 100.851 75.836C100.863 75.836 100.863 75.823 100.863 75.823C101.401 75.586 101.94 75.338 102.478 75.102C102.898 74.917 103.306 74.736 103.722 74.552C104.302 74.3 104.879 74.052 105.443 73.815C105.481 73.803 105.535 73.788 105.573 73.761C106.176 73.513 106.781 73.276 107.359 73.066C107.359 73.054 107.372 73.054 107.372 73.054C107.87 72.871 108.37 72.687 108.84 72.527H108.88C109.065 72.476 109.248 72.409 109.418 72.359C109.603 72.29 109.771 72.241 109.943 72.199C110.638 71.989 111.294 71.829 111.897 71.741C112.054 71.714 112.187 71.686 112.332 71.676C112.477 71.649 112.607 71.634 112.752 71.621C112.763 71.621 112.763 71.621 112.779 71.621C112.985 71.611 113.185 71.596 113.367 71.596C113.695 71.596 113.997 71.621 114.287 71.676C117.832 72.319 120.772 75.98 118.355 80.335ZM104.88 85.731C104.712 85.744 104.552 85.756 104.395 85.744C104.235 85.756 104.082 85.756 103.937 85.756C103.372 85.756 102.86 85.731 102.387 85.691C102.188 85.68 101.978 85.649 101.757 85.626C101.639 85.611 101.536 85.599 101.413 85.586C101.283 85.575 101.154 85.546 101.007 85.535C100.876 85.522 100.746 85.495 100.601 85.466C100.326 85.432 100.036 85.378 99.736 85.323C99.658 85.309 99.578 85.298 99.498 85.285C99.198 85.218 98.883 85.167 98.57 85.104C98.331 85.049 98.097 84.997 97.86 84.947C97.257 84.81 96.65 84.668 96.02 84.523C95.627 84.431 95.22 84.34 94.829 84.237C94.42 84.13 94.027 84.039 93.634 83.935C93.279 83.843 92.924 83.748 92.584 83.656C92.374 83.603 92.161 83.541 91.955 83.488C91.665 83.404 91.39 83.331 91.127 83.249C90.799 83.169 90.486 83.079 90.169 82.987C88.951 82.647 87.926 82.344 87.256 82.147C87.008 82.067 86.798 82.002 86.64 81.964C86.627 81.964 86.615 81.964 86.602 81.949C86.81 82.109 87.179 82.369 87.638 82.701C87.835 82.842 88.043 82.987 88.279 83.159C88.752 83.487 89.291 83.869 89.867 84.262C90.892 84.548 92.034 84.863 93.237 85.178C96.466 86.018 100.036 86.846 102.295 87.003C102.807 87.045 103.356 87.068 103.937 87.068C104.406 87.068 104.907 87.053 105.445 87.017V85.717C105.25 85.731 105.063 85.731 104.88 85.731ZM104.88 85.731C104.712 85.744 104.552 85.756 104.395 85.744C104.235 85.756 104.082 85.756 103.937 85.756C103.372 85.756 102.86 85.731 102.387 85.691C102.188 85.68 101.978 85.649 101.757 85.626C101.639 85.611 101.536 85.599 101.413 85.586C101.283 85.575 101.154 85.546 101.007 85.535C100.876 85.522 100.746 85.495 100.601 85.466C100.326 85.432 100.036 85.378 99.736 85.323C99.658 85.309 99.578 85.298 99.498 85.285C99.198 85.218 98.883 85.167 98.57 85.104C98.331 85.049 98.097 84.997 97.86 84.947C97.257 84.81 96.65 84.668 96.02 84.523C95.627 84.431 95.22 84.34 94.829 84.237C94.42 84.13 94.027 84.039 93.634 83.935C93.279 83.843 92.924 83.748 92.584 83.656C92.374 83.603 92.161 83.541 91.955 83.488C91.665 83.404 91.39 83.331 91.127 83.249C90.799 83.169 90.486 83.079 90.169 82.987C88.951 82.647 87.926 82.344 87.256 82.147C87.008 82.067 86.798 82.002 86.64 81.964C86.627 81.964 86.615 81.964 86.602 81.949C86.81 82.109 87.179 82.369 87.638 82.701C87.835 82.842 88.043 82.987 88.279 83.159C88.752 83.487 89.291 83.869 89.867 84.262C90.892 84.548 92.034 84.863 93.237 85.178C96.466 86.018 100.036 86.846 102.295 87.003C102.807 87.045 103.356 87.068 103.937 87.068C104.406 87.068 104.907 87.053 105.445 87.017V85.717C105.25 85.731 105.063 85.731 104.88 85.731ZM104.88 85.731C104.712 85.744 104.552 85.756 104.395 85.744C104.235 85.756 104.082 85.756 103.937 85.756C103.372 85.756 102.86 85.731 102.387 85.691C102.188 85.68 101.978 85.649 101.757 85.626C101.639 85.611 101.536 85.599 101.413 85.586C101.283 85.575 101.154 85.546 101.007 85.535C100.876 85.522 100.746 85.495 100.601 85.466C100.326 85.432 100.036 85.378 99.736 85.323C99.658 85.309 99.578 85.298 99.498 85.285C99.198 85.218 98.883 85.167 98.57 85.104C98.331 85.049 98.097 84.997 97.86 84.947C97.257 84.81 96.65 84.668 96.02 84.523C95.627 84.431 95.22 84.34 94.829 84.237C94.42 84.13 94.027 84.039 93.634 83.935C93.279 83.843 92.924 83.748 92.584 83.656C92.374 83.603 92.161 83.541 91.955 83.488C91.665 83.404 91.39 83.331 91.127 83.249C90.799 83.169 90.486 83.079 90.169 82.987C88.951 82.647 87.926 82.344 87.256 82.147C87.008 82.067 86.798 82.002 86.64 81.964C86.627 81.964 86.615 81.964 86.602 81.949C86.81 82.109 87.179 82.369 87.638 82.701C87.835 82.842 88.043 82.987 88.279 83.159C88.752 83.487 89.291 83.869 89.867 84.262C90.892 84.548 92.034 84.863 93.237 85.178C96.466 86.018 100.036 86.846 102.295 87.003C102.807 87.045 103.356 87.068 103.937 87.068C104.406 87.068 104.907 87.053 105.445 87.017V85.717C105.25 85.731 105.063 85.731 104.88 85.731ZM104.88 85.731C104.712 85.744 104.552 85.756 104.395 85.744C104.235 85.756 104.082 85.756 103.937 85.756C103.372 85.756 102.86 85.731 102.387 85.691C102.188 85.68 101.978 85.649 101.757 85.626C101.639 85.611 101.536 85.599 101.413 85.586C101.283 85.575 101.154 85.546 101.007 85.535C100.876 85.522 100.746 85.495 100.601 85.466C100.326 85.432 100.036 85.378 99.736 85.323C99.658 85.309 99.578 85.298 99.498 85.285C99.198 85.218 98.883 85.167 98.57 85.104C98.331 85.049 98.097 84.997 97.86 84.947C97.257 84.81 96.65 84.668 96.02 84.523C95.627 84.431 95.22 84.34 94.829 84.237C94.42 84.13 94.027 84.039 93.634 83.935C93.279 83.843 92.924 83.748 92.584 83.656C92.374 83.603 92.161 83.541 91.955 83.488C91.665 83.404 91.39 83.331 91.127 83.249C90.799 83.169 90.486 83.079 90.169 82.987C88.951 82.647 87.926 82.344 87.256 82.147C87.008 82.067 86.798 82.002 86.64 81.964C86.627 81.964 86.615 81.964 86.602 81.949C86.81 82.109 87.179 82.369 87.638 82.701C87.835 82.842 88.043 82.987 88.279 83.159C88.752 83.487 89.291 83.869 89.867 84.262C90.892 84.548 92.034 84.863 93.237 85.178C96.466 86.018 100.036 86.846 102.295 87.003C102.807 87.045 103.356 87.068 103.937 87.068C104.406 87.068 104.907 87.053 105.445 87.017V85.717C105.25 85.731 105.063 85.731 104.88 85.731ZM104.88 85.731C104.712 85.744 104.552 85.756 104.395 85.744C104.235 85.756 104.082 85.756 103.937 85.756C103.372 85.756 102.86 85.731 102.387 85.691C102.188 85.68 101.978 85.649 101.757 85.626C101.639 85.611 101.536 85.599 101.413 85.586C101.283 85.575 101.154 85.546 101.007 85.535C100.876 85.522 100.746 85.495 100.601 85.466C100.326 85.432 100.036 85.378 99.736 85.323C99.658 85.309 99.578 85.298 99.498 85.285C99.198 85.218 98.883 85.167 98.57 85.104C98.331 85.049 98.097 84.997 97.86 84.947C97.257 84.81 96.65 84.668 96.02 84.523C95.627 84.431 95.22 84.34 94.829 84.237C94.42 84.13 94.027 84.039 93.634 83.935C93.279 83.843 92.924 83.748 92.584 83.656C92.374 83.603 92.161 83.541 91.955 83.488C91.665 83.404 91.39 83.331 91.127 83.249C90.799 83.169 90.486 83.079 90.169 82.987C88.951 82.647 87.926 82.344 87.256 82.147C87.008 82.067 86.798 82.002 86.64 81.964C86.627 81.964 86.615 81.964 86.602 81.949C86.81 82.109 87.179 82.369 87.638 82.701C87.835 82.842 88.043 82.987 88.279 83.159C88.752 83.487 89.291 83.869 89.867 84.262C90.892 84.548 92.034 84.863 93.237 85.178C96.466 86.018 100.036 86.846 102.295 87.003C102.807 87.045 103.356 87.068 103.937 87.068C104.406 87.068 104.907 87.053 105.445 87.017V85.717C105.25 85.731 105.063 85.731 104.88 85.731ZM92.585 83.656C92.375 83.603 92.161 83.541 91.955 83.488C91.665 83.404 91.39 83.331 91.127 83.249C90.799 83.169 90.486 83.079 90.169 82.987C88.951 82.647 87.926 82.344 87.256 82.147C87.008 82.067 86.798 82.002 86.64 81.964C86.627 81.964 86.615 81.964 86.602 81.949C86.81 82.109 87.179 82.369 87.638 82.701C87.835 82.842 88.043 82.987 88.279 83.159C88.752 83.487 89.291 83.869 89.867 84.262C90.892 84.548 92.035 84.863 93.238 85.178C93.398 84.773 93.528 84.354 93.635 83.934C93.279 83.844 92.924 83.748 92.585 83.656Z" fill="#784600"/>
<path d="M90.26 74.3C88.544 73.428 86.45 73.094 84.425 73.094C82.4 73.094 80.312 73.428 78.594 74.3C79.766 75.113 81.592 75.743 84.425 75.743C87.263 75.743 89.084 75.113 90.26 74.3Z" fill="#784600"/>
<path d="M84.425 71.781C87.2 71.781 89.512 72.34 91.298 73.369C92.061 72.457 92.26 71.514 92.26 71.033C92.26 70.067 91.56 68.693 90.458 67.422C90.645 67.762 90.76 68.147 90.76 68.56C90.76 69.892 89.676 70.973 88.343 70.973C87.007 70.973 85.929 69.893 85.929 68.56C85.929 67.228 87.007 66.146 88.343 66.146C88.776 66.146 89.179 66.27 89.53 66.469C88.097 65.16 86.262 64.144 84.424 64.144C82.588 64.144 80.755 65.159 79.322 66.469C79.673 66.271 80.074 66.146 80.507 66.146C81.841 66.146 82.923 67.228 82.923 68.56C82.923 69.892 81.841 70.973 80.507 70.973C79.173 70.973 78.092 69.893 78.092 68.56C78.092 68.144 78.207 67.76 78.392 67.419C77.293 68.69 76.59 70.068 76.59 71.034C76.59 71.515 76.791 72.458 77.554 73.37C79.34 72.34 81.654 71.781 84.425 71.781Z" fill="#784600"/>
<path d="M82.373 79.618C80.628 79.587 78.138 78.763 75.366 77.633C74.973 77.48 74.568 77.305 74.158 77.125C73.345 76.782 72.507 76.411 71.667 76.033C70.932 75.718 70.197 75.376 69.462 75.048C69.317 74.983 69.187 74.916 69.042 74.852C67.229 74.039 65.458 73.237 63.778 72.544C60.577 71.231 57.689 70.284 55.487 70.284C55.078 70.284 54.685 70.324 54.33 70.391C51.967 70.822 49.894 72.361 48.925 74.403C47.967 76.426 48.123 78.747 49.36 80.965C50.356 82.767 52.139 84.076 54.239 85.007C54.644 85.192 55.079 85.362 55.51 85.521C58.753 86.676 62.429 87.069 64.92 87.069C65.143 87.069 65.367 87.069 65.588 87.054C65.932 87.046 66.244 87.027 66.561 87.004C67.283 86.951 68.124 86.832 69.042 86.676C69.868 86.531 70.746 86.346 71.667 86.149C72.547 85.951 73.452 85.731 74.345 85.508L75.605 85.193C76.798 84.878 77.966 84.55 78.976 84.263C81.129 83.656 82.702 83.169 82.873 83.118H82.887L83.791 82.83V79.618H82.373ZM82.48 81.874C82.48 81.874 82.4 81.901 82.257 81.95H82.244C81.431 82.202 78.476 83.08 75.21 83.935C74.792 84.038 74.37 84.156 73.95 84.263C73.188 84.444 72.415 84.628 71.667 84.809C70.747 85.007 69.869 85.193 69.042 85.34C68.069 85.508 67.193 85.642 66.454 85.691C66.192 85.718 65.904 85.731 65.588 85.744C65.382 85.756 65.157 85.756 64.92 85.756C64.172 85.756 63.347 85.718 62.494 85.641C62.152 85.626 61.811 85.585 61.471 85.534C61.301 85.521 61.116 85.494 60.944 85.465C60.763 85.454 60.593 85.431 60.421 85.389C60.079 85.339 59.724 85.284 59.369 85.206C59.201 85.179 59.016 85.141 58.831 85.103C58.125 84.956 57.426 84.775 56.747 84.549C56.575 84.497 56.419 84.444 56.251 84.389C56.091 84.339 55.919 84.286 55.762 84.221C55.762 84.221 55.762 84.221 55.747 84.208C55.526 84.13 55.289 84.049 55.079 83.943C54.896 83.88 54.712 83.802 54.541 83.708C53.846 83.397 53.203 83.027 52.625 82.622C52.362 82.435 52.127 82.255 51.903 82.042C51.787 81.937 51.666 81.832 51.563 81.727C51.444 81.611 51.353 81.504 51.259 81.399C51.051 81.179 50.879 80.954 50.723 80.706C50.643 80.588 50.563 80.469 50.5 80.336C48.086 75.981 51.025 72.32 54.568 71.678C54.858 71.623 55.16 71.598 55.488 71.598C57.981 71.598 61.655 73.016 65.589 74.761C66.732 75.244 67.887 75.771 69.044 76.297C69.922 76.69 70.804 77.084 71.669 77.48C72.049 77.644 72.417 77.816 72.795 77.976C72.955 78.041 73.112 78.109 73.27 78.171C73.346 78.213 73.426 78.251 73.505 78.278C73.585 78.305 73.663 78.328 73.742 78.37V78.381C74.16 78.553 74.57 78.721 74.962 78.892C74.975 78.892 74.975 78.892 74.975 78.892C75.028 78.919 75.069 78.934 75.107 78.948C76.38 79.457 77.602 79.919 78.73 80.246C80.148 80.677 81.421 80.928 82.482 80.928V81.874H82.48Z" fill="#784600"/>
<path d="M71.667 84.809C70.747 85.007 69.869 85.193 69.042 85.34V86.676C69.868 86.531 70.746 86.346 71.667 86.149C72.547 85.951 73.452 85.731 74.345 85.508C74.187 85.103 74.055 84.68 73.95 84.264C73.188 84.445 72.416 84.628 71.667 84.809Z" fill="#784600"/>
<path d="M55.552 85.036C55.552 85.019 55.552 85.007 55.552 85.007C55.579 84.851 55.617 84.694 55.657 84.536C55.657 84.509 55.67 84.498 55.682 84.473C55.697 84.389 55.72 84.301 55.762 84.221C55.762 84.221 55.762 84.221 55.747 84.208C55.526 84.13 55.289 84.049 55.079 83.943C54.896 83.88 54.712 83.802 54.541 83.708C53.846 83.397 53.203 83.027 52.625 82.622C52.362 82.435 52.127 82.255 51.903 82.042C51.787 81.937 51.666 81.832 51.563 81.727C51.444 81.611 51.353 81.504 51.259 81.399C51.051 81.179 50.879 80.954 50.723 80.706C50.643 80.588 50.563 80.469 50.5 80.336C49.887 79.233 49.62 78.17 49.616 77.19C49.616 74.315 51.922 72.155 54.567 71.678C54.857 71.623 55.159 71.598 55.487 71.598C57.98 71.598 61.654 73.016 65.588 74.761V73.595L63.779 72.545C60.578 71.232 57.69 70.285 55.488 70.285C55.079 70.285 54.686 70.325 54.331 70.392C51.968 70.823 49.895 72.362 48.926 74.404C48.51 75.278 48.304 76.209 48.304 77.164C48.304 78.416 48.661 79.708 49.361 80.966C50.357 82.768 52.14 84.077 54.24 85.008C54.645 85.193 55.08 85.363 55.511 85.522C55.511 85.509 55.511 85.509 55.511 85.495C55.51 85.34 55.526 85.18 55.552 85.036Z" fill="#784600"/>
<path d="M75.366 77.633C74.973 77.48 74.568 77.305 74.158 77.125C73.345 76.782 72.507 76.411 71.667 76.033C70.932 75.718 70.197 75.376 69.462 75.048C69.317 74.983 69.187 74.916 69.042 74.852V76.297C69.92 76.69 70.802 77.084 71.667 77.48C72.047 77.644 72.415 77.816 72.793 77.976C72.953 78.041 73.11 78.109 73.268 78.171C73.344 78.213 73.424 78.251 73.503 78.278C73.583 78.305 73.661 78.328 73.74 78.37V78.381C74.158 78.553 74.568 78.721 74.96 78.892C74.973 78.892 74.973 78.892 74.973 78.892C75.026 78.919 75.067 78.934 75.105 78.948C76.378 79.457 77.6 79.919 78.728 80.246C80.146 80.677 81.419 80.928 82.48 80.928V81.875C82.48 81.875 82.4 81.902 82.257 81.951H82.244C81.431 82.203 78.476 83.081 75.21 83.936C75.315 84.356 75.447 84.776 75.605 85.194C76.798 84.879 77.966 84.551 78.976 84.264C81.129 83.657 82.702 83.17 82.873 83.119H82.887L83.791 82.831V79.619H82.373C80.629 79.587 78.138 78.763 75.366 77.633Z" fill="#784600"/>
<path d="M73.95 84.264C74.055 84.68 74.187 85.104 74.345 85.508L75.605 85.193C75.446 84.775 75.315 84.355 75.21 83.935C74.792 84.038 74.37 84.157 73.95 84.264Z" fill="#784600"/>
<path d="M65.588 74.76C66.731 75.243 67.886 75.77 69.043 76.296V74.851C67.23 74.038 65.459 73.236 63.779 72.543L65.588 73.593V74.76Z" fill="#784600"/>
<path d="M73.95 84.264C74.055 84.68 74.187 85.104 74.345 85.508L73.95 84.264Z" fill="#784600"/>
<path d="M75.605 85.193C75.446 84.775 75.315 84.355 75.21 83.935L75.605 85.193Z" fill="#784600"/>
<path d="M75.109 77.606L69.003 71.529L68.831 71.353L68.837 71.158L69.077 62.848L69.106 62.936L66.817 59.548L69.356 62.752L69.381 62.788L69.383 62.841L69.86 71.144L69.692 70.772L76.3 76.298C76.674 76.615 76.724 77.17 76.411 77.544C76.096 77.922 75.539 77.968 75.165 77.659C75.143 77.64 75.124 77.625 75.109 77.606Z" fill="#784600"/>
<path d="M55.762 84.221C55.72 84.301 55.697 84.389 55.682 84.473C55.671 84.498 55.657 84.509 55.657 84.536C55.617 84.694 55.579 84.851 55.552 85.007C55.552 85.007 55.552 85.019 55.552 85.036C55.525 85.179 55.51 85.34 55.51 85.494C55.51 85.507 55.51 85.507 55.51 85.521L55.762 84.221Z" fill="#784600"/>
<path d="M82.247 66.261H81.539C81.539 60.283 73.658 55.303 73.578 55.254L73.952 54.653C74.29 54.862 82.247 59.897 82.247 66.261Z" fill="#784600"/>
<path d="M65.588 74.76V73.594L63.779 72.544L65.588 74.76Z" fill="#784600"/>
<path d="M83.791 81.546L83.726 81.347L83.463 80.622L83.11 79.618L83.03 79.381L82.373 79.618L81.796 79.815C81.09 80.061 80.052 80.206 78.727 80.246C80.145 80.677 81.418 80.928 82.479 80.928V81.783C82.479 81.783 82.399 81.832 82.256 81.951H82.243C82.033 82.111 81.665 82.371 81.209 82.703C81.01 82.844 80.8 82.989 80.564 83.161C80.091 83.489 79.552 83.871 78.976 84.264C78.071 84.905 77.062 85.587 76.05 86.243C75.682 86.48 75.327 86.716 74.96 86.938C73.765 87.688 72.612 88.368 71.668 88.826C71.471 88.931 71.273 89.013 71.103 89.091C70.853 89.196 70.5781 89.314 70.2901 89.417C69.8951 89.564 69.491 89.705 69.044 89.837C68.49 90.007 67.903 90.165 67.284 90.31C66.917 90.39 66.551 90.467 66.169 90.531C66.169 90.531 66.169 90.531 66.154 90.531C65.973 90.573 65.787 90.6 65.589 90.611C65.394 90.651 65.211 90.676 65.016 90.703C65.016 90.703 65.0161 90.703 65.0011 90.703C64.6211 90.758 64.226 90.795 63.844 90.821C63.466 90.848 63.0711 90.863 62.6911 90.863C60.5651 90.863 58.584 90.43 57.282 89.271C57.049 89.061 56.852 88.855 56.679 88.641C56.484 88.422 56.314 88.194 56.181 87.96C55.986 87.674 55.839 87.355 55.748 87.053C55.567 86.541 55.489 86.018 55.511 85.52C55.511 85.507 55.511 85.507 55.511 85.493C55.511 85.338 55.5261 85.178 55.5531 85.035C55.5531 85.018 55.5531 85.006 55.5531 85.006C55.5801 84.85 55.618 84.693 55.658 84.535C55.658 84.508 55.671 84.497 55.683 84.472C55.698 84.388 55.721 84.3 55.763 84.22V84.207C55.763 84.207 55.763 84.207 55.748 84.207C55.527 84.129 55.29 84.048 55.08 83.942C54.897 83.879 54.713 83.801 54.542 83.707C54.386 84.129 54.281 84.564 54.241 85.007C54.23 85.036 54.23 85.047 54.23 85.074C54.031 86.977 54.806 88.815 56.406 90.256C57.838 91.531 59.95 92.172 62.693 92.172C63.061 92.172 63.441 92.159 63.81 92.134C65.66 92.031 67.496 91.661 69.046 91.205C70.056 90.928 70.936 90.6 71.63 90.298C71.643 90.298 71.657 90.283 71.67 90.283C72.626 89.852 73.834 89.18 75.108 88.391C75.621 88.08 76.144 87.752 76.669 87.41C79.307 85.704 81.8911 83.843 82.8761 83.117H82.89C83.1 82.961 83.232 82.865 83.272 82.842L83.795 82.449L84.045 82.264L83.791 81.546Z" fill="#784600"/>
<path d="M74.769 98.033C74.771 97.836 74.769 97.64 74.782 97.445C74.799 96.815 74.845 96.208 74.912 95.622C74.9 95.633 74.893 95.633 74.885 95.639L71.484 98.88L71.242 99.109V99.39L71.168 115.423L67.286 119.153L71.476 115.639L71.529 115.591L71.535 115.507L72.669 99.783L74.769 98.033Z" fill="#784600"/>
<path d="M75.494 92.715C75.677 92.085 75.876 91.476 76.112 90.913C76.185 90.741 76.274 90.596 76.349 90.43L69.426 94.228L69.191 94.356L69.126 94.577L65.526 106.569L59.512 108.962L65.767 106.92L65.855 106.888L65.893 106.792L70.182 95.208L75.494 92.715Z" fill="#784600"/>
<path d="M103.327 106.566L99.727 94.578L99.66 94.357L99.425 94.229L92.508 90.437C92.582 90.599 92.672 90.742 92.745 90.914C92.98 91.477 93.18 92.086 93.363 92.716L98.669 95.211L102.96 106.795L102.996 106.891L103.086 106.923L109.339 108.965L103.327 106.566Z" fill="#784600"/>
<path d="M97.686 115.426L97.611 99.389L97.607 99.108L97.366 98.879L93.963 95.638C93.957 95.632 93.95 95.625 93.942 95.619C94.007 96.203 94.053 96.81 94.07 97.444C94.083 97.639 94.083 97.835 94.083 98.032L96.183 99.782L97.317 115.506L97.325 115.59L97.378 115.638L101.562 119.152L97.686 115.426Z" fill="#784600"/>
<path d="M8.072 107.998L22.421 99.541C22.879 99.27 22.984 99.352 23.085 99.522L23.997 101.072C24.098 101.242 24.119 101.374 23.659 101.645L17.979 104.993C17.84 105.075 17.771 105.201 17.798 105.245L19.684 108.448C19.711 108.49 19.871 108.496 20.01 108.414L25.679 105.072C26.139 104.803 26.25 104.894 26.345 105.055L27.269 106.624C27.364 106.785 27.384 106.916 26.925 107.187L12.576 115.644C12.118 115.915 12.011 115.833 11.916 115.673L10.992 114.104C10.896 113.944 10.866 113.791 11.324 113.52L17.848 109.674C17.985 109.594 18.035 109.479 18.003 109.426L16.134 106.254C16.102 106.201 15.985 106.199 15.846 106.281L9.32401 110.125C8.86401 110.396 8.751 110.304 8.658 110.144L7.73197 108.573C7.63297 108.401 7.612 108.269 8.072 107.998Z" fill="#784600"/>
<path d="M21.538 113.76C27.102 108.923 29.316 108.939 31.408 111.344C33.51 113.76 33.236 115.923 27.644 120.784C21.849 125.823 19.811 125.787 17.652 123.305C15.512 120.841 15.78 118.767 21.538 113.76ZM26.033 118.929C30.274 115.241 31.022 113.965 29.892 112.665C28.775 111.38 27.327 111.984 23.151 115.614C18.75 119.441 18.04 120.764 19.124 122.01C20.223 123.273 21.593 122.788 26.033 118.929Z" fill="#784600"/>
<path d="M24.554 129.346L34.825 116.367C35.157 115.949 35.331 115.928 35.487 116.052L36.964 117.22C37.09 117.321 37.111 117.575 37.013 117.877L33.301 129.342C33.274 129.416 33.391 129.367 33.469 129.269L40.27 120.674C40.6 120.256 40.795 120.252 40.94 120.367L42.097 121.283C42.244 121.398 42.265 121.573 41.933 121.991L31.63 135.008C31.3 135.426 31.172 135.388 31.027 135.273L29.977 134.441C29.849 134.342 29.805 134.038 29.91 133.725L33.817 121.258C33.832 121.178 33.733 121.224 33.657 121.321L26.246 130.683C25.916 131.101 25.755 131.086 25.599 130.962L24.423 130.031C24.265 129.909 24.224 129.764 24.554 129.346Z" fill="#784600"/>
<path d="M35.557 137.527L43.593 122.788C43.818 122.374 43.952 122.391 44.116 122.479L49.842 125.602C49.993 125.684 50.094 125.783 49.876 126.186L49.407 127.045C49.187 127.448 49.048 127.415 48.897 127.333L45.173 125.302C45.097 125.26 44.967 125.373 44.848 125.59L42.449 129.988C42.373 130.129 42.355 130.318 42.397 130.341L45.39 131.973C45.554 132.063 45.609 132.219 45.39 132.622L44.932 133.462C44.714 133.865 44.55 133.903 44.388 133.813L41.405 132.187C41.352 132.158 41.186 132.307 41.107 132.449L38.397 137.423L42.283 139.542C42.445 139.632 42.546 139.729 42.329 140.132L41.859 140.993C41.638 141.396 41.5 141.363 41.338 141.274L35.58 138.134C35.416 138.044 35.326 137.953 35.557 137.527Z" fill="#784600"/>
<path d="M47.086 143.007L48.92 138.041L50.098 126.581C50.104 126.422 50.1251 126.325 50.1651 126.222C50.2371 126.023 50.367 125.886 50.484 125.93L52.205 126.566C52.392 126.635 52.5101 126.917 52.4671 127.362L51.679 134.538L55.706 128.572C55.943 128.223 56.2291 128.051 56.4051 128.116L57.86 128.652C57.975 128.696 57.982 128.896 57.908 129.093C57.87 129.198 57.824 129.288 57.742 129.402L51.237 138.856L49.39 143.857C49.207 144.357 49.044 144.403 48.882 144.344L47.161 143.708C46.982 143.642 46.902 143.507 47.086 143.007Z" fill="#784600"/>
<path d="M59.179 146.591L61.534 130.138C61.61 129.623 61.74 129.579 61.925 129.605L65.538 130.122C67.823 130.448 70.048 131.195 69.275 136.588C68.546 141.675 66.404 142.007 64.267 141.702L62.522 141.452C62.449 141.441 62.381 141.469 62.356 141.654L61.598 146.937C61.525 147.441 61.384 147.557 61.201 147.531L59.394 147.273C59.209 147.248 59.106 147.095 59.179 146.591ZM64.268 139.697C65.852 139.924 66.39 139.487 66.854 136.256C67.373 132.632 66.474 132.252 65.123 132.057L63.882 131.88C63.821 131.872 63.75 131.924 63.724 132.109L62.703 139.247C62.676 139.43 62.718 139.474 62.793 139.486L64.268 139.697Z" fill="#784600"/>
<path d="M71.669 148.068L71.108 131.358C71.089 130.824 71.211 130.782 71.398 130.776L75.567 130.637C77.875 130.559 79.802 131.015 79.946 135.258C80.034 137.839 79.242 138.697 78.177 139.155C78.152 139.182 78.141 139.207 78.143 139.231C78.145 139.256 78.156 139.281 78.183 139.292C79.216 139.741 80.031 140.323 80.229 143.271C80.271 143.754 80.422 147.537 80.428 147.711C80.441 148.096 80.363 148.335 80.225 148.339C80.225 148.339 78.301 148.417 78.252 148.417C78.116 148.423 78.051 148.312 78.023 147.867C77.948 147.111 77.748 142.672 77.59 141.994C77.443 140.57 76.544 140.414 75.775 140.44L74 140.499C73.925 140.501 73.866 140.579 73.874 140.778L74.115 147.985C74.134 148.481 74.012 148.548 73.825 148.554L72 148.615C71.812 148.622 71.687 148.578 71.669 148.068ZM75.521 138.512C77.084 138.461 77.55 137.153 77.491 135.428C77.418 133.258 76.674 132.575 74.937 132.632L73.734 132.674C73.66 132.676 73.601 132.741 73.606 132.926L73.784 138.236C73.792 138.423 73.845 138.57 73.921 138.566L75.521 138.512Z" fill="#784600"/>
<path d="M82.841 139.023C81.265 131.831 82.337 129.896 85.45 129.214C88.572 128.529 90.336 129.804 91.92 137.032C93.565 144.527 92.558 146.297 89.347 147.001C86.164 147.698 84.473 146.471 82.841 139.023ZM89.523 137.559C88.32 132.074 87.561 130.806 85.877 131.175C84.22 131.54 84.0521 133.099 85.2381 138.499C86.4841 144.191 87.305 145.445 88.916 145.092C90.55 144.732 90.783 143.299 89.523 137.559Z" fill="#784600"/>
<path d="M97.9881 143.919L91.447 128.453C91.272 128.043 91.367 127.949 91.539 127.876L95.4671 126.214C98.0381 125.126 100.422 126.34 103.052 132.553C106.278 140.184 105.008 141.543 102.107 142.77L98.486 144.301C98.314 144.373 98.1811 144.375 97.9881 143.919ZM101.234 140.997C102.914 140.287 103.025 138.798 100.803 133.546C98.6921 128.553 97.333 127.566 95.905 128.171L94.409 128.803C94.34 128.833 94.3 128.931 94.378 129.112L99.575 141.404C99.661 141.608 99.7371 141.631 99.8291 141.591L101.234 140.997Z" fill="#784600"/>
<path d="M106.438 132.765L100.872 124.428C100.574 123.983 100.662 123.867 100.815 123.764L102.333 122.751C102.478 122.656 102.617 122.621 102.915 123.064L108.439 131.34C111.168 135.426 112.066 135.543 113.367 134.675C114.676 133.801 114.936 133.091 112.123 128.882L106.599 120.606C106.303 120.161 106.378 120.053 106.534 119.948L108.061 118.929C108.206 118.834 108.336 118.805 108.632 119.25L114.2 127.587C117.987 133.261 116.708 134.832 114.478 136.321C112.147 137.874 110.179 138.369 106.438 132.765Z" fill="#784600"/>
<path d="M115.294 124.441C109.686 118.438 110.889 116.092 112.813 114.296C113.321 113.823 113.993 113.397 114.435 113.254C114.496 113.265 114.568 113.216 114.687 113.342L115.714 114.439C115.823 114.557 115.804 114.592 115.767 114.624C115.74 114.651 115.072 114.935 114.501 115.468C113.239 116.646 112.785 118.157 117.087 122.763C121.441 127.424 122.782 127.189 124.08 125.977C124.532 125.553 124.845 125.143 125.061 124.738C125.069 124.728 125.301 124.851 125.311 124.86L126.286 125.902C126.294 125.912 126.391 126.142 126.389 126.16C126.154 126.635 125.679 127.215 125.206 127.656C123.268 129.47 121.02 130.57 115.294 124.441Z" fill="#784600"/>
<path d="M129.517 121.866L117.954 112.424C117.763 112.267 117.683 112.266 117.628 112.332L116.263 114.004C116.137 114.157 116.049 114.244 115.694 113.954L114.934 113.336C114.56 113.031 114.59 112.895 114.716 112.741L119.148 107.317C119.266 107.172 119.392 107.115 119.766 107.422L120.526 108.04C120.881 108.33 120.812 108.435 120.694 108.578L119.352 110.219C119.297 110.288 119.314 110.364 119.507 110.522L131.07 119.964C131.482 120.302 131.444 120.447 131.326 120.59L130.173 122.002C130.063 122.137 129.93 122.204 129.517 121.866Z" fill="#784600"/>
<path d="M124.788 100.985C124.929 100.968 125.063 101.008 125.181 101.077C125.712 101.398 126.034 102.375 125.874 102.642C125.849 102.684 125.819 102.709 125.773 102.711C124.658 102.879 123.78 103.421 123.269 104.27C122.658 105.278 123.275 106.49 124.422 107.183C125.632 107.914 126.655 107.634 127.671 107.13L129.355 106.309C130.775 105.614 132.565 105.334 134.678 106.611C137.215 108.144 138.251 110.652 136.886 112.913C136.077 114.251 134.767 115.198 132.801 115.286C132.71 115.29 132.614 115.261 132.519 115.202C132.03 114.908 131.572 113.936 131.798 113.564C131.844 113.49 131.913 113.446 132.008 113.43C133.43 113.26 134.495 112.745 135.058 111.81C135.745 110.675 135.127 109.445 133.852 108.676C132.577 107.907 131.581 108.117 130.436 108.67L128.703 109.477C127.35 110.109 125.729 110.464 123.681 109.227C121.164 107.708 120.181 105.33 121.458 103.219C122.146 102.071 123.188 101.163 124.788 100.985Z" fill="#784600"/>
<path d="M21.007 51.117L6.35007 43.29C5.89207 43.044 5.89604 42.906 5.98404 42.742L7.70206 39.524C8.79006 37.488 10.248 35.651 15.054 38.217C19.585 40.637 19.1671 42.764 18.1501 44.668L17.32 46.222C17.284 46.287 17.2881 46.359 17.4521 46.447L22.159 48.961C22.609 49.2 22.671 49.373 22.583 49.537L21.724 51.146C21.635 51.31 21.456 51.356 21.007 51.117ZM16.2641 43.983C17.0181 42.572 16.7911 41.916 13.9131 40.379C10.6841 38.653 10.021 39.369 9.37802 40.574L8.78806 41.679C8.75906 41.734 8.78403 41.818 8.94803 41.904L15.3061 45.301C15.4701 45.389 15.527 45.362 15.562 45.297L16.2641 43.983Z" fill="#784600"/>
<path d="M25.999 42.343L12.944 31.939C12.528 31.607 12.576 31.487 12.692 31.342L15.288 28.084C16.723 26.282 18.319 25.114 21.636 27.756C23.652 29.363 23.791 30.52 23.449 31.625C23.453 31.659 23.464 31.686 23.483 31.701C23.502 31.716 23.529 31.722 23.555 31.711C24.565 31.217 25.534 30.974 27.903 32.736C28.296 33.019 31.268 35.355 31.403 35.462C31.705 35.702 31.834 35.916 31.749 36.023C31.749 36.023 30.562 37.533 30.531 37.573C30.445 37.68 30.319 37.657 29.964 37.39C29.342 36.957 25.841 34.231 25.223 33.912C24.046 33.101 23.345 33.683 22.866 34.284L21.761 35.67C21.715 35.729 21.734 35.823 21.891 35.947L27.522 40.434C27.909 40.743 27.881 40.879 27.764 41.026L26.628 42.45C26.514 42.594 26.395 42.66 25.999 42.343ZM21.238 33.224C22.211 32.002 21.52 30.802 20.173 29.729C18.476 28.376 17.476 28.498 16.394 29.855L15.646 30.796C15.6 30.853 15.608 30.941 15.755 31.057L19.903 34.363C20.048 34.478 20.197 34.533 20.243 34.474L21.238 33.224Z" fill="#784600"/>
<path d="M32.994 34.086L21.807 21.527C21.494 21.176 21.555 21.055 21.692 20.931L26.571 16.585C26.701 16.47 26.829 16.408 27.134 16.751L27.787 17.482C28.092 17.826 28.014 17.944 27.885 18.06L24.713 20.885C24.648 20.944 24.709 21.105 24.875 21.292L28.213 25.039C28.32 25.159 28.492 25.24 28.528 25.207L31.08 22.934C31.217 22.81 31.385 22.812 31.691 23.156L32.329 23.87C32.634 24.214 32.615 24.38 32.476 24.504L29.936 26.768C29.888 26.808 29.974 27.016 30.081 27.136L33.856 31.375L37.166 28.426C37.307 28.302 37.433 28.239 37.739 28.581L38.392 29.314C38.697 29.657 38.621 29.776 38.482 29.9L33.575 34.271C33.435 34.394 33.316 34.447 32.994 34.086Z" fill="#784600"/>
<path d="M39.214 28.389L39.18 28.336L31.15 13.958C30.885 13.496 30.896 13.299 31.049 13.193L32.729 12.179C32.905 12.088 33.113 12.032 33.454 12.422L41.314 21.383C41.394 21.465 41.478 21.414 41.43 21.312L37.189 10.209C37.008 9.73801 37.118 9.541 37.282 9.428L38.981 8.40301C39.136 8.32301 39.325 8.39701 39.601 8.85401L48.608 22.642L48.646 22.705C48.89 23.108 48.848 23.279 48.688 23.375L47.521 24.081C47.363 24.176 47.189 24.121 46.899 23.674L39.986 12.968C39.94 12.894 39.868 12.894 39.887 12.97L44.603 25.147C44.773 25.582 44.698 25.784 44.549 25.874L43.86 26.292C43.721 26.374 43.513 26.342 43.19 26L34.695 16.178C34.645 16.121 34.628 16.19 34.668 16.252L40.879 27.307C41.156 27.763 41.131 27.939 40.982 28.028L39.783 28.753C39.644 28.838 39.462 28.803 39.214 28.389Z" fill="#784600"/>
<path d="M50.689 22.077L44.398 6.64501C44.196 6.15201 44.302 6.05501 44.474 5.98501L46.163 5.296C46.323 5.231 46.468 5.225 46.669 5.72L52.964 21.152C53.164 21.644 53.058 21.742 52.895 21.809L51.208 22.496C51.037 22.566 50.891 22.571 50.689 22.077Z" fill="#784600"/>
<path d="M53.312 13.807L50.878 4.09601C50.748 3.57901 50.8681 3.49801 51.0481 3.45301L52.815 3.01001C52.983 2.96801 53.128 2.98301 53.258 3.50001L55.674 13.139C56.865 17.897 57.6701 18.31 59.1861 17.93C60.7131 17.548 61.1941 16.968 59.9651 12.063L57.549 2.42401C57.419 1.90901 57.5261 1.83001 57.7071 1.78501L59.486 1.33801C59.654 1.29601 59.7861 1.31501 59.9151 1.83001L62.3501 11.541C64.0071 18.153 62.2761 19.198 59.6781 19.849C56.9651 20.531 54.947 20.333 53.312 13.807Z" fill="#784600"/>
<path d="M65.669 17.62L65.665 17.559L65.59 1.074C65.582 0.539998 65.687 0.374 65.875 0.354L67.833 0.279999C68.033 0.283999 68.241 0.336999 68.352 0.842999L70.9 12.499C70.929 12.61 71.028 12.606 71.038 12.493L72.697 0.712997C72.767 0.212997 72.958 0.0950002 73.157 0.0760002L75.142 0C75.316 0.004 75.445 0.16 75.466 0.695L76.682 17.136L76.686 17.21C76.705 17.682 76.585 17.809 76.4 17.817L75.033 17.869C74.848 17.877 74.722 17.745 74.686 17.212L73.811 4.485C73.807 4.399 73.744 4.363 73.721 4.439L71.959 17.391C71.894 17.855 71.734 17.996 71.558 18.002L70.752 18.034C70.592 18.04 70.424 17.91 70.307 17.454L67.618 4.736C67.603 4.662 67.557 4.713 67.559 4.788L67.649 17.483C67.67 18.016 67.565 18.157 67.389 18.163L65.988 18.218C65.829 18.223 65.687 18.105 65.669 17.62Z" fill="#784600"/>
<path d="M85.723 19.472C85.61 19.46 85.403 19.426 85.259 19.382C82.491 18.578 81.501 16.681 83.087 9.52501C84.719 2.16301 86.65 1.01601 89.763 1.70701C92.886 2.39801 94.149 4.20401 92.508 11.613C91.145 17.753 89.744 19.549 87.565 19.702C87.534 20.584 87.578 23.592 87.508 23.907C87.476 24.23 87.439 24.388 87.18 24.418C87.102 24.426 86.182 24.451 86.062 24.424C85.867 24.382 85.734 24.187 85.732 23.678L85.723 19.472ZM90.111 11.083C91.363 5.42801 91.012 4.04201 89.329 3.66801C87.668 3.30201 86.72 4.48701 85.485 10.058C84.189 15.906 84.622 17.221 86.233 17.578C87.866 17.941 88.802 16.992 90.111 11.083Z" fill="#784600"/>
<path d="M94.9021 14.225L98.925 5.044C99.139 4.555 99.284 4.565 99.456 4.639L101.124 5.372C101.284 5.441 101.389 5.542 101.174 6.031L97.1811 15.143C95.2081 19.644 95.595 20.462 97.026 21.09C98.469 21.722 99.204 21.558 101.237 16.921L105.232 7.807C105.446 7.318 105.579 7.324 105.751 7.399L107.431 8.136C107.591 8.206 107.685 8.3 107.469 8.789L103.445 17.972C100.706 24.221 98.694 23.988 96.242 22.913C93.672 21.787 92.1951 20.396 94.9021 14.225Z" fill="#784600"/>
<path d="M101.717 24.87L101.834 24.694C101.876 24.633 101.926 24.56 101.964 24.526L113.485 12.457C113.844 12.083 114.042 12.098 114.214 12.199L116.302 13.61C116.461 13.73 116.539 13.904 116.325 14.373L109.393 29.543C109.34 29.642 109.246 29.848 109.191 29.931C109.031 30.168 108.924 30.169 108.821 30.101L107.124 28.954C106.991 28.864 106.901 28.729 107.09 28.316L108.481 25.436C108.55 25.289 108.592 25.182 108.521 25.132L106.03 23.45C105.957 23.402 105.869 23.49 105.759 23.61L103.568 25.921C103.266 26.257 103.133 26.257 102.988 26.16L101.671 25.271C101.578 25.209 101.552 25.116 101.717 24.87ZM109.297 23.785C109.347 23.819 109.431 23.741 109.494 23.648C109.515 23.618 109.534 23.587 109.536 23.541L113.874 14.922C113.899 14.863 113.901 14.836 113.893 14.828C113.87 14.815 113.847 14.828 113.809 14.862L107.247 21.981C107.213 22.019 107.19 22.046 107.174 22.067C107.113 22.159 107.073 22.283 107.197 22.367L109.297 23.785Z" fill="#784600"/>
<path d="M110.35 30.737L121.653 18.472C122.014 18.081 122.138 18.128 122.275 18.254L123.617 19.491C123.754 19.617 123.812 19.737 123.451 20.128L113.274 31.172C113.106 31.353 113.144 31.422 113.217 31.491L115.59 33.677C115.718 33.795 115.794 33.916 115.491 34.244L114.817 34.973C114.508 35.311 114.382 35.246 114.252 35.128L110.183 31.377C110.045 31.25 109.988 31.13 110.35 30.737Z" fill="#784600"/>
<path d="M115.845 36.073L128.391 25.091C128.792 24.74 128.918 24.81 129.042 24.95L130.242 26.322C130.357 26.452 130.41 26.587 130.009 26.939L117.462 37.921C117.061 38.272 116.935 38.204 116.821 38.072L115.618 36.7C115.496 36.56 115.443 36.424 115.845 36.073Z" fill="#784600"/>
<path d="M119.894 41.021L132.174 32.476C132.376 32.335 132.399 32.259 132.35 32.186L131.117 30.411C131.002 30.249 130.941 30.14 131.319 29.876L132.124 29.315C132.521 29.038 132.643 29.105 132.758 29.269L136.768 35.031C136.873 35.184 136.894 35.321 136.495 35.598L135.69 36.159C135.314 36.42 135.232 36.327 135.125 36.174L133.911 34.43C133.861 34.358 133.783 34.354 133.579 34.495L121.299 43.04C120.86 43.345 120.732 43.269 120.625 43.116L119.581 41.616C119.481 41.475 119.455 41.326 119.894 41.021Z" fill="#784600"/>
<path d="M124.226 47.903L128.963 45.523L137.659 37.94C137.77 37.829 137.854 37.774 137.953 37.725C138.144 37.629 138.331 37.618 138.388 37.729L139.213 39.371C139.301 39.548 139.198 39.838 138.858 40.132L133.376 44.848L140.404 43.233C140.814 43.138 141.143 43.208 141.225 43.376L141.924 44.762C141.979 44.873 141.847 45.023 141.657 45.119C141.558 45.169 141.464 45.201 141.325 45.23L130.102 47.704L125.332 50.101C124.855 50.341 124.704 50.263 124.628 50.109L123.801 48.468C123.717 48.3 123.749 48.144 124.226 47.903Z" fill="#784600"/>
<path d="M136.358 64.341L138.541 71.059H145.607L139.893 75.213L142.076 81.931L136.358 77.78L130.643 81.931L132.827 75.213L127.112 71.059H134.176L136.358 64.341Z" fill="#FFBE00"/>
<path d="M9.24799 64.341L11.432 71.059H18.495L12.781 75.213L14.965 81.931L9.24799 77.78L3.534 81.931L5.71503 75.213L0 71.059H7.065L9.24799 64.341Z" fill="#FFBE00"/>
</svg>
