<svg width="59" height="59" viewBox="0 0 59 59" fill="none" xmlns="http://www.w3.org/2000/svg">
<path d="M44.546 0.865997L57.978 8.62V24.13L44.546 31.886L31.114 24.13V8.62L44.546 0.865997ZM44.546 0L30.364 8.18799V24.563L44.546 32.752L58.728 24.563V8.18799L44.546 0Z" fill="#787864"/>
<path d="M32.989 9.703L44.546 3.03101L56.102 9.703V23.047L44.546 29.721L32.989 23.047V9.703Z" fill="#FF9600"/>
<path d="M44.546 3.897L55.353 10.135V22.613L44.546 28.853L33.739 22.613V10.135L44.546 3.897ZM44.546 3.03101L32.989 9.703V23.047L44.546 29.721L56.103 23.047V9.703L44.546 3.03101Z" fill="#787864"/>
<path d="M29.364 26.448L42.796 34.204V49.714L29.364 57.468L15.932 49.714V34.204L29.364 26.448ZM29.364 25.582L15.182 33.771V50.146L29.364 58.334L43.546 50.146V33.771L29.364 25.582Z" fill="#787864"/>
<path d="M17.807 35.287L29.364 28.613L40.921 35.287V48.631L29.364 55.303L17.807 48.631V35.287Z" fill="#FF9600"/>
<path d="M29.364 29.48L40.171 35.72V48.199L29.364 54.437L18.557 48.199V35.72L29.364 29.48ZM29.364 28.613L17.807 35.287V48.631L29.364 55.303L40.921 48.631V35.287L29.364 28.613Z" fill="#787864"/>
<path d="M14.182 0.865997L27.614 8.62V24.13L14.182 31.886L0.75 24.13V8.62L14.182 0.865997ZM14.182 0L0 8.18799V24.563L14.182 32.752L28.364 24.563V8.18799L14.182 0Z" fill="#787864"/>
<path d="M2.62598 9.703L14.182 3.03101L25.739 9.703V23.047L14.182 29.721L2.62598 23.047V9.703Z" fill="#FF9600"/>
<path d="M14.182 3.897L24.989 10.135V22.613L14.182 28.853L3.375 22.613V10.135L14.182 3.897ZM14.182 3.03101L2.625 9.703V23.047L14.182 29.721L25.739 23.047V9.703L14.182 3.03101Z" fill="#787864"/>
</svg>
