<svg width="260" height="210" viewBox="0 0 260 210" fill="none" xmlns="http://www.w3.org/2000/svg">
<path d="M242.301 142.583L237.235 137.147H252.638L233.278 116.371H244.724L221.833 91.8051L198.943 116.371H210.387L191.028 137.147H206.43L184.444 160.744H214.163V193.162H229.503V160.744H259.223L242.301 142.583Z" fill="#E6982E"/>
<path d="M52.4638 147.299L47.8705 142.369H61.8375L44.2831 123.529H54.6613L33.9036 101.253L13.147 123.529H23.5253L5.97088 142.369H19.9378L0 163.766H26.949V193.162H40.8593V163.766H67.8084L52.4638 147.299Z" fill="#E6982E"/>
<path d="M169.603 120.574L162.276 112.71H184.556L156.552 82.6578H173.108L139.997 47.1234L106.886 82.6578H123.441L95.4382 112.71H117.718L85.9143 146.843H128.903V193.734H151.092V146.843H194.08L169.603 120.574Z" fill="#E6982E"/>
<path d="M220.364 153.72L195.931 127.498H213.046L191.534 104.41H204.252L178.815 77.1115L153.378 104.41H166.097L144.584 127.498H161.699L137.266 153.72H220.364Z" fill="#FFD200"/>
<path d="M187.338 153.72H170.292V189.743H187.338V153.72Z" fill="#5E4123"/>
<path d="M187.338 153.72H170.292V160.164H187.338V153.72Z" fill="#47311B"/>
<path d="M199.012 112.436H158.619L166.097 104.41H191.534L199.012 112.436Z" fill="#FFD200"/>
<path d="M201.56 133.539H156.07L161.699 127.498H195.931L201.56 133.539Z" fill="#FFD200"/>
<path d="M148.495 147.537L113.452 109.151H138.001L107.145 75.3491H125.386L88.9022 35.3854L52.4183 75.3491H70.6596L39.803 109.151H64.3526L29.3091 147.537H148.495Z" fill="#FFD200"/>
<path d="M99.5095 147.537H78.2962V190.096H99.5095V147.537Z" fill="#5E4123"/>
<path d="M99.5095 147.537H78.2962V156.022H99.5095V147.537Z" fill="#47311B"/>
<path d="M116.607 85.861H61.2354L70.6596 75.3491H107.145L116.607 85.861Z" fill="#FFD200"/>
<path d="M121.967 118.543H55.6869L64.3527 109.151H113.452L121.967 118.543Z" fill="#FFD200"/>
<path d="M132.715 209.644C202.88 209.644 259.76 204.692 259.76 198.583C259.76 192.474 202.88 187.522 132.715 187.522C62.5503 187.522 5.6705 192.474 5.6705 198.583C5.6705 204.692 62.5503 209.644 132.715 209.644Z" fill="#FFD200"/>
<path d="M234.379 149.981H187.64V181.429H234.379V149.981Z" fill="#C4874A"/>
<path d="M238.788 181.429H182.203V185.316H238.788V181.429Z" fill="#7D562F"/>
<path d="M193.733 185.316H185.528V194.62H193.733V185.316Z" fill="#7D562F"/>
<path d="M235.945 185.316H227.741V194.62H235.945V185.316Z" fill="#7D562F"/>
<path d="M214.599 185.316H206.395V194.62H214.599V185.316Z" fill="#7D562F"/>
<path d="M193.733 185.316H185.528V188.365H193.733V185.316Z" fill="#664626"/>
<path d="M235.945 185.316H227.741V188.365H235.945V185.316Z" fill="#664626"/>
<path d="M214.599 185.316H206.395V188.365H214.599V185.316Z" fill="#664626"/>
<path d="M210.514 170.169H210.477C209.467 170.169 208.649 170.949 208.649 171.911V174.362H212.341V171.911C212.342 170.948 211.523 170.169 210.514 170.169Z" fill="#24190D"/>
<path d="M215.845 174.361H204.994V176.582H215.845V174.361Z" fill="#7D562F"/>
<path d="M238.789 149.981H182.203L205.743 121.75C208.417 118.543 213.541 118.586 216.155 121.837L238.789 149.981Z" fill="#7D562F"/>
<path d="M187.64 149.981V153.18H190.228V181.429H199.401V153.18H234.379V149.981H187.64Z" fill="#A87440"/>
<path d="M231.321 153.18H222.148V181.429H231.321V153.18Z" fill="#D18F4F"/>
<path d="M208.052 121.7L188.362 148.631H199.401L208.052 121.7Z" fill="#664626"/>
<path d="M230.868 139.357H190.228V140.131H230.868V139.357Z" fill="#332313"/>
<path d="M220.124 125.991H201.601V126.766H220.124V125.991Z" fill="#332313"/>
<path d="M245.014 143.662C245.014 143.662 240.752 141.374 243.243 140.139C245.365 139.087 245.014 143.662 245.014 143.662Z" fill="#BDBDBD"/>
<path d="M245.014 143.662C245.014 143.662 240.752 141.374 243.243 140.139L245.014 143.662Z" fill="#ABABAB"/>
<path d="M245.048 143.655C245.048 144.05 244.595 144.37 244.037 144.37C243.479 144.37 243.026 144.05 243.026 143.655C243.026 143.259 243.479 142.939 244.037 142.939C244.595 142.939 245.048 143.259 245.048 143.655Z" fill="#363636"/>
<path d="M246.866 142.627C246.76 142.627 246.658 142.635 246.556 142.644V144.666C246.657 144.676 246.759 144.684 246.866 144.684C246.965 144.684 247.059 144.675 247.153 144.667V142.643C247.058 142.634 246.963 142.627 246.866 142.627Z" fill="#F1C40F"/>
<path d="M245.674 142.884V144.426C245.848 144.511 246.049 144.578 246.271 144.622V142.687C246.049 142.731 245.848 142.798 245.674 142.884Z" fill="#F1C40F"/>
<path d="M247.437 142.683V144.626C247.659 144.584 247.86 144.521 248.034 144.436V142.872C247.86 142.79 247.659 142.725 247.437 142.683Z" fill="#F1C40F"/>
<path d="M245.048 143.655C245.048 143.878 245.177 144.083 245.39 144.251V143.057C245.177 143.226 245.048 143.432 245.048 143.655Z" fill="#F1C40F"/>
<path d="M248.683 143.655C248.683 143.425 248.544 143.214 248.319 143.042V144.267C248.544 144.096 248.683 143.885 248.683 143.655Z" fill="#F1C40F"/>
<path d="M245.39 143.059V144.252C245.472 144.316 245.569 144.374 245.674 144.427V142.885C245.569 142.935 245.472 142.993 245.39 143.059Z" fill="#363636"/>
<path d="M246.271 142.688V144.623C246.364 144.641 246.457 144.657 246.556 144.666V142.644C246.457 142.654 246.364 142.669 246.271 142.688Z" fill="#363636"/>
<path d="M247.153 142.643V144.667C247.251 144.658 247.345 144.644 247.437 144.626V142.683C247.345 142.666 247.25 142.652 247.153 142.643Z" fill="#363636"/>
<path d="M248.033 142.873V144.437C248.139 144.387 248.235 144.331 248.318 144.268V143.043C248.235 142.98 248.139 142.924 248.033 142.873Z" fill="#363636"/>
<path d="M245.008 143.656C245.008 143.656 243.69 138.714 246.37 139.485C248.652 140.142 245.008 143.656 245.008 143.656Z" fill="#BDBDBD"/>
<path d="M245.008 143.656C245.008 143.656 243.69 138.714 246.37 139.485L245.008 143.656Z" fill="#ABABAB"/>
<path d="M232.771 127.609C232.771 127.609 228.509 125.323 231 124.087C233.121 123.035 232.771 127.609 232.771 127.609Z" fill="#BDBDBD"/>
<path d="M232.771 127.609C232.771 127.609 228.509 125.323 231 124.087L232.771 127.609Z" fill="#ABABAB"/>
<path d="M232.804 127.604C232.804 127.999 232.353 128.319 231.794 128.319C231.235 128.319 230.783 127.999 230.783 127.604C230.783 127.208 231.236 126.888 231.794 126.888C232.351 126.888 232.804 127.207 232.804 127.604Z" fill="#363636"/>
<path d="M234.621 126.575C234.516 126.575 234.412 126.583 234.311 126.592V128.614C234.412 128.623 234.514 128.631 234.621 128.631C234.72 128.631 234.815 128.623 234.908 128.615V126.591C234.815 126.583 234.72 126.575 234.621 126.575Z" fill="#F1C40F"/>
<path d="M233.431 126.831V128.373C233.605 128.459 233.805 128.526 234.028 128.569V126.634C233.805 126.679 233.605 126.746 233.431 126.831Z" fill="#F1C40F"/>
<path d="M235.193 126.632V128.575C235.414 128.533 235.615 128.469 235.79 128.385V126.821C235.615 126.738 235.414 126.673 235.193 126.632Z" fill="#F1C40F"/>
<path d="M232.804 127.604C232.804 127.826 232.934 128.032 233.147 128.2V127.006C232.934 127.175 232.804 127.379 232.804 127.604Z" fill="#F1C40F"/>
<path d="M236.44 127.603C236.44 127.374 236.301 127.162 236.075 126.991V128.216C236.301 128.044 236.44 127.833 236.44 127.603Z" fill="#F1C40F"/>
<path d="M233.147 127.006V128.2C233.229 128.264 233.325 128.322 233.431 128.374V126.833C233.325 126.884 233.228 126.942 233.147 127.006Z" fill="#363636"/>
<path d="M234.028 126.636V128.57C234.12 128.589 234.214 128.604 234.312 128.614V126.592C234.214 126.601 234.119 126.618 234.028 126.636Z" fill="#363636"/>
<path d="M234.908 126.591V128.615C235.007 128.606 235.1 128.591 235.193 128.574V126.631C235.1 126.614 235.007 126.599 234.908 126.591Z" fill="#363636"/>
<path d="M235.79 126.821V128.385C235.896 128.335 235.992 128.278 236.074 128.216V126.991C235.992 126.928 235.896 126.871 235.79 126.821Z" fill="#363636"/>
<path d="M232.764 127.604C232.764 127.604 231.445 122.661 234.125 123.432C236.409 124.089 232.764 127.604 232.764 127.604Z" fill="#BDBDBD"/>
<path d="M232.764 127.604C232.764 127.604 231.445 122.661 234.125 123.432L232.764 127.604Z" fill="#ABABAB"/>
<path d="M178.868 159.721C178.868 159.721 183.13 157.434 180.64 156.199C178.517 155.146 178.868 159.721 178.868 159.721Z" fill="#BDBDBD"/>
<path d="M178.868 159.721C178.868 159.721 183.13 157.434 180.64 156.199L178.868 159.721Z" fill="#ABABAB"/>
<path d="M179.844 160.431C180.403 160.431 180.855 160.111 180.855 159.715C180.855 159.32 180.403 159 179.844 159C179.286 159 178.834 159.32 178.834 159.715C178.834 160.111 179.286 160.431 179.844 160.431Z" fill="#363636"/>
<path d="M177.017 158.686C177.122 158.686 177.225 158.695 177.327 158.704V160.726C177.226 160.735 177.124 160.743 177.017 160.743C176.918 160.743 176.823 160.735 176.73 160.727V158.703C176.824 158.695 176.918 158.686 177.017 158.686Z" fill="#F1C40F"/>
<path d="M178.207 158.944V160.486C178.033 160.572 177.833 160.639 177.61 160.682V158.747C177.833 158.792 178.035 158.859 178.207 158.944Z" fill="#F1C40F"/>
<path d="M176.445 158.744V160.687C176.224 160.645 176.023 160.581 175.848 160.497V158.933C176.023 158.849 176.224 158.786 176.445 158.744Z" fill="#F1C40F"/>
<path d="M178.834 159.715C178.834 159.938 178.704 160.144 178.491 160.311V159.118C178.706 159.287 178.834 159.492 178.834 159.715Z" fill="#F1C40F"/>
<path d="M175.199 159.715C175.199 159.485 175.339 159.274 175.564 159.103V160.328C175.339 160.156 175.199 159.945 175.199 159.715Z" fill="#F1C40F"/>
<path d="M178.493 159.118V160.311C178.41 160.376 178.314 160.433 178.208 160.486V158.944C178.313 158.996 178.41 159.054 178.493 159.118Z" fill="#363636"/>
<path d="M177.611 158.747V160.682C177.519 160.7 177.425 160.716 177.327 160.726V158.704C177.425 158.714 177.519 158.73 177.611 158.747Z" fill="#363636"/>
<path d="M176.73 158.703V160.727C176.631 160.717 176.538 160.703 176.445 160.686V158.743C176.538 158.726 176.631 158.712 176.73 158.703Z" fill="#363636"/>
<path d="M175.848 158.934V160.498C175.742 160.447 175.646 160.391 175.564 160.329V159.104C175.647 159.039 175.744 158.984 175.848 158.934Z" fill="#363636"/>
<path d="M178.874 159.716C178.874 159.716 180.193 154.774 177.513 155.545C175.229 156.201 178.874 159.716 178.874 159.716Z" fill="#BDBDBD"/>
<path d="M178.874 159.716C178.874 159.716 180.193 154.774 177.513 155.545L178.874 159.716Z" fill="#ABABAB"/>
<path d="M83.782 182.263H29.868V183.979H83.782V182.263Z" fill="#332313"/>
<path d="M78.4242 163.694H35.2861V175.552H78.4242V163.694Z" fill="#A6723E"/>
<path d="M79.691 137.555H33.5625V145.05H79.691V137.555Z" fill="#A6723E"/>
<path d="M79.691 137.555H33.5625V139.744H79.691V137.555Z" fill="#8C6134"/>
<path d="M79.691 145.049H33.5625V160.933H79.691V145.049Z" fill="#A6723E"/>
<path d="M79.691 145.049H33.5625V147.733H79.691V145.049Z" fill="#C4874A"/>
<path d="M79.691 158.25H33.5625V160.934H79.691V158.25Z" fill="#C4874A"/>
<path d="M79.691 160.934H33.5625V165.036H79.691V160.934Z" fill="#C4874A"/>
<path d="M79.691 147.734H77.1574V158.25H79.691V147.734Z" fill="#C4874A"/>
<path d="M36.0962 147.734H33.5625V158.25H36.0962V147.734Z" fill="#C4874A"/>
<path d="M36.0962 165.036H33.5625V175.552H36.0962V165.036Z" fill="#C4874A"/>
<path d="M79.691 165.036H77.1574V175.552H79.691V165.036Z" fill="#C4874A"/>
<path d="M77.1574 158.25L75.6788 149.3L36.0949 147.734H77.1574V158.25Z" fill="#8C6134"/>
<path d="M79.691 160.486H33.5625V160.933H79.691V160.486Z" fill="#8A5F34"/>
<path d="M83.782 175.552H29.868V182.263H83.782V175.552Z" fill="#7D562F"/>
<path d="M77.1574 175.552L75.5385 166.528L36.0949 165.036H77.1574V175.552Z" fill="#8C6134"/>
<path d="M46.9841 178.087H46.9472C45.9414 178.087 45.1264 178.864 45.1264 179.823V182.264H48.8037V179.823C48.8049 178.864 47.9899 178.087 46.9841 178.087Z" fill="#24190D"/>
<path d="M52.3653 182.263H41.5672V194.196H52.3653V182.263Z" fill="#A6723E"/>
<path d="M52.3653 185.583H41.5672V185.807H52.3653V185.583Z" fill="#5E4123"/>
<path d="M52.3653 190.243H41.5672V190.467H52.3653V190.243Z" fill="#5E4123"/>
<path d="M52.3653 194.196H41.5672V195.314H52.3653V194.196Z" fill="#5E4123"/>
<path d="M83.7833 183.979H81.4355V195.314H83.7833V183.979Z" fill="#332313"/>
<path d="M32.2551 183.979H29.9074V195.314H32.2551V183.979Z" fill="#332313"/>
<path d="M32.2551 183.979H29.9074V186.141H32.2551V183.979Z" fill="#140E08"/>
<path d="M83.7833 183.979H81.4355V186.141H83.7833V183.979Z" fill="#140E08"/>
<path d="M83.1566 175.924H30.3383V176.371H83.1566V175.924Z" fill="#AD7740"/>
<path d="M82.8291 134.135H30.4847V137.555H82.8291V134.135Z" fill="#582A1A"/>
<path d="M85.4391 144.369C85.4391 144.369 81.177 142.082 83.6675 140.847C85.7887 139.794 85.4391 144.369 85.4391 144.369Z" fill="#BDBDBD"/>
<path d="M85.4391 144.369C85.4391 144.369 81.177 142.082 83.6675 140.847L85.4391 144.369Z" fill="#ABABAB"/>
<path d="M85.4723 144.362C85.4723 144.758 85.0205 145.078 84.4616 145.078C83.9039 145.078 83.4509 144.758 83.4509 144.362C83.4509 143.967 83.9039 143.646 84.4616 143.646C85.0205 143.646 85.4723 143.967 85.4723 144.362Z" fill="#363636"/>
<path d="M87.2894 143.334C87.1836 143.334 87.0814 143.343 86.9792 143.352V145.374C87.0802 145.383 87.1823 145.391 87.2894 145.391C87.3879 145.391 87.4827 145.383 87.5763 145.375V143.351C87.4827 143.343 87.3879 143.334 87.2894 143.334Z" fill="#F1C40F"/>
<path d="M86.099 143.591V145.133C86.2726 145.219 86.4732 145.286 86.6961 145.329V143.394C86.4732 143.439 86.2726 143.506 86.099 143.591Z" fill="#F1C40F"/>
<path d="M87.8607 143.391V145.334C88.0823 145.292 88.283 145.228 88.4578 145.144V143.58C88.283 143.497 88.0823 143.433 87.8607 143.391Z" fill="#F1C40F"/>
<path d="M85.4724 144.362C85.4724 144.585 85.6004 144.791 85.8146 144.958V143.765C85.6016 143.935 85.4724 144.139 85.4724 144.362Z" fill="#F1C40F"/>
<path d="M89.1078 144.362C89.1078 144.132 88.9687 143.921 88.7434 143.75V144.975C88.9687 144.803 89.1078 144.593 89.1078 144.362Z" fill="#F1C40F"/>
<path d="M85.8146 143.766V144.959C85.8971 145.024 85.9931 145.081 86.099 145.134V143.593C85.9931 143.644 85.8958 143.702 85.8146 143.766Z" fill="#363636"/>
<path d="M86.6961 143.395V145.33C86.7884 145.349 86.882 145.364 86.9805 145.374V143.352C86.882 143.361 86.7884 143.377 86.6961 143.395Z" fill="#363636"/>
<path d="M87.5763 143.351V145.375C87.6748 145.365 87.7684 145.351 87.8607 145.334V143.391C87.7684 143.374 87.6748 143.359 87.5763 143.351Z" fill="#363636"/>
<path d="M88.4578 143.581V145.145C88.5637 145.094 88.6597 145.038 88.7422 144.975V143.75C88.6597 143.688 88.5637 143.631 88.4578 143.581Z" fill="#363636"/>
<path d="M85.4317 144.363C85.4317 144.363 84.1132 139.421 86.7933 140.192C89.077 140.849 85.4317 144.363 85.4317 144.363Z" fill="#BDBDBD"/>
<path d="M85.4317 144.363C85.4317 144.363 84.1132 139.421 86.7933 140.192L85.4317 144.363Z" fill="#ABABAB"/>
<path d="M34.1202 120.3C34.1202 120.3 38.3823 118.012 35.8918 116.777C33.7693 115.725 34.1202 120.3 34.1202 120.3Z" fill="#BDBDBD"/>
<path d="M34.1202 120.3C34.1202 120.3 38.3823 118.012 35.8918 116.777L34.1202 120.3Z" fill="#ABABAB"/>
<path d="M34.0858 120.292C34.0858 120.688 34.5388 121.008 35.0965 121.008C35.6542 121.008 36.1073 120.688 36.1073 120.292C36.1073 119.897 35.6554 119.577 35.0965 119.577C34.5388 119.577 34.0858 119.897 34.0858 120.292Z" fill="#363636"/>
<path d="M32.2686 119.265C32.3745 119.265 32.4767 119.273 32.5789 119.282V121.304C32.4779 121.313 32.3757 121.321 32.2686 121.321C32.1701 121.321 32.0753 121.313 31.9818 121.305V119.281C32.0766 119.273 32.1701 119.265 32.2686 119.265Z" fill="#F1C40F"/>
<path d="M33.4604 119.522V121.063C33.2868 121.149 33.0861 121.216 32.8633 121.259V119.324C33.0849 119.369 33.2868 119.436 33.4604 119.522Z" fill="#F1C40F"/>
<path d="M31.6974 119.321V121.264C31.4758 121.222 31.2751 121.158 31.1003 121.074V119.51C31.2751 119.428 31.4758 119.363 31.6974 119.321Z" fill="#F1C40F"/>
<path d="M34.0858 120.292C34.0858 120.515 33.9577 120.721 33.7435 120.89V119.696C33.9577 119.865 34.0858 120.07 34.0858 120.292Z" fill="#F1C40F"/>
<path d="M30.4515 120.292C30.4515 120.063 30.5906 119.851 30.8159 119.68V120.905C30.5906 120.734 30.4515 120.524 30.4515 120.292Z" fill="#F1C40F"/>
<path d="M33.7448 119.696V120.89C33.6623 120.954 33.5662 121.012 33.4604 121.065V119.523C33.565 119.574 33.6623 119.632 33.7448 119.696Z" fill="#363636"/>
<path d="M32.8633 119.326V121.26C32.7709 121.279 32.6773 121.295 32.5789 121.304V119.282C32.6773 119.292 32.7709 119.307 32.8633 119.326Z" fill="#363636"/>
<path d="M31.9818 119.281V121.305C31.8833 121.297 31.7898 121.282 31.6974 121.264V119.321C31.7898 119.305 31.8845 119.29 31.9818 119.281Z" fill="#363636"/>
<path d="M31.1003 119.511V121.075C30.9944 121.025 30.8984 120.968 30.8159 120.906V119.681C30.8997 119.618 30.9957 119.561 31.1003 119.511Z" fill="#363636"/>
<path d="M34.1264 120.294C34.1264 120.294 35.4449 115.352 32.7647 116.122C30.481 116.78 34.1264 120.294 34.1264 120.294Z" fill="#BDBDBD"/>
<path d="M34.1264 120.294C34.1264 120.294 35.4449 115.352 32.7648 116.122L34.1264 120.294Z" fill="#ABABAB"/>
<path d="M19.3321 150.956C19.3321 150.956 23.5942 148.668 21.1037 147.434C18.9825 146.382 19.3321 150.956 19.3321 150.956Z" fill="#BDBDBD"/>
<path d="M19.3321 150.956C19.3321 150.956 23.5942 148.668 21.1037 147.434L19.3321 150.956Z" fill="#ABABAB"/>
<path d="M20.3096 151.665C20.8678 151.665 21.3204 151.345 21.3204 150.949C21.3204 150.554 20.8678 150.234 20.3096 150.234C19.7514 150.234 19.2989 150.554 19.2989 150.949C19.2989 151.345 19.7514 151.665 20.3096 151.665Z" fill="#363636"/>
<path d="M17.4818 149.921C17.5876 149.921 17.6898 149.93 17.792 149.939V151.961C17.6911 151.97 17.5876 151.978 17.4818 151.978C17.3833 151.978 17.2885 151.97 17.1949 151.962V149.938C17.2885 149.93 17.3833 149.921 17.4818 149.921Z" fill="#F1C40F"/>
<path d="M18.6722 150.178V151.72C18.4986 151.806 18.298 151.873 18.0751 151.916V149.981C18.298 150.026 18.4999 150.093 18.6722 150.178Z" fill="#F1C40F"/>
<path d="M16.9105 149.979V151.922C16.6889 151.88 16.4882 151.816 16.3134 151.732V150.168C16.4882 150.085 16.6889 150.02 16.9105 149.979Z" fill="#F1C40F"/>
<path d="M19.2989 150.949C19.2989 151.172 19.1708 151.378 18.9566 151.547V150.353C19.1708 150.521 19.2989 150.726 19.2989 150.949Z" fill="#F1C40F"/>
<path d="M15.6646 150.949C15.6646 150.719 15.8037 150.508 16.029 150.337V151.562C15.8037 151.39 15.6646 151.18 15.6646 150.949Z" fill="#F1C40F"/>
<path d="M18.9579 150.353V151.547C18.8754 151.611 18.7794 151.669 18.6735 151.721V150.18C18.7781 150.231 18.8754 150.289 18.9579 150.353Z" fill="#363636"/>
<path d="M18.0764 149.983V151.917C17.984 151.935 17.8905 151.951 17.792 151.961V149.939C17.8905 149.948 17.984 149.964 18.0764 149.983Z" fill="#363636"/>
<path d="M17.1949 149.938V151.962C17.0964 151.953 17.0029 151.938 16.9105 151.921V149.978C17.0029 149.961 17.0964 149.947 17.1949 149.938Z" fill="#363636"/>
<path d="M16.3134 150.168V151.732C16.2076 151.681 16.1115 151.625 16.0291 151.563V150.338C16.1128 150.275 16.2088 150.218 16.3134 150.168Z" fill="#363636"/>
<path d="M19.3395 150.951C19.3395 150.951 20.658 146.008 17.9779 146.779C15.6942 147.436 19.3395 150.951 19.3395 150.951Z" fill="#BDBDBD"/>
<path d="M19.3395 150.951C19.3395 150.951 20.658 146.008 17.9779 146.779L19.3395 150.951Z" fill="#ABABAB"/>
<path d="M174.325 182.513H91.0136V185.164H174.325V182.513Z" fill="#332313"/>
<path d="M166.045 153.818H99.3851V172.142H166.045V153.818Z" fill="#A6723E"/>
<path d="M168.002 125.007H96.721V113.425L132.22 93.7188L168.002 113.425V125.007Z" fill="#A6723E"/>
<path d="M168.002 120.686L132.362 101.498L96.721 120.686V113.425L132.22 93.7188L168.002 113.425V120.686Z" fill="#8C6134"/>
<path d="M132.362 95.5657L89.4131 120.453V116.761L132.362 91.8732V95.5657Z" fill="#381B11"/>
<path d="M132.362 95.5657L175.309 120.453V116.761L132.362 91.8732V95.5657Z" fill="#582A1A"/>
<path d="M168.002 125.007H96.721V149.553H168.002V125.007Z" fill="#A6723E"/>
<path d="M168.002 125.007H96.721V129.156H168.002V125.007Z" fill="#C4874A"/>
<path d="M168.002 145.405H96.721V149.554H168.002V145.405Z" fill="#C4874A"/>
<path d="M168.002 149.554H96.721V155.893H168.002V149.554Z" fill="#C4874A"/>
<path d="M168.002 129.156H164.087V145.405H168.002V129.156Z" fill="#C4874A"/>
<path d="M100.636 129.156H96.721V145.405H100.636V129.156Z" fill="#C4874A"/>
<path d="M100.636 155.893H96.721V172.142H100.636V155.893Z" fill="#C4874A"/>
<path d="M168.002 155.893H164.087V172.142H168.002V155.893Z" fill="#C4874A"/>
<path d="M164.087 145.405L161.804 131.576L100.636 129.156H164.087V145.405Z" fill="#8C6134"/>
<path d="M168.002 148.863H96.721V149.554H168.002V148.863Z" fill="#8A5F34"/>
<path d="M174.325 172.142H91.0136V182.514H174.325V172.142Z" fill="#7D562F"/>
<path d="M164.087 172.142L161.586 158.197L100.636 155.893H164.087V172.142Z" fill="#8C6134"/>
<path d="M117.463 176.06H117.406C115.852 176.06 114.593 177.26 114.593 178.741V182.513H120.276V178.741C120.276 177.26 119.016 176.06 117.463 176.06Z" fill="#24190D"/>
<path d="M125.778 182.513H109.091V200.952H125.778V182.513Z" fill="#A6723E"/>
<path d="M125.778 187.642H109.091V187.988H125.778V187.642Z" fill="#5E4123"/>
<path d="M125.778 194.845H109.091V195.191H125.778V194.845Z" fill="#5E4123"/>
<path d="M125.778 200.952H109.091V202.68H125.778V200.952Z" fill="#5E4123"/>
<path d="M174.325 185.164H170.698V202.68H174.325V185.164Z" fill="#332313"/>
<path d="M94.7008 185.164H91.0739V202.68H94.7008V185.164Z" fill="#332313"/>
<path d="M94.7008 185.164H91.0739V188.505H94.7008V185.164Z" fill="#140E08"/>
<path d="M174.325 185.164H170.698V188.505H174.325V185.164Z" fill="#140E08"/>
<path d="M173.358 172.718H91.7387V173.409H173.358V172.718Z" fill="#AD7740"/>
<path d="M188.713 143.15C188.713 143.15 182.193 139.651 186.002 137.761C189.249 136.151 188.713 143.15 188.713 143.15Z" fill="#BDBDBD"/>
<path d="M188.713 143.15C188.713 143.15 182.193 139.651 186.002 137.761L188.713 143.15Z" fill="#ABABAB"/>
<path d="M188.764 143.14C188.764 143.745 188.072 144.236 187.218 144.236C186.363 144.236 185.671 143.745 185.671 143.14C185.671 142.534 186.363 142.044 187.218 142.044C188.072 142.044 188.764 142.534 188.764 143.14Z" fill="#363636"/>
<path d="M191.545 141.566C191.382 141.566 191.226 141.578 191.071 141.593V144.685C191.226 144.7 191.382 144.712 191.545 144.712C191.695 144.712 191.84 144.7 191.983 144.687V141.591C191.839 141.578 191.695 141.566 191.545 141.566Z" fill="#F1C40F"/>
<path d="M189.723 141.96V144.32C189.989 144.451 190.295 144.553 190.635 144.62V141.661C190.295 141.727 189.988 141.829 189.723 141.96Z" fill="#F1C40F"/>
<path d="M192.419 141.653V144.625C192.758 144.561 193.065 144.463 193.331 144.335V141.943C193.064 141.816 192.758 141.718 192.419 141.653Z" fill="#F1C40F"/>
<path d="M188.764 143.14C188.764 143.481 188.961 143.794 189.287 144.052V142.227C188.961 142.485 188.764 142.798 188.764 143.14Z" fill="#F1C40F"/>
<path d="M194.325 143.14C194.325 142.788 194.113 142.465 193.767 142.203V144.077C194.113 143.814 194.325 143.492 194.325 143.14Z" fill="#F1C40F"/>
<path d="M189.287 142.227V144.052C189.413 144.152 189.56 144.239 189.722 144.32V141.96C189.56 142.04 189.413 142.128 189.287 142.227Z" fill="#363636"/>
<path d="M190.635 141.66V144.619C190.777 144.647 190.92 144.671 191.07 144.686V141.594C190.921 141.608 190.777 141.632 190.635 141.66Z" fill="#363636"/>
<path d="M191.983 141.592V144.688C192.133 144.674 192.277 144.653 192.419 144.626V141.654C192.277 141.627 192.133 141.605 191.983 141.592Z" fill="#363636"/>
<path d="M193.331 141.944V144.336C193.493 144.259 193.639 144.173 193.767 144.077V142.203C193.64 142.107 193.493 142.021 193.331 141.944Z" fill="#363636"/>
<path d="M188.702 143.141C188.702 143.141 186.686 135.581 190.785 136.76C194.279 137.765 188.702 143.141 188.702 143.141Z" fill="#BDBDBD"/>
<path d="M188.702 143.141C188.702 143.141 186.686 135.581 190.785 136.76L188.702 143.141Z" fill="#ABABAB"/>
<path d="M70.5476 156.294C70.5476 156.294 77.0675 152.795 73.2585 150.906C70.012 149.295 70.5476 156.294 70.5476 156.294Z" fill="#BDBDBD"/>
<path d="M70.5476 156.294C70.5476 156.294 77.0675 152.795 73.2585 150.906L70.5476 156.294Z" fill="#ABABAB"/>
<path d="M70.4959 156.283C70.4959 156.889 71.1878 157.379 72.0422 157.379C72.8966 157.379 73.5884 156.889 73.5884 156.283C73.5884 155.678 72.8966 155.187 72.0422 155.187C71.1878 155.187 70.4959 155.679 70.4959 156.283Z" fill="#363636"/>
<path d="M67.716 154.711C67.8785 154.711 68.0349 154.723 68.19 154.738V157.83C68.0349 157.845 67.8785 157.857 67.716 157.857C67.5658 157.857 67.4206 157.845 67.2778 157.832V154.736C67.4218 154.723 67.5658 154.711 67.716 154.711Z" fill="#F1C40F"/>
<path d="M69.5381 155.104V157.464C69.2722 157.595 68.9656 157.697 68.6259 157.764V154.804C68.9656 154.871 69.2722 154.973 69.5381 155.104Z" fill="#F1C40F"/>
<path d="M66.842 154.798V157.77C66.5034 157.705 66.1956 157.608 65.9297 157.48V155.088C66.1969 154.96 66.5034 154.861 66.842 154.798Z" fill="#F1C40F"/>
<path d="M70.4959 156.283C70.4959 156.625 70.2989 156.938 69.9727 157.196V155.37C70.3001 155.629 70.4959 155.942 70.4959 156.283Z" fill="#F1C40F"/>
<path d="M64.9362 156.283C64.9362 155.931 65.1479 155.609 65.4939 155.347V157.221C65.1479 156.958 64.9362 156.636 64.9362 156.283Z" fill="#F1C40F"/>
<path d="M69.9739 155.37V157.196C69.8483 157.295 69.7006 157.383 69.5393 157.462V155.103C69.6994 155.184 69.8483 155.272 69.9739 155.37Z" fill="#363636"/>
<path d="M68.6258 154.804V157.764C68.4843 157.792 68.3414 157.816 68.1912 157.83V154.738C68.3402 154.752 68.4843 154.776 68.6258 154.804Z" fill="#363636"/>
<path d="M67.2778 154.736V157.832C67.1276 157.818 66.9835 157.797 66.8419 157.77V154.798C66.9835 154.771 67.1276 154.749 67.2778 154.736Z" fill="#363636"/>
<path d="M65.9297 155.088V157.48C65.7684 157.403 65.6219 157.317 65.4951 157.221V155.347C65.6207 155.251 65.7684 155.165 65.9297 155.088Z" fill="#363636"/>
<path d="M70.5586 156.286C70.5586 156.286 72.5752 148.726 68.4756 149.905C64.9817 150.908 70.5586 156.286 70.5586 156.286Z" fill="#BDBDBD"/>
<path d="M70.5587 156.286C70.5587 156.286 72.5752 148.726 68.4756 149.905L70.5587 156.286Z" fill="#ABABAB"/>
<path d="M78.2605 112.582C78.2605 112.582 84.7805 109.084 80.9714 107.193C77.725 105.584 78.2605 112.582 78.2605 112.582Z" fill="#BDBDBD"/>
<path d="M78.2605 112.582C78.2605 112.582 84.7805 109.084 80.9714 107.193L78.2605 112.582Z" fill="#ABABAB"/>
<path d="M78.2088 112.573C78.2088 113.179 78.9007 113.669 79.7551 113.669C80.6094 113.669 81.3013 113.179 81.3013 112.573C81.3013 111.968 80.6094 111.477 79.7551 111.477C78.9007 111.477 78.2088 111.968 78.2088 112.573Z" fill="#363636"/>
<path d="M75.4289 111C75.5914 111 75.7478 111.011 75.9029 111.027V114.118C75.7478 114.134 75.5914 114.145 75.4289 114.145C75.2787 114.145 75.1335 114.134 74.9894 114.121V111.024C75.1335 111.011 75.2787 111 75.4289 111Z" fill="#F1C40F"/>
<path d="M77.251 111.393V113.752C76.9851 113.884 76.6785 113.986 76.3387 114.053V111.094C76.6773 111.159 76.9851 111.261 77.251 111.393Z" fill="#F1C40F"/>
<path d="M74.5549 111.087V114.059C74.2163 113.995 73.9085 113.897 73.6426 113.769V111.376C73.9085 111.248 74.2151 111.15 74.5549 111.087Z" fill="#F1C40F"/>
<path d="M78.2088 112.573C78.2088 112.915 78.0118 113.228 77.6855 113.486V111.66C78.0118 111.917 78.2088 112.232 78.2088 112.573Z" fill="#F1C40F"/>
<path d="M72.6491 112.573C72.6491 112.221 72.8608 111.898 73.2068 111.637V113.511C72.8608 113.247 72.6491 112.925 72.6491 112.573Z" fill="#F1C40F"/>
<path d="M77.6856 111.66V113.486C77.56 113.586 77.4123 113.673 77.251 113.752V111.393C77.4123 111.473 77.56 111.561 77.6856 111.66Z" fill="#363636"/>
<path d="M76.3375 111.092V114.052C76.1959 114.08 76.0531 114.103 75.9017 114.117V111.025C76.0531 111.041 76.1971 111.065 76.3375 111.092Z" fill="#363636"/>
<path d="M74.9894 111.024V114.121C74.8392 114.107 74.6952 114.086 74.5536 114.059V111.087C74.6952 111.06 74.8392 111.038 74.9894 111.024Z" fill="#363636"/>
<path d="M73.6414 111.376V113.769C73.4801 113.691 73.3336 113.606 73.2068 113.509V111.636C73.3336 111.539 73.4801 111.454 73.6414 111.376Z" fill="#363636"/>
<path d="M78.2703 112.574C78.2703 112.574 80.2869 105.015 76.1873 106.194C72.6947 107.197 78.2703 112.574 78.2703 112.574Z" fill="#BDBDBD"/>
<path d="M78.2703 112.574C78.2703 112.574 80.2869 105.015 76.1873 106.194L78.2703 112.574Z" fill="#ABABAB"/>
<path d="M233.758 55.3485C232.357 50.6387 227.822 47.1833 222.431 47.1833C217.071 47.1833 212.555 50.5976 211.126 55.2663C206.161 55.4048 202.178 59.2756 202.178 64.0417V64.2189C202.178 69.073 206.306 73.0071 211.399 73.0071H232.476C237.569 73.0071 241.697 69.073 241.697 64.2189V64.0417C241.697 59.6041 238.242 55.9445 233.758 55.3485Z" fill="white"/>
<path d="M38.2641 43.7442C37.2485 40.331 33.9627 37.8283 30.0563 37.8283C26.1722 37.8283 22.8999 40.3016 21.8645 43.6844C18.2672 43.7853 15.3815 46.5895 15.3815 50.0427V50.1717C15.3815 53.6882 18.3731 56.5394 22.0627 56.5394H37.3347C41.0243 56.5394 44.0159 53.6882 44.0159 50.1717V50.0427C44.0159 46.8277 41.5131 44.176 38.2641 43.7442Z" fill="white"/>
<path d="M132.767 17.5965C131.875 14.601 128.991 12.4033 125.561 12.4033C122.151 12.4033 119.279 14.5751 118.369 17.5449C115.211 17.6329 112.677 20.0957 112.677 23.1264V23.239C112.677 26.3261 115.303 28.8288 118.542 28.8288H131.949C135.188 28.8288 137.814 26.3261 137.814 23.239V23.1264C137.817 20.3033 135.619 17.9755 132.767 17.5965Z" fill="white"/>
<path d="M193.946 20.6307C192.775 16.6954 188.985 13.809 184.481 13.809C180.002 13.809 176.229 16.6613 175.034 20.5627C170.886 20.6788 167.558 23.9125 167.558 27.8948V28.0427C167.558 32.0977 171.007 35.3854 175.262 35.3854H192.873C197.128 35.3854 200.578 32.0977 200.578 28.0427V27.8948C200.578 24.1859 197.692 21.1282 193.946 20.6307Z" fill="#FFD063"/>
<path d="M78.2987 6.36532C77.2054 2.69279 73.6697 0 69.4667 0C65.287 0 61.7673 2.66112 60.6531 6.30198C56.7825 6.40992 53.6776 9.42773 53.6776 13.1437V13.2821C53.6776 17.0661 56.8958 20.1332 60.8661 20.1332H77.2977C81.2681 20.1332 84.4862 17.0661 84.4862 13.2821V13.1437C84.4862 9.68234 81.7938 6.82996 78.2987 6.36532Z" fill="#FFD063"/>
<path d="M184.691 196.063C184.691 196.063 178.237 193.585 178.981 196.903C179.726 200.22 184.691 196.063 184.691 196.063Z" fill="#25751E"/>
<path d="M179.279 196.788C179.362 197.105 184.09 196.121 184.09 196.121C184.09 196.121 179.196 196.472 179.279 196.788Z" fill="#1F6119"/>
<path d="M172.939 201.575C172.939 201.575 178.445 204.506 178.173 201.443C177.9 198.379 172.939 201.575 172.939 201.575Z" fill="#25751E"/>
<path d="M177.891 201.512C177.854 201.218 173.487 201.587 173.487 201.587C173.487 201.587 177.928 201.806 177.891 201.512Z" fill="#1F6119"/>
<path d="M179.052 191.128H178.041V207.267H179.052V191.128Z" fill="#25751E"/>
<path d="M178.74 188.238C178.74 188.238 178.842 184.307 180.183 184.821C181.522 185.335 178.74 188.238 178.74 188.238Z" fill="#CC790D"/>
<path d="M178.74 188.238C178.74 188.238 179.108 186.46 179.437 186.587C179.767 186.713 178.74 188.238 178.74 188.238Z" fill="#A6620B"/>
<path d="M179.017 188.499C179.017 188.499 182.006 185.789 182.573 187.056C183.138 188.322 179.017 188.499 179.017 188.499Z" fill="#CC790D"/>
<path d="M179.017 188.499C179.017 188.499 180.597 187.49 180.736 187.801C180.874 188.112 179.017 188.499 179.017 188.499Z" fill="#A6620B"/>
<path d="M179.018 188.87C179.018 188.87 183.143 188.968 182.603 190.245C182.064 191.523 179.018 188.87 179.018 188.87Z" fill="#CC790D"/>
<path d="M179.018 188.87C179.018 188.87 180.883 189.221 180.75 189.534C180.619 189.849 179.018 188.87 179.018 188.87Z" fill="#A6620B"/>
<path d="M178.744 189.134C178.744 189.134 181.588 191.983 180.258 192.523C178.93 193.063 178.744 189.134 178.744 189.134Z" fill="#CC790D"/>
<path d="M178.744 189.134C178.744 189.134 179.803 190.64 179.476 190.772C179.15 190.905 178.744 189.134 178.744 189.134Z" fill="#A6620B"/>
<path d="M178.355 189.137C178.355 189.137 178.253 193.067 176.912 192.553C175.571 192.038 178.355 189.137 178.355 189.137Z" fill="#CC790D"/>
<path d="M178.355 189.137C178.355 189.137 177.987 190.914 177.658 190.788C177.328 190.661 178.355 189.137 178.355 189.137Z" fill="#A6620B"/>
<path d="M178.078 188.875C178.078 188.875 175.089 191.585 174.522 190.318C173.956 189.052 178.078 188.875 178.078 188.875Z" fill="#CC790D"/>
<path d="M178.078 188.875C178.078 188.875 176.498 189.884 176.359 189.573C176.22 189.261 178.078 188.875 178.078 188.875Z" fill="#A6620B"/>
<path d="M178.077 188.503C178.077 188.503 173.952 188.406 174.491 187.128C175.031 185.851 178.077 188.503 178.077 188.503Z" fill="#CC790D"/>
<path d="M178.076 188.503C178.076 188.503 176.211 188.152 176.344 187.839C176.477 187.526 178.076 188.503 178.076 188.503Z" fill="#A6620B"/>
<path d="M178.35 188.239C178.35 188.239 175.506 185.391 176.836 184.85C178.165 184.312 178.35 188.239 178.35 188.239Z" fill="#CC790D"/>
<path d="M178.35 188.239C178.35 188.239 177.291 186.734 177.617 186.601C177.944 186.468 178.35 188.239 178.35 188.239Z" fill="#A6620B"/>
<path d="M178.544 188.201C178.544 188.201 177.055 184.535 178.5 184.518C179.944 184.503 178.544 188.201 178.544 188.201Z" fill="#F18F0F"/>
<path d="M178.544 188.201C178.544 188.201 178.168 186.425 178.522 186.422C178.878 186.418 178.544 188.201 178.544 188.201Z" fill="#F18F0F"/>
<path d="M178.908 188.345C178.908 188.345 180.603 184.76 181.628 185.729C182.655 186.698 178.908 188.345 178.908 188.345Z" fill="#F18F0F"/>
<path d="M178.908 188.345C178.908 188.345 179.97 186.843 180.222 187.081C180.475 187.318 178.908 188.345 178.908 188.345Z" fill="#F18F0F"/>
<path d="M179.056 188.687C179.056 188.687 182.915 187.294 182.921 188.672C182.927 190.049 179.056 188.687 179.056 188.687Z" fill="#F18F0F"/>
<path d="M179.056 188.687C179.056 188.687 180.923 188.341 180.924 188.679C180.925 189.018 179.056 188.687 179.056 188.687Z" fill="#F18F0F"/>
<path d="M178.91 189.028C178.91 189.028 182.686 190.613 181.676 191.598C180.668 192.584 178.91 189.028 178.91 189.028Z" fill="#F18F0F"/>
<path d="M178.91 189.028C178.91 189.028 180.494 190.028 180.247 190.27C180 190.513 178.91 189.028 178.91 189.028Z" fill="#F18F0F"/>
<path d="M178.55 189.172C178.55 189.172 180.044 192.837 178.6 192.855C177.156 192.873 178.55 189.172 178.55 189.172Z" fill="#F18F0F"/>
<path d="M178.55 189.172C178.55 189.172 178.928 190.947 178.574 190.952C178.219 190.956 178.55 189.172 178.55 189.172Z" fill="#F18F0F"/>
<path d="M178.19 189.032C178.19 189.032 176.527 192.631 175.492 191.669C174.458 190.709 178.19 189.032 178.19 189.032Z" fill="#F18F0F"/>
<path d="M178.19 189.032C178.19 189.032 177.14 190.542 176.886 190.306C176.632 190.071 178.19 189.032 178.19 189.032Z" fill="#F18F0F"/>
<path d="M178.038 188.691C178.038 188.691 174.192 190.114 174.175 188.738C174.155 187.36 178.038 188.691 178.038 188.691Z" fill="#F18F0F"/>
<path d="M178.038 188.691C178.038 188.691 176.176 189.051 176.171 188.713C176.166 188.375 178.038 188.691 178.038 188.691Z" fill="#F18F0F"/>
<path d="M178.185 188.346C178.185 188.346 174.409 186.761 175.419 185.775C176.427 184.789 178.185 188.346 178.185 188.346Z" fill="#F18F0F"/>
<path d="M178.185 188.346C178.185 188.346 176.6 187.345 176.848 187.103C177.095 186.862 178.185 188.346 178.185 188.346Z" fill="#F18F0F"/>
<path d="M179.782 189.166C179.507 189.815 178.733 190.129 178.052 189.869C177.371 189.607 177.041 188.869 177.314 188.22C177.589 187.571 178.363 187.257 179.044 187.517C179.725 187.779 180.055 188.517 179.782 189.166Z" fill="#F1C40F"/>
<path d="M178.293 188.773C178.568 189.387 179.7 189.538 179.055 189.8C178.411 190.061 177.667 189.776 177.392 189.161C177.118 188.548 177.417 187.838 178.062 187.576C178.706 187.316 178.019 188.159 178.293 188.773Z" fill="#D6AE0D"/>
<path d="M179.023 187.566C180.077 188.115 179.691 189.188 179.691 189.188C179.585 189.147 179.577 188.142 179.023 187.566Z" fill="#FFE270"/>
<path d="M152.969 192.722C152.969 192.722 145.175 189.73 146.074 193.736C146.973 197.742 152.969 192.722 152.969 192.722Z" fill="#25751E"/>
<path d="M146.433 193.599C146.534 193.981 152.242 192.794 152.242 192.794C152.242 192.794 146.332 193.216 146.433 193.599Z" fill="#1F6119"/>
<path d="M138.778 199.379C138.778 199.379 145.425 202.917 145.098 199.218C144.769 195.52 138.778 199.379 138.778 199.379Z" fill="#25751E"/>
<path d="M144.758 199.302C144.713 198.948 139.441 199.393 139.441 199.393C139.441 199.393 144.802 199.657 144.758 199.302Z" fill="#1F6119"/>
<path d="M146.159 186.763H144.939V206.251H146.159V186.763Z" fill="#25751E"/>
<path d="M145.782 183.274C145.782 183.274 145.905 178.527 147.524 179.148C149.143 179.769 145.782 183.274 145.782 183.274Z" fill="#CC790D"/>
<path d="M145.782 183.273C145.782 183.273 146.226 181.127 146.624 181.28C147.022 181.433 145.782 183.273 145.782 183.273Z" fill="#A6620B"/>
<path d="M146.117 183.589C146.117 183.589 149.725 180.317 150.41 181.846C151.093 183.376 146.117 183.589 146.117 183.589Z" fill="#CC790D"/>
<path d="M146.117 183.589C146.117 183.589 148.024 182.371 148.191 182.747C148.359 183.122 146.117 183.589 146.117 183.589Z" fill="#A6620B"/>
<path d="M146.118 184.039C146.118 184.039 151.098 184.156 150.447 185.699C149.795 187.241 146.118 184.039 146.118 184.039Z" fill="#CC790D"/>
<path d="M146.118 184.039C146.118 184.039 148.37 184.462 148.21 184.841C148.051 185.219 146.118 184.039 146.118 184.039Z" fill="#A6620B"/>
<path d="M145.787 184.356C145.787 184.356 149.221 187.796 147.616 188.448C146.012 189.099 145.787 184.356 145.787 184.356Z" fill="#CC790D"/>
<path d="M145.787 184.356C145.787 184.356 147.065 186.174 146.671 186.334C146.277 186.494 145.787 184.356 145.787 184.356Z" fill="#A6620B"/>
<path d="M145.317 184.359C145.317 184.359 145.194 189.105 143.575 188.484C141.957 187.864 145.317 184.359 145.317 184.359Z" fill="#CC790D"/>
<path d="M145.317 184.359C145.317 184.359 144.872 186.505 144.475 186.352C144.077 186.2 145.317 184.359 145.317 184.359Z" fill="#A6620B"/>
<path d="M144.983 184.043C144.983 184.043 141.375 187.316 140.69 185.787C140.007 184.257 144.983 184.043 144.983 184.043Z" fill="#CC790D"/>
<path d="M144.983 184.043C144.983 184.043 143.076 185.261 142.909 184.886C142.74 184.51 144.983 184.043 144.983 184.043Z" fill="#A6620B"/>
<path d="M144.981 183.595C144.981 183.595 140.001 183.478 140.652 181.935C141.303 180.392 144.981 183.595 144.981 183.595Z" fill="#CC790D"/>
<path d="M144.981 183.595C144.981 183.595 142.729 183.171 142.889 182.792C143.049 182.413 144.981 183.595 144.981 183.595Z" fill="#A6620B"/>
<path d="M145.312 183.276C145.312 183.276 141.878 179.837 143.482 179.184C145.088 178.533 145.312 183.276 145.312 183.276Z" fill="#CC790D"/>
<path d="M145.312 183.276C145.312 183.276 144.034 181.458 144.428 181.299C144.822 181.138 145.312 183.276 145.312 183.276Z" fill="#A6620B"/>
<path d="M145.546 183.23C145.546 183.23 143.747 178.803 145.491 178.783C147.237 178.764 145.546 183.23 145.546 183.23Z" fill="#F18F0F"/>
<path d="M145.546 183.23C145.546 183.23 145.091 181.085 145.52 181.081C145.948 181.077 145.546 183.23 145.546 183.23Z" fill="#F18F0F"/>
<path d="M145.985 183.403C145.985 183.403 148.031 179.074 149.27 180.245C150.509 181.416 145.985 183.403 145.985 183.403Z" fill="#F18F0F"/>
<path d="M145.985 183.403C145.985 183.403 147.269 181.589 147.573 181.876C147.877 182.164 145.985 183.403 145.985 183.403Z" fill="#F18F0F"/>
<path d="M146.164 183.817C146.164 183.817 150.822 182.135 150.83 183.798C150.837 185.461 146.164 183.817 146.164 183.817Z" fill="#F18F0F"/>
<path d="M146.164 183.817C146.164 183.817 148.417 183.399 148.419 183.807C148.422 184.217 146.164 183.817 146.164 183.817Z" fill="#F18F0F"/>
<path d="M145.988 184.227C145.988 184.227 150.546 186.141 149.329 187.332C148.111 188.523 145.988 184.227 145.988 184.227Z" fill="#F18F0F"/>
<path d="M145.988 184.227C145.988 184.227 147.902 185.436 147.603 185.728C147.302 186.02 145.988 184.227 145.988 184.227Z" fill="#F18F0F"/>
<path d="M145.554 184.402C145.554 184.402 147.358 188.828 145.613 188.849C143.869 188.87 145.554 184.402 145.554 184.402Z" fill="#F18F0F"/>
<path d="M145.554 184.402C145.554 184.402 146.011 186.546 145.583 186.552C145.154 186.556 145.554 184.402 145.554 184.402Z" fill="#F18F0F"/>
<path d="M145.118 184.233C145.118 184.233 143.111 188.578 141.861 187.418C140.611 186.257 145.118 184.233 145.118 184.233Z" fill="#F18F0F"/>
<path d="M145.118 184.233C145.118 184.233 143.85 186.058 143.544 185.773C143.237 185.488 145.118 184.233 145.118 184.233Z" fill="#F18F0F"/>
<path d="M144.935 183.82C144.935 183.82 140.291 185.539 140.269 183.877C140.247 182.214 144.935 183.82 144.935 183.82Z" fill="#F18F0F"/>
<path d="M144.935 183.82C144.935 183.82 142.686 184.256 142.68 183.847C142.675 183.439 144.935 183.82 144.935 183.82Z" fill="#F18F0F"/>
<path d="M145.111 183.405C145.111 183.405 140.552 181.491 141.77 180.3C142.989 179.109 145.111 183.405 145.111 183.405Z" fill="#F18F0F"/>
<path d="M145.111 183.405C145.111 183.405 143.197 182.196 143.496 181.904C143.796 181.612 145.111 183.405 145.111 183.405Z" fill="#F18F0F"/>
<path d="M147.039 184.395C146.708 185.179 145.772 185.559 144.95 185.243C144.127 184.928 143.729 184.037 144.06 183.252C144.391 182.469 145.326 182.088 146.149 182.404C146.972 182.72 147.37 183.611 147.039 184.395Z" fill="#F1C40F"/>
<path d="M145.243 183.92C145.574 184.662 146.94 184.845 146.164 185.16C145.386 185.476 144.487 185.131 144.156 184.39C143.825 183.649 144.186 182.792 144.963 182.477C145.741 182.16 144.912 183.18 145.243 183.92Z" fill="#D6AE0D"/>
<path d="M146.125 182.462C147.398 183.124 146.931 184.421 146.931 184.421C146.801 184.372 146.793 183.157 146.125 182.462Z" fill="#FFE270"/>
<path d="M67.9844 190.825C67.9844 190.825 61.5297 188.347 62.2745 191.665C63.0193 194.982 67.9844 190.825 67.9844 190.825Z" fill="#25751E"/>
<path d="M62.5724 191.551C62.6562 191.868 67.3836 190.885 67.3836 190.885C67.3836 190.885 62.4887 191.235 62.5724 191.551Z" fill="#1F6119"/>
<path d="M56.2322 196.337C56.2322 196.337 61.7378 199.268 61.4657 196.205C61.1936 193.141 56.2322 196.337 56.2322 196.337Z" fill="#25751E"/>
<path d="M61.1838 196.275C61.1468 195.982 56.7801 196.35 56.7801 196.35C56.7801 196.35 61.2207 196.569 61.1838 196.275Z" fill="#1F6119"/>
<path d="M62.3447 185.89H61.334V202.029H62.3447V185.89Z" fill="#25751E"/>
<path d="M62.0332 183C62.0332 183 62.1354 179.069 63.4761 179.583C64.8155 180.098 62.0332 183 62.0332 183Z" fill="#CC790D"/>
<path d="M62.0332 183C62.0332 183 62.4013 181.222 62.7301 181.349C63.06 181.476 62.0332 183 62.0332 183Z" fill="#A6620B"/>
<path d="M62.3102 183.262C62.3102 183.262 65.2981 180.551 65.8645 181.819C66.4308 183.085 62.3102 183.262 62.3102 183.262Z" fill="#CC790D"/>
<path d="M62.3102 183.262C62.3102 183.262 63.8898 182.253 64.0289 182.564C64.1668 182.876 62.3102 183.262 62.3102 183.262Z" fill="#A6620B"/>
<path d="M62.3114 183.634C62.3114 183.634 66.4357 183.731 65.8964 185.009C65.3572 186.285 62.3114 183.634 62.3114 183.634Z" fill="#CC790D"/>
<path d="M62.3114 183.634C62.3114 183.634 64.1766 183.985 64.0436 184.298C63.9107 184.611 62.3114 183.634 62.3114 183.634Z" fill="#A6620B"/>
<path d="M62.0369 183.897C62.0369 183.897 64.8808 186.744 63.5512 187.285C62.2228 187.825 62.0369 183.897 62.0369 183.897Z" fill="#CC790D"/>
<path d="M62.0369 183.897C62.0369 183.897 63.0957 185.402 62.7694 185.535C62.4432 185.667 62.0369 183.897 62.0369 183.897Z" fill="#A6620B"/>
<path d="M61.6478 183.899C61.6478 183.899 61.5457 187.83 60.205 187.316C58.8643 186.802 61.6478 183.899 61.6478 183.899Z" fill="#CC790D"/>
<path d="M61.6479 183.899C61.6479 183.899 61.2798 185.676 60.9511 185.55C60.6212 185.424 61.6479 183.899 61.6479 183.899Z" fill="#A6620B"/>
<path d="M61.3709 183.637C61.3709 183.637 58.3818 186.348 57.8155 185.08C57.2491 183.814 61.3709 183.637 61.3709 183.637Z" fill="#CC790D"/>
<path d="M61.3709 183.637C61.3709 183.637 59.7914 184.646 59.6523 184.335C59.5132 184.024 61.3709 183.637 61.3709 183.637Z" fill="#A6620B"/>
<path d="M61.3697 183.266C61.3697 183.266 57.2454 183.169 57.7847 181.891C58.3239 180.614 61.3697 183.266 61.3697 183.266Z" fill="#CC790D"/>
<path d="M61.3697 183.266C61.3697 183.266 59.5045 182.916 59.6375 182.602C59.7692 182.288 61.3697 183.266 61.3697 183.266Z" fill="#A6620B"/>
<path d="M61.6442 183.002C61.6442 183.002 58.8003 180.155 60.1299 179.614C61.4583 179.074 61.6442 183.002 61.6442 183.002Z" fill="#CC790D"/>
<path d="M61.6442 183.002C61.6442 183.002 60.5854 181.497 60.9117 181.364C61.2379 181.232 61.6442 183.002 61.6442 183.002Z" fill="#A6620B"/>
<path d="M61.8375 182.965C61.8375 182.965 60.3478 179.298 61.7931 179.282C63.2372 179.267 61.8375 182.965 61.8375 182.965Z" fill="#F18F0F"/>
<path d="M61.8375 182.965C61.8375 182.965 61.4607 181.188 61.8153 181.185C62.1699 181.181 61.8375 182.965 61.8375 182.965Z" fill="#F18F0F"/>
<path d="M62.2007 183.107C62.2007 183.107 63.8959 179.522 64.9214 180.492C65.9482 181.462 62.2007 183.107 62.2007 183.107Z" fill="#F18F0F"/>
<path d="M62.2007 183.107C62.2007 183.107 63.2644 181.605 63.5155 181.843C63.7679 182.081 62.2007 183.107 62.2007 183.107Z" fill="#F18F0F"/>
<path d="M62.3496 183.451C62.3496 183.451 66.2079 182.058 66.2141 183.435C66.219 184.812 62.3496 183.451 62.3496 183.451Z" fill="#F18F0F"/>
<path d="M62.3496 183.451C62.3496 183.451 64.216 183.105 64.2172 183.444C64.2184 183.782 62.3496 183.451 62.3496 183.451Z" fill="#F18F0F"/>
<path d="M62.2031 183.79C62.2031 183.79 65.979 185.375 64.9694 186.361C63.9612 187.347 62.2031 183.79 62.2031 183.79Z" fill="#F18F0F"/>
<path d="M62.2031 183.79C62.2031 183.79 63.7888 184.791 63.5401 185.032C63.2927 185.275 62.2031 183.79 62.2031 183.79Z" fill="#F18F0F"/>
<path d="M61.8437 183.935C61.8437 183.935 63.337 187.601 61.8929 187.618C60.4488 187.635 61.8437 183.935 61.8437 183.935Z" fill="#F18F0F"/>
<path d="M61.8436 183.935C61.8436 183.935 62.2216 185.71 61.867 185.715C61.5124 185.719 61.8436 183.935 61.8436 183.935Z" fill="#F18F0F"/>
<path d="M61.4829 183.796C61.4829 183.796 59.8197 187.394 58.7856 186.432C57.7514 185.471 61.4829 183.796 61.4829 183.796Z" fill="#F18F0F"/>
<path d="M61.4829 183.796C61.4829 183.796 60.4328 185.307 60.1792 185.07C59.9256 184.834 61.4829 183.796 61.4829 183.796Z" fill="#F18F0F"/>
<path d="M61.3315 183.453C61.3315 183.453 57.4855 184.876 57.467 183.5C57.4485 182.122 61.3315 183.453 61.3315 183.453Z" fill="#F18F0F"/>
<path d="M61.3315 183.453C61.3315 183.453 59.4688 183.813 59.4639 183.475C59.459 183.137 61.3315 183.453 61.3315 183.453Z" fill="#F18F0F"/>
<path d="M61.478 183.109C61.478 183.109 57.7022 181.524 58.7117 180.538C59.72 179.552 61.478 183.109 61.478 183.109Z" fill="#F18F0F"/>
<path d="M61.478 183.109C61.478 183.109 59.8936 182.108 60.141 181.867C60.3885 181.624 61.478 183.109 61.478 183.109Z" fill="#F18F0F"/>
<path d="M63.0735 183.929C62.799 184.578 62.0246 184.893 61.3438 184.632C60.663 184.371 60.3331 183.633 60.6064 182.984C60.8809 182.335 61.6553 182.02 62.3361 182.281C63.0181 182.541 63.3481 183.279 63.0735 183.929Z" fill="#F1C40F"/>
<path d="M61.5863 183.536C61.8609 184.15 62.9935 184.301 62.3484 184.563C61.7045 184.825 60.9597 184.54 60.6852 183.925C60.4106 183.31 60.7098 182.601 61.3549 182.34C61.9988 182.079 61.3118 182.922 61.5863 183.536Z" fill="#D6AE0D"/>
<path d="M62.3176 182.328C63.3714 182.877 62.9849 183.951 62.9849 183.951C62.8778 183.909 62.8704 182.904 62.3176 182.328Z" fill="#FFE270"/>
<path d="M250.44 187.348C250.44 187.348 245.532 185.464 246.098 187.987C246.664 190.509 250.44 187.348 250.44 187.348Z" fill="#25751E"/>
<path d="M246.324 187.9C246.387 188.14 249.983 187.393 249.983 187.393C249.983 187.393 246.262 187.659 246.324 187.9Z" fill="#1F6119"/>
<path d="M241.503 191.54C241.503 191.54 245.689 193.768 245.484 191.439C245.277 189.11 241.503 191.54 241.503 191.54Z" fill="#25751E"/>
<path d="M245.269 191.493C245.241 191.27 241.921 191.55 241.921 191.55C241.921 191.55 245.296 191.716 245.269 191.493Z" fill="#1F6119"/>
<path d="M246.151 183.595H245.383V195.868H246.151V183.595Z" fill="#25751E"/>
<path d="M245.914 181.397C245.914 181.397 245.992 178.408 247.011 178.8C248.031 179.191 245.914 181.397 245.914 181.397Z" fill="#CC790D"/>
<path d="M245.914 181.397C245.914 181.397 246.194 180.046 246.445 180.142C246.695 180.238 245.914 181.397 245.914 181.397Z" fill="#A6620B"/>
<path d="M246.125 181.597C246.125 181.597 248.398 179.535 248.829 180.499C249.259 181.462 246.125 181.597 246.125 181.597Z" fill="#CC790D"/>
<path d="M246.125 181.597C246.125 181.597 247.325 180.829 247.431 181.066C247.537 181.302 246.125 181.597 246.125 181.597Z" fill="#A6620B"/>
<path d="M246.126 181.878C246.126 181.878 249.262 181.952 248.852 182.924C248.442 183.895 246.126 181.878 246.126 181.878Z" fill="#CC790D"/>
<path d="M246.126 181.878C246.126 181.878 247.544 182.145 247.444 182.384C247.344 182.622 246.126 181.878 246.126 181.878Z" fill="#A6620B"/>
<path d="M245.918 182.079C245.918 182.079 248.081 184.245 247.07 184.656C246.059 185.066 245.918 182.079 245.918 182.079Z" fill="#CC790D"/>
<path d="M245.918 182.079C245.918 182.079 246.723 183.223 246.475 183.324C246.226 183.426 245.918 182.079 245.918 182.079Z" fill="#A6620B"/>
<path d="M245.621 182.08C245.621 182.08 245.544 185.07 244.525 184.678C243.505 184.288 245.621 182.08 245.621 182.08Z" fill="#CC790D"/>
<path d="M245.621 182.08C245.621 182.08 245.342 183.432 245.091 183.336C244.841 183.241 245.621 182.08 245.621 182.08Z" fill="#A6620B"/>
<path d="M245.411 181.882C245.411 181.882 243.138 183.943 242.707 182.98C242.277 182.017 245.411 181.882 245.411 181.882Z" fill="#CC790D"/>
<path d="M245.411 181.882C245.411 181.882 244.211 182.649 244.105 182.412C243.999 182.175 245.411 181.882 245.411 181.882Z" fill="#A6620B"/>
<path d="M245.41 181.599C245.41 181.599 242.273 181.525 242.684 180.554C243.094 179.582 245.41 181.599 245.41 181.599Z" fill="#CC790D"/>
<path d="M245.41 181.599C245.41 181.599 243.991 181.333 244.092 181.093C244.193 180.854 245.41 181.599 245.41 181.599Z" fill="#A6620B"/>
<path d="M245.618 181.399C245.618 181.399 243.455 179.233 244.465 178.822C245.477 178.412 245.618 181.399 245.618 181.399Z" fill="#CC790D"/>
<path d="M245.618 181.399C245.618 181.399 244.813 180.255 245.061 180.154C245.31 180.053 245.618 181.399 245.618 181.399Z" fill="#A6620B"/>
<path d="M245.765 181.37C245.765 181.37 244.633 178.583 245.732 178.57C246.83 178.558 245.765 181.37 245.765 181.37Z" fill="#F18F0F"/>
<path d="M245.765 181.37C245.765 181.37 245.48 180.02 245.749 180.016C246.019 180.014 245.765 181.37 245.765 181.37Z" fill="#F18F0F"/>
<path d="M246.042 181.478C246.042 181.478 247.331 178.753 248.112 179.489C248.891 180.227 246.042 181.478 246.042 181.478Z" fill="#F18F0F"/>
<path d="M246.042 181.478C246.042 181.478 246.851 180.335 247.042 180.517C247.234 180.698 246.042 181.478 246.042 181.478Z" fill="#F18F0F"/>
<path d="M246.155 181.74C246.155 181.74 249.088 180.682 249.093 181.728C249.098 182.775 246.155 181.74 246.155 181.74Z" fill="#F18F0F"/>
<path d="M246.155 181.74C246.155 181.74 247.574 181.477 247.575 181.734C247.576 181.991 246.155 181.74 246.155 181.74Z" fill="#F18F0F"/>
<path d="M246.044 181.998C246.044 181.998 248.915 183.203 248.148 183.953C247.381 184.704 246.044 181.998 246.044 181.998Z" fill="#F18F0F"/>
<path d="M246.044 181.998C246.044 181.998 247.249 182.758 247.061 182.943C246.872 183.127 246.044 181.998 246.044 181.998Z" fill="#F18F0F"/>
<path d="M245.77 182.108C245.77 182.108 246.907 184.895 245.807 184.909C244.709 184.922 245.77 182.108 245.77 182.108Z" fill="#F18F0F"/>
<path d="M245.77 182.108C245.77 182.108 246.059 183.459 245.789 183.462C245.519 183.465 245.77 182.108 245.77 182.108Z" fill="#F18F0F"/>
<path d="M245.496 182.002C245.496 182.002 244.232 184.738 243.445 184.007C242.658 183.277 245.496 182.002 245.496 182.002Z" fill="#F18F0F"/>
<path d="M245.496 182.002C245.496 182.002 244.697 183.15 244.505 182.971C244.312 182.792 245.496 182.002 245.496 182.002Z" fill="#F18F0F"/>
<path d="M245.381 181.742C245.381 181.742 242.458 182.824 242.443 181.778C242.428 180.73 245.381 181.742 245.381 181.742Z" fill="#F18F0F"/>
<path d="M245.381 181.742C245.381 181.742 243.964 182.017 243.961 181.76C243.957 181.502 245.381 181.742 245.381 181.742Z" fill="#F18F0F"/>
<path d="M245.492 181.481C245.492 181.481 242.621 180.276 243.388 179.526C244.155 178.775 245.492 181.481 245.492 181.481Z" fill="#F18F0F"/>
<path d="M245.492 181.481C245.492 181.481 244.287 180.72 244.475 180.536C244.664 180.351 245.492 181.481 245.492 181.481Z" fill="#F18F0F"/>
<path d="M246.706 182.104C246.498 182.598 245.908 182.837 245.39 182.638C244.872 182.439 244.621 181.877 244.83 181.383C245.038 180.889 245.628 180.65 246.145 180.849C246.664 181.049 246.915 181.61 246.706 182.104Z" fill="#F1C40F"/>
<path d="M245.575 181.804C245.784 182.271 246.644 182.386 246.155 182.586C245.665 182.785 245.098 182.567 244.89 182.101C244.682 181.634 244.91 181.095 245.4 180.896C245.889 180.697 245.367 181.337 245.575 181.804Z" fill="#D6AE0D"/>
<path d="M246.13 180.886C246.931 181.303 246.637 182.12 246.637 182.12C246.557 182.09 246.551 181.325 246.13 180.886Z" fill="#FFE270"/>
<path d="M228.759 190.731C228.759 190.731 222.888 188.477 223.565 191.495C224.243 194.513 228.759 190.731 228.759 190.731Z" fill="#25751E"/>
<path d="M223.836 191.392C223.911 191.679 228.211 190.785 228.211 190.785C228.211 190.785 223.761 191.103 223.836 191.392Z" fill="#1F6119"/>
<path d="M218.07 195.745C218.07 195.745 223.077 198.411 222.83 195.624C222.582 192.839 218.07 195.745 218.07 195.745Z" fill="#25751E"/>
<path d="M222.574 195.687C222.541 195.42 218.568 195.755 218.568 195.755C218.568 195.755 222.607 195.955 222.574 195.687Z" fill="#1F6119"/>
<path d="M223.629 186.243H222.711V200.922H223.629V186.243Z" fill="#25751E"/>
<path d="M223.346 183.615C223.346 183.615 223.439 180.04 224.658 180.508C225.877 180.975 223.346 183.615 223.346 183.615Z" fill="#CC790D"/>
<path d="M223.346 183.615C223.346 183.615 223.681 181.998 223.98 182.113C224.279 182.228 223.346 183.615 223.346 183.615Z" fill="#A6620B"/>
<path d="M223.598 183.853C223.598 183.853 226.316 181.388 226.831 182.54C227.346 183.691 223.598 183.853 223.598 183.853Z" fill="#CC790D"/>
<path d="M223.598 183.853C223.598 183.853 225.035 182.936 225.16 183.218C225.287 183.501 223.598 183.853 223.598 183.853Z" fill="#A6620B"/>
<path d="M223.599 184.19C223.599 184.19 227.351 184.279 226.859 185.441C226.369 186.602 223.599 184.19 223.599 184.19Z" fill="#CC790D"/>
<path d="M223.599 184.19C223.599 184.19 225.296 184.509 225.175 184.794C225.055 185.08 223.599 184.19 223.599 184.19Z" fill="#A6620B"/>
<path d="M223.349 184.43C223.349 184.43 225.936 187.021 224.727 187.512C223.518 188.002 223.349 184.43 223.349 184.43Z" fill="#CC790D"/>
<path d="M223.349 184.43C223.349 184.43 224.312 185.8 224.015 185.919C223.719 186.04 223.349 184.43 223.349 184.43Z" fill="#A6620B"/>
<path d="M222.995 184.432C222.995 184.432 222.901 188.007 221.683 187.539C220.464 187.07 222.995 184.432 222.995 184.432Z" fill="#CC790D"/>
<path d="M222.995 184.432C222.995 184.432 222.66 186.048 222.361 185.933C222.062 185.818 222.995 184.432 222.995 184.432Z" fill="#A6620B"/>
<path d="M222.744 184.195C222.744 184.195 220.026 186.66 219.511 185.508C218.995 184.355 222.744 184.195 222.744 184.195Z" fill="#CC790D"/>
<path d="M222.744 184.195C222.744 184.195 221.307 185.112 221.181 184.829C221.055 184.545 222.744 184.195 222.744 184.195Z" fill="#A6620B"/>
<path d="M222.743 183.857C222.743 183.857 218.991 183.767 219.483 182.606C219.973 181.444 222.743 183.857 222.743 183.857Z" fill="#CC790D"/>
<path d="M222.743 183.857C222.743 183.857 221.046 183.537 221.167 183.252C221.286 182.967 222.743 183.857 222.743 183.857Z" fill="#A6620B"/>
<path d="M222.991 183.616C222.991 183.616 220.405 181.025 221.614 180.535C222.823 180.044 222.991 183.616 222.991 183.616Z" fill="#CC790D"/>
<path d="M222.991 183.616C222.991 183.616 222.028 182.247 222.325 182.127C222.623 182.006 222.991 183.616 222.991 183.616Z" fill="#A6620B"/>
<path d="M223.168 183.582C223.168 183.582 221.814 180.247 223.128 180.233C224.441 180.219 223.168 183.582 223.168 183.582Z" fill="#F18F0F"/>
<path d="M223.168 183.582C223.168 183.582 222.826 181.966 223.149 181.963C223.471 181.959 223.168 183.582 223.168 183.582Z" fill="#F18F0F"/>
<path d="M223.498 183.712C223.498 183.712 225.04 180.452 225.973 181.334C226.906 182.216 223.498 183.712 223.498 183.712Z" fill="#F18F0F"/>
<path d="M223.498 183.712C223.498 183.712 224.465 182.347 224.694 182.562C224.924 182.778 223.498 183.712 223.498 183.712Z" fill="#F18F0F"/>
<path d="M223.634 184.024C223.634 184.024 227.142 182.758 227.149 184.01C227.154 185.262 223.634 184.024 223.634 184.024Z" fill="#F18F0F"/>
<path d="M223.634 184.024C223.634 184.024 225.332 183.71 225.333 184.017C225.334 184.325 223.634 184.024 223.634 184.024Z" fill="#F18F0F"/>
<path d="M223.5 184.333C223.5 184.333 226.933 185.775 226.016 186.671C225.099 187.568 223.5 184.333 223.5 184.333Z" fill="#F18F0F"/>
<path d="M223.5 184.333C223.5 184.333 224.941 185.244 224.716 185.463C224.491 185.684 223.5 184.333 223.5 184.333Z" fill="#F18F0F"/>
<path d="M223.173 184.464C223.173 184.464 224.531 187.798 223.218 187.813C221.904 187.83 223.173 184.464 223.173 184.464Z" fill="#F18F0F"/>
<path d="M223.173 184.464C223.173 184.464 223.518 186.079 223.196 186.084C222.873 186.087 223.173 184.464 223.173 184.464Z" fill="#F18F0F"/>
<path d="M222.846 184.338C222.846 184.338 221.333 187.61 220.392 186.736C219.452 185.862 222.846 184.338 222.846 184.338Z" fill="#F18F0F"/>
<path d="M222.846 184.338C222.846 184.338 221.892 185.712 221.66 185.497C221.429 185.282 222.846 184.338 222.846 184.338Z" fill="#F18F0F"/>
<path d="M222.708 184.027C222.708 184.027 219.21 185.321 219.193 184.069C219.177 182.817 222.708 184.027 222.708 184.027Z" fill="#F18F0F"/>
<path d="M222.708 184.027C222.708 184.027 221.014 184.355 221.009 184.048C221.005 183.739 222.708 184.027 222.708 184.027Z" fill="#F18F0F"/>
<path d="M222.841 183.713C222.841 183.713 219.407 182.271 220.325 181.375C221.242 180.479 222.841 183.713 222.841 183.713Z" fill="#F18F0F"/>
<path d="M222.841 183.714C222.841 183.714 221.399 182.803 221.625 182.584C221.85 182.363 222.841 183.714 222.841 183.714Z" fill="#F18F0F"/>
<path d="M224.293 184.46C224.043 185.05 223.338 185.336 222.719 185.099C222.1 184.861 221.799 184.19 222.048 183.6C222.298 183.009 223.002 182.723 223.622 182.96C224.242 183.197 224.542 183.87 224.293 184.46Z" fill="#F1C40F"/>
<path d="M222.939 184.102C223.189 184.66 224.219 184.798 223.633 185.036C223.047 185.274 222.369 185.014 222.12 184.456C221.87 183.898 222.143 183.252 222.728 183.014C223.315 182.776 222.691 183.543 222.939 184.102Z" fill="#D6AE0D"/>
<path d="M223.604 183.004C224.563 183.503 224.211 184.48 224.211 184.48C224.114 184.442 224.107 183.527 223.604 183.004Z" fill="#FFE270"/>
<path d="M24.4548 187.787C24.4548 187.787 19.0749 185.722 19.6953 188.487C20.317 191.252 24.4548 187.787 24.4548 187.787Z" fill="#25751E"/>
<path d="M19.944 188.393C20.013 188.657 23.9537 187.837 23.9537 187.837C23.9537 187.837 19.8751 188.129 19.944 188.393Z" fill="#1F6119"/>
<path d="M14.6601 192.381C14.6601 192.381 19.2484 194.824 19.0219 192.271C18.7954 189.717 14.6601 192.381 14.6601 192.381Z" fill="#25751E"/>
<path d="M18.788 192.329C18.7572 192.085 15.118 192.391 15.118 192.391C15.118 192.391 18.8175 192.573 18.788 192.329Z" fill="#1F6119"/>
<path d="M19.7544 183.675H18.9123V197.125H19.7544V183.675Z" fill="#25751E"/>
<path d="M19.4947 181.266C19.4947 181.266 19.5796 177.99 20.6975 178.418C21.8141 178.848 19.4947 181.266 19.4947 181.266Z" fill="#CC790D"/>
<path d="M19.4947 181.266C19.4947 181.266 19.8012 179.784 20.0757 179.89C20.3503 179.995 19.4947 181.266 19.4947 181.266Z" fill="#A6620B"/>
<path d="M19.7261 181.484C19.7261 181.484 22.2166 179.225 22.6894 180.281C23.1597 181.336 19.7261 181.484 19.7261 181.484Z" fill="#CC790D"/>
<path d="M19.7261 181.484C19.7261 181.484 21.0422 180.643 21.1579 180.902C21.2736 181.161 19.7261 181.484 19.7261 181.484Z" fill="#A6620B"/>
<path d="M19.7273 181.794C19.7273 181.794 23.1646 181.875 22.7152 182.94C22.2646 184.004 19.7273 181.794 19.7273 181.794Z" fill="#CC790D"/>
<path d="M19.7273 181.794C19.7273 181.794 21.2822 182.086 21.1714 182.348C21.0606 182.608 19.7273 181.794 19.7273 181.794Z" fill="#A6620B"/>
<path d="M19.4984 182.013C19.4984 182.013 21.8682 184.387 20.7602 184.836C19.6535 185.287 19.4984 182.013 19.4984 182.013Z" fill="#CC790D"/>
<path d="M19.4984 182.013C19.4984 182.013 20.3811 183.268 20.109 183.378C19.8369 183.488 19.4984 182.013 19.4984 182.013Z" fill="#A6620B"/>
<path d="M19.1733 182.015C19.1733 182.015 19.0884 185.29 17.9705 184.862C16.8539 184.434 19.1733 182.015 19.1733 182.015Z" fill="#CC790D"/>
<path d="M19.1733 182.015C19.1733 182.015 18.8668 183.496 18.5922 183.391C18.3177 183.286 19.1733 182.015 19.1733 182.015Z" fill="#A6620B"/>
<path d="M18.9431 181.796C18.9431 181.796 16.4526 184.055 15.9798 183C15.5083 181.944 18.9431 181.796 18.9431 181.796Z" fill="#CC790D"/>
<path d="M18.9431 181.796C18.9431 181.796 17.6271 182.638 17.5113 182.378C17.3956 182.119 18.9431 181.796 18.9431 181.796Z" fill="#A6620B"/>
<path d="M18.9419 181.488C18.9419 181.488 15.5046 181.407 15.954 180.341C16.4033 179.277 18.9419 181.488 18.9419 181.488Z" fill="#CC790D"/>
<path d="M18.9419 181.488C18.9419 181.488 17.387 181.195 17.4978 180.934C17.6086 180.672 18.9419 181.488 18.9419 181.488Z" fill="#A6620B"/>
<path d="M19.1696 181.267C19.1696 181.267 16.7997 178.893 17.9077 178.443C19.0157 177.993 19.1696 181.267 19.1696 181.267Z" fill="#CC790D"/>
<path d="M19.1696 181.267C19.1696 181.267 18.2869 180.013 18.559 179.902C18.8323 179.792 19.1696 181.267 19.1696 181.267Z" fill="#A6620B"/>
<path d="M19.3321 181.237C19.3321 181.237 18.0912 178.181 19.2952 178.167C20.4992 178.154 19.3321 181.237 19.3321 181.237Z" fill="#F18F0F"/>
<path d="M19.3322 181.237C19.3322 181.237 19.0182 179.757 19.3149 179.754C19.6092 179.75 19.3322 181.237 19.3322 181.237Z" fill="#F18F0F"/>
<path d="M19.635 181.355C19.635 181.355 21.0471 178.368 21.9027 179.175C22.7571 179.983 19.635 181.355 19.635 181.355Z" fill="#F18F0F"/>
<path d="M19.635 181.355C19.635 181.355 20.5214 180.103 20.7307 180.301C20.9412 180.5 19.635 181.355 19.635 181.355Z" fill="#F18F0F"/>
<path d="M19.7581 181.641C19.7581 181.641 22.9738 180.481 22.9787 181.628C22.9836 182.776 19.7581 181.641 19.7581 181.641Z" fill="#F18F0F"/>
<path d="M19.7581 181.641C19.7581 181.641 21.313 181.353 21.3143 181.636C21.3155 181.918 19.7581 181.641 19.7581 181.641Z" fill="#F18F0F"/>
<path d="M19.6362 181.924C19.6362 181.924 22.783 183.245 21.9421 184.067C21.1013 184.889 19.6362 181.924 19.6362 181.924Z" fill="#F18F0F"/>
<path d="M19.6362 181.924C19.6362 181.924 20.9572 182.758 20.7504 182.96C20.5448 183.162 19.6362 181.924 19.6362 181.924Z" fill="#F18F0F"/>
<path d="M19.3371 182.045C19.3371 182.045 20.5817 185.099 19.3777 185.114C18.1749 185.129 19.3371 182.045 19.3371 182.045Z" fill="#F18F0F"/>
<path d="M19.3371 182.045C19.3371 182.045 19.6522 183.525 19.3567 183.528C19.0613 183.532 19.3371 182.045 19.3371 182.045Z" fill="#F18F0F"/>
<path d="M19.0367 181.929C19.0367 181.929 17.6504 184.928 16.7887 184.126C15.9257 183.325 19.0367 181.929 19.0367 181.929Z" fill="#F18F0F"/>
<path d="M19.0367 181.929C19.0367 181.929 18.1614 183.188 17.9496 182.991C17.7379 182.794 19.0367 181.929 19.0367 181.929Z" fill="#F18F0F"/>
<path d="M18.9099 181.644C18.9099 181.644 15.7053 182.83 15.6893 181.682C15.6745 180.535 18.9099 181.644 18.9099 181.644Z" fill="#F18F0F"/>
<path d="M18.9099 181.644C18.9099 181.644 17.3575 181.944 17.3538 181.662C17.3501 181.381 18.9099 181.644 18.9099 181.644Z" fill="#F18F0F"/>
<path d="M19.0318 181.356C19.0318 181.356 15.885 180.035 16.7259 179.214C17.5667 178.392 19.0318 181.356 19.0318 181.356Z" fill="#F18F0F"/>
<path d="M19.0318 181.356C19.0318 181.356 17.7108 180.522 17.9176 180.32C18.1244 180.118 19.0318 181.356 19.0318 181.356Z" fill="#F18F0F"/>
<path d="M20.3626 182.04C20.1336 182.581 19.4885 182.844 18.921 182.626C18.3534 182.408 18.0777 181.793 18.3066 181.252C18.5356 180.711 19.1807 180.448 19.7483 180.666C20.3158 180.883 20.5916 181.499 20.3626 182.04Z" fill="#F1C40F"/>
<path d="M19.1228 181.712C19.3518 182.223 20.2949 182.35 19.7581 182.568C19.2213 182.787 18.6009 182.548 18.3719 182.037C18.1429 181.525 18.3928 180.934 18.9296 180.716C19.4663 180.497 18.8939 181.2 19.1228 181.712Z" fill="#D6AE0D"/>
<path d="M19.731 180.706C20.61 181.164 20.2875 182.059 20.2875 182.059C20.1989 182.024 20.1927 181.186 19.731 180.706Z" fill="#FFE270"/>
<path d="M108.658 196.564C108.658 196.564 102.933 194.366 103.594 197.308C104.255 200.25 108.658 196.564 108.658 196.564Z" fill="#25751E"/>
<path d="M103.859 197.208C103.933 197.488 108.125 196.617 108.125 196.617C108.125 196.617 103.785 196.928 103.859 197.208Z" fill="#1F6119"/>
<path d="M98.2365 201.452C98.2365 201.452 103.118 204.051 102.877 201.335C102.636 198.618 98.2365 201.452 98.2365 201.452Z" fill="#25751E"/>
<path d="M102.628 201.397C102.595 201.136 98.7228 201.464 98.7228 201.464C98.7228 201.464 102.66 201.657 102.628 201.397Z" fill="#1F6119"/>
<path d="M103.657 192.188H102.761V206.5H103.657V192.188Z" fill="#25751E"/>
<path d="M103.38 189.626C103.38 189.626 103.471 186.141 104.659 186.596C105.848 187.052 103.38 189.626 103.38 189.626Z" fill="#CC790D"/>
<path d="M103.38 189.626C103.38 189.626 103.706 188.05 103.998 188.162C104.291 188.273 103.38 189.626 103.38 189.626Z" fill="#A6620B"/>
<path d="M103.626 189.857C103.626 189.857 106.277 187.454 106.778 188.577C107.279 189.7 103.626 189.857 103.626 189.857Z" fill="#CC790D"/>
<path d="M103.626 189.857C103.626 189.857 105.026 188.963 105.15 189.239C105.274 189.514 103.626 189.857 103.626 189.857Z" fill="#A6620B"/>
<path d="M103.628 190.187C103.628 190.187 107.284 190.274 106.806 191.406C106.329 192.538 103.628 190.187 103.628 190.187Z" fill="#CC790D"/>
<path d="M103.628 190.187C103.628 190.187 105.281 190.498 105.164 190.776C105.047 191.054 103.628 190.187 103.628 190.187Z" fill="#A6620B"/>
<path d="M103.385 190.42C103.385 190.42 105.906 192.945 104.728 193.424C103.549 193.904 103.385 190.42 103.385 190.42Z" fill="#CC790D"/>
<path d="M103.385 190.42C103.385 190.42 104.323 191.754 104.034 191.872C103.745 191.99 103.385 190.42 103.385 190.42Z" fill="#A6620B"/>
<path d="M103.039 190.423C103.039 190.423 102.948 193.909 101.76 193.452C100.571 192.996 103.039 190.423 103.039 190.423Z" fill="#CC790D"/>
<path d="M103.039 190.423C103.039 190.423 102.713 191.998 102.421 191.887C102.128 191.774 103.039 190.423 103.039 190.423Z" fill="#A6620B"/>
<path d="M102.793 190.19C102.793 190.19 100.143 192.593 99.6412 191.47C99.1389 190.348 102.793 190.19 102.793 190.19Z" fill="#CC790D"/>
<path d="M102.793 190.19C102.793 190.19 101.393 191.086 101.269 190.809C101.147 190.533 102.793 190.19 102.793 190.19Z" fill="#A6620B"/>
<path d="M102.792 189.862C102.792 189.862 99.1352 189.775 99.6129 188.643C100.092 187.509 102.792 189.862 102.792 189.862Z" fill="#CC790D"/>
<path d="M102.792 189.862C102.792 189.862 101.138 189.551 101.255 189.273C101.373 188.994 102.792 189.862 102.792 189.862Z" fill="#A6620B"/>
<path d="M103.035 189.627C103.035 189.627 100.514 187.102 101.692 186.623C102.87 186.145 103.035 189.627 103.035 189.627Z" fill="#CC790D"/>
<path d="M103.035 189.627C103.035 189.627 102.097 188.293 102.387 188.175C102.676 188.057 103.035 189.627 103.035 189.627Z" fill="#A6620B"/>
<path d="M103.207 189.594C103.207 189.594 101.886 186.343 103.167 186.329C104.449 186.315 103.207 189.594 103.207 189.594Z" fill="#F18F0F"/>
<path d="M103.206 189.594C103.206 189.594 102.873 188.02 103.187 188.016C103.502 188.013 103.206 189.594 103.206 189.594Z" fill="#F18F0F"/>
<path d="M103.529 189.721C103.529 189.721 105.032 186.542 105.942 187.402C106.852 188.261 103.529 189.721 103.529 189.721Z" fill="#F18F0F"/>
<path d="M103.529 189.721C103.529 189.721 104.472 188.389 104.695 188.6C104.919 188.81 103.529 189.721 103.529 189.721Z" fill="#F18F0F"/>
<path d="M103.661 190.025C103.661 190.025 107.082 188.791 107.087 190.011C107.093 191.232 103.661 190.025 103.661 190.025Z" fill="#F18F0F"/>
<path d="M103.661 190.025C103.661 190.025 105.315 189.719 105.317 190.018C105.318 190.318 103.661 190.025 103.661 190.025Z" fill="#F18F0F"/>
<path d="M103.532 190.326C103.532 190.326 106.879 191.732 105.985 192.606C105.09 193.48 103.532 190.326 103.532 190.326Z" fill="#F18F0F"/>
<path d="M103.532 190.326C103.532 190.326 104.937 191.213 104.717 191.428C104.497 191.643 103.532 190.326 103.532 190.326Z" fill="#F18F0F"/>
<path d="M103.213 190.454C103.213 190.454 104.537 193.704 103.256 193.72C101.975 193.735 103.213 190.454 103.213 190.454Z" fill="#F18F0F"/>
<path d="M103.213 190.454C103.213 190.454 103.549 192.029 103.234 192.032C102.92 192.036 103.213 190.454 103.213 190.454Z" fill="#F18F0F"/>
<path d="M102.893 190.331C102.893 190.331 101.418 193.521 100.501 192.67C99.5834 191.817 102.893 190.331 102.893 190.331Z" fill="#F18F0F"/>
<path d="M102.893 190.331C102.893 190.331 101.962 191.671 101.737 191.461C101.511 191.251 102.893 190.331 102.893 190.331Z" fill="#F18F0F"/>
<path d="M102.758 190.027C102.758 190.027 99.3482 191.29 99.3322 190.068C99.3162 188.848 102.758 190.027 102.758 190.027Z" fill="#F18F0F"/>
<path d="M102.758 190.027C102.758 190.027 101.106 190.348 101.103 190.047C101.098 189.747 102.758 190.027 102.758 190.027Z" fill="#F18F0F"/>
<path d="M102.888 189.722C102.888 189.722 99.5402 188.316 100.434 187.442C101.329 186.568 102.888 189.722 102.888 189.722Z" fill="#F18F0F"/>
<path d="M102.888 189.722C102.888 189.722 101.482 188.835 101.702 188.62C101.922 188.406 102.888 189.722 102.888 189.722Z" fill="#F18F0F"/>
<path d="M104.303 190.45C104.06 191.026 103.374 191.304 102.769 191.073C102.165 190.841 101.873 190.187 102.116 189.611C102.358 189.035 103.045 188.756 103.65 188.988C104.254 189.219 104.547 189.873 104.303 190.45Z" fill="#F1C40F"/>
<path d="M102.985 190.1C103.229 190.644 104.232 190.779 103.661 191.01C103.09 191.243 102.43 190.989 102.186 190.445C101.942 189.9 102.208 189.272 102.779 189.039C103.351 188.808 102.741 189.557 102.985 190.1Z" fill="#D6AE0D"/>
<path d="M103.632 189.03C104.567 189.517 104.223 190.47 104.223 190.47C104.13 190.432 104.122 189.54 103.632 189.03Z" fill="#FFE270"/>
</svg>
