<svg width="284" height="128" viewBox="0 0 284 128" fill="none" xmlns="http://www.w3.org/2000/svg">
<path d="M96.009 7.858L71.933 21.764V24.589C73.078 24.786 74.194 25.031 75.251 25.359C76.39 25.714 77.453 26.181 78.475 26.705V24.742H84.524H104.951C107.195 24.742 109.295 24.973 111.191 25.434C113.454 25.983 115.447 26.917 117.121 28.222C117.81 28.755 118.423 29.38 118.989 30.039C119.062 29.969 119.119 29.886 119.191 29.82C119.475 29.548 119.789 29.311 120.089 29.058V21.765L96.009 7.858Z" fill="#FFBE00"/>
<path d="M96.009 71.326L97.048 70.727H94.972L96.009 71.326Z" fill="#FFBE00"/>
<path d="M69.755 24.297V20.501L96.01 5.342L122.268 20.501V27.47C123.684 26.595 125.221 25.878 126.894 25.364V17.833L96.009 0L65.129 17.833V24.177C65.61 24.157 66.087 24.128 66.579 24.128C67.666 24.129 68.72 24.197 69.755 24.297Z" fill="#FFBE00"/>
<path d="M38.869 105.278L62.948 119.183L87.028 105.278V77.479L74.574 70.285C72.117 70.97 69.438 71.334 66.579 71.334C63.458 71.334 60.542 70.921 57.911 70.107C56.627 69.71 55.432 69.181 54.299 68.568L38.87 77.48V105.278H38.869Z" fill="#FFBE00"/>
<path d="M79.693 70.727L89.203 76.219V106.54L62.948 121.699L36.69 106.54V76.219L52.207 67.259C51.515 66.755 50.849 66.219 50.232 65.621C49.692 65.096 49.186 64.533 48.711 63.936L32.064 73.548V109.209L62.948 127.042L93.834 109.209V73.548L88.948 70.727H84.524H79.693Z" fill="#FFBE00"/>
<path d="M78.475 68.762C78.083 68.963 77.677 69.147 77.27 69.328L78.475 70.024V68.762Z" fill="#FFBE00"/>
<path d="M31.187 7.724L7.10901 21.63V49.429L31.188 63.338L45.919 54.83C45.445 52.657 45.193 50.278 45.193 47.6C45.193 43.768 45.704 40.367 46.71 37.494C47.805 34.379 49.431 31.76 51.54 29.708C52.657 28.628 53.908 27.708 55.27 26.935V21.631L31.187 7.724Z" fill="#FFBE00"/>
<path d="M45.196 57.144L29.884 65.986L3.627 50.823V20.502L29.884 5.343L56.144 20.502V26.014C56.719 25.777 57.299 25.547 57.906 25.359C58.823 25.075 59.787 24.857 60.771 24.671V17.833L29.884 0L-1 17.833V53.494L29.883 71.327L47.048 61.417C46.422 60.314 45.861 59.144 45.411 57.87C45.329 57.636 45.272 57.382 45.196 57.144Z" fill="#FFBE00"/>
<path d="M60.1683 66V40.3017H53.5383V32.7933H76.375V40.3017H69.745V66H60.1683ZM88.2093 54.95V66H78.8026V32.7933H82.5426C83.4493 32.7933 84.7998 32.7556 86.5943 32.68C88.3887 32.5856 89.8715 32.5383 91.0426 32.5383C95.1226 32.5383 98.1637 33.4356 100.166 35.23C102.187 37.0244 103.198 39.7728 103.198 43.475C103.198 45.6661 102.716 47.6117 101.753 49.3117C100.808 51.0117 99.552 52.3622 97.9843 53.3633C98.8343 53.5711 99.5615 54.0528 100.166 54.8083C100.789 55.5639 101.271 56.4611 101.611 57.5C101.951 58.52 102.244 59.5589 102.489 60.6167C102.754 61.6556 103.046 62.685 103.368 63.705C103.708 64.725 104.076 65.49 104.473 66H94.0176C93.8098 65.7356 93.6493 64.9989 93.5359 63.79C93.4226 62.5622 93.262 61.0983 93.0543 59.3983C92.8654 57.6794 92.5915 56.2439 92.2326 55.0917C92.1948 55.0917 92.1476 55.0917 92.0909 55.0917C91.732 55.0917 91.3448 55.0917 90.9293 55.0917C90.5326 55.0728 90.1831 55.0539 89.8809 55.035C89.5787 55.0161 89.2576 54.9972 88.9176 54.9783C88.5965 54.9594 88.3604 54.95 88.2093 54.95ZM88.2093 49.68H89.1159C89.5881 49.68 89.9848 49.6611 90.3059 49.6233C90.627 49.5856 90.9765 49.5194 91.3543 49.425C91.7509 49.3117 92.072 49.1417 92.3176 48.915C92.582 48.6883 92.8276 48.3956 93.0543 48.0367C93.2809 47.6778 93.4509 47.215 93.5643 46.6483C93.6776 46.0817 93.7343 45.4206 93.7343 44.665V42.4267C93.7343 40.7833 93.2998 39.6406 92.4309 38.9983C91.5809 38.3372 90.3531 38.0067 88.7476 38.0067H88.2093V49.68ZM122.572 66L121.297 60.7017H113.25L112.174 66H103.844L112.485 35.0883L111.805 32.7933H123.507L132.97 66H122.572ZM116.905 42.54L114.412 54.9217H119.909L116.905 42.54ZM134.173 66V32.7933H143.834V66H134.173ZM156.711 66H147.701V35.4567L146.313 32.7933H156.739L161.953 43.56L166.939 54.2983L165.551 41.69V32.7933H174.589V66H165.948L159.204 52.8817L155.039 44.665L156.711 55.545V66ZM178.499 66V32.7933H188.161V66H178.499ZM201.037 66H192.027V35.4567L190.639 32.7933H201.066L206.279 43.56L211.266 54.2983L209.877 41.69V32.7933H218.916V66H210.274L203.531 52.8817L199.366 44.665L201.037 55.545V66ZM242.97 62.9967C240.571 65.3956 237.719 66.595 234.413 66.595C232.071 66.595 230.041 66.1889 228.322 65.3767C226.622 64.5644 225.271 63.3933 224.27 61.8633C223.269 60.3333 222.532 58.5861 222.06 56.6217C221.607 54.6572 221.38 52.4189 221.38 49.9067C221.38 48.0367 221.475 46.3556 221.663 44.8633C221.871 43.3711 222.202 41.945 222.655 40.585C223.108 39.225 223.732 38.0539 224.525 37.0717C225.318 36.0706 226.291 35.2017 227.443 34.465C228.596 33.7283 229.993 33.1806 231.637 32.8217C233.28 32.4439 235.15 32.255 237.247 32.255C238.191 32.255 239.088 32.3117 239.938 32.425C240.807 32.5383 241.544 32.68 242.148 32.85C242.753 33.0011 243.32 33.1994 243.848 33.445C244.396 33.6717 244.821 33.8794 245.123 34.0683C245.445 34.2383 245.737 34.4272 246.002 34.635C246.266 34.8428 246.427 34.9844 246.483 35.06C246.559 35.1356 246.616 35.1922 246.653 35.23L246.228 41.7467H241.072L239.457 37.9783C239.041 37.7517 238.371 37.6383 237.445 37.6383C236.69 37.6383 236.066 37.7044 235.575 37.8367C235.084 37.9689 234.593 38.2522 234.102 38.6867C233.63 39.1022 233.252 39.7161 232.968 40.5283C232.704 41.3217 232.487 42.4078 232.317 43.7867C232.147 45.1467 232.062 46.8089 232.062 48.7733C232.062 52.8722 232.279 55.9133 232.713 57.8967C233.167 59.88 234.064 60.8717 235.405 60.8717C236.066 60.8717 236.623 60.815 237.077 60.7017C237.53 60.5694 237.955 60.3428 238.352 60.0217C238.748 59.6817 239.041 59.1906 239.23 58.5483C239.419 57.8872 239.513 57.0467 239.513 56.0267V53.1367L235.773 52.2867V46.5067H248.382L248.353 66H243.31L242.97 62.9967Z" fill="#784600"/>
<path d="M105.917 94.7333C106.706 94.7333 107.283 94.5111 107.65 94.0667C108.017 93.6222 108.2 93.0944 108.2 92.4833V91.3167C108.2 90.5944 107.967 90.0833 107.5 89.7833C107.033 89.4722 106.506 89.3167 105.917 89.3167H104.617V94.7333H105.917ZM107.967 83.4667C107.967 82.8 107.783 82.3389 107.417 82.0833C107.05 81.8167 106.522 81.6833 105.833 81.6833H104.617V86.5H105.967C106.611 86.5 107.106 86.25 107.45 85.75C107.794 85.2389 107.967 84.6167 107.967 83.8833V83.4667ZM107.05 98.15C106.183 98.15 105.061 98.1278 103.683 98.0833C102.306 98.0389 101.317 98.0111 100.717 98H99.1167V78.4667H102C102.7 78.4667 103.5 78.4444 104.4 78.4C105.3 78.3444 105.95 78.3167 106.35 78.3167C107.65 78.3167 108.744 78.4222 109.633 78.6333C110.533 78.8444 111.239 79.1611 111.75 79.5833C112.261 80.0056 112.622 80.4944 112.833 81.05C113.056 81.6056 113.167 82.2667 113.167 83.0333C113.167 84.2111 112.894 85.2222 112.35 86.0667C111.806 86.9111 111.017 87.4389 109.983 87.65C112.606 87.8833 113.917 89.4222 113.917 92.2667C113.917 93.1222 113.789 93.9 113.533 94.6C113.278 95.2889 112.883 95.9056 112.35 96.45C111.828 96.9833 111.117 97.4 110.217 97.7C109.317 98 108.261 98.15 107.05 98.15ZM127.291 98H115.474V78.4667H127.041L126.707 82.4L120.991 82.2333V86H125.491V89.9L120.991 89.5667V94L127.291 93.8333V98ZM140.621 98H128.804V78.4667H140.371L140.037 82.4L134.321 82.2333V86H138.821V89.9L134.321 89.5667V94L140.621 93.8333V98ZM147.951 98.35C147.095 98.35 146.295 98.2722 145.551 98.1167C144.818 97.9722 144.201 97.7778 143.701 97.5333C143.201 97.2889 142.79 97.0556 142.468 96.8333C142.156 96.6111 141.895 96.3889 141.684 96.1667L142.101 92.1167C142.556 92.7278 143.168 93.2611 143.934 93.7167C144.701 94.1611 145.529 94.3833 146.418 94.3833C147.306 94.3833 147.945 94.2889 148.334 94.1C148.734 93.9111 148.934 93.5667 148.934 93.0667C148.934 92.5333 148.706 92.0778 148.251 91.7C147.806 91.3222 147.034 90.8667 145.934 90.3333C145.534 90.1333 145.195 89.9556 144.918 89.8C144.64 89.6333 144.268 89.3667 143.801 89C143.345 88.6222 142.973 88.2333 142.684 87.8333C142.395 87.4222 142.14 86.9 141.918 86.2667C141.695 85.6222 141.584 84.9333 141.584 84.2C141.584 80.2333 143.823 78.25 148.301 78.25C149.012 78.25 149.679 78.3278 150.301 78.4833C150.934 78.6278 151.429 78.7889 151.784 78.9667C152.14 79.1444 152.462 79.3556 152.751 79.6C153.051 79.8333 153.24 80 153.318 80.1C153.395 80.1889 153.451 80.2611 153.484 80.3167L152.651 83.5333C152.218 83.0222 151.673 82.6444 151.018 82.4C150.373 82.1444 149.756 82.0167 149.168 82.0167C147.745 82.0167 147.034 82.4611 147.034 83.35C147.034 83.5833 147.079 83.7944 147.168 83.9833C147.256 84.1722 147.401 84.3444 147.601 84.5C147.801 84.6556 147.984 84.7889 148.151 84.9C148.329 85.0111 148.568 85.15 148.868 85.3167C149.179 85.4722 149.412 85.6 149.568 85.7C151.19 86.3889 152.379 87.2056 153.134 88.15C153.901 89.0944 154.284 90.2444 154.284 91.6C154.284 93.8 153.74 95.4778 152.651 96.6333C151.573 97.7778 150.006 98.35 147.951 98.35Z" fill="#784600"/>
</svg>
