<svg width="581" height="561" viewBox="0 0 581 561" fill="none" xmlns="http://www.w3.org/2000/svg">
<path d="M472.436 117.972C407.498 86.5017 329.35 85.4246 259.803 105.782C190.257 126.14 128.59 167.628 78.7627 218.651C65.1848 232.555 52.1657 247.576 45.1635 265.441C38.6145 282.152 37.7116 300.392 37.9359 318.254C38.1625 336.311 39.5975 354.871 47.6792 371.16C55.7609 387.449 71.821 401.139 90.5233 402.071C110.632 403.073 128.062 389.959 145.035 379.514C171.351 363.32 201.053 352.264 231.827 347.207C248.41 344.483 265.572 343.505 281.956 347.178C299.483 351.107 315.233 360.12 331.24 368.049C370.712 387.598 418.012 401.039 458.955 384.533C499.596 368.15 523.471 325.252 527.814 282.985C532.158 240.718 536.198 148.871 472.436 117.972Z" fill="#FFD200"/>
<g opacity="0.7">
<path d="M472.436 117.972C407.498 86.5017 329.35 85.4246 259.803 105.782C190.257 126.14 128.59 167.628 78.7627 218.651C65.1848 232.555 52.1657 247.576 45.1635 265.441C38.6145 282.152 37.7116 300.392 37.9359 318.254C38.1625 336.311 39.5975 354.871 47.6792 371.16C55.7609 387.449 71.821 401.139 90.5233 402.071C110.632 403.073 128.062 389.959 145.035 379.514C171.351 363.32 201.053 352.264 231.827 347.207C248.41 344.483 265.572 343.505 281.956 347.178C299.483 351.107 315.233 360.12 331.24 368.049C370.712 387.598 418.012 401.039 458.955 384.533C499.596 368.15 523.471 325.252 527.814 282.985C532.158 240.718 536.198 148.871 472.436 117.972Z" fill="white"/>
</g>
<path d="M88.5095 308.449V107.701H481.684V318.039" stroke="#FFD200" stroke-miterlimit="10" stroke-linecap="round" stroke-linejoin="round"/>
<path d="M180.411 154.657L136.604 205.833" stroke="#FFD200" stroke-miterlimit="10" stroke-linecap="round" stroke-linejoin="round"/>
<path d="M187.133 146.805L182.64 152.053" stroke="#FFD200" stroke-miterlimit="10" stroke-linecap="round" stroke-linejoin="round"/>
<path d="M311.882 154.657L295.346 173.975" stroke="#FFD200" stroke-miterlimit="10" stroke-linecap="round" stroke-linejoin="round"/>
<path d="M318.604 146.805L314.111 152.053" stroke="#FFD200" stroke-miterlimit="10" stroke-linecap="round" stroke-linejoin="round"/>
<path d="M111.013 273.962L107.174 278.448" stroke="#FFD200" stroke-miterlimit="10" stroke-linecap="round" stroke-linejoin="round"/>
<path d="M157.703 219.419L114.725 269.627" stroke="#FFD200" stroke-miterlimit="10" stroke-linecap="round" stroke-linejoin="round"/>
<path d="M203.507 333.491L161.869 382.134" stroke="#FFD200" stroke-miterlimit="10" stroke-linecap="round" stroke-linejoin="round"/>
<path d="M212.399 323.104L206.579 329.902" stroke="#FFD200" stroke-miterlimit="10" stroke-linecap="round" stroke-linejoin="round"/>
<path d="M397.137 273.962L393.296 278.448" stroke="#FFD200" stroke-miterlimit="10" stroke-linecap="round" stroke-linejoin="round"/>
<path d="M443.827 219.419L400.848 269.627" stroke="#FFD200" stroke-miterlimit="10" stroke-linecap="round" stroke-linejoin="round"/>
<path d="M440.246 333.491L398.607 382.134" stroke="#FFD200" stroke-miterlimit="10" stroke-linecap="round" stroke-linejoin="round"/>
<path d="M449.136 323.104L443.318 329.902" stroke="#FFD200" stroke-miterlimit="10" stroke-linecap="round" stroke-linejoin="round"/>
<path d="M481.684 308.449V402.416H88.5095V308.449" stroke="#FFD200" stroke-miterlimit="10" stroke-linecap="round" stroke-linejoin="round"/>
<path d="M356.397 413.76V308.449" stroke="#FFD200" stroke-miterlimit="10" stroke-linecap="round" stroke-linejoin="round"/>
<path d="M356.397 308.449V108.228" stroke="#FFD200" stroke-miterlimit="10" stroke-linecap="round" stroke-linejoin="round"/>
<path d="M225.409 108.199V414.849" stroke="#FFD200" stroke-miterlimit="10" stroke-linecap="round" stroke-linejoin="round"/>
<path d="M362.417 308.453L356.397 350.223V308.453H362.417Z" stroke="#FFD200" stroke-miterlimit="10" stroke-linecap="round" stroke-linejoin="round"/>
<path d="M488.497 308.453L481.679 348.892V308.453H488.497Z" stroke="#FFD200" stroke-miterlimit="10" stroke-linecap="round" stroke-linejoin="round"/>
<path d="M219.334 308.453L225.355 350.223V308.453H219.334Z" stroke="#FFD200" stroke-miterlimit="10" stroke-linecap="round" stroke-linejoin="round"/>
<path d="M81.9943 308.453L88.8106 348.892V308.453H81.9943Z" stroke="#FFD200" stroke-miterlimit="10" stroke-linecap="round" stroke-linejoin="round"/>
<path d="M487.803 309.372H83.0784C79.2577 309.372 79.2577 299.583 83.0784 299.583H487.803C491.624 299.583 491.624 309.372 487.803 309.372Z" fill="#FFD200"/>
<path d="M65.0604 478.588H511.952" stroke="#263238" stroke-miterlimit="10" stroke-linecap="round" stroke-linejoin="round"/>
<path d="M96.6017 463.158C91.217 463.158 86.8433 460.81 86.8433 457.906C86.8433 455.009 91.217 452.654 96.6017 452.654C101.993 452.654 106.368 455.009 106.368 457.906C106.368 460.811 101.995 463.158 96.6017 463.158Z" fill="#7A7A7A"/>
<path d="M96.6017 504.522C91.217 504.522 86.8433 502.173 86.8433 499.27V487.538C86.8433 490.443 91.217 492.79 96.6017 492.79C101.993 492.79 106.368 490.442 106.368 487.538V499.27C106.368 502.173 101.995 504.522 96.6017 504.522Z" fill="#7A7A7A"/>
<path d="M96.6017 492.789C91.217 492.789 86.8433 490.441 86.8433 487.537C86.8433 484.64 91.217 482.285 96.6017 482.285C101.993 482.285 106.368 484.64 106.368 487.537C106.368 490.442 101.995 492.789 96.6017 492.789Z" fill="#7A7A7A"/>
<path d="M106.368 487.537C106.368 490.442 101.995 492.789 96.6017 492.789C91.217 492.789 86.8433 490.441 86.8433 487.537" stroke="#263238" stroke-miterlimit="10" stroke-linecap="round" stroke-linejoin="round"/>
<path d="M101.27 474.253C101.157 474.282 101.188 479.661 101.225 483.564C101.246 485.753 99.4126 487.537 97.1456 487.537C94.8925 487.537 93.0658 485.773 93.0658 483.598V474.89L101.27 474.253Z" fill="#263238" stroke="#263238" stroke-miterlimit="10" stroke-linecap="round" stroke-linejoin="round"/>
<path d="M96.6017 474.891C91.217 474.891 86.8433 472.542 86.8433 469.639V457.907C86.8433 460.812 91.217 463.159 96.6017 463.159C101.993 463.159 106.368 460.811 106.368 457.907V469.639C106.368 472.542 101.995 474.891 96.6017 474.891Z" fill="#7A7A7A"/>
<path d="M106.368 457.906C106.368 460.811 101.995 463.158 96.6017 463.158C91.217 463.158 86.8433 460.81 86.8433 457.906" stroke="#263238" stroke-miterlimit="10" stroke-linecap="round" stroke-linejoin="round"/>
<path d="M152.192 478.555C152.192 473.356 154.624 469.133 157.631 469.133C160.631 469.133 163.07 473.356 163.07 478.555C163.07 483.762 160.631 487.985 157.631 487.985C154.623 487.986 152.192 483.763 152.192 478.555Z" fill="#7A7A7A"/>
<path d="M109.354 478.555C109.354 473.356 111.786 469.133 114.793 469.133H126.943C123.934 469.133 121.503 473.356 121.503 478.555C121.503 483.762 123.935 487.985 126.943 487.985H114.794C111.786 487.986 109.354 483.763 109.354 478.555Z" fill="#7A7A7A"/>
<path d="M121.505 478.555C121.505 473.356 123.937 469.133 126.944 469.133C129.944 469.133 132.383 473.356 132.383 478.555C132.383 483.762 129.944 487.985 126.944 487.985C123.935 487.986 121.505 483.763 121.505 478.555Z" fill="#7A7A7A"/>
<path d="M126.944 487.986C123.935 487.986 121.505 483.763 121.505 478.557C121.505 473.357 123.937 469.134 126.944 469.134" stroke="#263238" stroke-miterlimit="10" stroke-linecap="round" stroke-linejoin="round"/>
<path d="M140.702 483.061C140.672 482.953 135.101 482.983 131.058 483.019C128.791 483.039 126.944 481.268 126.944 479.079C126.944 476.904 128.771 475.14 131.024 475.14H140.042L140.702 483.061Z" fill="#263238" stroke="#263238" stroke-miterlimit="10" stroke-linecap="round" stroke-linejoin="round"/>
<path d="M140.042 478.555C140.042 473.356 142.474 469.133 145.481 469.133H157.631C154.623 469.133 152.192 473.356 152.192 478.555C152.192 483.762 154.624 487.985 157.631 487.985H145.481C142.473 487.986 140.042 483.763 140.042 478.555Z" fill="#7A7A7A"/>
<path d="M157.631 487.986C154.623 487.986 152.192 483.763 152.192 478.557C152.192 473.357 154.624 469.134 157.631 469.134" stroke="#263238" stroke-miterlimit="10" stroke-linecap="round" stroke-linejoin="round"/>
<path d="M427.817 486.358V479.057C427.817 475.627 430.696 472.847 434.249 472.847H467.217C472.827 472.847 477.374 477.238 477.374 482.654V482.76C477.374 488.175 472.827 492.567 467.217 492.567H434.249C430.696 492.568 427.817 489.788 427.817 486.358Z" fill="white" stroke="#FFD200" stroke-miterlimit="10" stroke-linecap="round" stroke-linejoin="round"/>
<path d="M464.882 492.568V472.848H449.475V492.568H464.882Z" fill="#FFD200" stroke="#FFD200" stroke-miterlimit="10" stroke-linecap="round" stroke-linejoin="round"/>
<path d="M481.879 486.134V479.299H477.791V486.134H481.879Z" fill="#FFD200" stroke="#FFD200" stroke-miterlimit="10" stroke-linecap="round" stroke-linejoin="round"/>
<path d="M451.285 497.926H443.724C440.171 497.926 437.292 495.145 437.292 491.715V459.882C437.292 454.466 441.84 450.075 447.449 450.075H447.558C453.168 450.075 457.715 454.466 457.715 459.882V491.715C457.716 495.145 454.837 497.926 451.285 497.926Z" fill="white" stroke="#FFD200" stroke-miterlimit="10" stroke-linecap="round" stroke-linejoin="round"/>
<path d="M457.717 462.137H437.293V477.014H457.717V462.137Z" fill="#FFD200" stroke="#FFD200" stroke-miterlimit="10" stroke-linecap="round" stroke-linejoin="round"/>
<path d="M451.054 445.726H443.975V449.673H451.054V445.726Z" fill="#FFD200" stroke="#FFD200" stroke-miterlimit="10" stroke-linecap="round" stroke-linejoin="round"/>
<path d="M333.842 430.366C333.842 445.995 328.788 460.48 320.154 472.384V472.396C306.408 491.369 283.609 503.767 257.813 503.767C216.271 503.767 182.504 471.588 181.806 431.633C181.795 431.207 181.795 430.792 181.795 430.366C181.795 419.673 184.165 409.519 188.418 400.352C194.554 387.135 204.616 375.993 217.178 368.308C220.025 366.569 223.011 364.998 226.102 363.629C235.642 359.388 246.228 357.009 257.395 356.953H257.813C259.033 356.953 260.23 356.976 261.438 357.043C263.507 357.133 265.552 357.301 267.562 357.559C284.446 359.635 299.587 367.062 311.125 378.013C312.566 379.382 313.937 380.807 315.262 382.277H315.274C320.538 388.145 324.86 394.832 328.009 402.114C328.858 404.077 329.624 406.097 330.298 408.15C331.925 413.087 333.017 418.259 333.517 423.6C333.738 425.821 333.842 428.088 333.842 430.366Z" fill="#FFD200"/>
<mask id="mask0_3_747" style="mask-type:luminance" maskUnits="userSpaceOnUse" x="181" y="356" width="153" height="148">
<path d="M333.842 430.366C333.842 445.995 328.788 460.48 320.154 472.384V472.396C306.408 491.369 283.609 503.767 257.813 503.767C216.271 503.767 182.504 471.588 181.806 431.633C181.795 431.207 181.795 430.792 181.795 430.366C181.795 419.673 184.165 409.519 188.418 400.352C194.554 387.135 204.616 375.993 217.178 368.308C220.025 366.569 223.011 364.998 226.102 363.629C235.642 359.388 246.228 357.009 257.395 356.953H257.813C259.033 356.953 260.23 356.976 261.438 357.043C263.507 357.133 265.552 357.301 267.562 357.559C284.446 359.635 299.587 367.062 311.125 378.013C312.566 379.382 313.937 380.807 315.262 382.277H315.274C320.538 388.145 324.86 394.832 328.009 402.114C328.858 404.077 329.624 406.097 330.298 408.15C331.925 413.087 333.017 418.259 333.517 423.6C333.738 425.821 333.842 428.088 333.842 430.366Z" fill="white"/>
</mask>
<g mask="url(#mask0_3_747)">
<path opacity="0.2" d="M261.438 357.043C261.438 357.043 253.931 374.485 272.774 402.417C291.617 430.348 301.881 451.144 302.754 462.341C303.628 473.539 302.86 486.563 295.996 493.848C295.996 493.848 347.031 467.535 330.3 408.15C313.568 348.765 261.438 357.043 261.438 357.043Z" fill="black"/>
</g>
<path d="M333.842 430.366C333.842 445.995 328.788 460.48 320.154 472.384V472.396C306.408 491.369 283.609 503.767 257.813 503.767C216.271 503.767 182.504 471.588 181.806 431.633C181.795 431.207 181.795 430.792 181.795 430.366C181.795 419.673 184.165 409.519 188.418 400.352C194.554 387.135 204.616 375.993 217.178 368.308C220.025 366.569 223.011 364.998 226.102 363.629C235.642 359.388 246.228 357.009 257.395 356.953H257.813C259.033 356.953 260.23 356.976 261.438 357.043C263.507 357.133 265.552 357.301 267.562 357.559C284.446 359.635 299.587 367.062 311.125 378.013C312.566 379.382 313.937 380.807 315.262 382.277H315.274C320.538 388.145 324.86 394.832 328.009 402.114C328.858 404.077 329.624 406.097 330.298 408.15C331.925 413.087 333.017 418.259 333.517 423.6C333.738 425.821 333.842 428.088 333.842 430.366Z" stroke="#263238" stroke-miterlimit="10" stroke-linecap="round" stroke-linejoin="round"/>
<path d="M257.65 358.737H257.639C256.535 361.116 250.527 363.943 242.939 365.435C235.863 366.838 229.576 366.658 227.159 365.177C226.59 364.841 226.241 364.426 226.137 363.943C226.114 363.842 226.102 363.741 226.102 363.629C235.642 359.388 246.228 357.009 257.395 356.953H257.406C257.604 357.178 257.732 357.424 257.79 357.682C257.859 358.019 257.801 358.367 257.65 358.737Z" stroke="#263238" stroke-miterlimit="10" stroke-linecap="round" stroke-linejoin="round"/>
<path d="M181.806 431.633C195.611 437.502 224.87 437.748 257.534 431.297C287.118 425.44 311.892 415.589 323.965 405.884" stroke="#263238" stroke-miterlimit="10" stroke-linecap="round" stroke-linejoin="round"/>
<path d="M276.649 385.699H276.637C270.572 387.382 264.181 388.896 257.534 390.209C231.552 395.337 207.719 396.234 192.113 393.429" stroke="#263238" stroke-miterlimit="10" stroke-linecap="round" stroke-linejoin="round"/>
<path d="M191.405 466.079C205.209 471.947 234.468 472.194 267.132 465.742C291.22 460.974 312.113 453.557 325.557 445.726" stroke="#263238" stroke-miterlimit="10" stroke-linecap="round" stroke-linejoin="round"/>
<path d="M220.923 494.554C220.923 494.554 271.206 508.086 317.436 475.918" stroke="#263238" stroke-miterlimit="10" stroke-linecap="round" stroke-linejoin="round"/>
<path d="M168.502 425.272C168.502 425.272 160.218 440.735 168.502 451.4" stroke="#263238" stroke-miterlimit="10" stroke-linecap="round" stroke-linejoin="round"/>
<path d="M175.68 430.785C175.68 430.785 170.711 437.892 175.68 445.886" stroke="#263238" stroke-miterlimit="10" stroke-linecap="round" stroke-linejoin="round"/>
<path d="M362.679 449.68C362.679 449.68 367.572 466.436 357.236 475.274" stroke="#263238" stroke-miterlimit="10" stroke-linecap="round" stroke-linejoin="round"/>
<path d="M354.498 453.686C354.498 453.686 357.887 461.613 351.353 468.479" stroke="#263238" stroke-miterlimit="10" stroke-linecap="round" stroke-linejoin="round"/>
<path d="M322.13 297.711C320.096 303.075 318.365 331.394 318.365 331.394C301.179 343.433 268.306 337.419 268.306 337.419L269.363 330.766C271.641 316.482 271.153 301.897 267.818 287.804C267.19 285.145 266.563 282.385 265.982 279.658C261.752 282.766 255.733 286.39 253.758 287.838C250.829 290.003 248.366 292.674 245.624 295.041C238.524 301.19 232.017 309.055 223.162 312.477C217.282 314.732 211.403 316.999 205.523 319.265C203.222 320.151 200.921 321.038 198.644 321.98C192.021 324.707 184.816 326.76 178.402 329.902C175.032 329.195 173.963 324.942 173.893 321.61C198.086 307.428 222.535 293.066 242.73 273.914C249.911 267.103 256.558 259.698 264.68 253.976C264.738 253.942 264.785 253.909 264.843 253.886C269.235 247.749 277.776 244.293 279.147 243.743C294.823 237.393 309.266 239.278 309.266 239.278C309.266 239.278 309.266 239.289 309.278 239.289C313.101 243.003 319.143 256.22 323.21 266.441C325.592 272.422 327.289 277.392 327.475 278.828C327.975 282.733 324.152 292.337 322.13 297.711Z" fill="#FFD200"/>
<mask id="mask1_3_747" style="mask-type:luminance" maskUnits="userSpaceOnUse" x="173" y="239" width="155" height="100">
<path d="M322.13 297.711C320.096 303.075 318.365 331.394 318.365 331.394C301.179 343.433 268.306 337.419 268.306 337.419L269.363 330.766C271.641 316.482 271.153 301.897 267.818 287.804C267.19 285.145 266.563 282.385 265.982 279.658C261.752 282.766 255.733 286.39 253.758 287.838C250.829 290.003 248.366 292.674 245.624 295.041C238.524 301.19 232.017 309.055 223.162 312.477C217.282 314.732 211.403 316.999 205.523 319.265C203.222 320.151 200.921 321.038 198.644 321.98C192.021 324.707 184.816 326.76 178.402 329.902C175.032 329.195 173.963 324.942 173.893 321.61C198.086 307.428 222.535 293.066 242.73 273.914C249.911 267.103 256.558 259.698 264.68 253.976C264.738 253.942 264.785 253.909 264.843 253.886C269.235 247.749 277.776 244.293 279.147 243.743C294.823 237.393 309.266 239.278 309.266 239.278C309.266 239.278 309.266 239.289 309.278 239.289C313.101 243.003 319.143 256.22 323.21 266.441C325.592 272.422 327.289 277.392 327.475 278.828C327.975 282.733 324.152 292.337 322.13 297.711Z" fill="white"/>
</mask>
<g mask="url(#mask1_3_747)">
<path d="M322.13 297.711C320.096 303.075 318.365 331.394 318.365 331.394C301.179 343.433 268.306 337.419 268.306 337.419L269.363 330.766C271.641 316.482 271.153 301.897 267.818 287.804C267.19 285.145 266.563 282.385 265.982 279.658C261.752 282.766 255.733 286.39 253.758 287.838C250.829 290.003 248.366 292.674 245.624 295.041C238.524 301.19 232.017 309.055 223.162 312.477C217.282 314.732 211.403 316.999 205.523 319.265C203.222 320.151 200.921 321.038 198.644 321.98C192.021 324.707 184.816 326.76 178.402 329.902C175.032 329.195 173.963 324.942 173.893 321.61C198.086 307.428 222.535 293.066 242.73 273.914C249.911 267.103 256.558 259.698 264.68 253.976C264.738 253.942 264.785 253.909 264.843 253.886C269.235 247.749 277.776 244.293 279.147 243.743C294.823 237.393 309.266 239.278 309.266 239.278C309.266 239.278 309.266 239.289 309.278 239.289C313.101 243.003 319.143 256.22 323.21 266.441C325.592 272.422 327.289 277.392 327.475 278.828C327.975 282.733 324.152 292.337 322.13 297.711Z" fill="#FFD200"/>
</g>
<mask id="mask2_3_747" style="mask-type:luminance" maskUnits="userSpaceOnUse" x="173" y="239" width="155" height="100">
<path d="M322.13 297.711C320.096 303.075 318.365 331.394 318.365 331.394C301.179 343.433 268.306 337.419 268.306 337.419L269.363 330.766C271.641 316.482 271.153 301.897 267.818 287.804C267.19 285.145 266.563 282.385 265.982 279.658C261.752 282.766 255.733 286.39 253.758 287.838C250.829 290.003 248.366 292.674 245.624 295.041C238.524 301.19 232.017 309.055 223.162 312.477C217.282 314.732 211.403 316.999 205.523 319.265C203.222 320.151 200.921 321.038 198.644 321.98C192.021 324.707 184.816 326.76 178.402 329.902C175.032 329.195 173.963 324.942 173.893 321.61C198.086 307.428 222.535 293.066 242.73 273.914C249.911 267.103 256.558 259.698 264.68 253.976C264.738 253.942 264.785 253.909 264.843 253.886C269.235 247.749 277.776 244.293 279.147 243.743C294.823 237.393 309.266 239.278 309.266 239.278C309.266 239.278 309.266 239.289 309.278 239.289C313.101 243.003 319.143 256.22 323.21 266.441C325.592 272.422 327.289 277.392 327.475 278.828C327.975 282.733 324.152 292.337 322.13 297.711Z" fill="white"/>
</mask>
<g mask="url(#mask2_3_747)">
<path opacity="0.2" d="M278.99 301.806C282.752 302.124 286.806 302.957 290.5 302.204C302.594 299.738 307.461 291.009 308.459 291.853C313.832 296.394 322.662 294.798 323.948 292.88C326.347 289.304 327.868 284.592 327.578 280.341C327.559 280.051 327.52 279.747 327.339 279.516C326.682 278.681 326.682 282.245 323.646 284.911C323.646 284.911 319.372 290.647 308.524 283.648C304.365 280.966 304.101 287.313 293.34 294.52C282.504 301.774 279.449 300.96 278.99 301.806Z" fill="black"/>
<path opacity="0.2" d="M271.207 266.441C271.207 266.441 271.046 266.756 270.723 267.324C269.228 269.956 264.278 278.037 255.858 285.711C245.62 295.042 265.982 279.659 265.982 279.659L268.42 290.5C268.42 290.5 272.473 280.499 271.207 266.441Z" fill="black"/>
</g>
<path d="M402.409 200.661C402.409 200.661 406.613 200.325 408.552 198.394C410.761 196.195 409.857 193.018 410.647 192.713C411.439 192.407 413.179 193.024 412.23 196.306C412.23 196.306 414.38 194.252 414.696 191.197C415.012 188.142 415.394 185.838 415.394 185.838C415.394 185.838 417.173 185.048 417.293 186.602C417.472 188.927 417.417 189.996 417.417 189.996C417.417 189.996 418.267 187.859 418.878 183.882C419.003 183.062 419.903 182.555 420.695 182.876C421.045 183.017 421.194 183.9 421.391 184.331C421.875 182.779 423.728 183.213 423.816 185.129C424.06 190.432 420.771 196.662 420.771 196.662C420.771 196.662 422.403 196.121 423.74 194.396C423.74 194.396 425.961 193.156 425.956 196.086C425.952 197.993 423.939 199.183 422.199 200.761C420.458 202.337 416.661 206.463 413.021 207.074C409.382 207.686 404.003 207.074 404.003 207.074C404.003 207.074 399.085 204.633 402.409 200.661Z" fill="white" stroke="#263238" stroke-miterlimit="10" stroke-linecap="round" stroke-linejoin="round"/>
<path d="M421.392 184.33C421.624 183.133 419.788 192.76 418.562 195.649Z" fill="white"/>
<path d="M421.392 184.33C421.624 183.133 419.788 192.76 418.562 195.649" stroke="#263238" stroke-miterlimit="10" stroke-linecap="round" stroke-linejoin="round"/>
<path d="M417.421 189.099C416.541 194.396 415.663 195.485 415.663 195.485Z" fill="white"/>
<path d="M417.421 189.099C416.541 194.396 415.663 195.485 415.663 195.485" stroke="#263238" stroke-miterlimit="10" stroke-linecap="round" stroke-linejoin="round"/>
<path d="M411.06 197.143C413.262 196.168 415.248 195.061 418.562 195.649Z" fill="white"/>
<path d="M411.06 197.143C413.262 196.168 415.248 195.061 418.562 195.649" stroke="#263238" stroke-miterlimit="10" stroke-linecap="round" stroke-linejoin="round"/>
<path d="M405.341 207.054C405.341 207.054 403.993 209.175 399.786 211.452C395.568 213.73 380.567 227.239 378.882 228.697C377.197 230.167 365.902 235.699 363.206 236.349C360.511 237 327.475 251.654 325.79 253.438C324.628 254.683 323.675 262.032 323.21 266.441C319.143 256.22 313.101 243.003 309.278 239.289C309.266 239.289 309.266 239.278 309.266 239.278C309.266 239.278 316.18 235.699 323.094 233.746C329.996 231.794 337.096 232.209 340.617 230.975C352.249 226.913 362.869 216.49 366.239 215.189C369.609 213.887 395.905 202.173 401.634 200.546C407.374 198.92 405.341 207.054 405.341 207.054Z" fill="#FFD200"/>
<mask id="mask3_3_747" style="mask-type:luminance" maskUnits="userSpaceOnUse" x="309" y="200" width="97" height="67">
<path d="M405.341 207.054C405.341 207.054 403.993 209.175 399.786 211.452C395.568 213.73 380.567 227.239 378.882 228.697C377.197 230.167 365.902 235.699 363.206 236.349C360.511 237 327.475 251.654 325.79 253.438C324.628 254.683 323.675 262.032 323.21 266.441C319.143 256.22 313.101 243.003 309.278 239.289C309.266 239.289 309.266 239.278 309.266 239.278C309.266 239.278 316.18 235.699 323.094 233.746C329.996 231.794 337.096 232.209 340.617 230.975C352.249 226.913 362.869 216.49 366.239 215.189C369.609 213.887 395.905 202.173 401.634 200.546C407.374 198.92 405.341 207.054 405.341 207.054Z" fill="white"/>
</mask>
<g mask="url(#mask3_3_747)">
<path opacity="0.2" d="M315.017 247.985L323.21 266.441C323.21 266.441 323.801 254.662 325.79 253.437C327.779 252.213 359.407 237.803 359.407 237.803C359.407 237.803 326.407 250.984 315.017 247.985Z" fill="black"/>
</g>
<path d="M178.402 329.902C178.402 329.902 174.265 332.841 172.243 334.143C171.365 334.708 170.741 335.949 170.317 337.171C169.425 339.736 167.09 341.609 164.324 342.035C160.942 342.556 157.145 342.479 155.047 342.277C151.677 341.952 152.014 340.123 152.014 340.123C152.014 340.123 139.546 338.373 136.164 337.722C132.795 337.071 130.773 335.77 130.773 334.468C130.773 333.167 153.699 331.865 160.776 329.902C163.893 329.043 165.705 327.935 166.755 326.963C169.606 324.328 172.845 322.122 176.265 320.219C176.343 320.214 176.447 320.208 176.525 320.202C182.501 322.538 178.402 329.902 178.402 329.902Z" fill="white" stroke="#263238" stroke-miterlimit="10" stroke-linecap="round" stroke-linejoin="round"/>
<path d="M405.341 207.054C405.341 207.054 403.993 209.175 399.786 211.452C395.568 213.73 380.567 227.239 378.882 228.697C377.197 230.167 365.902 235.699 363.206 236.349C360.511 237 327.475 251.654 325.79 253.438C324.628 254.683 323.675 262.032 323.21 266.441C325.593 272.422 327.289 277.392 327.475 278.828C327.975 282.733 324.152 292.337 322.13 297.712C320.096 303.075 318.365 331.394 318.365 331.394C301.179 343.433 268.306 337.419 268.306 337.419L269.363 330.766C271.641 316.483 271.153 301.897 267.818 287.804C267.19 285.145 266.563 282.385 265.982 279.659C261.752 282.767 255.733 286.391 253.758 287.838C250.829 290.003 248.366 292.674 245.624 295.041C238.524 301.19 232.017 309.055 223.162 312.477C217.283 314.732 211.403 316.999 205.523 319.265C203.222 320.152 200.922 321.038 198.644 321.98C192.021 324.707 184.816 326.76 178.402 329.902C178.402 329.902 182.562 322.429 176.392 320.152C199.76 306.441 223.232 292.405 242.73 273.914C249.911 267.103 256.558 259.698 264.68 253.976C264.739 253.942 264.785 253.909 264.843 253.886C269.236 247.749 277.776 244.293 279.147 243.743C294.823 237.393 309.266 239.278 309.266 239.278C309.266 239.278 316.18 235.699 323.094 233.746C329.996 231.794 337.096 232.209 340.617 230.975C352.249 226.913 362.869 216.49 366.239 215.189C369.609 213.887 395.905 202.173 401.634 200.546C407.374 198.92 405.341 207.054 405.341 207.054Z" stroke="#263238" stroke-miterlimit="10" stroke-linecap="round" stroke-linejoin="round"/>
<path d="M178.402 329.902C175.032 329.195 173.963 324.943 173.893 321.61C174.683 321.15 175.474 320.69 176.264 320.219C176.299 320.196 176.345 320.174 176.392 320.152C182.562 322.429 178.402 329.902 178.402 329.902Z" fill="#FFD200" stroke="#263238" stroke-miterlimit="10" stroke-linecap="round" stroke-linejoin="round"/>
<path d="M318.945 481.274C318.945 481.274 312.907 497.572 315.639 499.526C318.371 501.479 347.539 510.756 357.48 507.338C367.42 503.92 348.205 493.178 343.148 490.737C338.091 488.296 335.789 488.385 336.384 482.526C336.98 476.667 332.637 490.447 318.945 481.274Z" fill="white" stroke="#263238" stroke-miterlimit="10" stroke-linecap="round" stroke-linejoin="round"/>
<path d="M333.843 501.669C343.079 504.023 354.209 506.044 359.116 503.767Z" fill="white"/>
<path d="M333.843 501.669C343.079 504.023 354.209 506.044 359.116 503.767" stroke="#263238" stroke-miterlimit="10" stroke-linecap="round" stroke-linejoin="round"/>
<path d="M319.372 497.379C319.372 497.379 323.037 498.65 328.208 500.137Z" fill="white"/>
<path d="M319.372 497.379C319.372 497.379 323.037 498.65 328.208 500.137" stroke="#263238" stroke-miterlimit="10" stroke-linecap="round" stroke-linejoin="round"/>
<path d="M372.107 484.666C374.453 486.417 377.704 486.375 380.48 487.379C382.354 488.057 383.996 489.207 385.707 490.207C389.733 492.56 394.249 494.125 398.905 494.781C401.184 495.1 403.555 495.198 405.747 494.521C407.94 493.845 409.94 492.277 410.599 490.147C410.918 489.113 410.868 487.881 410.105 487.093C409.657 486.63 409.03 486.38 408.426 486.137C401.746 483.448 395.41 479.968 389.605 475.798C386.517 473.579 383.439 471.101 379.693 470.249C371.202 468.323 364.881 479.272 372.107 484.666Z" fill="white" stroke="#263238" stroke-miterlimit="10" stroke-linecap="round" stroke-linejoin="round"/>
<path d="M375.912 484.283C376.831 484.512 377.706 484.906 378.477 485.441C379.925 486.443 385.707 490.208 385.707 490.208" fill="white"/>
<path d="M375.912 484.283C376.831 484.512 377.706 484.906 378.477 485.441C379.925 486.443 385.707 490.208 385.707 490.208" stroke="#263238" stroke-miterlimit="10" stroke-linecap="round" stroke-linejoin="round"/>
<path d="M398.007 491.725C402.417 492.684 407.877 492.987 410.539 489.679Z" fill="white"/>
<path d="M398.007 491.725C402.417 492.684 407.877 492.987 410.539 489.679" stroke="#263238" stroke-miterlimit="10" stroke-linecap="round" stroke-linejoin="round"/>
<path d="M391.394 489.678C391.394 489.678 392.98 490.351 395.274 491.025Z" fill="white"/>
<path d="M391.394 489.678C391.394 489.678 392.98 490.351 395.274 491.025" stroke="#263238" stroke-miterlimit="10" stroke-linecap="round" stroke-linejoin="round"/>
<path d="M268.308 337.421L306.739 364.764C306.739 364.764 312.401 368.427 315.638 364.764L318.37 331.393C318.37 331.393 304.464 343.77 268.308 337.421Z" fill="#263238" stroke="#263238" stroke-miterlimit="10" stroke-linecap="round" stroke-linejoin="round"/>
<path d="M390.11 438.003C387.145 462.413 386.127 473.652 386.127 473.652C386.127 473.652 380.664 483.338 369.974 474.776C369.974 474.776 371.716 457.125 368.954 441.606C366.256 426.397 370.456 406.392 370.725 405.885C352.115 400.208 315.64 356.109 315.64 356.109L318.371 331.399C318.371 331.399 367.527 371.122 381.075 380.882C396.975 392.336 393.065 413.593 390.11 438.003Z" fill="#263238" stroke="#263238" stroke-miterlimit="10" stroke-linecap="round" stroke-linejoin="round"/>
<path d="M369.969 404.301C370.039 407.623 369.388 410.798 367.924 413.109C367.924 413.109 367.913 413.12 367.901 413.143C367.087 414.736 343.162 467.032 337.608 482.527C337.247 483.537 336.817 484.412 336.341 485.153C332.96 490.471 327.068 489.36 323.884 488.373C321.084 487.498 318.992 484.199 318.946 481.271C318.934 480.979 318.957 480.687 318.992 480.407C319.283 478.252 319.666 475.515 320.154 472.396V472.384C321.665 462.78 324.105 449.597 327.51 438.982C329.52 432.699 331.612 427.605 333.517 423.6C337.375 415.443 340.443 411.774 340.443 411.774C338.235 410.989 334.947 409.822 330.299 408.15C328.416 407.477 326.313 406.725 323.966 405.883L286.119 391.275C279.67 388.021 274.918 384.779 271.397 381.48C265.459 375.948 262.984 370.294 261.741 364.28C261.334 362.305 261.229 360.274 261.346 358.243C261.357 357.839 261.392 357.447 261.438 357.043C262.391 346.945 268.318 337.43 268.318 337.43H268.329C268.352 337.43 268.376 337.441 268.399 337.441C285.341 341.11 301.527 348.235 315.634 356.1V356.112C315.855 356.224 316.087 356.347 316.308 356.482C341.419 370.563 359.813 386.843 363.88 389.67C367.634 392.274 369.876 398.478 369.969 404.301Z" fill="#263238" stroke="#263238" stroke-miterlimit="10" stroke-linecap="round" stroke-linejoin="round"/>
<path d="M281.04 229.408C282.389 236.895 280.703 242.05 277.332 244.355C273.961 246.66 306.661 264.237 304.976 239.824C304.976 239.824 301.268 238.699 300.256 236.657C299.244 234.616 281.04 229.408 281.04 229.408Z" fill="white" stroke="#263238" stroke-miterlimit="10" stroke-linecap="round" stroke-linejoin="round"/>
<path d="M273.025 185.512C268.946 184.246 263.439 186.496 260.702 189.677C257.964 192.858 256.859 196.918 257.703 200.973C258.308 203.888 260.457 208.313 263.485 208.846C265.908 209.272 268.273 208.027 270.399 206.826C272.355 205.721 274.348 204.587 275.836 202.936C277.139 201.489 277.99 199.707 278.599 197.881C279.382 195.531 279.781 192.948 278.957 190.612C278.957 190.612 278.47 187.202 273.025 185.512Z" fill="#263238" stroke="#263238" stroke-miterlimit="10" stroke-linecap="round" stroke-linejoin="round"/>
<path d="M270.985 190.613C268.713 191.675 266.911 193.511 265.509 195.539C262.34 200.121 261.075 206.236 263.485 211.231C264.582 213.503 266.344 215.403 268.083 217.265C270.872 220.256 273.66 223.246 276.449 226.236C275.951 223.874 277.029 221.464 278.397 219.447C280.006 217.074 282.035 214.998 284.053 212.936C286.053 210.891 288.084 208.822 290.571 207.357C293.447 205.662 296.793 204.859 300.127 204.386C302.058 204.111 304.063 203.943 305.938 204.469C304.828 197.088 292.696 180.839 282.02 186.461C279.552 187.76 279.101 189.462 279.101 189.462C279.101 189.462 276.372 189.409 275.092 189.539C273.674 189.684 272.273 190.013 270.985 190.613Z" fill="#263238" stroke="#263238" stroke-miterlimit="10" stroke-linecap="round" stroke-linejoin="round"/>
<path d="M274.514 220.609C273.775 219.697 273.007 218.76 271.96 218.195C270.913 217.631 269.503 217.527 268.573 218.258C267.868 218.812 267.574 219.724 267.479 220.596C267.209 223.074 268.304 225.59 270.111 227.369C271.917 229.147 274.373 230.228 276.905 230.703C277.507 230.817 278.29 230.812 278.543 230.274C278.714 229.912 278.54 229.494 278.368 229.134C277.062 226.401 276.765 225.779 275.459 223.047L274.514 220.609Z" fill="white" stroke="#263238" stroke-miterlimit="10" stroke-linecap="round" stroke-linejoin="round"/>
<path d="M295.027 192.923C293.823 192.603 292.808 192.514 291.826 192.59C289.401 192.78 287.506 194.705 287.267 197.042C284.702 196.467 281.993 197.167 280.104 198.94C279.695 199.324 279.344 199.689 279.122 199.994C272.992 208.395 274.984 215.425 275.55 219.071C275.932 221.532 276.333 224.011 277.22 226.348C278.106 228.685 279.523 230.898 281.6 232.371C282.368 232.915 283.212 233.35 284.053 233.782C285.012 234.275 285.969 234.769 286.939 235.243C289.801 236.645 292.761 237.886 295.856 238.705C298.362 239.369 301.226 239.702 303.404 238.333C305.682 236.9 306.53 234.03 307.372 231.662C308.525 228.421 309.448 225.107 310.074 221.734C310.527 219.295 310.829 216.771 310.335 214.334C309.768 211.536 308.198 209.045 306.901 206.485C305.543 203.809 304.988 200.492 302.973 198.237C300.772 195.776 298.342 193.803 295.027 192.923Z" fill="white" stroke="#263238" stroke-miterlimit="10" stroke-linecap="round" stroke-linejoin="round"/>
<path d="M295.995 190.612C297.245 190.048 298.809 189.508 299.909 190.313C300.857 191.007 300.924 192.336 300.907 193.485C300.891 194.567 300.873 195.649 300.857 196.732C300.852 197.03 300.85 197.337 300.967 197.613C301.297 198.387 302.34 198.537 303.203 198.61C304.946 198.757 306.986 199.295 307.551 200.894C307.979 202.105 307.355 203.421 307.427 204.698C307.441 204.941 307.493 205.207 307.688 205.362C307.89 205.522 308.181 205.513 308.442 205.488C309.142 205.418 309.836 205.288 310.511 205.097C310.511 205.097 317.969 204.288 314.714 212.173" stroke="#263238" stroke-linecap="round" stroke-linejoin="round"/>
<path d="M281.796 197.84C280.479 198.857 279.197 199.979 278.405 201.415C277.611 202.851 277.38 204.664 278.183 206.096C278.729 207.069 279.7 207.794 280.114 208.826C280.848 210.651 279.617 212.592 278.828 214.396C277.933 216.439 277.598 218.82 278.49 220.865C278.813 221.606 279.35 222.328 280.144 222.569C281.106 222.861 282.222 222.384 283.133 222.803C284.187 223.289 284.361 224.682 284.124 225.786C283.887 226.89 283.257 228.032 283.625 229.101C285.096 233.387 290.799 230.665 290.799 230.665" stroke="#263238" stroke-linecap="round" stroke-linejoin="round"/>
<path d="M281.6 232.37C281.6 232.37 291.667 244.454 299.278 241.499C305.891 238.932 307.372 231.661 307.372 231.661C307.372 231.661 305.135 237.607 303.404 238.332C301.673 239.058 296.85 240.351 281.6 232.37Z" fill="#263238"/>
<path d="M298.703 210.482C298.703 210.482 298.977 216.214 301.461 216.749C303.946 217.284 307.207 218.504 304.812 221.345" stroke="#263238" stroke-linecap="round" stroke-linejoin="round"/>
<path d="M292.601 216.643C293.117 217.932 293.039 219.158 292.436 219.383C291.832 219.608 290.922 218.75 290.406 217.461C289.89 216.171 289.971 214.954 290.574 214.729C291.179 214.504 292.09 215.362 292.601 216.643Z" fill="#263238"/>
<path d="M303.851 210.743C304.367 212.032 304.289 213.259 303.686 213.484C303.082 213.71 302.172 212.851 301.656 211.562C301.14 210.273 301.213 209.059 301.825 208.83C302.438 208.601 303.34 209.463 303.851 210.743Z" fill="#263238"/>
<path d="M285.096 214.179C285.096 214.179 286.84 209.311 291.115 208.597" stroke="#263238" stroke-linecap="round" stroke-linejoin="round"/>
<path d="M298.42 205.833C298.42 205.833 301.455 202.704 305.03 205.117" stroke="#263238" stroke-linecap="round" stroke-linejoin="round"/>
<path d="M302.427 229.649C303.403 229.649 304.194 228.885 304.194 227.942C304.194 227 303.403 226.236 302.427 226.236C301.451 226.236 300.659 227 300.659 227.942C300.659 228.885 301.451 229.649 302.427 229.649Z" fill="#263238"/>
<path d="M293.339 301.473C307.852 294.793 307.372 285.31 307.372 283.157" stroke="#263238" stroke-miterlimit="10" stroke-linecap="round" stroke-linejoin="round"/>
<path d="M269.185 294.518C271.54 302.257 273.635 310.415 276.361 318.039" stroke="#263238" stroke-miterlimit="10" stroke-linecap="round" stroke-linejoin="round"/>
<path d="M267.717 255.06C271.246 259.937 272.179 266.473 270.148 272.09" stroke="#263238" stroke-miterlimit="10" stroke-linecap="round" stroke-linejoin="round"/>
<path d="M317.964 255.06L324.451 269.627" stroke="#263238" stroke-miterlimit="10" stroke-linecap="round" stroke-linejoin="round"/>
<path d="M314.294 246.818L316.867 252.63" stroke="#263238" stroke-miterlimit="10" stroke-linecap="round" stroke-linejoin="round"/>
<path d="M364.777 224.538C366.111 225.9 366.796 227.832 366.606 229.697" stroke="#263238" stroke-miterlimit="10" stroke-linecap="round" stroke-linejoin="round"/>
<path d="M228.637 293.49C229.102 294.958 229.919 296.321 231.006 297.442" stroke="#263238" stroke-miterlimit="10" stroke-linecap="round" stroke-linejoin="round"/>
<path d="M359.116 385.954C351.288 379.702 335.827 367.427 316.308 356.482L314.294 355.362L317.535 338.958" stroke="#7A7A7A" stroke-miterlimit="10" stroke-linecap="round" stroke-linejoin="round"/>
<path d="M363.88 389.671C363.245 389.229 362.259 388.459 360.953 387.42" stroke="#7A7A7A" stroke-miterlimit="10" stroke-linecap="round" stroke-linejoin="round"/>
<path d="M367.924 413.109C369.388 410.798 370.039 407.623 369.969 404.302C369.908 400.481 368.922 396.497 367.191 393.473" stroke="#7A7A7A" stroke-miterlimit="10" stroke-linecap="round" stroke-linejoin="round"/>
<path d="M289.755 345.95C295.715 347.567 302.459 350.209 309.266 354.496" stroke="#7A7A7A" stroke-linecap="round" stroke-linejoin="round"/>
<path d="M269.185 343.566C269.185 343.566 275.236 342.994 284.083 344.652" stroke="#7A7A7A" stroke-linecap="round" stroke-linejoin="round"/>
<path d="M176.387 320.146C172.87 322.103 163.757 329.08 160.778 329.905C153.699 331.864 130.775 333.167 130.775 334.468C130.775 335.771 132.798 337.073 136.169 337.723C139.54 338.374 152.013 340.118 152.013 340.118C152.013 340.118 151.676 341.954 155.047 342.281C157.294 342.498 161.49 342.57 165.037 341.918C167.517 341.463 169.481 339.654 170.256 337.333C170.682 336.059 171.322 334.733 172.239 334.142C174.262 332.84 178.403 329.904 178.403 329.904C178.403 329.904 182.557 322.425 176.387 320.146Z" fill="white" stroke="#263238" stroke-miterlimit="10" stroke-linecap="round" stroke-linejoin="round"/>
<path d="M153.447 338.957C153.621 338.358 154.217 337.948 154.838 337.779C155.459 337.611 156.116 337.638 156.76 337.622C158.544 337.581 160.32 337.205 161.96 336.523" fill="white"/>
<path d="M153.447 338.957C153.621 338.358 154.217 337.948 154.838 337.779C155.459 337.611 156.116 337.638 156.76 337.622C158.544 337.581 160.32 337.205 161.96 336.523" stroke="#263238" stroke-miterlimit="10" stroke-linecap="round" stroke-linejoin="round"/>
<path d="M142.201 337.74C138.163 339.395 136.136 336.393 136.043 335.954C135.918 335.364 136.478 334.62 137.099 334.684C144.583 335.46 149.581 334.549 154.933 334.289" stroke="#263238" stroke-miterlimit="10" stroke-linecap="round" stroke-linejoin="round"/>
<path d="M138.856 332.915L152.038 331.967" stroke="#263238" stroke-miterlimit="10" stroke-linecap="round" stroke-linejoin="round"/>
</svg>
