<svg width="78" height="74" viewBox="0 0 78 74" fill="none" xmlns="http://www.w3.org/2000/svg">
<g filter="url(#filter0_d_1_378)">
<path d="M47.8839 48.813C47.3179 51.144 46.3429 53.351 45.2379 55.283H32.4729C31.3669 53.351 30.3939 51.145 29.8269 48.813H47.8839Z" fill="#FF9600"/>
<path d="M45.4549 55.658H32.2559L32.1479 55.47C30.8929 53.279 29.9899 51.07 29.4619 48.903L29.3489 48.439H48.3599L48.2469 48.902C47.7219 51.064 46.8189 53.273 45.5629 55.469L45.4549 55.658ZM32.6909 54.908H45.0189C46.0959 52.993 46.8959 51.072 47.3999 49.188H30.3099C30.8159 51.076 31.6159 52.998 32.6909 54.908Z" fill="#787864"/>
<path d="M34.9739 18.021C33.4479 18.021 32.2059 16.78 32.2059 15.254C32.2059 13.728 33.4479 12.486 34.9739 12.486C36.4999 12.486 37.7419 13.728 37.7419 15.254C37.7419 16.78 36.4999 18.021 34.9739 18.021ZM34.9739 13.236C33.8619 13.236 32.9559 14.141 32.9559 15.254C32.9559 16.366 33.8609 17.271 34.9739 17.271C36.0859 17.271 36.9919 16.366 36.9919 15.254C36.9919 14.142 36.0859 13.236 34.9739 13.236Z" fill="#787864"/>
<path d="M29.8549 25.565L29.1189 25.421C29.2009 25.001 29.3269 24.592 29.4929 24.205C29.6179 23.914 29.7519 23.645 29.8979 23.375C30.0639 23.097 30.2319 22.845 30.4109 22.614C31.0349 21.812 31.8689 21.135 32.8939 20.6C33.1239 20.491 33.3519 20.387 33.5909 20.294L33.7769 20.225C33.8909 20.181 34.0039 20.138 34.1219 20.103C34.2799 20.046 34.4689 19.984 34.6569 19.932C34.8319 19.873 35.0259 19.819 35.2309 19.776C35.5859 19.687 35.9769 19.614 36.3679 19.552L36.7929 19.491C37.0159 19.459 37.2369 19.438 37.4689 19.428C37.6619 19.408 37.8849 19.387 38.0959 19.387C38.6869 19.365 39.1089 19.367 39.5869 19.386C39.8279 19.387 40.0499 19.407 40.2719 19.428C40.4679 19.438 40.6789 19.459 40.8919 19.491L41.3629 19.55C42.3869 19.715 43.3129 19.965 44.1269 20.295C44.3609 20.386 44.5889 20.49 44.8069 20.593C45.8379 21.12 46.6739 21.794 47.3019 22.602C47.6919 23.102 48.0029 23.649 48.2259 24.227C48.3909 24.61 48.5129 25.001 48.5939 25.409L47.8589 25.556C47.7879 25.199 47.6809 24.857 47.5319 24.51C47.3299 23.989 47.0559 23.506 46.7109 23.063C46.1509 22.342 45.3979 21.737 44.4759 21.266C44.2839 21.175 44.0719 21.078 43.8509 20.992C43.0839 20.681 42.2129 20.447 41.2579 20.293L40.7909 20.235C40.5939 20.206 40.4059 20.187 40.2179 20.177C40.0029 20.157 39.8049 20.137 39.6069 20.137C39.0509 20.116 38.6479 20.116 38.1719 20.135C37.9089 20.137 37.7119 20.157 37.5239 20.176C37.2969 20.187 37.0979 20.206 36.8989 20.234L36.4799 20.294C36.1169 20.352 35.7479 20.419 35.3979 20.507C35.2069 20.547 35.0409 20.593 34.8749 20.649C34.6849 20.702 34.5139 20.759 34.3519 20.816C34.2339 20.851 34.1399 20.888 34.0449 20.924L33.8519 20.996C33.6419 21.079 33.4299 21.175 33.2269 21.271C32.3109 21.749 31.5589 22.357 31.0019 23.072C30.8419 23.28 30.6899 23.508 30.5479 23.745C30.4219 23.98 30.2969 24.23 30.1809 24.5C30.0369 24.839 29.9269 25.197 29.8549 25.565Z" fill="#787864"/>
<path d="M38.8569 39.958C38.7229 39.958 38.5889 39.948 38.4549 39.938C38.4219 39.938 38.3709 39.938 38.3089 39.928L38.2249 39.917C38.1579 39.914 38.0979 39.903 38.0399 39.892C37.9539 39.882 37.8859 39.874 37.8089 39.849C37.7859 39.846 37.7339 39.842 37.6739 39.825C37.6249 39.821 37.5749 39.812 37.5269 39.798L37.4389 39.774C37.3979 39.769 37.3469 39.757 37.2929 39.731L37.3569 39.364L37.1679 39.699C37.1009 39.678 37.0559 39.664 37.0239 39.653C36.9849 39.643 36.9429 39.629 36.8999 39.614C36.8029 39.583 36.7519 39.566 36.6989 39.539L36.6839 39.531C36.6489 39.523 36.6129 39.51 36.5739 39.491C36.5429 39.488 36.4509 39.45 36.3479 39.398C36.2149 39.346 36.0529 39.271 35.8909 39.184C35.8349 39.162 35.7519 39.115 35.6699 39.068C35.3679 38.907 35.0759 38.72 34.7739 38.511C34.6759 38.446 34.5609 38.365 34.4579 38.272C34.4019 38.239 34.3049 38.164 34.2079 38.089C34.1939 38.084 34.1499 38.048 34.1089 38.014C34.0759 37.988 34.0419 37.961 34.0109 37.93C33.9389 37.876 33.8759 37.821 33.8119 37.757L33.7029 37.668C33.4809 37.466 33.3129 37.308 33.1549 37.14C32.8609 36.856 32.5819 36.532 32.3499 36.253C32.2119 36.107 32.0819 35.944 31.9519 35.76L31.5229 35.174C31.0349 34.483 30.5969 33.73 30.2189 32.935L30.8969 32.614C31.2729 33.406 31.7129 34.154 32.2029 34.836L32.5579 35.32C32.6749 35.484 32.7849 35.622 32.9119 35.759C33.1449 36.037 33.4069 36.343 33.6879 36.614C33.8439 36.779 33.9949 36.921 34.1559 37.063L34.3439 37.23C34.3879 37.274 34.4329 37.312 34.4849 37.348L34.6679 37.498C34.7509 37.562 34.8329 37.626 34.9159 37.681C35.0339 37.782 35.1189 37.841 35.1949 37.891C35.4789 38.087 35.7469 38.26 36.0339 38.413C36.1019 38.452 36.1589 38.485 36.2169 38.51C36.3819 38.596 36.5189 38.661 36.6569 38.716C36.6679 38.721 36.6789 38.727 36.6899 38.732L36.7409 38.681L37.3019 38.958C37.3329 38.965 37.3689 38.977 37.4059 38.989L37.8569 39.099C37.8959 39.112 37.9349 39.117 37.9799 39.123L38.4409 39.191C38.8129 39.21 38.9709 39.21 39.2009 39.192L39.5449 39.155L39.7629 39.502L39.6719 39.138C39.7739 39.117 39.8209 39.109 39.8759 39.094L40.1819 39.023C40.3189 38.986 40.4549 38.951 40.5889 38.897C40.7289 38.853 40.8389 38.811 40.9409 38.76C41.0549 38.721 41.1039 38.698 41.1609 38.67C41.2599 38.625 41.3349 38.587 41.4109 38.55C41.4969 38.515 41.5479 38.486 41.6089 38.448C41.7319 38.385 41.8329 38.329 41.9239 38.274C42.0609 38.195 42.1919 38.122 42.3209 38.03C42.5989 37.842 42.8699 37.637 43.1309 37.425C43.2029 37.373 43.2479 37.336 43.2929 37.291L43.5599 37.065C43.7209 36.923 43.8719 36.781 44.0149 36.629C44.3089 36.344 44.5709 36.039 44.7899 35.776C44.9319 35.623 45.0409 35.485 45.1519 35.33L45.5109 34.84C46.0129 34.128 46.4489 33.382 46.8089 32.625L47.1379 32.781L47.5229 32.776L47.4869 32.946C47.1259 33.707 46.6909 34.456 46.1929 35.174V35.181L45.7579 35.771C45.6339 35.946 45.5039 36.109 45.3529 36.271C45.1349 36.534 44.8559 36.858 44.5489 37.155C44.4039 37.31 44.2359 37.468 44.0569 37.626L43.8249 37.821C43.7499 37.895 43.6749 37.957 43.5869 38.02C43.3269 38.232 43.0379 38.449 42.7499 38.645C42.6059 38.748 42.4559 38.834 42.3049 38.92C42.2039 38.981 42.0849 39.045 41.9769 39.1C41.9219 39.137 41.8269 39.193 41.7109 39.236C41.6629 39.263 41.5779 39.305 41.4819 39.347C41.3939 39.392 41.3019 39.429 41.2119 39.455C41.1379 39.499 40.9879 39.557 40.8389 39.603C40.7319 39.647 40.6069 39.684 40.4779 39.719L40.4389 39.76L40.2669 39.77L40.2679 39.773C40.1929 39.803 40.1149 39.821 40.0359 39.828C39.9689 39.845 39.9089 39.855 39.8489 39.865C39.8299 39.876 39.7619 39.884 39.7109 39.89C39.6389 39.902 39.5749 39.912 39.5179 39.917L39.4279 39.926C39.3569 39.941 39.2949 39.941 39.2479 39.941C39.1229 39.949 38.9899 39.958 38.8569 39.958Z" fill="#787864"/>
<path d="M42.7339 18.021C41.2079 18.021 39.9659 16.78 39.9659 15.254C39.9659 13.728 41.2079 12.486 42.7339 12.486C44.2599 12.486 45.5009 13.728 45.5009 15.254C45.5019 16.78 44.2599 18.021 42.7339 18.021ZM42.7339 13.236C41.6219 13.236 40.7159 14.141 40.7159 15.254C40.7159 16.366 41.6209 17.271 42.7339 17.271C43.8459 17.271 44.7509 16.366 44.7509 15.254C44.7519 14.142 43.8469 13.236 42.7339 13.236Z" fill="#787864"/>
<path d="M10.4469 30.773C9.8969 32.343 10.2069 34.203 11.9669 35.773C15.1069 38.573 22.2969 37.063 25.6569 35.603C26.9469 35.043 28.7669 33.943 30.5569 32.773C33.2769 31.003 35.9569 29.063 36.7169 28.513L36.7269 28.503C36.8569 28.403 36.9269 28.353 36.9269 28.353L10.4469 30.773Z" fill="white"/>
<path d="M17.3069 37.727C15.1479 37.727 13.0999 37.285 11.7179 36.054C10.0149 34.534 9.42292 32.565 10.0929 30.65L10.8009 30.898C10.4689 31.846 10.2109 33.705 12.2169 35.494C15.0689 38.035 21.8329 36.857 25.5079 35.26C26.6159 34.779 28.2459 33.837 30.3529 32.46C32.1649 31.281 34.2319 29.851 36.4979 28.21C36.6359 28.101 36.7099 28.049 36.7099 28.049L37.1459 28.659L36.9579 28.801C34.6629 30.466 32.5849 31.903 30.7639 33.089C28.6219 34.488 26.9549 35.451 25.8079 35.948C23.9459 36.756 20.5059 37.726 17.3069 37.727Z" fill="#787864"/>
<path d="M36.9289 27.506C30.2139 27.506 15.0489 17.296 9.27188 18.345C5.75988 18.984 2.85388 22.604 5.24588 26.922C7.72988 31.406 16.5979 32.56 21.0589 32.231C25.8119 31.881 36.9299 28.438 36.9299 28.438L36.9289 27.506Z" fill="white"/>
<path d="M19.5359 32.66C15.2489 32.66 7.34589 31.49 4.91689 27.105C3.84789 25.175 3.70889 23.164 4.52489 21.441C5.35989 19.678 7.15289 18.351 9.20389 17.977C9.50289 17.923 9.83189 17.895 10.1839 17.895C13.4209 17.895 18.3919 20.146 23.6529 22.53C28.6459 24.792 33.8089 27.131 36.9279 27.131H37.3039V28.715L37.0399 28.797C36.5839 28.938 25.8279 32.257 21.0859 32.605C20.6139 32.641 20.0929 32.66 19.5359 32.66ZM10.1839 18.645C9.87689 18.645 9.59289 18.668 9.33789 18.715C7.52089 19.046 5.93689 20.213 5.20289 21.762C4.70089 22.822 4.35689 24.546 5.57389 26.741C7.54089 30.292 14.1899 31.909 19.5359 31.909C20.0729 31.909 20.5749 31.891 21.0309 31.858C25.2829 31.545 34.8429 28.682 36.5539 28.162V27.871C33.2569 27.704 28.2209 25.422 23.3439 23.213C18.3859 20.968 13.2599 18.645 10.1839 18.645Z" fill="#787864"/>
<path d="M28.2929 3.551C27.3139 3.551 26.5169 2.755 26.5169 1.776C26.5169 0.796999 27.3139 0 28.2929 0C29.2719 0 30.0679 0.796999 30.0679 1.776C30.0679 2.754 29.2719 3.551 28.2929 3.551ZM28.2929 0.75C27.7279 0.75 27.2669 1.21 27.2669 1.776C27.2669 2.341 27.7269 2.801 28.2929 2.801C28.8579 2.801 29.3179 2.341 29.3179 1.776C29.3179 1.21 28.8579 0.75 28.2929 0.75Z" fill="#787864"/>
<path d="M49.4159 3.551C48.4369 3.551 47.6409 2.755 47.6409 1.776C47.6409 0.796999 48.4369 0 49.4159 0C50.3949 0 51.1909 0.796999 51.1909 1.776C51.1899 2.754 50.3939 3.551 49.4159 3.551ZM49.4159 0.75C48.8509 0.75 48.3909 1.21 48.3909 1.776C48.3909 2.341 48.8509 2.801 49.4159 2.801C49.9809 2.801 50.4409 2.341 50.4409 1.776C50.4399 1.21 49.9809 0.75 49.4159 0.75Z" fill="#787864"/>
<path d="M67.2569 30.773C67.8069 32.343 67.4969 34.203 65.7369 35.773C62.5969 38.573 55.4169 37.063 52.0469 35.603C50.7569 35.043 48.9469 33.943 47.1469 32.783V32.773C44.4369 31.013 41.7669 29.073 40.9969 28.513C40.8569 28.413 40.7769 28.353 40.7769 28.353L67.2569 30.773Z" fill="white"/>
<path d="M60.4019 37.723C57.2029 37.723 53.7609 36.755 51.8989 35.948C50.7829 35.464 49.2089 34.558 46.9449 33.099L46.7729 32.977C44.9939 31.816 42.9779 30.417 40.7769 28.817L40.5539 28.655L41.0009 28.053L41.2149 28.208C43.4779 29.854 45.5419 31.284 47.3509 32.459L47.5219 32.579C49.6589 33.951 51.1469 34.805 52.1959 35.26C55.8739 36.852 62.6419 38.029 65.4869 35.494C67.4929 33.704 67.2349 31.846 66.9029 30.898L67.6109 30.65C68.2819 32.565 67.6899 34.534 65.9859 36.054C64.6089 37.282 62.5599 37.723 60.4019 37.723Z" fill="#787864"/>
<path d="M40.7799 27.506C47.4949 27.506 62.6599 17.296 68.4369 18.345C71.9499 18.984 74.8559 22.604 72.4629 26.922C69.9789 31.406 61.1109 32.56 56.6499 32.231C51.8969 31.881 40.7789 28.438 40.7789 28.438L40.7799 27.506Z" fill="white"/>
<path d="M58.1729 32.66C57.6159 32.66 57.0949 32.641 56.6229 32.607C51.8819 32.258 41.1249 28.94 40.6689 28.799L40.4049 28.717V27.133H40.7799C43.8999 27.133 49.0629 24.794 54.0549 22.532C59.3169 20.148 64.2859 17.897 67.5239 17.897C67.8759 17.897 68.2049 17.924 68.5029 17.979C70.5539 18.353 72.3469 19.68 73.1829 21.443C73.9989 23.166 73.8599 25.177 72.7909 27.107C70.3619 31.49 62.4589 32.66 58.1729 32.66ZM41.1549 28.162C42.8669 28.682 52.4269 31.546 56.6779 31.858C57.1339 31.892 57.6359 31.909 58.1729 31.909C63.5189 31.909 70.1679 30.292 72.1349 26.741C73.3509 24.546 73.0079 22.821 72.5059 21.762C71.7719 20.213 70.1879 19.046 68.3699 18.715C68.1159 18.669 67.8309 18.645 67.5239 18.645C64.4489 18.645 59.3219 20.967 54.3649 23.213C49.4889 25.422 44.4519 27.704 41.1549 27.871V28.162Z" fill="#787864"/>
<path d="M41.8429 11.704C42.5789 7.68598 46.5539 4.28798 48.5099 2.83598C48.3289 2.68098 48.1879 2.48398 48.1049 2.25598C46.0989 3.72798 42.0479 7.16198 41.1859 11.392C41.4079 11.485 41.6269 11.589 41.8429 11.704Z" fill="#787864"/>
<path d="M35.8649 11.703C36.0809 11.588 36.2999 11.485 36.5219 11.391C35.6589 7.16101 31.6089 3.727 29.6029 2.255C29.5199 2.483 29.3789 2.68 29.1979 2.835C31.1549 4.288 35.1289 7.683 35.8649 11.703Z" fill="#787864"/>
<path d="M56.2999 6.32703C56.2579 6.38003 53.8009 9.48603 53.7599 9.53803C53.7559 9.62103 53.3739 16.265 53.2979 17.574C52.4389 18.292 47.8569 22.126 46.9999 22.848C47.3489 23.293 47.6439 23.795 47.8729 24.359C47.9449 24.318 48.0179 24.284 48.0859 24.217C48.3649 23.939 54.0259 18.303 54.3039 18.026C54.2949 17.715 54.0779 10.216 54.0609 9.63903L56.2999 6.32703Z" fill="#787864"/>
<path d="M29.6789 24.268C29.7309 24.311 29.7839 24.325 29.8369 24.354C30.0659 23.791 30.3609 23.29 30.7099 22.845L24.4099 17.573C24.3349 16.265 23.9539 9.61999 23.9489 9.53699C23.9089 9.48499 21.4489 6.37699 21.4079 6.32599L23.6479 9.63799C23.6309 10.216 23.4129 17.715 23.4039 18.025C23.4379 18.06 29.6419 24.237 29.6789 24.268Z" fill="#787864"/>
<path d="M44.6629 21.375L44.4639 21.274C42.9739 20.52 41.0339 20.121 38.8539 20.121C36.6739 20.121 34.7339 20.52 33.2439 21.274L33.0449 21.375L32.8609 21.248C31.2789 20.153 30.7179 18.654 30.7179 17.705C30.7179 15.123 34.8189 10.503 38.8529 10.503C42.8879 10.503 46.9889 15.123 46.9889 17.705C46.9889 18.655 46.4279 20.153 44.8459 21.248L44.6629 21.375ZM38.8539 11.253C35.1759 11.253 31.4689 15.677 31.4689 17.705C31.4689 18.298 31.8209 19.527 33.1119 20.504C34.6759 19.763 36.6549 19.372 38.8539 19.372C41.0529 19.372 43.0319 19.763 44.5959 20.504C45.8879 19.527 46.2399 18.298 46.2399 17.705C46.2399 15.677 42.5319 11.253 38.8539 11.253Z" fill="#787864"/>
<path d="M30.0059 39.187C30.1849 38.561 30.3829 37.958 30.6179 37.401C30.6919 37.224 30.7839 37.073 30.8629 36.903C29.6299 37.527 27.5329 38.749 23.7639 40.812C23.6609 41.154 20.4599 51.818 20.1319 52.909L14.1729 55.281C14.3219 55.232 20.3089 53.276 20.4579 53.228C20.5119 53.085 24.1259 43.327 24.7439 41.657C25.4509 41.324 28.0069 40.125 30.0059 39.187Z" fill="#787864"/>
<path d="M29.2889 44.452C29.2889 44.258 29.2889 44.064 29.3009 43.87C29.3179 43.246 29.3619 42.645 29.4279 42.066C29.4199 42.073 29.4099 42.074 29.4019 42.082C29.0099 42.456 26.1829 45.149 25.7939 45.519C25.7919 45.974 25.7249 60.511 25.7189 61.679L21.8739 65.374C21.9619 65.3 25.9879 61.92 26.0759 61.846C26.0849 61.722 27.0429 48.431 27.2049 46.184C27.6089 45.85 28.5099 45.101 29.2889 44.452Z" fill="#787864"/>
<path d="M63.5359 55.281L57.5769 52.909C57.2489 51.817 54.0449 41.147 53.9449 40.811C53.9189 40.796 48.9139 38.05 46.8589 36.924C46.9339 37.087 47.0229 37.231 47.0929 37.4C47.3329 37.968 47.5339 38.587 47.7149 39.228C48.9479 39.8 50.6479 40.571 52.9649 41.657C53.5829 43.328 57.1979 53.086 57.2509 53.227C57.3909 53.273 63.3889 55.233 63.5359 55.281Z" fill="#787864"/>
<path d="M55.8329 65.375L51.9889 61.68C51.9839 60.517 51.9159 45.977 51.9139 45.52C51.8949 45.502 48.4979 42.267 48.2819 42.062C48.3479 42.642 48.3919 43.244 48.4099 43.87C48.4219 44.064 48.4219 44.259 48.4219 44.454L50.5039 46.185C50.6659 48.431 51.6239 61.723 51.6319 61.848C51.7199 61.921 55.7449 65.301 55.8329 65.375Z" fill="#787864"/>
<path d="M38.8519 63.066C37.9179 63.066 34.6179 59.804 32.1469 55.469C30.8929 53.279 29.9889 51.069 29.4619 48.902C29.0969 47.428 28.9119 45.961 28.9119 44.542C28.9119 44.31 28.9119 44.078 28.9269 43.846C28.9929 41.435 29.4459 39.213 30.2719 37.255C30.6069 36.45 31.0249 35.685 31.5849 34.849L31.8889 34.395L32.2029 34.841C34.1019 37.535 36.6499 39.209 38.8539 39.209C41.0579 39.209 43.6069 37.535 45.5059 34.839L45.8199 34.393L46.1239 34.846C46.6849 35.682 47.1019 36.448 47.4389 37.255C48.2639 39.21 48.7169 41.432 48.7849 43.859C48.7989 44.078 48.7989 44.31 48.7989 44.542C48.7989 45.962 48.6139 47.43 48.2479 48.903C47.7239 51.063 46.8199 53.273 45.5639 55.468C43.0919 59.804 39.7889 63.066 38.8519 63.066ZM31.9149 35.719C31.5259 36.341 31.2189 36.931 30.9639 37.545C30.1729 39.419 29.7409 41.55 29.6759 43.881C29.6609 44.11 29.6619 44.327 29.6619 44.543C29.6619 45.901 29.8399 47.308 30.1899 48.724C30.7009 50.824 31.5789 52.968 32.7979 55.098C35.3099 59.505 38.2849 62.193 38.8519 62.316C39.4199 62.192 42.3999 59.504 44.9119 55.099C46.1339 52.964 47.0109 50.82 47.5189 48.726C47.8699 47.31 48.0479 45.903 48.0479 44.543C48.0479 44.327 48.0479 44.109 48.0349 43.894C47.9699 41.549 47.5359 39.417 46.7469 37.547C46.4909 36.931 46.1839 36.34 45.7939 35.717C43.7719 38.384 41.2069 39.96 38.8539 39.96C36.5009 39.96 33.9369 38.384 31.9149 35.719Z" fill="#787864"/>
<path d="M43.7389 37.4C42.2239 38.744 40.5099 39.585 38.8539 39.585C37.1979 39.585 35.4839 38.745 33.9689 37.4H30.6169C29.8609 39.192 29.3699 41.342 29.3009 43.87H48.4089C48.3389 41.342 47.8479 39.192 47.0919 37.4H43.7389Z" fill="#FF9600"/>
<path d="M48.7949 44.245H28.9149L28.9259 43.86C28.9929 41.435 29.4459 39.213 30.2719 37.255L30.3689 37.025H34.1119L34.2179 37.12C35.7369 38.468 37.3839 39.21 38.8539 39.21C40.3239 39.21 41.9709 38.468 43.4899 37.12L43.5959 37.025H47.3409L47.4379 37.254C48.2639 39.211 48.7159 41.433 48.7839 43.86L48.7949 44.245ZM29.6899 43.495H48.0199C47.9249 41.407 47.5289 39.485 46.8409 37.775H43.8789C42.2299 39.205 40.4949 39.96 38.8529 39.96C37.2109 39.96 35.4759 39.205 33.8269 37.775H30.8679C30.1809 39.487 29.7849 41.408 29.6899 43.495Z" fill="#787864"/>
</g>
<defs>
<filter id="filter0_d_1_378" x="0" y="0" width="77.7078" height="73.375" filterUnits="userSpaceOnUse" color-interpolation-filters="sRGB">
<feFlood flood-opacity="0" result="BackgroundImageFix"/>
<feColorMatrix in="SourceAlpha" type="matrix" values="0 0 0 0 0 0 0 0 0 0 0 0 0 0 0 0 0 0 127 0" result="hardAlpha"/>
<feOffset dy="4"/>
<feGaussianBlur stdDeviation="2"/>
<feComposite in2="hardAlpha" operator="out"/>
<feColorMatrix type="matrix" values="0 0 0 0 0 0 0 0 0 0 0 0 0 0 0 0 0 0 0.25 0"/>
<feBlend mode="normal" in2="BackgroundImageFix" result="effect1_dropShadow_1_378"/>
<feBlend mode="normal" in="SourceGraphic" in2="effect1_dropShadow_1_378" result="shape"/>
</filter>
</defs>
</svg>
